<svg width="784" height="355" xmlns="http://www.w3.org/2000/svg" xmlns:xlink="http://www.w3.org/1999/xlink"><defs><path id="a" d="M254.932 354.445V0H0v354.445h254.932z"/></defs><g fill="none" fill-rule="evenodd"><g fill="#15A338"><path d="M74.4 217.4h59.2v-60h66v60h38v54h-38V333h-66v-61.6H.8v-47.6L89.2 53h68.4zM701 166.6l13.2 2c40.8 6.4 69.6 33.2 69.6 76.4 0 53.6-42 91.2-107.2 91.2-38.4 0-78.8-13.6-104.4-34l28.8-54c20.8 22.4 44.8 34 70 34 28 0 43.2-13.6 43.2-36.4 0-23.6-15.6-35.2-43.6-35.2h-44.8v-38l62.4-64.8h-102V53.4H771v40.4l-70 72.8z"/></g><g transform="translate(269 .1)"><mask id="b" fill="#fff"><use xlink:href="#a"/></mask><path d="M183.356 112.487c-16.899-8.258-35.81-13.04-55.896-13.04-20.07 0-38.99 4.782-55.88 13.04v-10.123c.09-29.468 25.064-53.389 55.88-53.389 30.823 0 55.806 23.921 55.896 53.389v10.123zM127.46 286.506c-32.87 0-59.52-26.657-59.52-59.543 0-32.894 26.65-59.543 59.52-59.543 32.885 0 59.535 26.65 59.535 59.543 0 32.886-26.65 59.543-59.535 59.543zm102.353-135.331v-53.01h-.205C227.365 43.56 182.568 0 127.46 0 71.736 0 26.494 44.587 25.229 100.054h-.115v51.12C9.406 172.393 0 198.524 0 226.965c0 70.414 57.063 127.483 127.46 127.483 70.404 0 127.476-57.07 127.476-127.484 0-28.44-9.415-54.571-25.123-75.788z" fill="#15A338" mask="url(#b)"/></g><path d="M396.708 198C381.96 198 370 209.973 370 224.723c0 14.766 11.961 26.723 26.708 26.723 14.754 0 26.716-11.957 26.716-26.723 0-14.75-11.962-26.723-26.716-26.723" fill="#15A338"/></g></svg>
