<?xml version="1.0" encoding="UTF-8"?>
<svg width="337px" height="321px" viewBox="0 0 337 321" version="1.1" xmlns="http://www.w3.org/2000/svg" xmlns:xlink="http://www.w3.org/1999/xlink">
    <!-- Generator: Sketch 48.2 (47327) - http://www.bohemiancoding.com/sketch -->
    <title>error503</title>
    <desc>Created with Sketch.</desc>
    <defs></defs>
    <g id="503" stroke="none" stroke-width="1" fill="none" fill-rule="evenodd" transform="translate(-640.000000, -436.000000)">
        <g id="error503" transform="translate(677.000000, 448.000000)" stroke="#15A338">
            <path d="M23,78 C23,78 0.472708484,58.7674286 12.569864,33.4285714 C22.3467086,12.9257143 12.5698641,0 12.5698641,0" id="Shape" stroke-width="24" stroke-linecap="round" stroke-linejoin="round"></path>
            <path d="M105,78 C105,78 82.515107,58.7674286 94.5894946,33.4285714 C104.347938,12.9257143 91,0 91,0" id="Shape" stroke-width="24" stroke-linecap="round" stroke-linejoin="round"></path>
            <path d="M184,78 C184,78 162.117131,58.7674286 173.868231,33.4285714 C183.365397,12.9257143 170,0 170,0" id="Shape" stroke-width="24" stroke-linecap="round" stroke-linejoin="round"></path>
            <path d="M216.747698,117.502501 C216.816054,117.501636 216.816054,117.501636 216.914009,117.500836 C217.752363,117.495016 218.875668,117.515107 220.247365,117.57846 C222.273569,117.672042 224.466592,117.844732 226.791846,118.115862 C233.348315,118.880359 239.918816,120.288968 246.256007,122.56612 C255.378326,125.844057 263.323498,130.674554 269.530968,137.535503 C277.281082,146.101495 281.5,157.058686 281.5,169.686689 C281.5,181.130077 276.974862,191.199601 269.158994,199.342184 C263.362264,205.381227 256.05231,210.113117 247.592891,213.920546 C241.478569,216.67249 235.09011,218.791782 228.722361,220.401814 C226.502828,220.963004 224.429572,221.424297 222.543378,221.79491 C221.343629,222.030646 220.421671,222.191016 219.819764,222.283843 L198.5,225.571812 L198.5,117.751385 L216.747698,117.502501 Z M198.022116,134.417042 C198.044416,134.676705 198.075444,135.079942 198.111936,135.619961 C198.168252,136.453331 198.223453,137.409499 198.274253,138.48171 C199.28809,159.880271 197.508718,184.815295 190.549878,209.096749 C184.243903,231.100167 174.218648,249.842298 159.580557,264.032921 C141.845328,281.226006 118.461725,290.5 89.9575722,290.5 C61.5953781,290.5 38.299342,281.214477 20.6050574,264.016028 C6.01737351,249.837125 -4.00776548,231.115642 -10.356649,209.133315 C-17.4115137,184.706603 -19.2561999,159.6517 -18.3028627,138.280133 C-18.2255633,136.547261 -18.1442647,135.272186 -18.0818103,134.502935 L-16.7013644,117.5 L196.569277,117.5 L198.022116,134.417042 Z" id="Combined-Shape" stroke-width="37"></path>
        </g>
    </g>
</svg>
