<svg width="798" height="299" xmlns="http://www.w3.org/2000/svg"><g fill="#15A338" fill-rule="evenodd"><path d="M74.4 178.4h59.2v-60h66v60h38v54h-38V294h-66v-61.6H.8v-47.6L89.2 14h68.4zM634.4 178.4h59.2v-60h66v60h38v54h-38V294h-66v-61.6H560.8v-47.6L649.2 14h68.4zM459.291 137.33c-14.026 0-25.407-11.337-25.407-25.346 0-13.993 11.38-25.347 25.407-25.347 14.028 0 25.407 11.354 25.407 25.347 0 14.01-11.38 25.346-25.407 25.346m-143.974-25.346c0-13.993 11.38-25.347 25.407-25.347 14.028 0 25.407 11.354 25.407 25.347 0 14.01-11.38 25.346-25.407 25.346-14.026 0-25.407-11.337-25.407-25.346M400 0C272.963 0 273 118.282 273 118.282v180.455l31.773-42.199 31.718 42.2 31.722-42.2 31.724 42.2 31.723-42.2 31.725 42.2 31.75-42.2 31.864 42.2V118.281S527.036 0 400 0"/></g></svg>
