<svg width="862" height="295" xmlns="http://www.w3.org/2000/svg" xmlns:xlink="http://www.w3.org/1999/xlink"><defs><path id="a" d="M0 291.938h320.326V0H0z"/></defs><g fill="none" fill-rule="evenodd"><path d="M207.8 61.4H89v45.2h25.2c64 0 106 34.4 106 84.4 0 58.8-44 96.8-111.6 96.8-36.8 0-78.8-14-108-34.8L29 199c20.8 22.4 46 34.4 71.2 34.4 27.6 0 43.6-13.6 43.6-37.6 0-22-16-34.8-43.6-34.8-14.4 0-58.8.8-76 2V5h183.6v56.4zM737.8.6c79.2 0 123.6 50.8 123.6 142 0 91.6-44.4 142.4-123.6 142.4-80 0-124.4-50.8-124.4-142.4 0-91.2 44.4-142 124.4-142zm0 52c-36 0-51.2 26-51.2 90s15.2 90.4 51.2 90.4c35.2 0 50.8-26.4 50.8-90.4s-15.6-90-50.8-90z" fill="#15A338"/><g transform="translate(259 3)"><path d="M201.573 225.61c2.054-2.432 3.08-5.84 3.08-10.222v-17.307h-27.28v17.307c0 4.382 1.11 7.79 3.331 10.222 2.222 2.432 5.742 3.648 10.56 3.648 4.82 0 8.256-1.216 10.31-3.648zm-33.377 14.657c-4.526-5.38-6.789-13.063-6.789-23.05v-19.136H100V179h120.745v39.465c0 9.097-2.389 16.351-7.166 21.76-4.777 5.41-12.173 8.113-22.189 8.113-10.937 0-18.669-2.691-23.194-8.07z" fill="#2B3E51"/><mask id="b" fill="#fff"><use xlink:href="#a"/></mask><path d="M89.126 43.769h201.197V29.325H89.126V43.77zM29.562 262.612h260.76V73.094H29.563v189.518zm7.264-233.63c4.037 0 7.309 3.245 7.309 7.25 0 4.003-3.272 7.25-7.309 7.25-4.036 0-7.308-3.247-7.308-7.25 0-4.005 3.272-7.25 7.308-7.25zm30.003 0c4.037 0 7.309 3.245 7.309 7.25 0 4.003-3.272 7.25-7.309 7.25-4.036 0-7.308-3.247-7.308-7.25 0-4.005 3.272-7.25 7.308-7.25zM14.896 0C6.718 0 0 6.358 0 14.473v262.912c0 8.112 6.718 14.553 14.896 14.553h290.437c8.184 0 14.993-6.44 14.993-14.553V14.473c0-8.115-6.81-14.473-14.993-14.473H14.896z" fill="#15A338" mask="url(#b)"/><path fill="#2B3E51" mask="url(#b)" d="M125.223 139.58l-18.367-18.226 18.364-18.22L112.97 91l-18.365 18.217L76.244 91 64 103.135l18.366 18.227L64 139.58l12.244 12.145 18.362-18.217 18.372 18.217zM257.223 139.58l-18.367-18.226 18.364-18.22L244.97 91l-18.365 18.217L208.244 91 196 103.135l18.366 18.227L196 139.58l12.244 12.145 18.362-18.217 18.372 18.217z"/></g></g></svg>
