<svg xmlns="http://www.w3.org/2000/svg" width="120" height="133"><g fill="none" fill-rule="evenodd"><path fill="#9B9B9B" d="M70.852 56.305l-2.473-1.452-.798-.468-.362.85-.292.686c-1.16 2.724-3.467 4.416-6.02 4.416-2.553 0-4.86-1.692-6.02-4.416l-.292-.685-.362-.85-.798.467-2.473 1.452-.617.363.28.658.292.684c1.89 4.442 5.718 7.2 9.99 7.2 4.27 0 8.098-2.758 9.99-7.2l.292-.684.28-.658-.617-.363zm-27.526-1.452l-.797-.468-.363.85-.292.686c-1.16 2.724-3.467 4.416-6.02 4.416-2.553 0-4.86-1.692-6.02-4.416l-.291-.685-.363-.85-.797.467-2.474 1.452-.617.363.28.658.292.684c1.89 4.442 5.719 7.2 9.99 7.2 4.27 0 8.099-2.758 9.99-7.2l.292-.684.28-.658-.616-.363-2.474-1.452zm5.462 24.516a3.874 3.874 0 1 0 0 7.747 3.874 3.874 0 0 0 0-7.747M119.865 40.59v2.737h-10.948v-2.144l6.25-7.39h-6.09v-2.738h10.584v2.144l-6.25 7.391zM114.389 16.136l.002 4.632-18.529.008-.001-3.628 10.572-12.513-10.307.005-.002-4.632L114.037 0l.001 3.628-10.572 12.513z"/><path fill="#DEDEDE" fill-opacity=".7" d="M15.983 38.613c-4.327 0-7.847 3.523-7.847 7.853l.988 70.28 10.53-13.508a4.068 4.068 0 0 1 3.208-1.567h60.856c4.327 0 7.847-3.519 7.847-7.844l-.989-47.36c0-4.33-3.52-7.854-7.847-7.854H15.983zM5.056 132.65a4.067 4.067 0 0 1-4.067-4.068L0 46.466c0-8.816 7.17-15.988 15.983-15.988H82.73c8.814 0 15.983 7.172 15.983 15.988l.989 47.36c0 8.812-7.17 15.98-15.983 15.98h-58.87L8.266 131.084a4.069 4.069 0 0 1-3.21 1.567z"/></g></svg>