<svg xmlns="http://www.w3.org/2000/svg" viewBox="0 0 80 80"><defs><radialGradient id="a" cx="37.4" cy="38.6" r="37.5" gradientUnits="userSpaceOnUse"><stop offset="0" stop-color="#ed6c70" stop-opacity=".7"/><stop offset=".3" stop-color="#ed6c70" stop-opacity=".5"/><stop offset=".8" stop-color="#ed6c70" stop-opacity=".1"/><stop offset="1" stop-color="#ed6c70" stop-opacity="0"/></radialGradient><radialGradient id="b" cx="37.4" cy="38.6" r="37.5" gradientUnits="userSpaceOnUse"><stop offset="0" stop-color="#fcea1c" stop-opacity=".2"/><stop offset=".8" stop-color="#fcea1c" stop-opacity=".1"/><stop offset="1" stop-color="#fcea1c" stop-opacity="0"/></radialGradient></defs><circle data-name="&lt;Pfad&gt;" cx="40" cy="40" r="40" fill="#dedc03"/><ellipse data-name="&lt;Pfad&gt;" cx="38.4" cy="38.7" rx="37.4" ry="37.6" fill="#fcea1c"/><ellipse data-name="&lt;Pfad&gt;" cx="37.4" cy="38.6" rx="37.4" ry="37.6" fill="url(#a)"/><ellipse data-name="&lt;Pfad&gt;" cx="37.4" cy="38.6" rx="37.4" ry="37.6" fill="url(#b)"/><ellipse cx="26.4" cy="40.2" rx="4" ry="7.7" fill="#303030"/><ellipse cx="50.4" cy="39.8" rx="4" ry="7.7" fill="#303030"/><path d="M14.5 27S29.2 25.3 33 37c.2.4 0 .6-.4 0a22.8 22.8 0 0 0-18-6.7V27zM62 27s-14.5-1.8-18.4 10c0 .4 0 .6.4 0a22.8 22.8 0 0 1 18.2-6.7V27zM39.8 55.5c8.8 0 13.4 7.7 13.4 11.6a.8.8 0 0 1-1 1s-5-6-12.4-6-12.4 6-12.4 6a.8.8 0 0 1-1-1c0-3.8 4.6-11.5 13.4-11.5z" fill="#303030"/></svg>