<svg xmlns="http://www.w3.org/2000/svg" viewBox="0 0 80 80"><circle data-name="&lt;Pfad&gt;" cx="40" cy="40.1" r="40" fill="#cac9c9"/><ellipse data-name="&lt;Pfad&gt;" cx="38.4" cy="38.8" rx="37.4" ry="37.6" fill="#d7d8d8"/><path d="M39.8 55.6c8.8 0 13.4 7.7 13.4 11.6a.8.8 0 0 1-1 1s-5-6-12.4-6-12.4 6-12.4 6a.8.8 0 0 1-1-1c0-4 4.6-11.6 13.4-11.6z" fill="#303030"/><ellipse cx="26.4" cy="40.3" rx="4" ry="7.7" fill="#303030"/><ellipse cx="50.4" cy="39.9" rx="4" ry="7.7" fill="#303030"/><path d="M14.5 27.2s14.7-2 18.6 10c.2.3 0 .5-.4 0a22.8 22.8 0 0 0-18-6.8v-3.2zm47.5 0s-14.5-2-18.4 10c0 .3 0 .5.4 0a22.8 22.8 0 0 1 18.2-6.8v-3.2z" fill="#303030"/></svg>