<svg xmlns="http://www.w3.org/2000/svg" viewBox="0 0 80 80"><circle data-name="&lt;Pfad&gt;" cx="40" cy="40" r="40" fill="#cbc9c9"/><ellipse data-name="&lt;Pfad&gt;" cx="38.5" cy="38.1" rx="37.4" ry="37.6" fill="#d7d7d7"/><path d="M15.8 24.5v3.2s10 1.3 12-11c0 0-6 8.8-12 7.8zm48.4 0v3.2s-10 1-12-11c0 0 6 9 12 7.8zm-23.8 27c13 0 18.4 7.7 18.4 11.6a2 2 0 0 1-2 2c-1 0-9-6-16.4-6S25 65 24 65a2 2 0 0 1-2-2c0-3.8 5.4-11.5 18.4-11.5z" fill="#303030"/><path d="M40.5 55a7.5 7.5 0 0 1 7.6 5.7 21 21 0 0 0-7.6-1.7 21.5 21.5 0 0 0-7.5 1.7 7.4 7.4 0 0 1 7.5-5.8z" fill="#ed6b70"/><path d="M35.6 42.2s-4.2-3-11.4-3-11.4 3-11.4 3S14.6 35 24.2 35s11.4 7 11.4 7zm32.4 0s-4-3-11.3-3-11.4 3-11.4 3S47 35 56.7 35 68 42 68 42z" fill="#303030"/><path d="M13.8 42.5v35c0 3.4 6 3.4 6 0v-35c0-3.7-6-3.7-6-.4v.5zm47.2 0v35c0 3.4 6 3.4 6 0v-35c0-3.7-6-3.7-6-.4v.5z" fill="#71caeb"/></svg>