<svg xmlns="http://www.w3.org/2000/svg" viewBox="0 0 80 80"><circle data-name="&lt;Pfad&gt;" cx="40.1" cy="40" r="40" fill="#dedc03"/><ellipse data-name="&lt;Pfad&gt;" cx="38.4" cy="38.7" rx="37.4" ry="37.6" fill="#fcea1c"/><path d="M17.6 50h45.6s-3.7 19.7-22.8 19.7S17.6 50 17.6 50z" fill="#303030"/><path d="M40.4 60c8 0 9.8 7.6 9.8 7.6a22.6 22.6 0 0 1-9.8 2 22.7 22.7 0 0 1-9.7-2s1.5-7.7 9.7-7.7z" fill="#ed6b70"/><path d="M14.2 33.4s15-2.6 21.5 7.3A83.5 83.5 0 0 0 14.2 42c-10.3 2 4.6-4 14-3 0 0-.8-4-14-5.6zm51.6 0s-15-2.6-21.5 7.3A83.5 83.5 0 0 1 65.8 42c10.3 2-4.6-4-14-3 0 0 1-4 14-5.6z" fill="#303030"/></svg>