<svg xmlns="http://www.w3.org/2000/svg" viewBox="0 0 80 80"><circle data-name="&lt;Pfad&gt;" cx="40" cy="40" r="40" fill="#dedc03"/><ellipse data-name="&lt;Pfad&gt;" cx="38.4" cy="38.7" rx="37.4" ry="37.6" fill="#fcea1c"/><ellipse cx="55.8" cy="39" rx="4" ry="7.7" fill="#303030"/><ellipse cx="24.1" cy="39" rx="4" ry="7.7" fill="#303030"/><ellipse cx="24.1" cy="45.9" rx="5.7" ry=".8" fill="#303030"/><ellipse cx="55.8" cy="45.9" rx="5.7" ry=".8" fill="#303030"/><path d="M17.5 55s8.3 4 22.8 4S63 55 63 55s-3.6 14.7-22.7 14.7S17.5 55 17.5 55z" fill="#303030"/><path d="M40.3 63c8 0 9.4 5.3 9.2 5.3a28.8 28.8 0 0 1-9.2 1.4 28.8 28.8 0 0 1-9.2-1.4s1-5.4 9.3-5.4z" fill="#ed6b70"/></svg>