<svg id="new" xmlns="http://www.w3.org/2000/svg" viewBox="0 0 80 80"><style></style><circle id="XMLID_40_" cx="40" cy="40" r="40" fill="#dedc03"/><ellipse id="XMLID_39_" cx="38.4" cy="38.7" rx="37.4" ry="37.6" fill="#fcea1c"/><ellipse id="Oval" fill="#303030" cx="55.8" cy="39" rx="4" ry="7.7"/><ellipse id="Oval" fill="#303030" cx="24.1" cy="39" rx="4" ry="7.7"/><path d="M45 61.4c0-2.3-1.2-4.4-6-4.4-5 0-6 2.2-6 4.4 0 2.3 1 6.6 6 6.6 4.8 0 6-4.4 6-6.6zM51.1 19L50 16s8.9-4.6 15 6c0 0-8.6-6.1-13.9-3zM26.4 18.4l.6-3.1S17 12.6 13 24c0 0 7.5-7.6 13.4-5.6z" id="Path" fill="#303030"/></svg>