<!-- Generated by IcoMoon.io -->
<svg version="1.1" xmlns="http://www.w3.org/2000/svg" width="32" height="32" viewBox="0 0 32 32">
<title>trash</title>
<path d="M14.25 4h4c0.522 0 1.061 0.186 1.438 0.563s0.563 0.915 0.563 1.438v1h6v2h-1v16c0 1.645-1.355 3-3 3h-12c-1.645 0-3-1.355-3-3v-16h-1v-2h6v-1c0-0.522 0.185-1.061 0.563-1.438s0.915-0.563 1.438-0.563zM14.25 6v1h4v-1h-4zM9.25 9v16c0 0.555 0.445 1 1 1h12c0.555 0 1-0.445 1-1v-16h-14zM11.25 12h2v11h-2v-11zM15.25 12h2v11h-2v-11zM19.25 12h2v11h-2v-11z"></path>
</svg>
