<svg xmlns="http://www.w3.org/2000/svg" xmlns:xlink="http://www.w3.org/1999/xlink" width="120" height="131"><defs><path id="a" d="M0 .024h119.634v119.569H0z"/></defs><g fill="none" fill-rule="evenodd"><g transform="translate(0 11.271)"><mask id="b" fill="#fff"><use xlink:href="#a"/></mask><path fill="#DEDEDE" fill-opacity=".7" d="M13.085 101.253C25.835 86.874 32.21 66.935 32.21 41.436c0-2.445.576-4.96 1.726-7.549 1.15-2.588 2.804-5.057 4.96-7.405 2.157-2.348 5.07-4.278 8.736-5.788 3.667-1.51 7.729-2.264 12.187-2.264 4.457 0 8.52.754 12.185 2.264 3.667 1.51 6.578 3.44 8.735 5.788 2.158 2.348 3.811 4.817 4.962 7.405 1.15 2.588 1.725 5.104 1.725 7.55 0 25.498 6.375 45.437 19.124 59.816H13.085zm100.007-6.327c-1.966-2.204-4.003-5.068-6.11-8.591-2.111-3.523-3.896-7.321-5.358-11.396-1.462-4.073-2.66-9.01-3.594-14.81-.935-5.799-1.402-12.03-1.402-18.693 0-7.285-2.804-14.056-8.412-20.31C82.608 14.87 75.25 11.072 66.144 9.73c.383-.91.575-1.844.575-2.804 0-1.917-.672-3.547-2.013-4.889C63.364.696 61.734.024 59.818.024c-1.918 0-3.548.672-4.89 2.013-1.342 1.342-2.013 2.972-2.013 4.89 0 .959.191 1.893.576 2.803-9.108 1.342-16.465 5.14-22.073 11.396-5.608 6.254-8.411 13.025-8.411 20.31 0 6.662-.468 12.894-1.402 18.693-.935 5.8-2.133 10.737-3.595 14.81-1.463 4.075-3.248 7.873-5.357 11.396-2.11 3.523-4.146 6.387-6.11 8.591A63.175 63.175 0 0 1 0 101.253c0 2.493.91 4.65 2.732 6.47 1.82 1.823 3.978 2.733 6.471 2.733h37.949c2.065 5.345 7.25 9.137 13.323 9.137s11.257-3.792 13.322-9.137h36.635c2.492 0 4.648-.91 6.47-2.732 1.822-1.821 2.733-3.978 2.733-6.471a62.937 62.937 0 0 1-6.543-6.327z" mask="url(#b)"/></g><path fill="#9B9B9B" d="M80.066 65.602l-.797-.468-.363.85-.292.685c-1.16 2.725-3.467 4.416-6.02 4.416-2.553 0-4.86-1.691-6.02-4.415l-.291-.685-.363-.851-.798.468-2.473 1.452-.617.362.28.658.292.685c1.89 4.441 5.719 7.2 9.99 7.2 4.27 0 8.099-2.759 9.99-7.2l.292-.684.28-.659-.617-.362-2.473-1.452zm-22.243 2.473l.28-.659-.616-.362-2.474-1.452-.797-.468-.363.85-.292.685c-1.16 2.724-3.467 4.417-6.02 4.417-2.553 0-4.859-1.693-6.02-4.416l-.291-.685-.363-.851-.797.468-2.474 1.452-.617.362.28.659.293.684c1.89 4.441 5.718 7.2 9.99 7.2 4.27 0 8.098-2.759 9.99-7.2l.291-.684zm2.652 22.042a3.874 3.874 0 1 0 0 7.748 3.874 3.874 0 0 0 0-7.748M114.652 31.462h-10.585v2.737h6.091l-6.25 7.391v2.144h10.949v-2.737h-6.455l6.25-7.391zM90.854 21.183l18.528-.008-.002-4.632-10.923.004L109.03 4.035l-.002-3.628-17.913.007.002 4.632 10.307-.004-10.572 12.512z"/></g></svg>