<svg xmlns="http://www.w3.org/2000/svg" width="114" height="130"><g fill="none" fill-rule="evenodd"><path fill="#9B9B9B" d="M70.71 67.52l-2.634-1.547-.85-.5-.386.907-.311.73c-1.236 2.901-3.693 4.704-6.413 4.704s-5.177-1.803-6.412-4.704l-.311-.73-.386-.907-.85.5-2.635 1.546-.657.386.298.701.311.73c2.015 4.73 6.092 7.67 10.642 7.67s8.628-2.94 10.642-7.67l.311-.73.3-.7-.658-.387zm-29.322-1.547l-.85-.5-.386.907-.31.73c-1.237 2.901-3.694 4.704-6.414 4.704-2.72 0-5.176-1.803-6.412-4.704l-.311-.73-.386-.907-.85.5-2.635 1.546-.657.386.298.701.311.73c2.015 4.73 6.092 7.67 10.642 7.67s8.628-2.94 10.642-7.67l.311-.73.3-.7-.658-.387-2.635-1.546zm5.818 26.115a4.126 4.126 0 1 0 0 8.252 4.126 4.126 0 0 0 0-8.252M113.208 43.24v2.916h-11.663v-2.284l6.658-7.873h-6.488v-2.916h11.276v2.284l-6.659 7.873zM107.374 17.19l.002 4.934-19.738.008-.002-3.865L98.899 4.938l-10.98.005-.002-4.935L106.999 0l.002 3.865-11.263 13.33z"/><path fill="#DEDEDE" fill-opacity=".7" d="M66.288 28.215c-.498-.498-1.35-.954-2.552-1.369V50.25h23.403c-.416-1.203-.872-2.055-1.37-2.552L66.288 28.215zm21.349 93.736V58.215H61.744c-1.66 0-3.071-.58-4.232-1.742-1.163-1.161-1.744-2.572-1.744-4.233V26.348h-47.8v95.603h79.669zm3.734-79.918c1.16 1.162 2.157 2.738 2.987 4.73.83 1.991 1.245 3.818 1.245 5.477v71.703c0 1.659-.581 3.07-1.742 4.232-1.163 1.161-2.574 1.743-4.233 1.743H5.976c-1.66 0-3.072-.582-4.232-1.743C.58 127.013 0 125.602 0 123.943V24.356c0-1.659.58-3.07 1.744-4.232 1.16-1.16 2.572-1.742 4.232-1.742h55.768c1.66 0 3.486.414 5.477 1.244 1.992.83 3.569 1.826 4.73 2.987l19.42 19.42z"/></g></svg>