<svg xmlns="http://www.w3.org/2000/svg" width="136" height="130"><g fill="none" fill-rule="evenodd"><path fill="#9B9B9B" d="M81.331 69.129l-2.678-1.61L77.79 67l-.393.943-.316.76c-1.257 3.019-3.754 4.895-6.518 4.895s-5.262-1.876-6.518-4.895l-.316-.76-.393-.943-.863.52-2.678 1.609-.669.401.304.73.316.759C61.793 75.94 65.938 79 70.563 79c4.624 0 8.769-3.059 10.816-7.982l.317-.758.304-.73-.669-.401zm-29.804-1.61L50.663 67l-.393.943-.315.76c-1.257 3.019-3.754 4.895-6.519 4.895-2.764 0-5.261-1.876-6.517-4.895l-.317-.76L36.21 67l-.864.52-2.678 1.609-.668.401.303.73.316.759C34.667 75.94 38.812 79 43.436 79c4.625 0 8.77-3.059 10.817-7.982l.316-.758.305-.73-.67-.401-2.677-1.61zM58 94a4 4 0 1 0 0 8 4 4 0 0 0 0-8M136 44.1V47h-12v-2.271l6.85-7.829h-6.675V34h11.601v2.271l-6.85 7.829zM129.998 17.864l.002 5.127-19.998.009-.002-4.017 11.411-13.852-11.125.005-.002-5.128L129.618 0l.001 4.016-11.411 13.853z"/><path fill="#DEDEDE" fill-opacity=".7" d="M106.715 112.448c0 4.568-3.723 8.284-8.3 8.284h-80.83c-4.577 0-8.3-3.716-8.3-8.284V36.552c0-4.568 3.723-8.284 8.3-8.284H39.81l12.294 12.27.649.648h45.662c4.577 0 8.3 3.716 8.3 8.284v62.978zm4.106-75.36c-3.34-3.334-7.746-5.17-12.406-5.17H56.529l-12.293-12.27-.65-.648h-26c-4.661 0-9.068 1.836-12.407 5.17C1.839 27.501 0 31.9 0 36.551v75.896c0 4.652 1.839 9.05 5.179 12.383 3.34 3.333 7.746 5.169 12.406 5.169h80.83c4.66 0 9.066-1.836 12.406-5.17 3.34-3.332 5.179-7.73 5.179-12.382V49.47c0-4.651-1.84-9.049-5.179-12.382z"/></g></svg>