<svg xmlns="http://www.w3.org/2000/svg" xmlns:xlink="http://www.w3.org/1999/xlink" width="120" height="141"><defs><path id="a" d="M.157.075h12.616v14.142H.157z"/><path id="c" d="M0 .047h97.792V127.5H0z"/></defs><g fill="none" fill-rule="evenodd"><path fill="#9B9B9B" d="M74.79 73.038l-2.85-1.673-.918-.54-.419.98-.336.79c-1.337 3.138-3.995 5.088-6.937 5.088s-5.6-1.95-6.936-5.088l-.337-.79-.417-.98-.92.54-2.85 1.673-.71.417.322.759.336.789c2.18 5.117 6.59 8.296 11.512 8.296 4.922 0 9.333-3.18 11.512-8.297l.336-.788.324-.759-.711-.417zm-31.719-1.673l-.919-.54-.418.98-.336.79c-1.337 3.138-3.996 5.088-6.937 5.088-2.942 0-5.6-1.95-6.937-5.088l-.336-.79-.417-.98-.92.54-2.85 1.673-.711.417.323.759.336.789c2.18 5.117 6.59 8.296 11.512 8.296 4.921 0 9.332-3.18 11.512-8.297l.336-.788.324-.759-.712-.417-2.85-1.673zm6.294 28.25a4.463 4.463 0 1 0 0 8.926 4.463 4.463 0 0 0 0-8.926"/><g transform="translate(106.875 35.712)"><mask id="b" fill="#fff"><use xlink:href="#a"/></mask><path fill="#9B9B9B" mask="url(#b)" d="M12.773 11.062v3.155H.157v-2.471l7.202-8.517H.341V.075h12.197v2.471l-7.203 8.516z"/></g><path fill="#9B9B9B" d="M113.338 18.595l.002 5.337-21.352.009-.001-4.181 12.182-14.418-11.877.004L92.29.008 112.932 0l.002 4.181L100.75 18.6z"/><g transform="translate(0 12.743)"><mask id="d" fill="#fff"><use xlink:href="#c"/></mask><path fill="#DEDEDE" fill-opacity=".7" d="M89.174 118.882H8.62V79.275h-.001V25.674H24.1v7.084c0 1.036.84 1.875 1.875 1.875h45.842c1.036 0 1.875-.839 1.875-1.875v-7.084h15.481v62.155h.001v31.053zm6.731-99.94c-1.254-1.256-2.782-1.886-4.577-1.886H73.692V10.24c0-1.035-.84-1.875-1.875-1.875h-6.51V1.922c0-1.035-.84-1.875-1.876-1.875H34.802c-1.035 0-1.875.84-1.875 1.875v6.443h-6.952c-1.035 0-1.875.84-1.875 1.875v6.816H6.463c-1.794 0-3.32.63-4.578 1.885C.629 20.2 0 21.725 0 23.52v97.517c0 1.794.629 3.32 1.886 4.578 1.256 1.256 2.782 1.885 4.578 1.885H91.33c1.794 0 3.32-.63 4.578-1.885 1.256-1.257 1.885-2.784 1.885-4.578V23.52c0-1.795-.628-3.321-1.887-4.579z" mask="url(#d)"/></g></g></svg>