<svg viewBox="0 0 239 59" fill="none" xmlns="http://www.w3.org/2000/svg">
<path d="M29.5 14.449L43.5774 38.8316H15.4227L29.5 14.449Z" fill="currentColor"/>
<path fill-rule="evenodd" clip-rule="evenodd" d="M29.5 55C43.5833 55 55 43.5833 55 29.5C55 15.4167 43.5833 4 29.5 4C15.4167 4 4 15.4167 4 29.5C4 43.5833 15.4167 55 29.5 55ZM29.5 59C45.7924 59 59 45.7924 59 29.5C59 13.2076 45.7924 0 29.5 0C13.2076 0 0 13.2076 0 29.5C0 45.7924 13.2076 59 29.5 59Z" fill="currentColor"/>
<path d="M118.83 44.291C116.877 45.9707 114.689 47.2598 112.268 48.1582C109.846 49.0566 107.336 49.5059 104.738 49.5059C102.746 49.5059 100.822 49.2422 98.9668 48.7148C97.1309 48.207 95.4023 47.4844 93.7812 46.5469C92.1797 45.5898 90.7148 44.4473 89.3867 43.1191C88.0586 41.791 86.916 40.3262 85.959 38.7246C85.0215 37.1035 84.2891 35.375 83.7617 33.5391C83.2539 31.6836 83 29.7598 83 27.7676C83 25.7754 83.2539 23.8516 83.7617 21.9961C84.2891 20.1406 85.0215 18.4121 85.959 16.8105C86.916 15.1895 88.0586 13.7148 89.3867 12.3867C90.7148 11.0586 92.1797 9.92578 93.7812 8.98828C95.4023 8.03125 97.1309 7.29883 98.9668 6.79102C100.822 6.26367 102.746 6 104.738 6C107.336 6 109.846 6.44922 112.268 7.34766C114.689 8.22656 116.877 9.51562 118.83 11.2148L114.377 18.5391C113.146 17.2109 111.691 16.1953 110.012 15.4922C108.332 14.7695 106.574 14.4082 104.738 14.4082C102.883 14.4082 101.145 14.7598 99.5234 15.4629C97.9023 16.166 96.4863 17.123 95.2754 18.334C94.0645 19.5254 93.1074 20.9414 92.4043 22.582C91.7012 24.2031 91.3496 25.9316 91.3496 27.7676C91.3496 29.6035 91.7012 31.332 92.4043 32.9531C93.1074 34.5547 94.0645 35.9609 95.2754 37.1719C96.4863 38.3828 97.9023 39.3398 99.5234 40.043C101.145 40.7461 102.883 41.0977 104.738 41.0977C106.574 41.0977 108.332 40.7461 110.012 40.043C111.691 39.3203 113.146 38.2949 114.377 36.9668L118.83 44.291Z" fill="currentColor"/>
<path d="M138.131 48.5977H129.723V6.58594H138.131V48.5977Z" fill="currentColor"/>
<path d="M193.115 27.7676C193.115 29.7598 192.852 31.6836 192.324 33.5391C191.816 35.375 191.094 37.1035 190.156 38.7246C189.219 40.3262 188.086 41.791 186.758 43.1191C185.43 44.4473 183.965 45.5898 182.363 46.5469C180.762 47.4844 179.033 48.207 177.178 48.7148C175.322 49.2422 173.398 49.5059 171.406 49.5059C169.414 49.5059 167.49 49.2422 165.635 48.7148C163.799 48.207 162.07 47.4844 160.449 46.5469C158.848 45.5898 157.383 44.4473 156.055 43.1191C154.727 41.791 153.584 40.3262 152.627 38.7246C151.689 37.1035 150.957 35.375 150.43 33.5391C149.922 31.6836 149.668 29.7598 149.668 27.7676C149.668 25.7754 149.922 23.8516 150.43 21.9961C150.957 20.1406 151.689 18.4121 152.627 16.8105C153.584 15.209 154.727 13.7441 156.055 12.416C157.383 11.0879 158.848 9.95508 160.449 9.01758C162.07 8.08008 163.799 7.35742 165.635 6.84961C167.49 6.32227 169.414 6.05859 171.406 6.05859C173.398 6.05859 175.322 6.32227 177.178 6.84961C179.033 7.35742 180.762 8.08008 182.363 9.01758C183.965 9.95508 185.43 11.0879 186.758 12.416C188.086 13.7441 189.219 15.209 190.156 16.8105C191.094 18.4121 191.816 20.1406 192.324 21.9961C192.852 23.8516 193.115 25.7754 193.115 27.7676ZM184.766 27.7676C184.766 25.9316 184.414 24.2031 183.711 22.582C183.008 20.9414 182.051 19.5254 180.84 18.334C179.648 17.123 178.232 16.166 176.592 15.4629C174.971 14.7598 173.242 14.4082 171.406 14.4082C169.551 14.4082 167.812 14.7598 166.191 15.4629C164.57 16.166 163.154 17.123 161.943 18.334C160.732 19.5254 159.775 20.9414 159.072 22.582C158.369 24.2031 158.018 25.9316 158.018 27.7676C158.018 29.6035 158.369 31.332 159.072 32.9531C159.775 34.5547 160.732 35.9609 161.943 37.1719C163.154 38.3828 164.57 39.3398 166.191 40.043C167.812 40.7461 169.551 41.0977 171.406 41.0977C173.242 41.0977 174.971 40.7461 176.592 40.043C178.232 39.3398 179.648 38.3828 180.84 37.1719C182.051 35.9609 183.008 34.5547 183.711 32.9531C184.414 31.332 184.766 29.6035 184.766 27.7676Z" fill="currentColor"/>
<path d="M238.256 48.5977H229.262L213.061 20.9414V48.5977H204.652V6.58594H213.646L229.848 34.2715V6.58594H238.256V48.5977Z" fill="currentColor"/>
</svg>
