<svg xmlns="http://www.w3.org/2000/svg" xmlns:xlink="http://www.w3.org/1999/xlink" width="828" height="260" viewBox="0 0 828 260">
  <defs>
    <path id="logo-horizontal-dark-a" d="M60.3944333,92.95 L60.3944333,55.3192697 L20.0177066,55.3192697 L20.0177066,92.95 L0,92.95 L0.000924968539,0 L20.0177066,0 L20.0177066,37.6307303 L60.3944333,37.6307303 L60.3944333,0 L80.411215,0 L80.411215,92.95 L60.3944333,92.95 Z M134.02031,92.95 C111.848337,92.95 93.8130841,74.8264394 93.8130841,52.5483332 L93.8130841,0 L113.829745,0 L113.829745,52.5483332 C113.829745,63.7333982 122.887147,72.8325921 134.02031,72.8325921 C145.150699,72.8325921 154.204863,63.7333982 154.204863,52.5483332 L154.207176,0 L174.224299,0 L174.224299,52.5483332 C174.224299,74.8264394 156.190896,92.95 134.02031,92.95 Z M365.063134,92.95 L365.063134,71.1716556 L324.681774,71.1716556 L324.681774,92.95 L304.669159,92.95 L304.669159,40.404132 C304.669159,18.1252268 322.70225,0 344.874766,0 C367.042657,0 385.080374,18.1252268 385.080374,40.404132 L385.080374,92.95 L365.063134,92.95 Z M324.681774,53.4828509 L365.063134,53.4828509 L365.063134,40.4055263 C365.063134,29.2170401 356.00265,20.1163153 344.874766,20.1163153 C333.737633,20.1163153 324.681774,29.2170401 324.681774,40.4055263 L324.681774,53.4828509 Z M463.102679,92.95 C460.605293,92.9272265 458.223527,91.8340962 456.558602,89.9801436 C456.299614,89.6919885 456.059125,89.3931438 455.85101,89.0910457 L416.711416,32.920789 L416.711416,92.95 L396.695327,92.95 L396.695327,0 L410.625193,0 C413.145703,0 415.559843,1.09824269 417.247892,2.97543364 C417.502255,3.26126489 417.742744,3.5601096 417.955484,3.86639057 L457.090453,60.0319996 L457.095078,0 L477.106542,0 L477.106542,92.95 L463.102679,92.95 Z M271.256424,92.95 L271.256424,32.9291548 L246.044028,69.1023781 C244.393409,71.343481 241.81345,72.6517981 238.993065,72.6517981 C236.177303,72.6517981 233.597344,71.343481 231.918983,69.0591548 L206.738952,32.9291548 L206.738952,92.95 L186.73271,92.95 L186.73271,0.00743626027 L200.330667,0.00743626027 C200.437009,0.00232383133 200.543352,0 200.649694,0 C203.155676,0 205.573809,1.08755306 207.275288,2.9828699 C207.529585,3.26451826 207.765388,3.56103914 207.982696,3.87382683 L238.993065,48.3793798 L270.017304,3.86732011 C270.225365,3.57405259 270.461168,3.27288405 270.720089,2.9828699 C272.426191,1.08755306 274.839701,0 277.345682,0 C277.452025,0 291.262666,0.00743626027 291.262666,0.00743626027 L291.26729,92.95 L271.256424,92.95 Z M28.0202216,134.200959 C28.3466681,134.200959 28.6303169,134.331799 28.8716233,134.59302 L31.271028,137.229185 C29.7571721,139.074777 27.8995684,140.497901 25.6977617,141.498556 C23.4954996,142.499212 20.8643497,143 17.8024907,143 C15.0848347,143 12.6294286,142.525472 10.4367278,141.576876 C8.24357168,140.628281 6.37276443,139.30513 4.82476135,137.608808 C3.27675828,135.911563 2.0857065,133.887678 1.25160602,131.538072 C0.416594946,129.188467 0,126.603901 0,123.783914 C0,120.964849 0.442546762,118.376136 1.32855088,116.016396 C2.21455499,113.658037 3.46160806,111.630926 5.07016537,109.933221 C6.67826739,108.236438 8.60462063,106.918355 10.8496804,105.978052 C13.0938296,105.03821 15.5660815,104.56875 18.2673469,104.56875 C20.9508558,104.56875 23.3197558,105.008725 25.3754128,105.886833 C27.4310698,106.766322 29.215371,107.936518 30.729227,109.398801 L28.7427748,112.244127 C28.6048204,112.436242 28.4413695,112.601175 28.2519667,112.740309 C28.062564,112.880364 27.804867,112.949009 27.4779652,112.949009 C27.1342175,112.949009 26.7426637,112.788222 26.3042146,112.466188 C25.8657655,112.143693 25.3062079,111.787567 24.6273631,111.395505 C23.9476076,111.004365 23.0957506,110.647778 22.0727027,110.325283 C21.0491995,110.00371 19.7720969,109.842001 18.2413951,109.842001 C16.4698421,109.842001 14.8439836,110.156204 13.3647301,110.782765 C11.8854766,111.408866 10.612927,112.322908 9.54617074,113.52351 C8.4794145,114.725034 7.64986697,116.186396 7.05661756,117.910362 C6.46291285,119.632945 6.16651579,121.590489 6.16651579,123.783914 C6.16651579,125.994847 6.4761164,127.966212 7.09531763,129.698009 C7.71406357,131.429806 8.56592056,132.891629 9.64952271,134.083478 C10.7331249,135.276248 12.0056745,136.185684 13.4680821,136.812245 C14.9295791,137.438346 16.503534,137.751627 18.1894914,137.751627 C19.2216453,137.751627 20.1463495,137.695421 20.963604,137.582547 C21.779948,137.469674 22.5325507,137.285852 23.2209567,137.033845 C23.9089075,136.781839 24.5581582,136.46349 25.1687088,136.081103 C25.7792595,135.698717 26.3857124,135.228335 26.9880678,134.67134 C27.3318155,134.35806 27.6755632,134.200959 28.0202216,134.200959 Z M73.2635514,123.797514 C73.2635514,126.58492 72.8115177,129.153796 71.9088299,131.505064 C71.0052224,133.856332 69.7323544,135.880728 68.0911456,137.579635 C66.4490172,139.27762 64.4771754,140.606317 62.1751605,141.563882 C59.8731457,142.521448 57.3154536,143 54.5007047,143 C51.7038899,143 49.1540153,142.521448 46.8524603,141.563882 C44.5499856,140.606317 42.574465,139.27762 40.9240592,137.579635 C39.2731936,135.880728 37.9961869,133.856332 37.0930393,131.505064 C36.1894317,129.153796 35.7383178,126.58492 35.7383178,123.797514 C35.7383178,121.011492 36.1894317,118.441694 37.0930393,116.089965 C37.9961869,113.738696 39.2731936,111.710151 40.9240592,110.003407 C42.574465,108.296663 44.5499856,106.963816 46.8524603,106.005329 C49.1540153,105.048224 51.7038899,104.56875 54.5007047,104.56875 C57.3154536,104.56875 59.8731457,105.048224 62.1751605,106.005329 C64.4771754,106.963816 66.4490172,108.296663 68.0911456,110.003407 C69.7323544,111.710151 71.0052224,113.738696 71.9088299,116.089965 C72.8115177,118.441694 73.2635514,121.011492 73.2635514,123.797514 Z M67.0353274,123.797514 C67.0353274,121.638497 66.7442416,119.695704 66.1625299,117.971901 C65.5803583,116.246716 64.7461883,114.784319 63.6609396,113.582406 C62.5752311,112.380493 61.2586772,111.457505 59.7126576,110.813442 C58.1661782,110.168457 56.4293204,109.845734 54.5007047,109.845734 C52.5895633,109.845734 50.8609828,110.168457 49.3149632,110.813442 C47.7689436,111.457505 46.448711,112.380493 45.3538054,113.582406 C44.2593596,114.784319 43.4169123,116.246716 42.8264634,117.971901 C42.2355547,119.695704 41.9398704,121.638497 41.9398704,123.797514 C41.9398704,125.974973 42.2355547,127.925143 42.8264634,129.650328 C43.4169123,131.374592 44.2593596,132.8333 45.3538054,134.025993 C46.448711,135.219607 47.7689436,136.133836 49.3149632,136.770061 C50.8609828,137.405365 52.5895633,137.723477 54.5007047,137.723477 C56.4293204,137.723477 58.1661782,137.405365 59.7126576,136.770061 C61.2586772,136.133836 62.5752311,135.219607 63.6609396,134.025993 C64.7461883,132.8333 65.5803583,131.374592 66.1625299,129.650328 C66.7442416,127.925143 67.0353274,125.974973 67.0353274,123.797514 Z M111.682243,104.56875 L111.682243,142.10625 L108.560695,142.10625 C108.088042,142.10625 107.685292,142.023452 107.353833,141.858315 C107.020985,141.693639 106.706654,141.419025 106.408989,141.037233 L85.6580814,114.552837 C85.7103927,115.056986 85.7497419,115.556076 85.776129,116.051945 C85.8025161,116.546435 85.8154782,117.002745 85.8154782,117.420876 L85.8154782,142.10625 L80.411215,142.10625 L80.411215,104.56875 L83.6114609,104.56875 C83.8739432,104.56875 84.0970762,104.58163 84.2803971,104.607849 C84.4646438,104.634069 84.6350027,104.682368 84.7919365,104.751366 C84.9497961,104.821285 85.0983972,104.925242 85.2382025,105.064159 C85.3780078,105.203076 85.5266089,105.376953 85.6844685,105.585328 L106.461301,132.095943 C106.408989,131.557755 106.36964,131.027386 106.343716,130.505757 C106.317329,129.985048 106.304367,129.497919 106.304367,129.045748 L106.304367,104.56875 L111.682243,104.56875 Z M152.781308,104.56875 L152.781308,142.10625 L149.659344,142.10625 C149.186698,142.10625 148.784879,142.023452 148.452499,141.858315 C148.119656,141.693639 147.805331,141.419025 147.508133,141.037233 L126.757532,114.552837 C126.809843,115.056986 126.849191,115.556076 126.875578,116.051945 C126.901502,116.546435 126.914927,117.002745 126.914927,117.420876 L126.914927,142.10625 L121.51028,142.10625 L121.51028,104.56875 L124.710942,104.56875 C124.97342,104.56875 125.19655,104.58163 125.379868,104.607849 C125.563649,104.634069 125.734006,104.682368 125.8914,104.751366 C126.048794,104.821285 126.197393,104.925242 126.337659,105.064159 C126.477463,105.203076 126.626061,105.376953 126.783456,105.585328 L147.560443,132.095943 C147.508133,131.557755 147.468784,131.027386 147.442398,130.505757 C147.416474,129.985048 147.403049,129.497919 147.403049,129.045748 L147.403049,104.56875 L152.781308,104.56875 Z M185.839252,137.179755 L185.810844,142.10625 L161.715888,142.10625 L161.715888,104.56875 L185.810844,104.56875 L185.810844,109.495245 L168.022526,109.495245 L168.022526,120.809164 L182.24087,120.809164 L182.24087,125.579262 L168.022526,125.579262 L168.022526,137.179755 L185.839252,137.179755 Z M219.22008,134.200959 C219.547906,134.200959 219.830202,134.331799 220.071518,134.59302 L222.471028,137.229185 C220.954829,139.074777 219.097145,140.497901 216.897974,141.498556 C214.694249,142.499212 212.062529,143 209.002813,143 C206.284583,143 203.825882,142.525472 201.635818,141.576876 C199.4412,140.628281 197.569856,139.30513 196.021785,137.608808 C194.473714,135.911563 193.285342,133.887678 192.447563,131.538072 C191.614337,129.188467 191.2,126.603901 191.2,123.783914 C191.2,120.964849 191.641655,118.376136 192.524966,116.016396 C193.41283,113.658037 194.660393,111.630926 196.267655,109.933221 C197.874917,108.236438 199.800899,106.918355 202.050154,105.978052 C204.294857,105.03821 206.762664,104.56875 209.467234,104.56875 C212.149039,104.56875 214.516677,105.008725 216.5747,105.886833 C218.62817,106.766322 220.413005,107.936518 221.929203,109.398801 L219.94403,112.244127 C219.802883,112.436242 219.638969,112.601175 219.45229,112.740309 C219.261058,112.880364 219.006082,112.949009 218.678255,112.949009 C218.332216,112.949009 217.940645,112.788222 217.503542,112.466188 C217.06644,112.143693 216.506403,111.787567 215.827983,111.395505 C215.145011,111.004365 214.293572,110.647778 213.273667,110.325283 C212.249208,110.00371 210.969773,109.842001 209.439915,109.842001 C207.66874,109.842001 206.043266,110.156204 204.563493,110.782765 C203.083719,111.408866 201.813391,112.322908 200.743401,113.52351 C199.677964,114.725034 198.84929,116.186396 198.252828,117.910362 C197.660919,119.632945 197.364964,121.590489 197.364964,123.783914 C197.364964,125.994847 197.674578,127.966212 198.293806,129.698009 C198.913035,131.429806 199.764473,132.891629 200.848123,134.083478 C201.931772,135.276248 203.206654,136.185684 204.668215,136.812245 C206.129776,137.438346 207.700612,137.751627 209.389831,137.751627 C210.418842,137.751627 211.343132,137.695421 212.162698,137.582547 C212.977712,137.469674 213.733535,137.285852 214.42106,137.033845 C215.108586,136.781839 215.759686,136.46349 216.369808,136.081103 C216.97993,135.698717 217.585499,135.228335 218.186515,134.67134 C218.532554,134.35806 218.87404,134.200959 219.22008,134.200959 Z M256.42243,109.652562 L244.375581,109.652562 L244.375581,142.10625 L238.124857,142.10625 L238.124857,109.652562 L226.04486,109.652562 L226.04486,104.56875 L256.42243,104.56875 L256.42243,109.652562 Z M261.783178,142.10625 L261.783178,104.56875 L268.037383,104.56875 L268.037383,142.10625 L261.783178,142.10625 Z M312.71028,123.797514 C312.71028,126.58492 312.25961,129.153796 311.358268,131.505064 C310.452328,133.856332 309.183092,135.880728 307.541363,137.579635 C305.899634,139.27762 303.9268,140.606317 301.622861,141.563882 C299.318922,142.521448 296.762056,143 293.947664,143 C291.151666,143 288.603997,142.521448 286.300058,141.563882 C283.996119,140.606317 282.023285,139.27762 280.372358,137.579635 C278.721432,135.880728 277.442999,133.856332 276.541658,131.505064 C275.635717,129.153796 275.185047,126.58492 275.185047,123.797514 C275.185047,121.011492 275.635717,118.441694 276.541658,116.089965 C277.442999,113.738696 278.721432,111.710151 280.372358,110.003407 C282.023285,108.296663 283.996119,106.963816 286.300058,106.005329 C288.603997,105.048224 291.151666,104.56875 293.947664,104.56875 C296.762056,104.56875 299.318922,105.048224 301.622861,106.005329 C303.9268,106.963816 305.899634,108.296663 307.541363,110.003407 C309.183092,111.710151 310.452328,113.738696 311.358268,116.089965 C312.25961,118.441694 312.71028,121.011492 312.71028,123.797514 Z M306.483667,123.797514 C306.483667,121.638497 306.19395,119.695704 305.609918,117.971901 C305.025885,116.246716 304.193524,114.784319 303.108235,113.582406 C302.022947,112.380493 300.707724,111.457505 299.162567,110.813442 C297.612812,110.168457 295.879109,109.845734 293.947664,109.845734 C292.039211,109.845734 290.310107,110.168457 288.760352,110.813442 C287.215195,111.457505 285.895374,112.380493 284.800888,113.582406 C283.706402,114.784319 282.864843,116.246716 282.271614,117.971901 C281.682982,119.695704 281.388667,121.638497 281.388667,123.797514 C281.388667,125.974973 281.682982,127.925143 282.271614,129.650328 C282.864843,131.374592 283.706402,132.8333 284.800888,134.025993 C285.895374,135.219607 287.215195,136.133836 288.760352,136.770061 C290.310107,137.405365 292.039211,137.723477 293.947664,137.723477 C295.879109,137.723477 297.612812,137.405365 299.162567,136.770061 C300.707724,136.133836 302.022947,135.219607 303.108235,134.025993 C304.193524,132.8333 305.025885,131.374592 305.609918,129.650328 C306.19395,127.925143 306.483667,125.974973 306.483667,123.797514 Z M351.128972,104.56875 L351.128972,142.10625 L348.008813,142.10625 C347.536623,142.10625 347.133872,142.023452 346.800562,141.858315 C346.467251,141.693639 346.152458,141.419025 345.856181,141.037233 L325.102959,114.552837 C325.15851,115.056986 325.195545,115.556076 325.223321,116.051945 C325.251097,116.546435 325.264985,117.002745 325.264985,117.420876 L325.264985,142.10625 L319.857944,142.10625 L319.857944,104.56875 L323.056801,104.56875 C323.320672,104.56875 323.542879,104.58163 323.728052,104.607849 C323.913225,104.634069 324.07988,104.682368 324.237277,104.751366 C324.394673,104.821285 324.542811,104.925242 324.68632,105.064159 C324.8252,105.203076 324.973338,105.376953 325.130735,105.585328 L345.907104,132.095943 C345.856181,131.557755 345.819147,131.027386 345.791371,130.505757 C345.763595,129.985048 345.749707,129.497919 345.749707,129.045748 L345.749707,104.56875 L351.128972,104.56875 Z M358.276636,139.438115 C358.276636,138.942906 358.367399,138.477546 358.548927,138.041129 C358.725917,137.606069 358.975518,137.225731 359.293192,136.901471 C359.610866,136.576306 359.987537,136.320335 360.423204,136.132653 C360.863409,135.944972 361.326305,135.85 361.825507,135.85 C362.320171,135.85 362.787605,135.944972 363.227811,136.132653 C363.663478,136.320335 364.044687,136.576306 364.371437,136.901471 C364.698187,137.225731 364.956865,137.606069 365.142931,138.041129 C365.333535,138.477546 365.424299,138.942906 365.424299,139.438115 C365.424299,139.950961 365.333535,140.420392 365.142931,140.847764 C364.956865,141.274684 364.698187,141.650952 364.371437,141.975664 C364.044687,142.300376 363.663478,142.552277 363.227811,142.730914 C362.787605,142.910455 362.320171,143 361.825507,143 C361.326305,143 360.863409,142.910455 360.423204,142.730914 C359.987537,142.552277 359.610866,142.300376 359.293192,141.975664 C358.975518,141.650952 358.725917,141.274684 358.548927,140.847764 C358.367399,140.420392 358.276636,139.950961 358.276636,139.438115 Z M406.523364,123.797514 C406.523364,126.58492 406.068151,129.153796 405.16692,131.505064 C404.265689,133.856332 402.992011,135.880728 401.350483,137.579635 C399.708955,139.27762 397.736363,140.606317 395.432706,141.563882 C393.133647,142.521448 390.572496,143 387.758449,143 C384.962793,143 382.415437,142.521448 380.11178,141.563882 C377.812721,140.606317 375.835531,139.27762 374.184807,137.579635 C372.534083,135.880728 371.255806,133.856332 370.354575,131.505064 C369.448746,129.153796 368.998131,126.58492 368.998131,123.797514 C368.998131,121.011492 369.448746,118.441694 370.354575,116.089965 C371.255806,113.738696 372.534083,111.710151 374.184807,110.003407 C375.835531,108.296663 377.812721,106.963816 380.11178,106.005329 C382.415437,105.048224 384.962793,104.56875 387.758449,104.56875 C390.572496,104.56875 393.133647,105.048224 395.432706,106.005329 C397.736363,106.963816 399.708955,108.296663 401.350483,110.003407 C402.992011,111.710151 404.265689,113.738696 405.16692,116.089965 C406.068151,118.441694 406.523364,121.011492 406.523364,123.797514 Z M400.292916,123.797514 C400.292916,121.638497 400.003234,119.695704 399.419274,117.971901 C398.839911,116.246716 398.003054,114.784319 396.917898,113.582406 C395.832742,112.380493 394.517681,111.457505 392.972713,110.813442 C391.423148,110.168457 389.689658,109.845734 387.758449,109.845734 C385.85023,109.845734 384.121338,110.168457 382.576371,110.813442 C381.026805,111.457505 379.707146,112.380493 378.612794,113.582406 C377.518442,114.784319 376.676986,116.246716 376.088427,117.971901 C375.49527,119.695704 375.200991,121.638497 375.200991,123.797514 C375.200991,125.974973 375.49527,127.925143 376.088427,129.650328 C376.676986,131.374592 377.518442,132.8333 378.612794,134.025993 C379.707146,135.219607 381.026805,136.133836 382.576371,136.770061 C384.121338,137.405365 385.85023,137.723477 387.758449,137.723477 C389.689658,137.723477 391.423148,137.405365 392.972713,136.770061 C394.517681,136.133836 395.832742,135.219607 396.917898,134.025993 C398.003054,132.8333 398.839911,131.374592 399.419274,129.650328 C400.003234,127.925143 400.292916,125.974973 400.292916,123.797514 Z M442.261682,142.10625 L436.811459,142.10625 C435.729701,142.10625 434.947152,141.688119 434.463813,140.854157 L425.699265,128.211786 C425.400055,127.777555 425.077829,127.465222 424.732587,127.273406 C424.382742,127.08251 423.862577,126.986832 423.167489,126.986832 L419.774909,126.986832 L419.774909,142.10625 L413.671028,142.10625 L413.671028,104.56875 L424.732587,104.56875 C427.199918,104.56875 429.326609,104.821285 431.108059,105.324974 C432.894112,105.828663 434.357938,106.545788 435.504142,107.475428 C436.65495,108.405068 437.501944,109.521464 438.049728,110.825077 C438.597512,112.128689 438.869103,113.579958 438.869103,115.178884 C438.869103,116.481576 438.675767,117.69825 438.284493,118.827526 C437.893218,119.957262 437.327021,120.98258 436.585901,121.903481 C435.849384,122.825301 434.942548,123.623844 433.86079,124.301869 C432.783634,124.979435 431.559175,125.509804 430.18281,125.892056 C430.933136,126.343766 431.572985,126.978552 432.116166,127.795035 L442.261682,142.10625 Z M424.576077,122.555287 C425.966252,122.555287 427.186108,122.38601 428.226438,122.046538 C429.271371,121.708445 430.141381,121.235575 430.836468,120.626548 C431.531556,120.018441 432.051721,119.292576 432.401566,118.449874 C432.746808,117.607172 432.921731,116.673392 432.921731,115.647154 C432.921731,113.596978 432.245056,112.033471 430.887104,110.955254 C429.533755,109.877957 427.480714,109.338848 424.732587,109.338848 L419.774909,109.338848 L419.774909,122.555287 L424.576077,122.555287 Z M478,124.070935 L478,138.95269 C474.258287,141.650589 469.903707,143 464.945476,143 C461.894966,143 459.143977,142.525472 456.678686,141.576876 C454.213395,140.628281 452.112137,139.30513 450.374913,137.608808 C448.633081,135.911563 447.292147,133.887678 446.352111,131.538072 C445.412074,129.188467 444.942056,126.603901 444.942056,123.783914 C444.942056,120.947802 445.393642,118.348955 446.301422,115.990596 C447.204594,113.632237 448.499448,111.605127 450.190592,109.907422 C451.877128,108.210178 453.913873,106.897163 456.300828,105.965153 C458.683175,105.034985 461.365044,104.56875 464.341825,104.56875 C465.857864,104.56875 467.263311,104.68623 468.562773,104.92073 C469.857627,105.155691 471.064928,105.482332 472.175461,105.899732 C473.290602,106.318054 474.318191,106.822989 475.258227,107.414076 C476.198264,108.006084 477.059964,108.667659 477.843327,109.398801 L476.092279,112.192067 C475.815798,112.627435 475.456372,112.896949 475.023218,113.001529 C474.590064,113.10611 474.120046,113.001529 473.613164,112.688249 C473.106282,112.392475 472.571751,112.079194 472.009572,111.748407 C471.442786,111.41808 470.793055,111.108485 470.06038,110.821925 C469.332312,110.533983 468.484436,110.299023 467.530576,110.117043 C466.572107,109.933221 465.438534,109.842001 464.134464,109.842001 C462.148407,109.842001 460.360495,110.169103 458.76612,110.821925 C457.176352,111.473825 455.812378,112.405835 454.683413,113.615191 C453.54984,114.825007 452.678924,116.291438 452.070665,118.014021 C451.462406,119.737525 451.158277,121.660977 451.158277,123.783914 C451.158277,126.0294 451.47623,128.035778 452.121353,129.802129 C452.766476,131.568479 453.678864,133.065316 454.863126,134.291718 C456.047387,135.519502 457.480482,136.456119 459.157801,137.098805 C460.839729,137.743334 462.715194,138.064907 464.788803,138.064907 C466.337098,138.064907 467.714897,137.899514 468.926806,137.569648 C470.134108,137.23886 471.322977,136.777232 472.488807,136.185684 L472.488807,128.718085 L467.240271,128.718085 C466.839373,128.718085 466.526027,128.61028 466.300234,128.392366 C466.074441,128.174912 465.963849,127.892499 465.963849,127.543743 L465.963849,124.070935 L478,124.070935 Z"/>
  </defs>
  <g fill="none" fill-rule="evenodd">
    <g transform="translate(11)">
      <path fill="#FFFFFE" d="M259.608348,130.195826 C259.608348,201.885045 201.493394,260 129.804174,260 C58.1154265,260 0,201.885045 0,130.195826 C0,58.507078 58.1154265,0.391651543 129.804174,0.391651543 C201.493394,0.391651543 259.608348,58.507078 259.608348,130.195826"/>
      <path fill="#295E87" d="M183.636364,54.8710541 C175.582594,52.3961896 167.06839,50.4381117 158.181818,49.0909091 C159.046209,53.1573263 159.824448,57.4208152 160.537595,61.8181818 C170.840409,58.9992611 176.826532,59.3082095 183.636364,54.8710541"/>
      <path fill="#007D93" d="M207.272727,101.143168 C208.18061,101.366991 209.105403,101.584738 210,101.818182 C209.696835,99.3657505 209.344955,96.945728 208.97375,94.5454545 C208.788147,95.1997063 208.602947,95.8296515 208.408084,96.5061842 C207.962799,98.0769961 207.598438,99.6128673 207.272727,101.143168"/>
      <path fill="#6CB644" d="M119.287971,222.203809 C119.017413,220.7223 118.813001,219.371212 118.609049,218.092992 C118.575516,217.845146 118.535093,217.629324 118.502479,217.394009 C114.469825,217.175867 110.422013,216.842156 106.363636,216.363636 C111.914908,239.883061 119.766616,254.545455 128.464451,254.545455 C129.59262,254.545455 130.716196,254.292038 131.818182,253.801451 C130.384543,250.290292 128.707908,246.368841 127.355575,243.20114 C122.772617,232.50429 119.944386,225.750706 119.287971,222.203809"/>
      <path fill="#933D86" d="M63.6363636,54.5454545 C75.3916189,49.892308 88.165275,46.5520491 101.528853,44.6038016 C105.614189,26.7047516 111.175033,12.664293 118.181818,5.45454545 C118.056043,5.46544275 117.944817,5.47349728 117.829367,5.48865874 C95.7319463,10.2015035 76.4588279,28.4227345 63.6363636,54.5454545"/>
      <path fill="#005093" d="M151.818182,43.6363636 C146.097807,20.1159032 138.034959,5.45454545 129.091618,5.45454545 C120.145442,5.45454545 112.073619,20.1172956 106.363636,43.6363636 C121.618758,41.8935056 136.580066,41.8935056 151.818182,43.6363636"/>
      <path fill="#4A5580" d="M128.899029,80 C134.798019,73.4663784 137.396462,74.1794593 145.975053,69.7539519 C148.84575,68.2741534 152.39024,66.4452374 156.363636,64.9486775 C155.534135,59.5888378 154.620174,54.4856881 153.609013,49.6971751 C137.846129,47.6752628 121.687841,47.6781362 105.944775,49.6971751 C104.741102,55.3994277 103.669073,61.5571135 102.727273,68.0648745 C112.242001,69.0288986 121.397185,71.7179175 128.899029,80"/>
      <path fill="#B9D137" d="M101.818182,185.454545 C103.006055,194.890147 104.484403,203.669453 106.216196,211.576991 C110.478591,212.102498 114.773208,212.478398 119.090909,212.727273 C118.51621,210.683112 117.674599,208.756567 116.116418,206.405664 C114.238906,203.604529 107.679636,194.011793 101.818182,185.454545"/>
      <path fill="#0067A5" d="M141.110501,5.47588103 C141.041033,5.46876917 140.98089,5.46070907 140.909091,5.45454545 C146.937866,11.7115597 152.080345,23.4233704 156.30529,40.515066 C156.635845,41.8544662 156.956142,43.2275293 157.264784,44.614342 C167.76747,46.1533484 177.886917,48.576122 187.437102,51.8181818 C188.688454,50.4365845 189.854953,48.8236147 190.909091,46.9451355 C178.327035,24.913068 160.854263,9.71786834 141.110501,5.47588103"/>
      <path fill="#007D93" d="M214.978021,102.414768 C233.06688,106.499421 247.268437,112.071454 254.545455,119.090909 C254.538271,118.967744 254.522946,118.84834 254.516241,118.725645 C250.590148,100.494431 237.381368,84.1821436 218.089012,71.8181818 C216.178645,75.8097563 214.103534,80.4806176 211.818182,86.2016706 C213.097826,91.4855355 214.164834,96.896326 214.978021,102.414768"/>
      <path fill="#007A70" d="M253.636364,129.999055 C253.636364,121.055636 238.974434,112.988087 215.454545,107.272727 C217.197825,122.524396 217.19504,137.489777 215.454545,152.727273 C238.974434,147.01144 253.636364,138.945309 253.636364,129.999055"/>
      <path fill="#008F6D" d="M184.908724,146.111367 L177.451827,155.048562 C176.885152,156.487307 176.224582,158.136833 175.454545,160 C188.250739,158.708611 200.023519,156.903146 210.321813,154.669443 C212.318623,138.734521 212.31532,122.417142 210.321813,106.500342 C208.664724,106.13696 206.968946,105.788838 205.238251,105.454545 C205.158039,105.785023 205.080186,106.117408 205.012242,106.452654 C202.702133,116.513853 200.083914,127.922714 184.908724,146.111367"/>
      <path fill="#008255" d="M214.492183,158.330561 C212.539809,171.749929 209.207643,184.567264 204.545455,196.363636 C230.665749,183.507704 248.895493,164.180971 253.621196,142.029529 C253.62404,141.957511 253.630676,141.887376 253.636364,141.818182 C247.382509,147.897355 235.674899,153.100072 218.585581,157.355728 C217.25224,157.691813 215.877663,158.011893 214.492183,158.330561"/>
      <path fill="#43913A" d="M176.363636,232.727273 C183.658513,225.193777 190.107068,215.977325 195.454545,205.454545 C190.497788,207.352119 185.351635,209.012728 180.075718,210.458254 C180.149664,215.17891 179.187414,219.031785 178.231365,222.77898 C177.469485,225.79154 176.681842,228.907452 176.363636,232.727273"/>
      <path fill="#C61A6A" d="M20.3823294,82.1922865 C30.5320934,71.7341789 43.5272163,63.3345655 57.3183622,57.1539216 C65.9052488,38.0911489 78.8514435,20.5580527 95.4545455,10 C57.9026769,20.7152434 27.618047,48.5736562 13.6363636,84.5454545 C14.9451911,83.873523 16.3697524,83.3010674 20.3823294,82.1922865"/>
      <path fill="#15A748" d="M163.756402,190.408173 L163.636364,190.793089 C171.038277,193.351235 178.848321,198.969977 179.85947,204.362077 C179.92914,204.739501 179.963033,205.08836 180.023759,205.454545 C186.542093,203.588968 192.769039,201.36938 198.658936,198.837925 C203.869555,186.867602 207.762103,173.462508 210,159.090909 C199.084956,161.33672 186.865962,163.077739 173.848123,164.286337 L171.830532,169.367508 C168.250085,178.378849 164.55007,187.697841 163.756402,190.408173"/>
      <path fill="#007FBA" d="M220.909091,67.319786 C233.021485,75.1430518 243.603454,84.8933226 250.909091,96.3636364 C246.314933,80.2815718 238.62297,65.5166701 228.535307,52.7272727 C227.585089,54.6201842 226.581602,56.5020513 225.521485,58.4775556 C224.110556,61.1176437 222.577251,63.9738176 220.909091,67.319786"/>
      <path fill="#008AC4" d="M163.636364,10 C175.378072,17.6494941 185.249518,28.9463413 193.017266,41.8181818 C194.616113,37.437095 195.780511,31.993539 196.363636,25.2241464 C186.356483,18.6058585 175.361398,13.4261435 163.636364,10"/>
      <path fill="#E1B424" d="M56.3825998,202.698243 C37.2816433,194.116407 19.6837283,181.165996 9.09090909,164.545455 C20.8757146,205.75088 53.343576,238.220096 94.5454545,250 C77.9338811,239.413194 64.9749715,221.825938 56.3825998,202.698243"/>
      <path fill="#00753C" d="M201.87692,202.875557 C195.489222,217.159366 186.712774,230.55791 175.836539,240.861102 C175.698871,242.665661 175.576708,244.492434 175.454545,246.363636 C210.991194,232.145053 238.467456,201.928849 249.090909,164.545455 C238.528068,181.226519 220.971414,194.247893 201.87692,202.875557"/>
      <path fill="#B42554" d="M54.5454545,64.5454545 C45.3003973,68.9689628 37.0405477,74.1731718 30,80 C37.2191105,78.0799108 44.6981665,75.9735443 51.2643018,73.4188181 C52.2724879,70.405563 53.3649289,67.4454641 54.5454545,64.5454545"/>
      <path fill="#4F3B68" d="M70.0811462,64.4316085 C85.744624,65.2581263 97.8961768,65.5287722 97.9678007,65.5342398 C98.8221037,59.8096698 99.800806,54.3001584 100.909091,49.0909091 C86.461805,51.2592654 72.9856821,55.0255258 60.9495757,60.0657354 C59.637257,62.9890752 58.4130545,66.0012633 57.2727273,69.0909091 C64.2287232,65.6476923 62.9413786,64.5874349 70.0811462,64.4316085"/>
      <path fill="#EB8B2D" d="M76.701222,152.860584 C70.3571172,149.064285 64.9848931,144.378848 59.7865697,139.846068 C56.0173178,136.55272 51.7946151,132.869836 47.2729571,130 C47.2605739,138.211357 47.7486179,146.420801 48.7508845,154.526878 C59.2905786,156.839209 71.3836925,158.695486 84.5454545,160 C83.7717832,158.955814 82.9064868,157.896794 81.8766391,156.869357 C80.3395809,155.334663 78.6496583,154.027277 76.701222,152.860584"/>
      <path fill="#F3B229" d="M54.5454545,196.363636 C49.8640289,184.42613 46.5081101,171.45897 44.5519991,157.886216 C27.2680173,153.911494 13.5814319,148.538806 6.10467732,141.818182 L5.45454545,142.337059 C10.5179534,164.350022 28.6768745,183.535129 54.5454545,196.363636"/>
      <path fill="#FFDA1A" d="M87.6629753,164.502901 C73.8724197,163.308131 60.7616737,161.504757 49.0909091,159.090909 C51.3125547,173.429556 55.1746204,186.79827 60.3449107,198.734755 C72.2861975,203.911158 85.6562523,207.7764 100,210 C97.8755368,199.732734 96.202411,188.316507 95.0072545,176.150977 C93.0285648,173.205186 90.8620516,169.184756 87.6629753,164.502901"/>
      <path fill="#DC3E2A" d="M22.8258169,128.453128 L22.6372644,128.610749 L10,138.830414 C16.284457,144.193345 28.0421237,148.965792 43.6363636,152.727273 C42.6342067,144.046677 42.2189197,135.459891 42.3466641,126.863582 C39.2096208,125.440705 35.9589745,124.545455 32.6479915,124.545455 C28.9358628,124.545455 25.8157892,125.785472 22.8258169,128.453128"/>
      <path fill="#A7BE33" d="M101.667854,215.401639 C88.2498753,213.455634 75.4338679,210.111499 63.6363636,205.454545 C76.4956715,231.577753 95.8227566,249.809826 117.980847,254.526023 C118.04015,254.533606 118.109808,254.540715 118.181818,254.545455 C112.09951,248.292738 106.893565,236.585898 102.640703,219.499816 C102.305595,218.159982 101.985548,216.789342 101.667854,215.401639"/>
      <path fill="#DF542A" d="M32.2898924,119.890502 C44.0224393,119.890502 54.1939409,128.444811 62.6410923,135.66866 C67.7124892,140.004103 72.9551917,144.487269 78.9607685,148.005273 C81.4799953,149.480154 83.4951884,151.091432 85.1508282,152.708845 C87.8907756,155.387701 88.0813765,155.920074 89.517237,158.150566 C90.9803933,160.425422 91.9159851,161.818182 92.7329808,161.818182 C94.1076607,161.818182 97.0862122,160.234278 97.6429552,157.872108 C98.7220859,153.065648 94.1457808,148.628734 90.5497764,145.265534 C85.509911,140.557242 78.0350597,132.042105 75.9473911,128.126237 C59.2121578,96.7053733 96.1219126,71.2250939 118.409987,89.2908518 C120.671314,87.1269064 122.752394,84.3909432 124.545455,82.5007358 C112.706077,69.4939376 95.6150553,72.5786807 78.4233209,71.3010798 C76.0161016,71.1226782 68.8753903,70.5714267 66.8338424,71.2076313 C64.7908827,71.843836 62.6552109,73.0492267 61.3553595,73.8119171 C45.6743141,82.9764734 23.5683698,85.0408348 10.4027862,92.2604361 C6.60441534,104.227502 4.54545455,116.970946 4.54545455,130.201926 C4.54545455,132.350768 4.59910518,134.486868 4.70687707,136.61164 L19.1299563,125.037718 C23.0379815,121.573046 27.3436803,119.890502 32.2898924,119.890502"/>
      <path fill="#00A3DA" d="M158.583768,68.4756032 C151.860341,70.9273627 146.444889,74.433916 142.648363,75.7865783 C135.269533,78.3976409 134.324412,80.5430482 128.799491,86.6154182 C127.182452,88.4167686 125.044016,91.0617655 122.739488,93.2302671 C122.699852,93.3414964 122.720614,94.1380119 123.370827,95.0848756 C125.26909,97.8759789 128.228549,96.8805702 130.690204,94.5372123 C157.212093,69.3385736 178.315227,91.1055974 180.940615,104.300418 C182.160826,110.415206 182.632678,119.704744 175.44023,134.726366 C178.976765,135.910771 181.404918,138.111321 181.755504,141.818182 C201.216592,118.763065 198.67425,108.262258 203.699008,94.1832578 C213.35028,67.0871213 219.902897,57.9460458 224.545455,48.2469383 C218.040495,40.7186888 210.639959,33.9775286 202.520792,28.1818182 C197.957506,66.910851 174.337038,62.7397493 158.583768,68.4756032"/>
      <path fill="#84BF41" d="M171.918561,233.448914 C172.704067,221.896965 177.19599,216.686589 175.117878,205.599541 C174.573374,202.708496 167.726352,197.019573 159.757178,195.132676 L157.281814,194.816468 L159.039379,189.222595 C160.125073,185.555616 165.529869,172.189705 170.083345,160.665989 C170.578607,159.487738 176.524593,145.83197 176.360294,143.582751 C176.077152,141.454463 173.490994,140 171.86411,140 C170.231544,140 168.538847,142.977156 166.72399,146.129356 C164.292661,150.277705 162.711231,154.047734 160.470715,158.045038 C160.469294,158.042215 160.466453,158.040333 160.462666,158.037039 C158.099044,162.254088 155.698964,166.631595 152.994909,171.552113 C150.262918,176.547919 147.255361,182.013803 143.758697,188.29044 C142.124711,191.220071 139.481261,192.836873 136.297569,192.836873 C133.385655,192.836873 130.303288,192.016238 129.411248,191.328767 C128.518735,190.641767 107.466308,166.972742 102.407154,161.986817 C100.866444,164.488249 98.2618197,166.197279 95.4545455,167.002386 C103.02126,178.207071 117.218142,199.086219 119.935928,203.22798 C124.219992,209.750714 124.061849,214.045404 125.389019,221.158205 C126.345926,226.266472 134.620023,243.690858 138.969901,254.545455 C150.074946,253.746464 160.793156,251.510892 170.90815,248.025073 C171.185611,242.831637 171.604169,238.033932 171.918561,233.448914"/>
    </g>
    <g transform="translate(320 59)" style="mix-blend-mode:lighten">
      <mask id="logo-horizontal-dark-b" fill="#fff">
        <use xlink:href="#logo-horizontal-dark-a"/>
      </mask>
      <use fill="#1A1919" xlink:href="#logo-horizontal-dark-a"/>
      <g fill="#FFF" fill-opacity=".99" mask="url(#logo-horizontal-dark-b)">
        <rect width="478" height="143"/>
      </g>
    </g>
  </g>
</svg>
