<!-- Generated by IcoMoon.io -->
<svg version="1.1" xmlns="http://www.w3.org/2000/svg" width="32" height="32" viewBox="0 0 32 32">
<title>at</title>
<path d="M16.188 4c6.337 0.093 11.62 5.29 11.813 11.625 0.005 0.143 0 0.274 0 0.406-0.012 3.289-2.716 5.97-6 5.969-1.271-0.001-2.391-0.628-3.125-1.563-0.827 0.948-2.027 1.563-3.375 1.563-2.473 0-4.5-2.027-4.5-4.5v-3c0-2.473 2.027-4.5 4.5-4.5 0.928 0 1.781 0.295 2.5 0.781v-0.781h2v8c0 1.116 0.883 1.999 2 2 2.208 0.001 3.992-1.766 4-3.969 0-0.122 0.003-0.231 0-0.344-0.16-5.253-4.589-9.61-9.844-9.688-6.165-0.090-11.048 5.348-10 11.719 0.696 4.234 4.182 7.613 8.438 8.188 2.919 0.394 5.61-0.452 7.656-2.094l1.25 1.563c-2.452 1.968-5.691 2.968-9.156 2.5-5.139-0.694-9.346-4.723-10.188-9.844-1.242-7.545 4.666-14.139 12.031-14.031zM15.5 12c-1.393 0-2.5 1.107-2.5 2.5v3c0 1.393 1.107 2.5 2.5 2.5s2.5-1.107 2.5-2.5v-3c0-1.393-1.107-2.5-2.5-2.5z"></path>
</svg>
