<!-- Generated by IcoMoon.io -->
<svg version="1.1" xmlns="http://www.w3.org/2000/svg" width="32" height="32" viewBox="0 0 32 32">
<title>balance-scale</title>
<path d="M16 5c1.292 0 2.394 0.844 2.813 2h7.188v2h-1.406l0.281 0.5 4 7 0.125 0.25v0.25c0 2.75-2.25 5-5 5s-5-2.25-5-5v-0.25l0.125-0.25 4-7 0.281-0.5h-4.594c-0.304 0.84-0.973 1.509-1.813 1.813v13.188h4v2h-10v-2h4v-13.188c-0.842-0.304-1.507-0.969-1.813-1.813h-4.594l0.281 0.5 4 7 0.125 0.25v0.25c0 2.75-2.251 5-5 5s-5-2.25-5-5v-0.25l0.125-0.25 4-7 0.281-0.5h-1.406v-2h7.188c0.418-1.156 1.521-2 2.813-2zM16 7c-0.564 0-1 0.436-1 1s0.436 1 1 1 1-0.436 1-1-0.436-1-1-1zM8 12.031l-2.281 3.969h4.563zM24 12.031l-2.281 3.969h4.563zM5.25 18c0.402 1.161 1.444 2 2.75 2s2.348-0.839 2.75-2h-5.5zM21.25 18c0.402 1.161 1.444 2 2.75 2s2.348-0.839 2.75-2h-5.5z"></path>
</svg>
