<!-- Generated by IcoMoon.io -->
<svg version="1.1" xmlns="http://www.w3.org/2000/svg" width="32" height="32" viewBox="0 0 32 32">
<title>bell</title>
<path d="M15 3c1.105 0 2 0.895 2 2 0 0.085-0.021 0.168-0.031 0.25 3.521 0.924 6.031 4.273 6.031 8.031v8.719c0 0.565 0.435 1 1 1h1v2h-7.188c0.114 0.316 0.188 0.647 0.188 1 0 1.645-1.355 3-3 3s-3-1.355-3-3c0-0.353 0.073-0.684 0.188-1h-7.188v-2h1c0.565 0 1-0.435 1-1v-9c0-3.726 2.574-6.866 6.031-7.75-0.010-0.082-0.031-0.165-0.031-0.25 0-1.105 0.895-2 2-2zM14.563 7c-3.118 0.226-5.563 2.824-5.563 6v9c0 0.353-0.073 0.684-0.188 1h12.375c-0.114-0.316-0.188-0.647-0.188-1v-8.719c0-3.319-2.546-6.183-5.813-6.281-0.064-0.002-0.124-0-0.188 0-0.148 0-0.292-0.011-0.438 0zM15 25c-0.564 0-1 0.436-1 1s0.436 1 1 1 1-0.436 1-1-0.436-1-1-1z"></path>
</svg>
