<!-- Generated by IcoMoon.io -->
<svg version="1.1" xmlns="http://www.w3.org/2000/svg" width="32" height="32" viewBox="0 0 32 32">
<title>bullhorn</title>
<path d="M28 3.031v9.156c1.156 0.418 2 1.521 2 2.813s-0.844 2.394-2 2.813v9.156l-1.594-1.156s-2.007-1.443-4.875-2.906-6.587-2.906-9.813-2.906h-3.375l1.625 5.719 0.344 1.281h-6.063l-0.219-0.719-2-7-0.031-0.156v-9.125h9.719c3.27 0 6.987-1.412 9.844-2.875s4.844-2.938 4.844-2.938zM26 6.75c-0.82 0.558-1.459 1.064-3.531 2.125-2.929 1.5-6.726 3.050-10.469 3.125v6c3.708 0.073 7.499 1.595 10.438 3.094 2.078 1.060 2.735 1.567 3.563 2.125v-16.469zM4 12v6h6v-6h-6zM4.344 20l1.406 5h1.906l-1.406-5h-1.906z"></path>
</svg>
