<!-- Generated by IcoMoon.io -->
<svg version="1.1" xmlns="http://www.w3.org/2000/svg" width="32" height="32" viewBox="0 0 32 32">
<title>eye-slash</title>
<path d="M3.719 2.281l6.75 6.75c1.685-0.612 3.538-1.031 5.531-1.031 8.395 0 14.494 7.044 14.75 7.344l0.625 0.719-0.656 0.656c-0.193 0.192-3.247 3.135-7.344 5.219l6.344 6.344-1.438 1.438-8.688-8.719-11.125-11.125-6.188-6.156zM16 10c-1.389 0-2.697 0.254-3.938 0.625l2.063 2.063c0.513-0.415 1.165-0.688 1.875-0.688 1.654 0 3 1.346 3 3 0 0.71-0.273 1.362-0.688 1.875l2.844 2.844c1.144-1.249 1.844-2.904 1.844-4.719 0-1.3-0.386-2.556-1.063-3.656-1.776-0.788-3.773-1.344-5.938-1.344zM6.625 10.875l2.563 2.563c-0.121 0.513-0.188 1.027-0.188 1.563 0 3.565 2.68 6.54 6.219 6.938l0.094 0.031c0.466 0.039 0.908 0.039 1.375 0l0.125-0.031c0.261-0.029 0.531-0.068 0.781-0.125l1.719 1.719c-0.778 0.198-1.577 0.343-2.375 0.406h-0.063c-0.29 0.025-0.585 0.063-0.875 0.063s-0.585-0.037-0.875-0.063h-0.063c-6.964-0.555-13.495-6.934-13.781-7.219l-0.656-0.656 0.625-0.719c0.144-0.17 2.137-2.479 5.375-4.469zM7.281 12.844c-1.775 1.146-3.13 2.351-3.875 3.094 0.914 0.811 2.659 2.238 4.781 3.5-0.75-1.316-1.188-2.825-1.188-4.438 0-0.737 0.107-1.452 0.281-2.156zM24.719 12.844c0.173 0.702 0.281 1.421 0.281 2.156 0 1.614-0.438 3.12-1.188 4.438 2.123-1.262 3.836-2.658 4.75-3.469-0.745-0.742-2.072-1.98-3.844-3.125zM16 14c-0.163 0-0.302 0.056-0.438 0.125l1.313 1.313c0.069-0.136 0.125-0.275 0.125-0.438 0-0.551-0.448-1-1-1z"></path>
</svg>
