<!-- Generated by IcoMoon.io -->
<svg version="1.1" xmlns="http://www.w3.org/2000/svg" width="32" height="32" viewBox="0 0 32 32">
<title>globe</title>
<path d="M16 4c6.616 0 12 5.384 12 12s-5.384 12-12 12-12-5.384-12-12 5.384-12 12-12zM16 6c-0.273 0-0.545 0.041-0.813 0.063l2.219 0.156 0.531 2.313-3 0.563-0.813-1.125-1.719 0.375 0.594 2.656-4 1.906-2.688 2.125 0.969 1.969h3.719l4.031 3.031-1.063 4 1.094 1.906c0.307 0.028 0.623 0.063 0.938 0.063 1.542 0 3.010-0.349 4.313-0.969l1.594-5s-0.737-1.813-0.844-1.813-2.094 0.344-2.094 0.344l-1.938-1.594 0.969-3 1.719-1.281 1.75-0.25 1.625 1 0.688-1.25-2.688-0.875-2.156 0.688-0.156-2.063 0.875-0.75 1.063 0.469-0.188-2 0.813-0.094c-1.545-0.977-3.375-1.563-5.344-1.563zM14.875 6.063c-0.807 0.089-1.576 0.263-2.313 0.531l0.75 0.125zM6.063 16.781c0.315 4.108 3.068 7.526 6.844 8.75l-2.844-3.5h-1.156l-1.875-2.063v-2.063z"></path>
</svg>
