<!-- Generated by IcoMoon.io -->
<svg version="1.1" xmlns="http://www.w3.org/2000/svg" width="32" height="32" viewBox="0 0 32 32">
<title>list-ol</title>
<path d="M5.969 3h2.031v7h-2v-4.531c-0.444 0.255-0.913 0.531-1.594 0.531v-2c0.494 0 1.25-0.656 1.25-0.656zM11 6h17v2h-17v-2zM6.5 12c1.383 0 2.5 1.117 2.5 2.5 0 0.481-0.248 1.090-0.75 1.5l0.031 0.031-0.125 0.094-0.875 0.875h1.719v2h-5v-1.625l0.313-0.281 2.688-2.594c0-0.217-0.283-0.5-0.5-0.5s-0.5 0.283-0.5 0.5v0.5h-2v-0.5c0-1.383 1.117-2.5 2.5-2.5zM11 15h17v2h-17v-2zM4 21h4v1.469l-0.125 0.25-0.406 0.688c0.853 0.398 1.531 1.089 1.531 2.094 0 1.383-1.117 2.5-2.5 2.5h-2.5v-2h2.5c0.217 0 0.5-0.283 0.5-0.5s-0.283-0.5-0.5-0.5h-1.5v-1.375l0.125-0.219 0.25-0.406h-1.375v-2zM11 24h17v2h-17v-2z"></path>
</svg>
