<!-- Generated by IcoMoon.io -->
<svg version="1.1" xmlns="http://www.w3.org/2000/svg" width="32" height="32" viewBox="0 0 32 32">
<title>microphone-slash</title>
<path d="M3.719 2.281l7.281 7.281v-3.563c0-1.103 0.897-2 2-2h6c1.103 0 2 0.897 2 2v12c0 0.438-0.135 0.858-0.375 1.188l1.406 1.406c0.604-0.697 0.969-1.6 0.969-2.594v-4h2v4c0 1.544-0.601 2.936-1.563 4l6.281 6.281-1.438 1.438-26-26zM13 6v5.563l6 6v-11.563h-6zM7 14h2v4c0 2.206 1.794 4 4 4h4.813l1.938 1.938c-0.245 0.031-0.496 0.063-0.75 0.063h-2v2h4v2h-10v-2h4v-2h-2c-3.309 0-6-2.691-6-6v-4zM11 15.188l2 2v0.813h0.813l2 2h-2.813c-1.103 0-2-0.897-2-2v-2.813z"></path>
</svg>
