<!-- Generated by IcoMoon.io -->
<svg version="1.1" xmlns="http://www.w3.org/2000/svg" width="32" height="32" viewBox="0 0 32 32">
<title>paw</title>
<path d="M12.5 5c1.069 0 2.002 0.608 2.594 1.438s0.906 1.903 0.906 3.063-0.314 2.233-0.906 3.063-1.525 1.438-2.594 1.438-2.002-0.608-2.594-1.438-0.906-1.903-0.906-3.063 0.314-2.233 0.906-3.063 1.525-1.438 2.594-1.438zM16 9.5c0-1.159 0.314-2.233 0.906-3.063s1.525-1.438 2.594-1.438 2.002 0.608 2.594 1.438 0.906 1.903 0.906 3.063-0.314 2.233-0.906 3.063-1.525 1.438-2.594 1.438-2.002-0.608-2.594-1.438-0.906-1.903-0.906-3.063zM12.5 7c-0.312 0-0.656 0.156-0.969 0.594s-0.531 1.133-0.531 1.906 0.219 1.469 0.531 1.906 0.657 0.594 0.969 0.594 0.656-0.156 0.969-0.594 0.531-1.133 0.531-1.906-0.219-1.469-0.531-1.906-0.657-0.594-0.969-0.594zM19.5 7c-0.312 0-0.656 0.156-0.969 0.594s-0.531 1.133-0.531 1.906 0.219 1.469 0.531 1.906 0.657 0.594 0.969 0.594 0.656-0.156 0.969-0.594 0.531-1.133 0.531-1.906-0.219-1.469-0.531-1.906-0.657-0.594-0.969-0.594zM7.5 12c1.069 0 2.002 0.608 2.594 1.438s0.906 1.903 0.906 3.063-0.314 2.233-0.906 3.063-1.525 1.438-2.594 1.438-2.002-0.608-2.594-1.438-0.906-1.903-0.906-3.063 0.314-2.233 0.906-3.063 1.525-1.438 2.594-1.438zM24.5 12c1.069 0 2.002 0.608 2.594 1.438s0.906 1.903 0.906 3.063-0.314 2.233-0.906 3.063-1.525 1.438-2.594 1.438-2.002-0.608-2.594-1.438-0.906-1.903-0.906-3.063 0.314-2.233 0.906-3.063 1.525-1.438 2.594-1.438zM7.5 14c-0.312 0-0.656 0.156-0.969 0.594s-0.531 1.133-0.531 1.906 0.219 1.469 0.531 1.906 0.657 0.594 0.969 0.594 0.656-0.156 0.969-0.594 0.531-1.133 0.531-1.906-0.219-1.469-0.531-1.906-0.657-0.594-0.969-0.594zM24.5 14c-0.312 0-0.656 0.156-0.969 0.594s-0.531 1.133-0.531 1.906 0.219 1.469 0.531 1.906 0.657 0.594 0.969 0.594 0.656-0.156 0.969-0.594 0.531-1.133 0.531-1.906-0.219-1.469-0.531-1.906-0.657-0.594-0.969-0.594zM16 16c1.339 0 2.29 0.861 2.75 1.625s0.73 1.417 0.969 1.656c0.142 0.142 1.126 0.562 2.125 1.094 0.5 0.266 1.012 0.582 1.438 1.094s0.719 1.238 0.719 2.031c0 1.921-1.579 3.5-3.5 3.5-0.867 0-1.77-0.279-2.656-0.531s-1.844-0.469-1.844-0.469-0.957 0.216-1.844 0.469-1.79 0.531-2.656 0.531c-1.921 0-3.5-1.579-3.5-3.5 0-0.813 0.291-1.538 0.719-2.063s0.935-0.869 1.438-1.125c1.006-0.513 1.97-0.877 2.125-1.031 0.264-0.264 0.544-0.897 1-1.656s1.385-1.625 2.719-1.625zM16 18c-0.667 0-0.737 0.135-1.031 0.625s-0.514 1.358-1.25 2.094c-0.845 0.845-1.881 0.995-2.625 1.375-0.372 0.19-0.677 0.39-0.844 0.594s-0.25 0.41-0.25 0.813c0 0.841 0.659 1.5 1.5 1.5 0.29 0 1.224-0.221 2.094-0.469s1.59-0.531 2.406-0.531c0.817 0 1.536 0.284 2.406 0.531s1.803 0.469 2.094 0.469c0.841 0 1.5-0.659 1.5-1.5 0-0.353-0.077-0.542-0.25-0.75s-0.464-0.423-0.844-0.625c-0.759-0.404-1.801-0.583-2.625-1.406-0.727-0.727-0.952-1.568-1.25-2.063s-0.37-0.656-1.031-0.656z"></path>
</svg>
