<!-- Generated by IcoMoon.io -->
<svg version="1.1" xmlns="http://www.w3.org/2000/svg" width="32" height="32" viewBox="0 0 32 32">
<title>shield</title>
<path d="M16 4c2.25 0 3.764 0.886 5.125 1.625s2.606 1.375 4.875 1.375h1v1c0 7.745-2.608 12.78-5.25 15.813s-5.375 4.125-5.375 4.125l-0.375 0.125-0.375-0.125s-2.734-1.118-5.375-4.156-5.25-8.063-5.25-15.781v-1h1c2.282 0 3.517-0.637 4.875-1.375s2.875-1.625 5.125-1.625zM16 6c-1.75 0-2.755 0.613-4.156 1.375-1.183 0.643-2.748 1.262-4.781 1.469 0.192 6.736 2.429 11.027 4.688 13.625 2.046 2.354 3.763 3.156 4.25 3.375 0.486-0.217 2.205-0.997 4.25-3.344 2.258-2.591 4.497-6.892 4.688-13.656-2.027-0.206-3.597-0.826-4.781-1.469-1.403-0.761-2.406-1.375-4.156-1.375z"></path>
</svg>
