<!-- Generated by IcoMoon.io -->
<svg version="1.1" xmlns="http://www.w3.org/2000/svg" width="32" height="32" viewBox="0 0 32 32">
<title>smile-o</title>
<path d="M16 4c6.616 0 12 5.384 12 12s-5.384 12-12 12-12-5.384-12-12 5.384-12 12-12zM16 6c-5.535 0-10 4.465-10 10s4.465 10 10 10 10-4.465 10-10-4.465-10-10-10zM11.5 12c0.828 0 1.5 0.672 1.5 1.5s-0.672 1.5-1.5 1.5-1.5-0.672-1.5-1.5 0.672-1.5 1.5-1.5zM20.5 12c0.828 0 1.5 0.672 1.5 1.5s-0.672 1.5-1.5 1.5-1.5-0.672-1.5-1.5 0.672-1.5 1.5-1.5zM10.813 19c1.039 1.793 2.962 3 5.188 3s4.149-1.207 5.188-3l1.719 1c-1.383 2.387-3.954 4-6.906 4s-5.523-1.613-6.906-4z"></path>
</svg>
