<!-- Generated by IcoMoon.io -->
<svg version="1.1" xmlns="http://www.w3.org/2000/svg" width="32" height="32" viewBox="0 0 32 32">
<title>unlink</title>
<path d="M21.75 4c1.603 0 3.189 0.626 4.406 1.844 2.435 2.435 2.435 6.409 0 8.844l-1.469 1.469c-1.015 1.016-2.304 1.618-3.625 1.781l-0.25-2c0.901-0.111 1.745-0.494 2.438-1.188h0.031l1.469-1.469c1.671-1.671 1.671-4.36 0-6.031s-4.36-1.671-6.031 0l-1.469 1.469c-0.692 0.692-1.076 1.564-1.188 2.469l-2-0.25c0.162-1.319 0.765-2.609 1.781-3.625l1.469-1.469c1.218-1.218 2.834-1.844 4.438-1.844zM7.719 6.281l4 4-1.438 1.438-4-4zM10.938 14.063l0.25 2c-0.901 0.111-1.745 0.494-2.438 1.188h-0.031l-1.469 1.469c-1.671 1.671-1.671 4.36 0 6.031s4.36 1.671 6.031 0l1.469-1.469c0.692-0.692 1.076-1.564 1.188-2.469l2 0.25c-0.162 1.319-0.765 2.609-1.781 3.625l-1.469 1.469c-2.435 2.435-6.409 2.435-8.844 0s-2.435-6.409 0-8.844l1.469-1.469c1.015-1.016 2.304-1.618 3.625-1.781zM21.719 20.281l4 4-1.438 1.438-4-4z"></path>
</svg>
