<!-- Generated by IcoMoon.io -->
<svg version="1.1" xmlns="http://www.w3.org/2000/svg" width="32" height="32" viewBox="0 0 32 32">
<title>users</title>
<path d="M8 7c3.302 0 6 2.698 6 6 0 1.984-0.975 3.75-2.469 4.844 1.459 0.725 2.68 1.862 3.469 3.281 0.789-1.42 2.010-2.557 3.469-3.281-1.494-1.094-2.469-2.86-2.469-4.844 0-3.302 2.698-6 6-6s6 2.698 6 6c0 1.984-0.975 3.75-2.469 4.844 2.638 1.31 4.469 4.020 4.469 7.156h-2c0-3.326-2.674-6-6-6s-6 2.674-6 6h-2c0-3.326-2.674-6-6-6s-6 2.674-6 6h-2c0-3.136 1.831-5.846 4.469-7.156-1.494-1.094-2.469-2.86-2.469-4.844 0-3.302 2.698-6 6-6zM8 9c-2.221 0-4 1.779-4 4s1.779 4 4 4 4-1.779 4-4-1.779-4-4-4zM22 9c-2.221 0-4 1.779-4 4s1.779 4 4 4 4-1.779 4-4-1.779-4-4-4z"></path>
</svg>
