<!-- Generated by IcoMoon.io -->
<svg version="1.1" xmlns="http://www.w3.org/2000/svg" width="32" height="32" viewBox="0 0 32 32">
<title>user-times</title>
<path d="M12 2c3.854 0 7 3.146 7 7 0 2.409-1.231 4.552-3.094 5.813 0.486 0.208 0.964 0.441 1.406 0.719 1.318-0.957 2.94-1.531 4.688-1.531 4.406 0 8 3.594 8 8s-3.594 8-8 8-8-3.594-8-8c0-1.897 0.671-3.657 1.781-5.031-1.127-0.611-2.405-0.969-3.781-0.969-4.431 0-8 3.569-8 8h-2c0-4.119 2.527-7.658 6.094-9.188-1.863-1.26-3.094-3.404-3.094-5.813 0-3.854 3.146-7 7-7zM12 4c-2.773 0-5 2.227-5 5s2.227 5 5 5 5-2.227 5-5-2.227-5-5-5zM22 16c-3.326 0-6 2.674-6 6s2.674 6 6 6 6-2.674 6-6-2.674-6-6-6zM19.719 18.281l2.281 2.281 2.281-2.281 1.438 1.438-2.281 2.281 2.281 2.281-1.438 1.438-2.281-2.281-2.281 2.281-1.438-1.438 2.281-2.281-2.281-2.281z"></path>
</svg>
