<!-- Generated by IcoMoon.io -->
<svg version="1.1" xmlns="http://www.w3.org/2000/svg" width="32" height="32" viewBox="0 0 32 32">
<title>archive</title>
<path d="M4 5h24v6h-1v16h-22v-16h-1v-6zM6 7v2h20v-2h-20zM7 11v14h18v-14h-18zM12.813 13c0.013-0.001 0.034-0.001 0.047-0.001s0.034 0.001 0.047 0.001c0.013-0.001 0.034-0.001 0.047-0.001s0.034 0.001 0.047 0.001l6.014-0c0.552 0 1 0.448 1 1s-0.448 1-1 1l-0.014-0h-6c-0.026 0.002-0.068 0.004-0.094 0.004-0.554 0-1.004-0.45-1.004-1.004 0-0.505 0.408-0.953 0.911-1z"></path>
</svg>
