<!-- Generated by IcoMoon.io -->
<svg version="1.1" xmlns="http://www.w3.org/2000/svg" width="32" height="32" viewBox="0 0 32 32">
<title>bold</title>
<path d="M16 7h-9v18h11c2.8 0 5-2.2 5-5 0-2.2-1.4-4-3.3-4.7 0.8-0.9 1.3-2 1.3-3.3 0-2.8-2.2-5-5-5zM9 15v-6h7c1.7 0 3 1.3 3 3s-1.3 3-3 3h-7zM9 23v-6h9c1.7 0 3 1.3 3 3s-1.3 3-3 3h-9zM16 5v0c3.9 0 7 3.1 7 7 0 0.9-0.2 1.8-0.5 2.6 1.5 1.3 2.5 3.3 2.5 5.4 0 3.9-3.1 7-7 7h-13v-22h11zM11 11v0 2h5c0.6 0 1-0.4 1-1s-0.4-1-1-1h-5zM11 19v0 2h7c0.6 0 1-0.4 1-1s-0.4-1-1-1h-7z"></path>
</svg>
