<!-- Generated by IcoMoon.io -->
<svg version="1.1" xmlns="http://www.w3.org/2000/svg" width="32" height="32" viewBox="0 0 32 32">
<title>book</title>
<path d="M10 5c2.92 0 5.482 0.981 6 1.188 0.518-0.206 3.080-1.188 6-1.188 3.227 0 6.375 1.313 6.375 1.313l0.625 0.281v20.406h-11.281c-0.346 0.597-0.979 1-1.719 1s-1.373-0.403-1.719-1h-11.281v-20.406l0.625-0.281s3.148-1.313 6.375-1.313zM10 7c-2.199 0-4.232 0.69-5 0.969v16.125c1.188-0.392 2.897-0.875 5-0.875 2.057 0 3.888 0.506 5 0.875v-16.125c-1-0.343-3.067-0.969-5-0.969zM22 7c-1.933 0-4 0.626-5 0.969v16.125c1.112-0.369 2.943-0.875 5-0.875 2.103 0 3.813 0.483 5 0.875v-16.125c-0.768-0.279-2.801-0.969-5-0.969z"></path>
</svg>
