<!-- Generated by IcoMoon.io -->
<svg version="1.1" xmlns="http://www.w3.org/2000/svg" width="32" height="32" viewBox="0 0 32 32">
<title>bug</title>
<path d="M10.719 3.281l2.313 2.313c0.923-0.39 1.922-0.594 2.969-0.594s2.046 0.203 2.969 0.594l2.313-2.313 1.438 1.438-1.938 1.938c1.462 1.119 2.61 2.755 3.344 4.656l2.438-1.219 0.875 1.813-2.75 1.375c0.183 0.876 0.313 1.782 0.313 2.719 0 0.34-0.006 0.666-0.031 1h3.031v2h-3.375c-0.242 1.043-0.561 2.039-1.031 2.938l3 2.25-1.188 1.625-2.938-2.188c-1.618 2.056-3.885 3.375-6.469 3.375s-4.851-1.319-6.469-3.375l-2.938 2.188-1.188-1.625 3-2.25c-0.47-0.898-0.789-1.894-1.031-2.938h-3.375v-2h3.031c-0.025-0.334-0.031-0.66-0.031-1 0-0.937 0.13-1.843 0.313-2.719l-2.75-1.375 0.875-1.813 2.438 1.219c0.734-1.901 1.882-3.538 3.344-4.656l-1.938-1.938zM16 7c-1.978 0-3.827 1.094-5.125 2.875 1.134 0.511 2.924 1.125 5.125 1.125s3.991-0.614 5.125-1.125c-1.298-1.781-3.147-2.875-5.125-2.875zM9.906 11.594c-0.569 1.292-0.906 2.788-0.906 4.406 0 4.629 2.698 8.282 6 8.906v-11.969c-2.17-0.162-3.941-0.801-5.094-1.344zM22.094 11.594c-1.153 0.542-2.924 1.182-5.094 1.344v11.969c3.302-0.625 6-4.278 6-8.906 0-1.618-0.337-3.115-0.906-4.406z"></path>
</svg>
