<!-- Generated by IcoMoon.io -->
<svg version="1.1" xmlns="http://www.w3.org/2000/svg" width="32" height="32" viewBox="0 0 32 32">
<title>certificate</title>
<path d="M16 3c0.624 0 1.248 0.213 1.781 0.594l1.656 1.156 1.875 0.25h0.031c1.314 0.16 2.352 1.223 2.531 2.531 0.003 0.024 0.029 0.038 0.031 0.063h-0.031l0.375 1.875 1.156 1.656c0.762 1.067 0.73 2.476 0.031 3.594v0.031l-0.031 0.031-1.156 1.656-0.25 1.875 3.125 4.75 1.031 1.531h-4.781l-1.156 2.688-0.719 1.719-1.031-1.563-3.156-4.75c-0.818 0.379-1.779 0.349-2.625 0l-3.156 4.75-1.031 1.563-0.719-1.719-1.156-2.688h-4.781l1.031-1.531 3.219-4.906-0.313-1.719-1.188-1.656c-0.762-1.067-0.73-2.507-0.031-3.625v-0.031l0.031-0.031 1.156-1.5 0.25-1.938v-0.031l0.031-0.031c0.283-1.275 1.287-2.279 2.563-2.563l0.031-0.031h0.031l1.906-0.25 1.656-1.156c0.533-0.381 1.157-0.594 1.781-0.594zM16 5.031c-0.229 0-0.458 0.068-0.625 0.188l-2 1.438-0.25 0.031-2.094 0.281c-0.015 0.003-0.016 0.027-0.031 0.031-0.487 0.125-0.875 0.513-1 1-0.004 0.015-0.028 0.016-0.031 0.031l-0.281 2.094-0.031 0.281-0.156 0.188-1.25 1.625c-0.301 0.482-0.269 1.073-0.031 1.406l1.281 1.781 0.156 0.188 0.031 0.25 0.406 2.281v0.063c0.015 0.138 0.063 0.266 0.125 0.375 0.139 0.244 0.378 0.403 0.688 0.438h0.031l2.188 0.313 0.281 0.031 0.188 0.156 1.625 1.25c0.482 0.302 1.073 0.269 1.406 0.031l1.781-1.281 0.188-0.156 0.25-0.031 2.281-0.406h0.063c0.25-0.028 0.45-0.142 0.594-0.313v-0.031l0.063-0.031c0.084-0.122 0.138-0.273 0.156-0.438v-0.031l0.313-2.188 0.031-0.25 1.406-1.969c0.302-0.482 0.269-1.042 0.031-1.375l-1.281-1.781-0.156-0.188-0.031-0.219-0.406-2.219v-0.063c-0.050-0.447-0.365-0.763-0.813-0.813h-0.031l-2.188-0.313-0.25-0.031-0.219-0.156-1.781-1.281c-0.167-0.119-0.396-0.188-0.625-0.188zM22.906 20.25c-0.409 0.323-0.9 0.552-1.438 0.625-0.024 0.003-0.038 0.029-0.063 0.031v-0.031l-1.969 0.344-0.469 0.344 2.125 3.25 0.688-1.594 0.25-0.625h2.406zM9.094 20.281l-1.531 2.313h2.406l0.25 0.625 0.688 1.594 2.125-3.219-0.438-0.344-1.906-0.25c-0.010-0.001-0.021 0.001-0.031 0-0.595-0.072-1.135-0.338-1.563-0.719z"></path>
</svg>
