<!-- Generated by IcoMoon.io -->
<svg version="1.1" xmlns="http://www.w3.org/2000/svg" width="32" height="32" viewBox="0 0 32 32">
<title>chain</title>
<path d="M21.75 4c1.671 0 3.225 0.661 4.406 1.844s1.844 2.735 1.844 4.406-0.662 3.255-1.844 4.438l-1.469 1.469c-1.181 1.183-2.766 1.844-4.438 1.844-0.793 0-1.565-0.153-2.281-0.438l1.625-1.625c0.215 0.038 0.432 0.063 0.656 0.063 1.138 0 2.226-0.445 3.031-1.25l1.469-1.469c1.66-1.66 1.66-4.372 0-6.031-0.804-0.805-1.863-1.25-3-1.25s-2.227 0.444-3.031 1.25l-1.469 1.469c-0.997 0.996-1.391 2.393-1.188 3.688l-1.625 1.625c-0.285-0.716-0.438-1.487-0.438-2.281 0-1.671 0.662-3.255 1.844-4.438l1.469-1.469c1.181-1.183 2.766-1.844 4.438-1.844zM19.281 11.281l1.438 1.438-8 8-1.438-1.438zM11.75 14c0.793 0 1.565 0.153 2.281 0.438l-1.625 1.625c-0.215-0.038-0.432-0.063-0.656-0.063-1.138 0-2.226 0.445-3.031 1.25l-1.469 1.469c-1.66 1.66-1.66 4.372 0 6.031 0.804 0.805 1.863 1.25 3 1.25s2.227-0.444 3.031-1.25l1.469-1.469c0.997-0.996 1.391-2.393 1.188-3.688l1.625-1.625c0.285 0.716 0.438 1.487 0.438 2.281 0 1.671-0.662 3.256-1.844 4.438l-1.469 1.469c-1.181 1.183-2.766 1.844-4.438 1.844s-3.225-0.661-4.406-1.844c-1.182-1.182-1.844-2.735-1.844-4.406s0.662-3.256 1.844-4.438l1.469-1.469c1.181-1.183 2.766-1.844 4.438-1.844z"></path>
</svg>
