<!-- Generated by IcoMoon.io -->
<svg version="1.1" xmlns="http://www.w3.org/2000/svg" width="32" height="32" viewBox="0 0 32 32">
<title>child</title>
<path d="M12 3c2.202 0 3.791 1.007 4.531 2.313 0.026-0.041 0.034-0.084 0.063-0.125 0.453-0.641 1.315-1.188 2.406-1.188v2c-0.453 0-0.588 0.111-0.719 0.281 3.845 0.921 6.812 4.105 7.563 8.063 1.193 0.397 2.156 1.337 2.156 2.656 0 1.365-1.024 2.33-2.281 2.688-0.816 4.701-4.82 8.313-9.719 8.313s-8.903-3.611-9.719-8.313c-1.257-0.357-2.281-1.323-2.281-2.688s1.024-2.33 2.281-2.688c0.741-4.271 4.122-7.637 8.406-8.219-0.39-0.574-1.192-1.094-2.688-1.094v-2zM16 8c-4.093 0-7.461 3.121-7.906 7.125l-0.094 0.875h-1c-0.555 0-1 0.445-1 1s0.445 1 1 1h1l0.094 0.875c0.445 4.004 3.813 7.125 7.906 7.125s7.461-3.121 7.906-7.125l0.094-0.875h1c0.555 0 1-0.445 1-1s-0.445-1-1-1h-0.875l-0.125-0.875c-0.536-4.019-3.907-7.125-8-7.125zM12.5 16c0.828 0 1.5 0.672 1.5 1.5s-0.672 1.5-1.5 1.5-1.5-0.672-1.5-1.5 0.672-1.5 1.5-1.5zM19.5 16c0.828 0 1.5 0.672 1.5 1.5s-0.672 1.5-1.5 1.5-1.5-0.672-1.5-1.5 0.672-1.5 1.5-1.5z"></path>
</svg>
