<!-- Generated by IcoMoon.io -->
<svg version="1.1" xmlns="http://www.w3.org/2000/svg" width="32" height="32" viewBox="0 0 32 32">
<title>cloud-upload</title>
<path d="M16 4c3.378 0 6.14 2.131 7.344 5.063 3.527 0.182 6.33 2.986 6.563 6.5 1.239 1.102 2.094 2.677 2.094 4.438 0 3.324-2.676 6-6 6h-20c-3.324 0-6-2.676-6-6 0-2.751 1.884-4.944 4.344-5.656 0.597-1.699 2.050-2.919 3.844-3.219 0.454-3.994 3.694-7.125 7.813-7.125zM16 6c-3.37 0-6 2.63-6 6v1h-1c-1.444 0-2.638 0.964-2.938 2.313l-0.125 0.656-0.656 0.125c-1.832 0.319-3.281 1.886-3.281 3.906 0 2.276 1.724 4 4 4h20c2.276 0 4-1.724 4-4 0-1.267-0.65-2.48-1.594-3.188l-0.406-0.313v-0.5c0-2.755-2.245-5-5-5h-1.031l-0.219-0.719c-0.779-2.51-2.988-4.281-5.75-4.281zM16 11.594l0.719 0.688 4 4-1.438 1.438-2.281-2.281v6.563h-2v-6.563l-2.281 2.281-1.438-1.438 4-4z"></path>
</svg>
