<!-- Generated by IcoMoon.io -->
<svg version="1.1" xmlns="http://www.w3.org/2000/svg" width="32" height="32" viewBox="0 0 32 32">
<title>cloud</title>
<path d="M16 5c2.451 0 4.563 1.302 5.813 3.219 0.392-0.089 0.755-0.219 1.188-0.219 3.302 0 6 2.698 6 6 1.73 1.055 3 2.835 3 5 0 3.302-2.698 6-6 6h-20c-3.302 0-6-2.698-6-6s2.698-6 6-6c0.211 0 0.394 0.040 0.594 0.063 0.531-1.191 1.439-2.083 2.656-2.563 0.698-3.129 3.419-5.5 6.75-5.5zM16 7c-2.522 0-4.581 1.836-4.938 4.25l-0.094 0.688-0.656 0.156c-1.11 0.265-2.002 1.136-2.25 2.25l-0.188 0.969-1-0.219c-0.298-0.067-0.584-0.094-0.875-0.094-2.22 0-4 1.78-4 4s1.78 4 4 4h20c2.22 0 4-1.78 4-4 0-1.662-1.009-3.078-2.438-3.688l-0.656-0.281 0.063-0.719c0.018-0.235 0.031-0.321 0.031-0.313 0-2.22-1.78-4-4-4-0.444 0-0.875 0.096-1.313 0.25l-0.844 0.281-0.375-0.781c-0.824-1.631-2.511-2.75-4.469-2.75z"></path>
</svg>
