<!-- Generated by IcoMoon.io -->
<svg version="1.1" xmlns="http://www.w3.org/2000/svg" width="32" height="32" viewBox="0 0 32 32">
<title>compass</title>
<path d="M16 3c7.168 0 13 5.832 13 13s-5.832 13-13 13-13-5.832-13-13 5.832-13 13-13zM14.875 5.063c-5.226 0.529-9.341 4.695-9.813 9.938h0.938v2h-0.938c0.475 5.284 4.653 9.462 9.938 9.938v-0.938h2v0.938c5.284-0.475 9.462-4.653 9.938-9.938h-0.938v-2h0.938c-0.475-5.284-4.653-9.462-9.938-9.938v0.938h-2v-0.938c-0.041 0.004-0.084-0.004-0.125 0zM22.094 9.906l-3.688 8.5-8.5 3.688 3.688-8.5zM16 14.5c-0.8 0-1.5 0.7-1.5 1.5s0.7 1.5 1.5 1.5 1.5-0.7 1.5-1.5-0.7-1.5-1.5-1.5z"></path>
</svg>
