<!-- Generated by IcoMoon.io -->
<svg version="1.1" xmlns="http://www.w3.org/2000/svg" width="32" height="32" viewBox="0 0 32 32">
<title>crosshairs</title>
<path d="M15 3h2v2.063c5.268 0.477 9.46 4.67 9.938 9.938h2.063v2h-2.063c-0.477 5.268-4.67 9.46-9.938 9.938v2.063h-2v-2.063c-5.268-0.477-9.46-4.67-9.938-9.938h-2.063v-2h2.063c0.477-5.268 4.67-9.46 9.938-9.938v-2.063zM15 7.031c-4.193 0.453-7.515 3.776-7.969 7.969h1.969v2h-1.969c0.453 4.193 3.776 7.515 7.969 7.969v-1.969h2v1.969c4.193-0.453 7.515-3.776 7.969-7.969h-1.969v-2h1.969c-0.453-4.193-3.776-7.515-7.969-7.969v1.969h-2v-1.969z"></path>
</svg>
