<!-- Generated by IcoMoon.io -->
<svg version="1.1" xmlns="http://www.w3.org/2000/svg" width="32" height="32" viewBox="0 0 32 32">
<title>cubes</title>
<path d="M16 4l0.375 0.156 6.625 2.656v6.719l5.406 2.344 0.594 0.281v8.063l-0.5 0.313-6 3.344-0.469 0.25-0.469-0.219-5.563-2.781-5.563 2.781-0.469 0.219-0.469-0.25-6-3.344-0.5-0.313v-8.063l0.594-0.281 5.406-2.344v-6.719l6.625-2.656zM16 6.188l-3.281 1.281 3.281 1.281 3.281-1.281zM11 8.938v4.625l4 1.781v-4.875zM21 8.938l-4 1.531v4.875l4-1.781v-4.625zM10 15.313l-3.625 1.563 3.625 1.813 3.625-1.781zM22 15.313l-2.5 1.094-1.125 0.5 3.625 1.781 3.625-1.813zM5 18.406v4.656l4 2.25v-4.906zM27 18.406l-4 2v4.906l4-2.25v-4.656zM15 18.469l-4 1.938v4.969l4-2v-4.906zM17 18.469v4.906l4 2v-4.969z"></path>
</svg>
