<!-- Generated by IcoMoon.io -->
<svg version="1.1" xmlns="http://www.w3.org/2000/svg" width="32" height="32" viewBox="0 0 32 32">
<title>dashboard</title>
<path d="M16 4c6.616 0 12 5.384 12 12s-5.384 12-12 12-12-5.384-12-12 5.384-12 12-12zM16 6c-5.535 0-10 4.465-10 10s4.465 10 10 10 10-4.465 10-10-4.465-10-10-10zM16 7c0.552 0 1 0.448 1 1s-0.448 1-1 1-1-0.448-1-1 0.448-1 1-1zM10.344 9.344c0.552 0 1 0.448 1 1s-0.448 1-1 1-1-0.448-1-1 0.448-1 1-1zM20.938 9.656l1.438 1.406-4.438 4.438c0.041 0.16 0.063 0.327 0.063 0.5 0 1.105-0.895 2-2 2s-2-0.895-2-2 0.895-2 2-2c0.173 0 0.34 0.021 0.5 0.063zM8 15c0.552 0 1 0.448 1 1s-0.448 1-1 1-1-0.448-1-1 0.448-1 1-1zM24 15c0.552 0 1 0.448 1 1s-0.448 1-1 1-1-0.448-1-1 0.448-1 1-1zM10.344 20.656c0.552 0 1 0.448 1 1s-0.448 1-1 1-1-0.448-1-1 0.448-1 1-1zM21.656 20.656c0.552 0 1 0.448 1 1s-0.448 1-1 1-1-0.448-1-1 0.448-1 1-1z"></path>
</svg>
