<!-- Generated by IcoMoon.io -->
<svg version="1.1" xmlns="http://www.w3.org/2000/svg" width="32" height="32" viewBox="0 0 32 32">
<title>file-photo-o</title>
<path d="M5 3h13.406l0.313 0.281 6 6 0.281 0.313v19.406h-20v-26zM7 5v22h16v-16h-6v-6h-10zM19 6.438v2.563h2.563zM20.094 14c0.552 0 1 0.448 1 1s-0.448 1-1 1-1-0.448-1-1 0.448-1 1-1zM13 15.594l0.719 0.688 2.281 2.281 1.281-1.281 0.719-0.688 0.719 0.688 3 3-1.438 1.438-2.281-2.281-1.281 1.281-0.719 0.688-0.719-0.688-2.281-2.281-3.281 3.281-1.438-1.438 4-4z"></path>
</svg>
