<!-- Generated by IcoMoon.io -->
<svg version="1.1" xmlns="http://www.w3.org/2000/svg" width="32" height="32" viewBox="0 0 32 32">
<title>file-excel-o</title>
<path d="M5 3h20v7h-2v-5h-16v5h-2v-7zM7 12h2l1 2 1-2h2l-2 4 2 4h-2l-1-2-1 2h-2l2-4zM14 12h2v6h2v2h-4v-8zM21.5 12c0.733 0 1.402 0.287 1.844 0.75s0.656 1.068 0.656 1.656h-2c0-0.112-0.035-0.22-0.094-0.281s-0.14-0.125-0.406-0.125c-0.217 0-0.5 0.283-0.5 0.5s0.283 0.5 0.5 0.5c1.383 0 2.5 1.117 2.5 2.5 0 1.3-1.081 2.5-2.5 2.5-0.732 0-1.413-0.232-1.875-0.719s-0.625-1.121-0.625-1.688h2c0 0.233 0.049 0.299 0.063 0.313s0.069 0.094 0.438 0.094c0.381 0 0.5-0.2 0.5-0.5 0-0.217-0.283-0.5-0.5-0.5-1.383 0-2.5-1.117-2.5-2.5s1.117-2.5 2.5-2.5zM5 22h2v5h16v-5h2v7h-20v-7z"></path>
</svg>
