<!-- Generated by IcoMoon.io -->
<svg version="1.1" xmlns="http://www.w3.org/2000/svg" width="32" height="32" viewBox="0 0 32 32">
<title>file-word-o</title>
<path d="M5 3h20v26h-20v-26zM7 5v22h16v-22h-16zM17 12h4v2h-2v4.5c0 1.383-1.117 2.5-2.5 2.5-0.386 0-0.604-0.283-0.906-0.469-0.408 0.824-1.11 1.469-2.094 1.469-1.383 0-2.5-1.117-2.5-2.5v-4.5h-2v-2h4v6.5c0 0.217 0.283 0.5 0.5 0.5s0.5-0.283 0.5-0.5v-4.5h2v2s0.007 0.652 0.156 1.25c0.075 0.299 0.198 0.577 0.281 0.688s0.021 0.063 0.063 0.063c0.217 0 0.5-0.283 0.5-0.5v-6.5z"></path>
</svg>
