<!-- Generated by IcoMoon.io -->
<svg version="1.1" xmlns="http://www.w3.org/2000/svg" width="32" height="32" viewBox="0 0 32 32">
<title>fire</title>
<path d="M13.375 3h1.281l0.281 0.219s2.507 2.024 5 5.094 5.063 7.224 5.063 11.688c0 1.978-0.333 4.263-1.938 6.063-1.369 1.535-3.592 2.567-6.938 2.844-0.085 0.007-0.163 0.025-0.25 0.031-0.283 0.028-0.57 0.063-0.875 0.063-0.097 0-0.186-0.028-0.281-0.031-0.139 0.002-0.263 0.031-0.406 0.031-3.265 0-5.674-1.113-7.188-2.781s-2.125-3.807-2.125-5.813c0-4.244 1.984-7.63 3.969-10.344s3.919-4.935 4.219-6.281zM14.5 5.5c-0.868 1.866-2.366 3.645-3.906 5.75-1.892 2.586-3.594 5.534-3.594 9.156 0 1.595 0.508 3.237 1.625 4.469 0.238 0.262 0.514 0.493 0.813 0.719-0.078-0.193-0.164-0.391-0.219-0.594-0.619-2.311 0.099-5.073 1.969-7.594l0.938-1.281 0.75 1.406c0.511 0.955 1.047 1.345 1.344 1.438s0.424 0.063 0.719-0.281c0.589-0.689 1.141-3.002 0.094-6.406l-0.375-1.281h1.938l0.281 0.344c0.548 0.633 1.188 1.78 1.938 3.406s1.529 3.644 1.938 5.656c0.358 1.761 0.476 3.535-0.063 5.094 0.34-0.241 0.632-0.509 0.875-0.781 1.13-1.267 1.438-2.963 1.438-4.719 0-3.669-2.272-7.509-4.625-10.406-1.705-2.099-3.067-3.383-3.875-4.094zM17.563 17.219c-0.157 1.133-0.503 2.089-1.094 2.781-0.688 0.806-1.824 1.195-2.844 0.875-0.551-0.173-1.025-0.508-1.469-0.969-0.903 1.704-1.324 3.385-1 4.594 0.392 1.464 1.431 2.428 3.594 2.5 0.086 0.003 0.16 0 0.25 0 0.345-0.011 0.686-0.037 1-0.063 0.15-0.018 0.303-0.036 0.438-0.063 1.21-0.239 1.804-0.811 2.188-1.594 0.511-1.044 0.519-2.681 0.156-4.469-0.25-1.23-0.756-2.418-1.219-3.594z"></path>
</svg>
