<!-- Generated by IcoMoon.io -->
<svg version="1.1" xmlns="http://www.w3.org/2000/svg" width="32" height="32" viewBox="0 0 32 32">
<title>flask</title>
<path d="M17 0c0.552 0 1 0.448 1 1s-0.448 1-1 1-1-0.448-1-1 0.448-1 1-1zM14 3c0.552 0 1 0.448 1 1h7v2h-1v7.656l6.156 7.938c0.543 0.698 0.844 1.553 0.844 2.438 0 2.185-1.784 3.969-3.969 3.969h-16.063c-2.185 0-3.969-1.784-3.969-3.969 0-0.885 0.301-1.74 0.844-2.438l6.156-7.938v-7.656h-1v-2h3c0-0.552 0.448-1 1-1zM13 6v8.344l-2.844 3.656h11.688l-2.844-3.656v-8.344h-6zM17 10c0.552 0 1 0.448 1 1s-0.448 1-1 1-1-0.448-1-1 0.448-1 1-1zM8.594 20l-2.188 2.813c-0.269 0.346-0.406 0.779-0.406 1.219 0 1.105 0.864 1.969 1.969 1.969h16.063c1.105 0 1.969-0.864 1.969-1.969 0-0.439-0.137-0.873-0.406-1.219l-2.188-2.813h-14.813z"></path>
</svg>
