<!-- Generated by IcoMoon.io -->
<svg version="1.1" xmlns="http://www.w3.org/2000/svg" width="32" height="32" viewBox="0 0 32 32">
<title>frown-o</title>
<path d="M16 4c6.616 0 12 5.384 12 12s-5.384 12-12 12-12-5.384-12-12 5.384-12 12-12zM16 6c-5.535 0-10 4.465-10 10s4.465 10 10 10 10-4.465 10-10-4.465-10-10-10zM11.5 12c0.828 0 1.5 0.672 1.5 1.5s-0.672 1.5-1.5 1.5-1.5-0.672-1.5-1.5 0.672-1.5 1.5-1.5zM20.5 12c0.828 0 1.5 0.672 1.5 1.5s-0.672 1.5-1.5 1.5-1.5-0.672-1.5-1.5 0.672-1.5 1.5-1.5zM16 18c2.667 0 5.020 1.335 6.469 3.344l-1.625 1.156c-1.092-1.514-2.835-2.5-4.844-2.5s-3.752 0.986-4.844 2.5l-1.625-1.156c1.448-2.008 3.801-3.344 6.469-3.344z"></path>
</svg>
