<!-- Generated by IcoMoon.io -->
<svg version="1.1" xmlns="http://www.w3.org/2000/svg" width="32" height="32" viewBox="0 0 32 32">
<title>gamepad</title>
<path d="M16 7c6.383 0 11.969 2.063 11.969 2.063l0.594 0.219 0.063 0.594 1.344 10.25c0.365 2.835-1.665 5.479-4.5 5.844-2.639 0.34-5.005-1.44-5.625-3.969h-7.688c-0.619 2.529-2.985 4.309-5.625 3.969-2.835-0.365-4.865-3.009-4.5-5.844l1.344-10.25 0.063-0.594 0.594-0.219s5.586-2.063 11.969-2.063zM16 9c-5.486 0-10.007 1.524-10.75 1.781l-1.219 9.625c-0.227 1.763 0.987 3.335 2.75 3.563s3.368-0.987 3.594-2.75l0.031-0.344 0.125-0.875h10.938l0.125 0.875 0.031 0.344c0.227 1.763 1.832 2.977 3.594 2.75 1.763-0.227 2.977-1.8 2.75-3.563l-1.219-9.625c-0.743-0.258-5.264-1.781-10.75-1.781zM9 12h2v2h2v2h-2v2h-2v-2h-2v-2h2v-2zM22 12c0.552 0 1 0.448 1 1s-0.448 1-1 1-1-0.448-1-1 0.448-1 1-1zM20 14c0.552 0 1 0.448 1 1s-0.448 1-1 1-1-0.448-1-1 0.448-1 1-1zM24 14c0.552 0 1 0.448 1 1s-0.448 1-1 1-1-0.448-1-1 0.448-1 1-1zM22 16c0.552 0 1 0.448 1 1s-0.448 1-1 1-1-0.448-1-1 0.448-1 1-1z"></path>
</svg>
