<!-- Generated by IcoMoon.io -->
<svg version="1.1" xmlns="http://www.w3.org/2000/svg" width="32" height="32" viewBox="0 0 32 32">
<title>hand-o-left</title>
<path d="M16.906 3h0.406l0.313 0.281 6.781 6.719h5.594v16h-16.844c-1.409 0-2.642-0.998-2.938-2.375l-1.656-7.625h-3.563c-1.645 0-3-1.355-3-3s1.355-3 3-3h10.75l-0.188-0.75c-0.203-0.156-0.331-0.224-0.625-0.625-0.47-0.642-0.938-1.633-0.938-2.969-0.002-1.426 1.29-2.656 2.906-2.656zM16.594 5.094c-0.421 0.082-0.594 0.255-0.594 0.563 0 0.903 0.273 1.459 0.531 1.813s0.438 0.438 0.438 0.438l0.344 0.188 0.125 0.406 0.594 2.25 0.313 1.25h-13.344c-0.565 0-1 0.435-1 1s0.435 1 1 1h5.188l0.188 0.781 1.781 8.438c0.1 0.467 0.523 0.781 1 0.781h9.844v-12.594zM25 12v12h3v-12h-3z"></path>
</svg>
