<!-- Generated by IcoMoon.io -->
<svg version="1.1" xmlns="http://www.w3.org/2000/svg" width="32" height="32" viewBox="0 0 32 32">
<title>hand-o-right</title>
<path d="M14.688 3h0.406c1.616 0 2.908 1.23 2.906 2.656 0 1.336-0.468 2.327-0.938 2.969-0.294 0.401-0.422 0.469-0.625 0.625l-0.188 0.75h10.75c1.645 0 3 1.355 3 3s-1.355 3-3 3h-3.563l-1.656 7.625c-0.296 1.377-1.529 2.375-2.938 2.375h-16.844v-16h5.594l6.781-6.719zM15.406 5.094l-6.406 6.313v12.594h9.844c0.477 0 0.9-0.314 1-0.781l1.781-8.438 0.188-0.781h5.188c0.565 0 1-0.435 1-1s-0.435-1-1-1h-13.344l0.313-1.25 0.594-2.25 0.125-0.406 0.344-0.188s0.179-0.084 0.438-0.438 0.531-0.91 0.531-1.813c0-0.308-0.172-0.481-0.594-0.563zM4 12v12h3v-12h-3z"></path>
</svg>
