<!-- Generated by IcoMoon.io -->
<svg version="1.1" xmlns="http://www.w3.org/2000/svg" width="32" height="32" viewBox="0 0 32 32">
<title>keyboard-o</title>
<path d="M2 7h26c1.093 0 2 0.907 2 2v14c0 1.093-0.907 2-2 2h-26c-1.093 0-2-0.907-2-2v-14c0-1.093 0.907-2 2-2zM2 9v14h26v-14h-26zM4 11h2v2h-2v-2zM8 11h2v2h-2v-2zM12 11h2v2h-2v-2zM16 11h2v2h-2v-2zM20 11h2v2h-2v-2zM24 11h2v2h-2v-2zM4 15h4v2h-4v-2zM10 15h2v2h-2v-2zM14 15h2v2h-2v-2zM18 15h2v2h-2v-2zM22 15h4v2h-4v-2zM4 19h4v2h-4v-2zM10 19h10v2h-10v-2zM22 19h4v2h-4v-2z"></path>
</svg>
