<!-- Generated by IcoMoon.io -->
<svg version="1.1" xmlns="http://www.w3.org/2000/svg" width="32" height="32" viewBox="0 0 32 32">
<title>leaf</title>
<path d="M25.031 4l0.313 1.094s1.656 5.616 1.656 13.438c0 3.995-0.921 6.637-2.344 8.281s-3.306 2.188-4.844 2.188c-1.728 0-3.206-0.784-4.375-1.594s-2.165-1.731-2.344-1.844l1.063-1.688c0.704 0.445 1.398 1.177 2.406 1.875s2.173 1.25 3.25 1.25c1.083 0 2.301-0.33 3.313-1.5s1.875-3.282 1.875-6.969c0-6.501-1.022-10.659-1.344-11.875-3.442 1.276-7.451 1.856-10.688 3-1.789 0.632-3.284 1.437-4.313 2.563s-1.656 2.577-1.656 4.781c0 1.938 1.058 3.143 2.219 3.969 0.603 0.429 1.187 0.698 1.625 0.875 1.72-2.744 4.356-6.157 8.438-10.531l1.438 1.375c-6.808 7.295-9.428 11.855-10.375 14.625-0.473 1.385-0.53 2.32-0.5 3s0.217 1.058 0.156 1.781l-2-0.188c-0.002 0.020-0.116-0.597-0.156-1.5s0.047-2.151 0.594-3.75c0.303-0.885 0.756-1.918 1.375-3.063-0.512-0.228-1.12-0.551-1.75-1-1.477-1.051-3.063-2.897-3.063-5.594 0-2.605 0.833-4.643 2.188-6.125s3.168-2.402 5.125-3.094c3.913-1.384 8.509-1.908 11.688-3.313z"></path>
</svg>
