<!-- Generated by IcoMoon.io -->
<svg version="1.1" xmlns="http://www.w3.org/2000/svg" width="32" height="32" viewBox="0 0 32 32">
<title>map-marker</title>
<path d="M16 3c4.959 0 9 4.042 9 9 0 1.406-0.57 3.020-1.344 4.781s-1.77 3.631-2.781 5.375c-2.023 3.488-4.063 6.406-4.063 6.406l-0.813 1.188-0.813-1.188s-2.039-2.918-4.063-6.406c-1.012-1.744-2.007-3.613-2.781-5.375s-1.344-3.375-1.344-4.781c0-4.958 4.041-9 9-9zM16 5c-3.877 0-7 3.123-7 7 0 0.803 0.43 2.316 1.156 3.969s1.73 3.484 2.719 5.188c1.572 2.71 2.546 4.144 3.125 5 0.579-0.856 1.553-2.29 3.125-5 0.988-1.704 1.993-3.535 2.719-5.188s1.156-3.166 1.156-3.969c0-3.877-3.122-7-7-7zM16 10c1.105 0 2 0.895 2 2s-0.895 2-2 2-2-0.895-2-2 0.895-2 2-2z"></path>
</svg>
