<!-- Generated by IcoMoon.io -->
<svg version="1.1" xmlns="http://www.w3.org/2000/svg" width="32" height="32" viewBox="0 0 32 32">
<title>music</title>
<path d="M27 3.781v17.219c0 2.197-1.803 4-4 4s-4-1.803-4-4 1.803-4 4-4c0.732 0 1.407 0.214 2 0.563v-7.375l-14 2.625v11.188c0 2.197-1.803 4-4 4s-4-1.803-4-4 1.803-4 4-4c0.732 0 1.407 0.214 2 0.563v-13.406l0.813-0.125 16-3zM25 6.188l-14 2.625v2l14-2.625v-2zM23 19c-1.116 0-2 0.884-2 2s0.884 2 2 2 2-0.884 2-2-0.884-2-2-2zM7 22c-1.116 0-2 0.884-2 2s0.884 2 2 2 2-0.884 2-2-0.884-2-2-2z"></path>
</svg>
