<!-- Generated by IcoMoon.io -->
<svg version="1.1" xmlns="http://www.w3.org/2000/svg" width="32" height="32" viewBox="0 0 32 32">
<title>paint-brush</title>
<path d="M24.813 4.031c0.837 0 1.648 0.335 2.281 0.969 1.267 1.267 1.267 3.327 0 4.594v0.031l-12.688 12.5-0.5 0.469c-0.124 0.793-0.46 1.572-1.063 2.188l-0.031 0.031c-1.318 1.318-3.898 3.188-7.813 3.188h-1.844l1-1.563c0.967-1.474 1.37-2.804 1.688-4s0.479-2.31 1.313-3.219c0.565-0.616 1.282-0.985 2.031-1.125l0.625-0.594 12.688-12.5c0.633-0.633 1.476-0.969 2.313-0.969zM24.813 6c-0.313 0-0.64 0.14-0.906 0.406l-9.063 8.906 1.813 1.813 9.031-8.938c0.533-0.533 0.533-1.248 0-1.781-0.267-0.267-0.562-0.406-0.875-0.406zM13.406 16.719l-1.5 1.469 1.813 1.813 1.5-1.469zM9.969 20.031c-0.506-0.014-0.997 0.153-1.344 0.531-0.267 0.291-0.511 1.152-0.844 2.406-0.216 0.814-0.55 1.794-1.031 2.844 2.249-0.421 3.787-1.537 4.656-2.406 0.827-0.827 0.808-2.069 0.031-2.781-0.417-0.383-0.963-0.579-1.469-0.594z"></path>
</svg>
