<!-- Generated by IcoMoon.io -->
<svg version="1.1" xmlns="http://www.w3.org/2000/svg" width="32" height="32" viewBox="0 0 32 32">
<title>paperclip</title>
<path d="M21 4c1.39 0 2.789 0.539 3.844 1.594 2.109 2.109 2.109 5.547 0 7.656l-9.375 9.375c-1.246 1.245-3.286 1.245-4.531 0s-1.245-3.286 0-4.531l8.594-8.594 1.406 1.406-8.594 8.594c-0.481 0.481-0.481 1.237 0 1.719 0.481 0.481 1.237 0.481 1.719 0l9.375-9.375c1.345-1.345 1.345-3.499 0-4.844s-3.499-1.345-4.844 0l-9.375 9.375c-2.208 2.208-2.208 5.76 0 7.969 2.208 2.208 5.76 2.208 7.969 0l6.25-6.25 1.406 1.406-6.25 6.25c-2.973 2.972-7.809 2.972-10.781 0s-2.972-7.809 0-10.781l9.375-9.375c1.055-1.055 2.423-1.594 3.813-1.594z"></path>
</svg>
