<!-- Generated by IcoMoon.io -->
<svg version="1.1" xmlns="http://www.w3.org/2000/svg" width="32" height="32" viewBox="0 0 32 32">
<title>pencil</title>
<path d="M24.688 4.031c0.837 0 1.679 0.335 2.313 0.969 1.267 1.267 1.267 3.327 0 4.594l-0.031 0.063-0.063 0.063 0.594 0.594-16.5 16.5-0.313 0.063-5.5 1.094-1.469 0.313 0.313-1.469 1.094-5.5 0.063-0.313 16.5-16.5 0.625 0.594 0.094-0.094c0.633-0.633 1.444-0.969 2.281-0.969zM24.688 6c-0.312 0-0.608 0.14-0.875 0.406l-0.094 0.094 1.781 1.781 0.094-0.094c0.533-0.533 0.533-1.248 0-1.781-0.267-0.267-0.594-0.406-0.906-0.406zM21.719 7.313l-1.469 1.438 3 3 1.438-1.469zM18.875 10.188l-10.469 10.438 1.813 0.406 0.625 0.125 0.125 0.625 0.406 1.813 10.438-10.469zM6.969 22.344l-0.406 2.031 1.063 1.063 2.031-0.406-0.5-2.188z"></path>
</svg>
