<!-- Generated by IcoMoon.io -->
<svg version="1.1" xmlns="http://www.w3.org/2000/svg" width="32" height="32" viewBox="0 0 32 32">
<title>pie-chart</title>
<path d="M16 3c7.168 0 13 5.832 13 13s-5.832 13-13 13-13-5.832-13-13 5.832-13 13-13zM14.875 5.063c-5.555 0.562-9.875 5.231-9.875 10.938 0 6.087 4.913 11 11 11 2.687 0 5.155-0.938 7.063-2.531l-7.781-7.75-0.281-0.313v-11.344c-0.041 0.004-0.084-0.004-0.125 0zM17 5.063v9.938h9.938c-0.475-5.284-4.653-9.462-9.938-9.938zM18.438 17l6.031 6.063c1.393-1.668 2.262-3.768 2.469-6.063h-8.5z"></path>
</svg>
