<!-- Generated by IcoMoon.io -->
<svg version="1.1" xmlns="http://www.w3.org/2000/svg" width="32" height="32" viewBox="0 0 32 32">
<title>recycle</title>
<path d="M16 3.969c1.055 0 2.118 0.517 2.75 1.5l3.125 5.063 1.438-0.844v5.313l-4.625-2.594 1.5-0.875-3.125-5c-0.53-0.824-1.553-0.806-2.094 0l-2.813 4.594-1.719-1.031 2.813-4.625c0.632-0.983 1.695-1.5 2.75-1.5zM10.406 12.094v5.313l-1.531-0.938-2.625 4.25v0.031l-0.031 0.031c-0.665 0.968 0.015 2.219 1.281 2.219h5.5v2h-5.5c-2.712 0-4.409-3.084-2.938-5.313 0.012-0.018-0.012-0.045 0-0.063l0.031 0.031 2.563-4.219-1.25-0.75zM25.063 15.656l2.5 4v0.031c1.36 2.312-0.332 5.313-2.969 5.313h-5.594v2l-4.906-3 4.906-3v2h5.594c1.163 0 1.89-1.193 1.25-2.281l-2.5-4z"></path>
</svg>
