<!-- Generated by IcoMoon.io -->
<svg version="1.1" xmlns="http://www.w3.org/2000/svg" width="32" height="32" viewBox="0 0 32 32">
<title>refresh</title>
<path d="M16 4c3.571 0 6.81 1.581 9 4.094v-3.094h2v7h-7v-2h3.938c-1.804-2.41-4.697-4-7.938-4-4.289 0-7.823 2.639-9.281 6.375l-1.844-0.75c1.742-4.464 6.014-7.625 11.125-7.625zM25.281 19.625l1.844 0.75c-1.742 4.464-6.014 7.625-11.125 7.625-3.605 0-6.811-1.614-9-4.094v3.094h-2v-7h7v2h-3.969c1.812 2.388 4.692 4 7.969 4 4.289 0 7.823-2.639 9.281-6.375z"></path>
</svg>
