<!-- Generated by IcoMoon.io -->
<svg version="1.1" xmlns="http://www.w3.org/2000/svg" width="32" height="32" viewBox="0 0 32 32">
<title>rocket</title>
<path d="M25.906 4c0.697 0 1.125 0.031 1.125 0.031l0.906 0.031 0.031 0.906s0.099 1.758-0.094 3.813-0.515 4.453-1.969 5.906c-1.213 1.212-4.488 3.737-7.563 6.094-0.624 0.478-0.607 0.466-1.188 0.906l0.094 1.688c0.068 1.278-0.473 2.507-1.469 3.313l-2.563 2.094-1.281 1.031-0.344-1.625-0.656-3.281-3.844-3.844-3.281-0.656-1.625-0.313 1.031-1.313 2.094-2.563c0.805-0.995 2.034-1.537 3.313-1.469l1.719 0.094c0.43-0.564 0.41-0.55 0.875-1.156 2.353-3.068 4.893-6.331 6.125-7.563 1.466-1.466 3.826-1.81 5.875-2 1.024-0.095 1.99-0.125 2.688-0.125zM25 6c-0.398 0.001-0.91 0.030-1.594 0.094-1.886 0.175-3.973 0.754-4.656 1.438-0.918 0.918-3.626 4.321-5.969 7.375-2.064 2.692-3.463 4.604-3.875 5.156l3.063 3.063c0.544-0.406 2.449-1.862 5.156-3.938 3.062-2.347 6.451-5.046 7.344-5.938 0.651-0.651 1.229-2.761 1.406-4.656 0.129-1.375 0.105-1.982 0.094-2.563-0.288-0.007-0.571-0.033-0.969-0.031zM20.438 9.531c1.117 0 2.031 0.915 2.031 2.031s-0.915 2.031-2.031 2.031-2-0.915-2-2.031 0.883-2.031 2-2.031zM8.5 16.75c-0.64-0.034-1.253 0.253-1.656 0.75l-1.031 1.25 1.344 0.281c0.132-0.176 1.116-1.454 1.719-2.25zM6.219 21.938l1.406 1.406c-0.377 0.377-0.82 1.323-1.125 2.156 0.798-0.29 1.679-0.679 2.125-1.125l1.406 1.406c-0.894 0.894-2.079 1.385-3.063 1.719s-1.781 0.469-1.781 0.469l-1.469 0.281 0.313-1.469s0.155-0.82 0.5-1.813 0.833-2.176 1.688-3.031zM15.219 23.125c-0.797 0.598-2.074 1.588-2.25 1.719l0.281 1.344 1.281-1.031c0.498-0.403 0.753-1.017 0.719-1.656z"></path>
</svg>
