<!-- Generated by IcoMoon.io -->
<svg version="1.1" xmlns="http://www.w3.org/2000/svg" width="32" height="32" viewBox="0 0 32 32">
<title>shopping-cart</title>
<path d="M4.75 7h2.219c0.918 0 1.716 0.61 1.938 1.5l2.625 10.5h11.469l1.906-7h-13.656l-0.5-2h16.75l-2.594 9.531c-0.238 0.87-1.004 1.469-1.906 1.469h-11.469c-0.917 0-1.714-0.61-1.938-1.5l-2.625-10.5h-2.219c-0.552 0-1-0.448-1-1s0.448-1 1-1zM21.75 21c1.645 0 3 1.355 3 3s-1.355 3-3 3-3-1.355-3-3 1.355-3 3-3zM12.75 21c1.645 0 3 1.355 3 3s-1.355 3-3 3-3-1.355-3-3 1.355-3 3-3zM12.75 23c-0.564 0-1 0.436-1 1s0.436 1 1 1 1-0.436 1-1-0.436-1-1-1zM21.75 23c-0.564 0-1 0.436-1 1s0.436 1 1 1 1-0.436 1-1-0.436-1-1-1z"></path>
</svg>
