<!-- Generated by IcoMoon.io -->
<svg version="1.1" xmlns="http://www.w3.org/2000/svg" width="32" height="32" viewBox="0 0 32 32">
<title>star-half-o</title>
<path d="M16 2.375l0.906 2.031 3.25 7.313 7.938 0.813 2.25 0.25-1.688 1.5-5.906 5.344 1.656 7.813 0.469 2.188-1.969-1.125-6.906-3.969-6.906 3.969-1.938 1.125h-0.031l0.469-2.188 1.656-7.813-5.906-5.344-1.688-1.5 2.25-0.25 7.938-0.813 3.25-7.313zM16 7.281v14.938l0.5 0.281 5.469 3.156-1.313-6.188-0.125-0.563 0.438-0.375 4.719-4.25-6.875-0.719-0.25-0.5z"></path>
</svg>
