<!-- Generated by IcoMoon.io -->
<svg version="1.1" xmlns="http://www.w3.org/2000/svg" width="32" height="32" viewBox="0 0 32 32">
<title>star-o</title>
<path d="M16 2.125l0.906 2.063 3.25 7.281 7.938 0.844 2.25 0.25-1.688 1.5-5.906 5.344 1.656 7.813 0.469 2.188-1.969-1.125-6.906-4-6.906 4-1.969 1.125 0.469-2.188 1.656-7.813-5.906-5.344-1.688-1.5 2.25-0.25 7.938-0.844 3.25-7.281zM16 7.031l-2.563 5.781-0.25 0.531-0.563 0.063-6.281 0.656 4.688 4.219 0.438 0.406-0.125 0.563-1.313 6.156 5.469-3.125 0.5-0.313 0.5 0.313 5.469 3.125-1.313-6.156-0.125-0.563 0.438-0.406 4.688-4.219-6.844-0.719-0.25-0.531z"></path>
</svg>
