<!-- Generated by IcoMoon.io -->
<svg version="1.1" xmlns="http://www.w3.org/2000/svg" width="32" height="32" viewBox="0 0 32 32">
<title>superscript</title>
<path d="M24.969 3h0.063c1.626 0 2.969 1.343 2.969 2.969 0 0.976-0.478 1.885-1.281 2.438l-2.125 1.469c-0.041 0.028-0.025 0.093-0.063 0.125h3.469v2h-6v-1c0-1.111 0.553-2.152 1.469-2.781l2.125-1.469c0.263-0.181 0.406-0.463 0.406-0.781 0-0.546-0.423-0.969-0.969-0.969h-0.063c-0.546 0-0.969 0.423-0.969 0.969v0.031h-2v-0.031c0-1.626 1.343-2.969 2.969-2.969zM4.156 8h6.375l0.313 0.469 1.656 2.563 1.656-2.563 0.313-0.469h6.375l-1 1.531-4.156 6.469 4.156 6.469 1 1.531h-6.375l-0.313-0.469-1.656-2.563-1.656 2.563-0.313 0.469h-6.375l1-1.531 4.156-6.469-4.156-6.469zM7.813 10l3.875 6-0.344 0.531-3.531 5.469h1.656l2.188-3.438 0.844-1.313 0.844 1.313 2.188 3.438h1.656l-3.875-6 0.344-0.531 3.531-5.469h-1.656l-2.188 3.438-0.844 1.313-0.844-1.313-2.188-3.438h-1.656z"></path>
</svg>
