<!-- Generated by IcoMoon.io -->
<svg version="1.1" xmlns="http://www.w3.org/2000/svg" width="32" height="32" viewBox="0 0 32 32">
<title>toggle-off</title>
<path d="M9 7h14c4.959 0 9 4.041 9 9s-4.041 9-9 9h-14c-0.94 0-1.835-0.137-2.688-0.406-0.282-0.088-0.543-0.198-0.813-0.313-2.413-1.023-4.298-3.072-5.094-5.594-0.003-0.009 0.003-0.022 0-0.031-0.264-0.845-0.406-1.727-0.406-2.656 0-0.94 0.137-1.835 0.406-2.688 0.088-0.282 0.198-0.543 0.313-0.813 1.023-2.413 3.072-4.298 5.594-5.094 0.282-0.088 0.582-0.159 0.875-0.219 0.585-0.12 1.193-0.188 1.813-0.188zM9 9c-3.635 0-6.612 2.743-6.969 6.281-0.024 0.236-0.031 0.476-0.031 0.719 0 3.878 3.123 7 7 7s7-3.122 7-7-3.122-7-7-7zM14.625 9c2.051 1.652 3.375 4.171 3.375 7s-1.324 5.348-3.375 7h8.375c3.878 0 7-3.122 7-7s-3.122-7-7-7h-8.375z"></path>
</svg>
