<!-- Generated by IcoMoon.io -->
<svg version="1.1" xmlns="http://www.w3.org/2000/svg" width="32" height="32" viewBox="0 0 32 32">
<title>volume-up</title>
<path d="M15 4.594v22.813l-1.719-1.688-4.719-4.719h-4.563v-10h4.563l4.719-4.719zM24.125 6.375c2.385 2.511 3.875 5.896 3.875 9.625s-1.49 7.113-3.875 9.625l-1.406-1.406c2.024-2.149 3.281-5.041 3.281-8.219s-1.257-6.071-3.281-8.219zM21.313 9.188c1.661 1.786 2.688 4.187 2.688 6.813s-1.026 5.026-2.688 6.813l-1.406-1.438c1.3-1.424 2.094-3.3 2.094-5.375s-0.794-3.952-2.094-5.375zM13 9.438l-3.281 3.281-0.313 0.281h-3.406v6h3.406l0.313 0.281 3.281 3.281v-13.125zM18.5 12.031c0.939 1.059 1.5 2.446 1.5 3.969s-0.561 2.91-1.5 3.969l-1.438-1.438c0.578-0.694 0.938-1.559 0.938-2.531s-0.36-1.837-0.938-2.531z"></path>
</svg>
