<!-- Generated by IcoMoon.io -->
<svg version="1.1" xmlns="http://www.w3.org/2000/svg" width="32" height="32" viewBox="0 0 32 32">
<title>wifi</title>
<path d="M16 7c5.017 0 9.544 2.083 12.813 5.406l-1.406 1.406c-2.905-2.961-6.94-4.813-11.406-4.813s-8.501 1.851-11.406 4.813l-1.406-1.406c3.268-3.323 7.796-5.406 12.813-5.406zM16 12c3.639 0 6.919 1.521 9.281 3.938l-1.406 1.406c-2-2.055-4.788-3.344-7.875-3.344s-5.875 1.288-7.875 3.344l-1.406-1.406c2.362-2.418 5.642-3.938 9.281-3.938zM16 17c2.26 0 4.295 0.956 5.75 2.469l-1.406 1.406c-1.093-1.15-2.635-1.875-4.344-1.875s-3.25 0.725-4.344 1.875l-1.406-1.406c1.456-1.513 3.49-2.469 5.75-2.469zM16 22c0.884 0 1.67 0.392 2.219 1l-2.219 2.219-2.219-2.219c0.549-0.608 1.335-1 2.219-1z"></path>
</svg>
