<svg xmlns="http://www.w3.org/2000/svg" id="Back" viewBox="0 0 600 570">
  <defs>
    <style>
      .cls-1,.cls-50{fill:#fff;}.cls-2,.cls-6{fill:#dfeff4;}.cls-3{mask:url(#mask);}.cls-4{fill:#9dca00;}.cls-5{fill:#70a30a;}.cls-10,.cls-12,.cls-14,.cls-44,.cls-45,.cls-47,.cls-48,.cls-49,.cls-5,.cls-50,.cls-51,.cls-52,.cls-53,.cls-54,.cls-55,.cls-56,.cls-57,.cls-59,.cls-6,.cls-60,.cls-61,.cls-62,.cls-63,.cls-64,.cls-8,.cls-9{fill-rule:evenodd;}.cls-44,.cls-7{fill:#471e04;}.cls-8{fill:#f5b800;}.cls-13,.cls-9{fill:#f5e68a;}.cls-10{fill:#ff9;}.cls-11{fill:#9cc;}.cls-12{fill:#fc0;}.cls-14{fill:#eccf7c;}.cls-15{fill:#216194;}.cls-16{fill:#017f9f;}.cls-17{fill:#76b629;}.cls-18{fill:#a53589;}.cls-19{fill:#024f9d;}.cls-20{fill:#50568c;}.cls-21{fill:#c6d200;}.cls-22{fill:#0369b2;}.cls-23{fill:#007d75;}.cls-24{fill:#008d6d;}.cls-25{fill:#008051;}.cls-26{fill:#46942b;}.cls-27{fill:#d5146e;}.cls-28{fill:#15a338;}.cls-29{fill:#0080c7;}.cls-30{fill:#0089d0;}.cls-31{fill:#e9bb00;}.cls-32{fill:#007632;}.cls-33{fill:#c51553;}.cls-34{fill:#593872;}.cls-35{fill:#f19000;}.cls-36{fill:#f9b800;}.cls-37{fill:#fddb00;}.cls-38{fill:#e43311;}.cls-39{fill:#b7c200;}.cls-40{fill:#e64e10;}.cls-41{fill:#079de1;}.cls-42{fill:#93bf1f;}.cls-43,.cls-53{fill:#f1502d;}.cls-45,.cls-46{fill:#d4a15e;}.cls-47{fill:#5b8408;}.cls-48{fill:#f2d291;}.cls-49{fill:#c4d621;}.cls-51{fill:#edba68;}.cls-52{fill:#bf3611;}.cls-54{fill:#f7c5a3;}.cls-55{fill:#d43c13;}.cls-56{fill:#823105;}.cls-57{fill:#b0743c;}.cls-58,.cls-60{fill:#a14a1b;}.cls-59{fill:#ffc;}.cls-61{fill:#d1965e;}.cls-62{fill:#331502;}.cls-63{fill:#deb8a0;}
    </style>
    <mask id="mask" width="788.89" height="609.22" x="-122.02" y="93.01" maskUnits="userSpaceOnUse">
      <circle cx="300" cy="332.01" r="238.99" class="cls-1"/>
    </mask>
  </defs>
  <circle cx="300" cy="332.01" r="238.99" class="cls-2"/>
  <g class="cls-3">
    <ellipse cx="272.42" cy="517.69" class="cls-4" rx="394.44" ry="184.55"/>
    <path d="M29.69 330.21a25 25 0 0 1 14.77 9.66 25 25 0 0 1 35.28 15.92 25 25 0 0 1 32.09 32.52 25 25 0 0 1-7.67 45.69 25 25 0 0 1-24.85 22.59c-17.06 0-33.28-1.08-49.62-2V330.21z" class="cls-5"/>
  </g>
  <path d="M537.43 192.51a24.22 24.22 0 0 0-19.17 9.39 19.58 19.58 0 0 0-19 16.1 11.59 11.59 0 1 0-1.77 23c28.22 0 62.52-1.53 93.54-1.53a8.94 8.94 0 1 0-1.8-17.7A18.13 18.13 0 0 0 560.07 208a24.27 24.27 0 0 0-22.64-15.49zM78.54 93.13a30.27 30.27 0 0 1 24 11.73A24.46 24.46 0 0 1 126.19 125a14.48 14.48 0 1 1 2.21 28.79c-35.26 0-78.12-1.92-116.88-1.92a11.17 11.17 0 1 1 2.25-22.11 22.66 22.66 0 0 1 36.48-17.21 30.33 30.33 0 0 1 28.29-19.42zM138.51 39a10.35 10.35 0 0 0-8.19 4 8.36 8.36 0 0 0-8.1 6.88 5 5 0 0 0-.75-.06 5 5 0 1 0 0 9.9c12.06 0 26.71-.65 40-.65a3.82 3.82 0 1 0 0-7.64 3.87 3.87 0 0 0-.77.08 7.75 7.75 0 0 0-12.47-5.88 10.37 10.37 0 0 0-9.72-6.63zM208.31 55.37A14.49 14.49 0 0 0 196.84 61a11.71 11.71 0 0 0-11.35 9.63 7 7 0 0 0-1.06-.08 6.93 6.93 0 1 0 0 13.87c16.88 0 37.41-.92 56-.92a5.35 5.35 0 1 0 0-10.7 5.42 5.42 0 0 0-1.08.11 10.85 10.85 0 0 0-17.47-8.24 14.52 14.52 0 0 0-13.57-9.3zM457.76 75.59a30.32 30.32 0 0 1 24 11.75 24.52 24.52 0 0 1 23.74 20.16 14.51 14.51 0 1 1 2.21 28.85c-35.33 0-78.27-1.92-117.11-1.92a11.19 11.19 0 1 1 2.25-22.15A22.7 22.7 0 0 1 429.41 95a30.39 30.39 0 0 1 28.35-19.41z" class="cls-6"/>
  <path d="M121.96 253.77h17.6V363.8h-17.6z" class="cls-7"/>
  <path d="M48.43 229.58a25.14 25.14 0 0 1 3.4-10.41 27.49 27.49 0 0 1-12-25.22 24.75 24.75 0 0 1 12.82-19.45 26.51 26.51 0 0 1-1.59-12A24.79 24.79 0 0 1 73 140.16a26.44 26.44 0 0 1-.78-9.48 24.93 24.93 0 0 1 28.74-22.24 27.24 27.24 0 0 1 9.45 3.2c10.86-13.76 41.19-18.11 53.13.8a25.35 25.35 0 0 1 6.5-2.16c14.14-2.67 28.28 6.72 31.59 21a26.16 26.16 0 0 1 .2 11.1 27.91 27.91 0 0 1 19.34 20.37 25.41 25.41 0 0 1-5.65 22.83 27.49 27.49 0 0 1 5.37 11 25.09 25.09 0 0 1-13.22 28.54 27.43 27.43 0 0 1 3.79 8.86c3.31 14.26-5.46 28-19.59 30.65a26.21 26.21 0 0 1-9.84 0c-15.51 29.89-50.82 15.16-53.69 1.66a25 25 0 0 1-26.43 13.89 27.89 27.89 0 0 1-22.96-20.78 26.36 26.36 0 0 1-6.94-.08c-14.45-2.07-25.01-15.39-23.58-29.74z" class="cls-5"/>
  <path d="M120.61 157.58a11.48 11.48 0 1 0-11.48-11.48 11.5 11.5 0 0 0 11.48 11.48zM167.64 175.49A11.48 11.48 0 1 0 156.16 164a11.5 11.5 0 0 0 11.48 11.49zM98.22 237.07a11.48 11.48 0 1 0-11.48-11.47 11.5 11.5 0 0 0 11.48 11.47zM152 243.79a11.48 11.48 0 1 0-11.48-11.48A11.5 11.5 0 0 0 152 243.79zM128.45 204.6A11.48 11.48 0 1 0 117 193.13a11.5 11.5 0 0 0 11.45 11.47zM183.87 215.8a11.48 11.48 0 1 0-11.48-11.48 11.5 11.5 0 0 0 11.48 11.48zM87.58 190.61a11.48 11.48 0 1 0-11.48-11.48 11.5 11.5 0 0 0 11.48 11.48z" class="cls-8"/>
  <path d="M314 0a29 29 0 0 0-22.95 11.24 23.43 23.43 0 0 0-22.71 19.27 14.09 14.09 0 0 0-2.11-.16 13.87 13.87 0 1 0 0 27.74c33.78 0 74.84-1.83 112-1.83a10.7 10.7 0 1 0 0-21.4 10.85 10.85 0 0 0-2.15.22 21.7 21.7 0 0 0-35-16.49A29.05 29.05 0 0 0 314 0z" class="cls-6"/>
  <path d="M495.31 315.15c-3 3.79-6.63 8.68-7 13.08-.3 4 2.29 8.17 8.1 8.38 5.82-.2 8.4-4.36 8.1-8.38-.33-4.4-3.92-9.28-7-13.08h-2.3z" class="cls-9"/>
  <path d="M495.31 315.15c-3 3.79-6.63 8.68-7 13.08a7.89 7.89 0 0 0 1.16 4.81 9.25 9.25 0 0 0 4.73 1.36c5.82-.2 8.4-4.36 8.1-8.38-.27-3.58-2.7-7.49-5.24-10.87h-1.81z" class="cls-10"/>
  <path d="M399.5 315.15c-3 3.79-6.63 8.68-7 13.08-.3 4 2.29 8.17 8.1 8.38 5.82-.2 8.4-4.36 8.1-8.38-.33-4.4-3.92-9.28-7-13.08h-2.3z" class="cls-9"/>
  <path d="M399.5 315.15c-3 3.79-6.63 8.68-7 13.08a7.89 7.89 0 0 0 1.16 4.81 9.25 9.25 0 0 0 4.73 1.36c5.82-.2 8.4-4.36 8.1-8.38-.27-3.58-2.7-7.49-5.24-10.87h-1.75z" class="cls-10"/>
  <path d="M474.87 306.958l21.375-127.592 2.82.473-21.374 127.59zM407.863 179.796l2.82-.472 21.375 127.592-2.82.472zM494.162 304.63l33.484-124.962 2.762.74-33.483 124.963zM367.58 180.673l2.775-.744 33.636 125.488-2.773.743z" class="cls-11"/>
  <path d="M398.86 301.92h99.4l-5.5 46.59c-.54 4.68-3.31 12.26-9.86 12.26h-68.68c-6.55 0-9.32-7.58-9.86-12.26z" class="cls-12"/>
  <path d="M493.07 345.84l-.31 2.66c-.54 4.68-3.31 12.26-9.86 12.26h-68.68c-6.55 0-9.32-7.58-9.86-12.26l-.36-2.66c1.24 4.31 4.12 9.08 9.43 9.08h70.16c5.41.01 8.24-4.77 9.48-9.08zM398.86 301.92h99.39l-1.43 12.14h-96.53l-1.43-12.14z" class="cls-8"/>
  <path d="M399.8 299.24h97.52a5.36 5.36 0 0 1 5.35 5.35 5.36 5.36 0 0 1-5.35 5.35H399.8a5.36 5.36 0 0 1-5.34-5.35 5.36 5.36 0 0 1 5.34-5.35z" class="cls-9"/>
  <path d="M399.8 299.24h97.52a5.36 5.36 0 0 1 5.35 5.35 5.3 5.3 0 0 1-.1 1 5.56 5.56 0 0 1-3.84 1.53H398.39a5.56 5.56 0 0 1-3.84-1.53 5.33 5.33 0 0 1-.1-1 5.36 5.36 0 0 1 5.35-5.35zM422 314.38s13.05 8.45 25.11 0l.82 1.17c-12.85 9-26.66 0-26.7 0zM450 314.38s13.05 8.45 25.11 0l.82 1.17c-12.85 9-26.66 0-26.7 0zM478.09 314.37s14.13 8.56 18.74-.35l1.27.65c-5.31 10.27-20.69.95-20.74.92z" class="cls-10"/>
  <path d="M420.22 317.35c-3 3.79-6.63 8.68-7 13.08-.3 4 2.29 8.17 8.1 8.38 5.82-.2 8.4-4.36 8.1-8.38-.33-4.4-3.92-9.28-7-13.08h-2.3z" class="cls-8"/>
  <path d="M419.42 315.15c-3 3.79-6.63 8.68-7 13.08-.3 4 2.29 8.17 8.1 8.38 5.82-.2 8.4-4.36 8.1-8.38-.33-4.4-3.92-9.28-7-13.08h-2.3z" class="cls-9"/>
  <path d="M419.42 315.15c-3 3.79-6.63 8.68-7 13.08a7.89 7.89 0 0 0 1.16 4.81 9.25 9.25 0 0 0 4.73 1.36c5.82-.2 8.4-4.36 8.1-8.38-.27-3.58-2.7-7.49-5.24-10.87h-1.81z" class="cls-10"/>
  <path d="M448.24 317.35c-3 3.79-6.63 8.68-7 13.08-.3 4 2.29 8.17 8.1 8.38 5.82-.2 8.4-4.36 8.1-8.38-.33-4.4-3.92-9.28-7-13.08h-2.3zM476.47 317.35c-3 3.79-6.63 8.68-7 13.08-.3 4 2.29 8.17 8.1 8.38 5.82-.2 8.4-4.36 8.1-8.38-.33-4.4-3.92-9.28-7-13.08h-2.3z" class="cls-8"/>
  <path d="M475.4 315.15c-3 3.79-6.63 8.68-7 13.08-.3 4 2.29 8.17 8.1 8.38 5.82-.2 8.4-4.36 8.1-8.38-.33-4.4-3.92-9.28-7-13.08h-2.3z" class="cls-9"/>
  <path d="M475.4 315.15c-3 3.79-6.63 8.68-7 13.08a7.89 7.89 0 0 0 1.2 4.77 9.25 9.25 0 0 0 4.73 1.36c5.82-.2 8.4-4.36 8.1-8.38-.27-3.58-2.7-7.49-5.24-10.87h-1.79z" class="cls-10"/>
  <path d="M447.41 315.15c-3 3.79-6.63 8.68-7 13.08-.3 4 2.29 8.17 8.1 8.38 5.82-.2 8.4-4.36 8.1-8.38-.33-4.4-3.92-9.28-7-13.08h-2.3z" class="cls-9"/>
  <path d="M447.41 315.15c-3 3.79-6.63 8.68-7 13.08a7.89 7.89 0 0 0 1.16 4.81 9.25 9.25 0 0 0 4.73 1.36c5.82-.2 8.4-4.36 8.1-8.38-.27-3.58-2.7-7.49-5.24-10.87h-1.81zM419.3 314.37s-14.35 8.51-19-.39l-1 .7c5.31 10.27 20.69.95 20.74.92z" class="cls-10"/>
  <circle cx="448.56" cy="313.99" r="1.76" class="cls-13"/>
  <circle cx="420.57" cy="313.99" r="1.76" class="cls-13"/>
  <circle cx="476.54" cy="313.99" r="1.76" class="cls-13"/>
  <path d="M448.56 312.22a1.76 1.76 0 0 1 1.76 1.76v.07h-3.52v-.07a1.76 1.76 0 0 1 1.76-1.76zM420.57 312.22a1.76 1.76 0 0 1 1.76 1.76v.07h-3.53v-.07a1.76 1.76 0 0 1 1.77-1.76zM476.54 312.22a1.76 1.76 0 0 1 1.76 1.76v.07h-3.52v-.07a1.76 1.76 0 0 1 1.76-1.76z" class="cls-14"/>
  <path d="M497 312.32a1.76 1.76 0 0 1-.4 3.43zM400.49 315.74a1.76 1.76 0 0 1-.4-3.43z" class="cls-9"/>
  <circle cx="446.79" cy="128.72" r="110.57" class="cls-2"/>
  <path d="M494.9 63.25a155.28 155.28 0 0 0-22-5.16c.74 3.56 1.35 7.38 2 11.19 9-2.46 14-2.09 20-6" class="cls-15"/>
  <path d="M515.31 102.71a23.25 23.25 0 0 1 2.83.61c-.37-2-.61-4.06-1.11-5.9a8.54 8.54 0 0 1-.61 1.6 18.29 18.29 0 0 0-1.11 3.69" class="cls-16"/>
  <path d="M439.22 209.4a19.26 19.26 0 0 1-.61-3.69 1.11 1.11 0 0 0-.12-.61 109.56 109.56 0 0 1-10.94-1c5 21 12.17 34.17 19.91 34.17a6.07 6.07 0 0 0 3-.61c-1.23-3.07-2.83-6.76-4.06-9.46-4.06-9.59-6.51-15.49-7.13-18.81" class="cls-17"/>
  <path d="M389.56 62.27a152.73 152.73 0 0 1 33.56-8.73c3.56-15.61 8.6-27.9 14.63-34.29h-.37c-19.54 4.3-36.51 20.28-47.82 43" class="cls-18"/>
  <path d="M467.49 53.17C462.45 32 455.32 19 447.45 19s-15 13-19.91 34.17a167.05 167.05 0 0 1 39.95 0" class="cls-19"/>
  <path d="M446.72 83.66c5.16-5.65 7.5-5 15-8.85a98.5 98.5 0 0 1 9.22-4.18c-.74-4.67-1.6-9.1-2.46-13.28a170.8 170.8 0 0 0-41.92 0c-1.11 5-2 10.33-2.83 15.86 8.36 1 16.47 3.32 23 10.45" class="cls-20"/>
  <path d="M422.75 176.83c1.11 8.24 2.34 16.1 3.69 23.11 3.69.49 7.38.74 11.06 1.11a23.9 23.9 0 0 0-2.46-5.65c-1.6-2.46-7.13-11.06-12.29-18.56" class="cls-21"/>
  <path d="M457.41 19.49c5.16 5.41 9.83 15.73 13.52 30.73a18.39 18.39 0 0 1 .74 3.56 152.32 152.32 0 0 1 26.8 6.27 26.16 26.16 0 0 0 3.07-4.18c-10.94-19.42-26.43-32.7-44.13-36.38" class="cls-22"/>
  <path d="M522.43 104.18c15.61 3.56 27.9 8.6 34.29 14.63v-.37c-3.44-16.1-14.75-30.36-31.47-41.3-1.72 3.56-3.44 7.62-5.41 12.66 1 4.79 2 9.59 2.58 14.38" class="cls-16"/>
  <path d="M557 128.65c0-7.74-13-15-34.17-19.91a167.05 167.05 0 0 1 0 39.95c21.14-5 34.17-12.17 34.17-20" class="cls-23"/>
  <path d="M496.25 142l-6.51 7.74c-.49 1.23-1.11 2.7-1.72 4.3a280.64 280.64 0 0 0 30.73-4.67 170.8 170.8 0 0 0 0-41.92c-1.35-.37-3-.61-4.55-1 0 .37-.12.61-.12 1-2.09 8.85-4.43 18.81-17.82 34.54" class="cls-24"/>
  <path d="M522.43 153.11a154.55 154.55 0 0 1-8.73 33.56c22.86-11.43 38.84-28.39 42.9-47.82v-.12c-5.41 5.29-15.73 10-30.73 13.77a20.46 20.46 0 0 0-3.44.61" class="cls-25"/>
  <path d="M488.75 219.24a94.12 94.12 0 0 0 16.47-24.34c-4.3 1.72-8.73 3.07-13.4 4.55a41.84 41.84 0 0 1-1.6 10.94c-.49 2.7-1.11 5.41-1.48 8.85" class="cls-26"/>
  <path d="M351.21 87c8.85-9.22 20.4-16.72 32.57-22.13 7.5-16.84 18.81-32.2 33.56-41.55a110.55 110.55 0 0 0-72.28 65.76 53.13 53.13 0 0 1 6.15-2.08" class="cls-27"/>
  <path d="M477.2 181.87l-.12.37c6.51 2.34 13.4 7.13 14.38 12 0 .37.12.61.12 1a128.1 128.1 0 0 0 16.35-5.9 146.23 146.23 0 0 0 10-35.16 313.21 313.21 0 0 1-31.84 4.67l-1.72 4.55c-3.07 7.62-6.27 15.86-7.13 18.44" class="cls-28"/>
  <path d="M527 73.33c10.45 6.76 19.67 15.12 25.81 25.08a108.83 108.83 0 0 0-19.3-37.74c-.74 1.6-1.72 3.32-2.7 5-1 2.34-2.34 4.92-3.81 7.62" class="cls-29"/>
  <path d="M477.69 23.18c10.45 6.76 19.3 16.47 26.3 27.9a58.89 58.89 0 0 0 3-14.5 105.31 105.31 0 0 0-29.25-13.4" class="cls-30"/>
  <path d="M383.66 192.44c-16.84-7.5-32.2-18.81-41.55-33.56a110.19 110.19 0 0 0 75.23 75.23c-14.75-9.22-26.06-24.83-33.68-41.67" class="cls-31"/>
  <path d="M511.25 192.44c-5.65 12.41-13.4 24.34-22.86 33.31-.12 1.6-.12 3.07-.37 4.79a109.92 109.92 0 0 0 65-71.66c-9.46 14.75-24.83 26.06-41.79 33.56" class="cls-32"/>
  <path d="M381.08 70.75a96.87 96.87 0 0 0-21.14 13.89 161.78 161.78 0 0 0 18.44-5.9c.86-2.7 1.84-5.41 2.7-8" class="cls-33"/>
  <path d="M395 72.1c13.77.74 24.46 1 24.46 1 .74-5.16 1.6-10.33 2.7-15A144.63 144.63 0 0 0 387 68c-1.11 2.7-2.21 5.41-3.32 8.24 6.15-3.07 4.92-3.93 11.31-4.18" class="cls-34"/>
  <path d="M401 148.19A110.66 110.66 0 0 1 386 137a101.29 101.29 0 0 0-11.06-8.6 201.24 201.24 0 0 0 1.23 21.14 289.4 289.4 0 0 0 31.83 4.67 11.9 11.9 0 0 0-2.34-2.7 26.5 26.5 0 0 0-4.67-3.32" class="cls-35"/>
  <path d="M381.08 186.66a152.73 152.73 0 0 1-8.73-33.56c-15.12-3.44-26.92-8.11-33.56-14l-.61.49c4.79 19.18 20.53 35.89 42.9 47.08" class="cls-36"/>
  <path d="M411.19 158.88a325 325 0 0 1-34.29-4.79 144.63 144.63 0 0 0 10 35.16 146.23 146.23 0 0 0 35.16 10 249.74 249.74 0 0 1-4.3-30.12c-1.84-2.58-3.69-6.15-6.51-10.2" class="cls-37"/>
  <path d="M353.54 127.42l-.12.12-11.06 8.85c5.41 4.67 15.86 8.85 29.62 12.17a153.22 153.22 0 0 1-1.11-22.49 21.41 21.41 0 0 0-8.6-2 11.83 11.83 0 0 0-8.73 3.32" class="cls-38"/>
  <path d="M423 203.63a154.55 154.55 0 0 1-33.56-8.73c11.43 22.86 28.39 38.84 47.82 42.9h.12c-5.29-5.41-10-15.73-13.77-30.73a12.75 12.75 0 0 0-.61-3.44" class="cls-39"/>
  <path d="M362.27 119.67c10.33 0 19.3 7.5 26.8 13.89 4.55 3.69 9.1 7.74 14.38 10.94a21.67 21.67 0 0 1 5.41 4.18 20.46 20.46 0 0 1 3.93 4.79c1.23 2 2.21 3.32 2.83 3.32 1.23 0 3.93-1.35 4.3-3.44 1-4.18-3.07-8.11-6.27-11.06-4.3-4.18-11.06-11.68-12.91-15.12C386 99.64 418.57 77.14 438.11 93c2-1.84 3.93-4.3 5.41-5.9-10.45-11.43-25.44-8.73-40.69-9.83-2.21-.12-8.36-.61-10.08-.12a21.79 21.79 0 0 0-4.75 2.33c-14 7.74-33.31 9.46-45 15.86a109.84 109.84 0 0 0-5.16 33.31c0 1.84 0 3.69.12 5.65l12.78-10.08a16 16 0 0 1 11.55-4.55" class="cls-40"/>
  <path d="M472.53 74.81c-5.9 2.21-10.57 5.29-14 6.39-6.51 2.34-7.38 4.18-12.17 9.46a70.91 70.91 0 0 1-5.29 5.78 2.74 2.74 0 0 0 .61 1.6c1.72 2.46 4.18 1.6 6.39-.49 23.23-22.13 41.79-3 44.13 8.6 1.11 5.29 1.6 13.52-4.79 26.8 3.07 1.11 5.29 3 5.65 6.27 17.09-20.28 14.75-29.5 19.3-41.92 8.36-23.85 14.14-31.84 18.44-40.32a109 109 0 0 0-19.3-17.58c-4.3 33.93-25.08 30.36-39 35.4" class="cls-41"/>
  <path d="M484.21 219.48c.61-10.08 4.67-14.75 2.83-24.46-.49-2.46-6.51-7.5-13.4-9.22l-2.21-.37 1.6-5c1-3.32 5.65-15 9.71-25.08.49-1.11 5.65-13 5.41-15.12a4.29 4.29 0 0 0-3.93-3.07c-1.48 0-3 2.7-4.55 5.41-2.21 3.56-3.56 7-5.41 10.45-2 3.69-4.18 7.62-6.51 11.8s-5 9.22-8.11 14.75a7 7 0 0 1-6.51 4.06c-2.46 0-5.29-.74-6-1.35s-19.18-21.51-23.72-25.81a9.76 9.76 0 0 1-6 4.3c6.51 9.83 19.05 28.15 21.51 32 3.69 5.78 3.56 9.46 4.79 15.73.74 4.55 8.11 19.79 11.8 29.5a109.3 109.3 0 0 0 27.9-5.78c.25-4.3.61-8.6.86-12.66" class="cls-42"/>
  <path d="M381 350.22a11.06 11.06 0 0 1 4.59 1 11.09 11.09 0 0 1 18.85-1.52 11.1 11.1 0 0 1 15.68 7.08 11.1 11.1 0 0 1 14.26 14.45 11.09 11.09 0 0 1-3.38 20.28 11.09 11.09 0 0 1-11 10c-13.42 0-25.68-1.5-39.1-1.5a11.1 11.1 0 0 1-10.42-14.9 11.1 11.1 0 0 1-.1-20.92A11.1 11.1 0 0 1 381 350.22z" class="cls-5"/>
  <path d="M452.34 350.22a11.06 11.06 0 0 1 4.59 1 11.09 11.09 0 0 1 18.85-1.52 11.1 11.1 0 0 1 15.68 7.08 11.1 11.1 0 0 1 14.26 14.45 11.09 11.09 0 0 1-3.41 20.29 11.09 11.09 0 0 1-11 10c-13.42 0-25.68-1.5-39.1-1.5a11.1 11.1 0 0 1-10.42-14.9 11.1 11.1 0 0 1-.1-20.92 11.1 11.1 0 0 1 10.65-13.98z" class="cls-5"/>
  <circle cx="380.94" cy="384.83" r="5.16" class="cls-43"/>
  <circle cx="393.57" cy="365.77" r="5.16" class="cls-43"/>
  <circle cx="407.27" cy="379.47" r="5.16" class="cls-43"/>
  <circle cx="425.68" cy="369.63" r="5.16" class="cls-43"/>
  <circle cx="462.93" cy="386.97" r="5.16" class="cls-43"/>
  <circle cx="493.76" cy="385.04" r="5.16" class="cls-43"/>
  <circle cx="478.77" cy="374.12" r="5.16" class="cls-43"/>
  <circle cx="459.29" cy="362.35" r="5.16" class="cls-43"/>
  <path d="M309.16 396.44h80v-97.9a17.79 17.79 0 0 0-17.74-17.74H326.9a17.79 17.79 0 0 0-17.74 17.74v97.9z" class="cls-8"/>
  <path d="M311.12 487.92h31.54c2.73 7.77 2.22 15.54 2.22 23.31h-55.16c-.18-12.67 21.4-15.54 21.4-23.31z" class="cls-44"/>
  <path d="M307.11 494.41a2.05 2.05 0 0 1 .1-4.11s3.78 0 7.53 4.94a2.05 2.05 0 0 1-3.27 2.48c-2.53-3.32-4.35-3.31-4.36-3.31z" class="cls-45"/>
  <path d="M288.81 506.64h56.68v4.58h-56.68z" class="cls-46"/>
  <path d="M300.7 498.84a2.05 2.05 0 0 1 .1-4.11s3.78 0 7.53 4.94a2.05 2.05 0 0 1-3.27 2.48c-2.54-3.33-4.36-3.31-4.36-3.31z" class="cls-45"/>
  <path d="M387.28 487.92h-31.54c-2.73 7.77-2.22 15.54-2.22 23.31h55.16c.17-12.67-21.4-15.54-21.4-23.31z" class="cls-44"/>
  <path d="M391.18 490.31a2.05 2.05 0 1 1 .1 4.11s-1.83 0-4.35 3.31a2.05 2.05 0 1 1-3.27-2.48c3.74-4.93 7.51-4.94 7.52-4.94z" class="cls-45"/>
  <path d="M352.9 506.64h56.68v4.58H352.9z" class="cls-46"/>
  <path d="M397.6 494.73a2.05 2.05 0 1 1 .1 4.11s-1.83 0-4.35 3.31a2.05 2.05 0 1 1-3.27-2.48c3.74-4.93 7.51-4.94 7.52-4.94z" class="cls-45"/>
  <path d="M389.3 385.68h-80.2v102.4h36.16l-2.75-87.36h13.38l-2.75 87.36h36.16v-102.4z" class="cls-47"/>
  <path d="M309.71 317.51c0 .15-7 52.26-10.92 78.89a3.36 3.36 0 0 1 .66 1.09l3.75 10.16a3.36 3.36 0 0 1-2 4.3 3.37 3.37 0 0 1-4.3-2l-1.41-3.82.5 13.72a3.39 3.39 0 0 1-3.23 3.5 3.34 3.34 0 0 1-3.48-3.21l-.07-1.82a3.37 3.37 0 0 1-.59.08 3.34 3.34 0 0 1-3.48-3.21l-.07-1.9a3.33 3.33 0 0 1-1.64-2.75l-.77-20.85a3.36 3.36 0 0 1 .83-2.34c4.15-28.28 9.88-71.81 9.9-72z" class="cls-48"/>
  <path d="M291.14 319.59l19.74 3.68 7.55-40.52c-14.85-2.54-21.71 11.52-23.18 18.17z" class="cls-8"/>
  <path d="M322.11 386.58l4.53 3.96-14.24 17.38-4.52-3.96 14.23-17.38z" class="cls-49"/>
  <path d="M404.94 315.51c.73 6.36 2.41 11.2 4.62 13.46.24.25 0 .39.17.39a4.92 4.92 0 0 0 1.81-1.39c4.93-4.81 10.4-16.46 15.5-37.84l16 3.8c-5.89 24.7-13.11 39-20.07 45.83-4.12 4-8.48 5.9-12.83 6a16.33 16.33 0 0 1-12.4-5.35c-4.7-4.82-8-13.12-9.19-23.06z" class="cls-48"/>
  <path d="M407.18 319.59l-19.74 3.68-7.55-40.52c14.85-2.54 21.71 11.52 23.18 18.17z" class="cls-8"/>
  <path d="M376.2 386.58l-4.52 3.96 14.24 17.38 4.52-3.96-14.24-17.38z" class="cls-49"/>
  <path d="M371 280.79V282l-.2.73a22.42 22.42 0 0 1-43.24 0l-.2-.73v-1.24h10.33a12.2 12.2 0 0 0 4.15 5.71 12.19 12.19 0 0 0 14.68 0 12.2 12.2 0 0 0 4.15-5.71H371z" class="cls-50"/>
  <path d="M332.86 271.06h32.59c.14.39.26.78.37 1.18v9.18a17.29 17.29 0 0 1-33.33 0v-9.18c.11-.4.24-.8.37-1.18z" class="cls-48"/>
  <path d="M333.3 273.66l32.15-2.6c.14.39.26.78.37 1.18v9.18a17.31 17.31 0 0 1-12.61 12.21z" class="cls-45"/>
  <path d="M349.16 156.19c-11.93.26-47.89 1.4-48.52 43.33s8.35 57.29 14 63.56S326.2 275 337.82 278c3 3 6.24 4.2 11.34 4.86V156.19z" class="cls-48"/>
  <path d="M349.16 156.19c11.93.26 47.89 1.4 48.51 43.33s-8.34 57.29-14 63.56S372.12 275 360.49 278c-3 3-6.24 4.2-11.34 4.86V156.19z" class="cls-51"/>
  <path d="M381.39 176.56c-2.09-3.59-4.73-7.05-16.09-2.57s-29.89 15.29-51.12 13.5c-7.26 13.29-5 37.72-5 37.72L297 217.32s-2-27.78 2.51-36.75c-3.59-.6-6.58-4.19-6.28-12.85 4.48.6 7.17 4.18 13.15-.6s19.13-20.92 43-20.33 34.38 13.45 37.66 18.53c16.61 14.17 15.21 31.39 13.77 51.9l-12.12 8c.85-8.53-1.69-38.97-7.3-48.66z" class="cls-44"/>
  <path d="M307.16 220.87c-1.08-2.79-2.4-4.74-5.86-5.46s-9.75 1-9.74 10.85 8.2 18.25 13.37 17.08 2.72-19.85 2.23-22.47z" class="cls-48"/>
  <path d="M304.86 224.11a5.77 5.77 0 0 0-4-3.37c-2.11-.44-5.15.6-5.14 6.58s4.21 11.13 7.36 10.42c1-.23 1.55-1.68 1.83-3.55-1.91-.56-3.1-2.8-2.7-5.21a4.91 4.91 0 0 1 2.79-3.8c-.09-.67-.14-1.07-.14-1.07zM390.38 220.94c1.43-2.65 3.18-4.81 6.64-5.53s9.75 1 9.74 10.85-8.2 18.25-13.37 17.08-3.01-22.4-3.01-22.4z" class="cls-51"/>
  <path d="M393.45 224.11a5.77 5.77 0 0 1 4-3.37c2.11-.44 5.15.6 5.14 6.58s-4.21 11.13-7.36 10.42c-1-.23-1.55-1.68-1.83-3.55 1.91-.56 3.1-2.8 2.7-5.21a4.91 4.91 0 0 0-2.78-3.8c.09-.67.13-1.07.13-1.07z" class="cls-45"/>
  <circle cx="326.62" cy="224.38" r="3.97" class="cls-7"/>
  <circle cx="371.69" cy="224.38" r="3.97" class="cls-7"/>
  <rect width="16.42" height="5.17" x="318.42" y="204.33" class="cls-7" rx="2.58" ry="2.58"/>
  <rect width="16.42" height="5.17" x="363.49" y="204.33" class="cls-7" rx="2.58" ry="2.58"/>
  <path d="M364.38 245.28c0 8.06-6.81 14.6-15.22 14.6s-15.22-6.54-15.22-14.6h30.44z" class="cls-50"/>
  <path d="M426.92 286.54l-3.53-4.22a2.71 2.71 0 0 0-3.81-.35 2.7 2.7 0 0 0-.35 3.8l7 8.32c1.83 2.19 10.29 3.56 12.93 4.05 2.85.53 3.57-1.17 5-3.84l3.29-6.32 6-11.13a2.72 2.72 0 0 0-1.07-3.67 2.7 2.7 0 0 0-3.67 1.06L443 284.7l5.29-16.08a2.73 2.73 0 0 0-1.66-3.44 2.69 2.69 0 0 0-3.44 1.66l-3 9.22 2.37-8.87a2.73 2.73 0 0 0-1.85-3.34 2.69 2.69 0 0 0-3.34 1.85l-4.15 15.54.34-12.64a2.67 2.67 0 0 0-2.63-2.75 2.75 2.75 0 0 0-2.77 2.64l-.43 16z" class="cls-48"/>
  <path d="M158.92 237.68a23.19 23.19 0 1 0-23.19-23.19 23.23 23.23 0 0 0 23.19 23.19zM245.47 237.68a23.19 23.19 0 1 0-23.19-23.19 23.23 23.23 0 0 0 23.19 23.19z" class="cls-52"/>
  <path d="M186.7 291c-1 .12-12 2.36-12.95 2.44-29.55 2.52-47.35-17-58.08-41.54q-.43-1.2-.85-2.54c0-.16.07-.32.09-.49 1.15-.77 1.81-4.76 2-6.09l1.21-6.82a2.83 2.83 0 0 0-2.39-3.24 2.86 2.86 0 0 0-3 1.75 3.47 3.47 0 0 0-.45-.19l-1.65-12.4a2.85 2.85 0 0 0-3.2-2.45 2.86 2.86 0 0 0-2.44 3.2l.54 4.06-2.38-6.52a2.86 2.86 0 0 0-3.65-1.7 2.85 2.85 0 0 0-1.7 3.65l4.83 13.25L96.77 223a2.85 2.85 0 0 0-3.77-1.33 2.85 2.85 0 0 0-1.35 3.79l5.89 12.39-4.6-6.06a2.85 2.85 0 0 0-4-.54 2.86 2.86 0 0 0-.54 4l4.4 5.79a1.33 1.33 0 0 0 .2 1.61l5.25 8.35c1.19 1.89 2.1 3.14 3.57 3.42 10.63 31.48 32 57.87 74.56 57.61z" class="cls-48"/>
  <path d="M181.16 289.47c-1 .12-11.91.61-12.84.68a54.13 54.13 0 0 1-15.16-.74l-1.92 21.65a86.78 86.78 0 0 0 19.59 2z" class="cls-8"/>
  <path d="M196.88 378.56h-17.52l1.26 94.4 16.02-.58.24-40.04v-53.78zM210.68 378.56h17.52l-1.26 94.4-16.02-.58-.24-40.04v-53.78z" class="cls-48"/>
  <path d="M172.15 381.39h62.95v29.89h-62.95z" class="cls-43"/>
  <path d="M238.24 388.22h-68.92v-83.85a15.33 15.33 0 0 1 15.28-15.28H223a15.33 15.33 0 0 1 15.28 15.28v83.86z" class="cls-8"/>
  <path d="M183.77 289.1l2.21 2.95 14.22 20.39 3.59 5.15 3.59-5.15 14.22-20.39 2-3h-39z" class="cls-50"/>
  <path d="M218 270.08h-28.44v19.47l14.22 20.39L218 289.55v-19.47z" class="cls-48"/>
  <path d="M212.41 297.56l-22.85-22.5v-4.98H218v19.47l-5.59 8.01z" class="cls-45"/>
  <path d="M227.6 468.72H210c-2 5.65-3.53 10.12-3 16.94h36.64c.14-9.21-13.45-13.58-16.04-16.94z" class="cls-53"/>
  <path d="M206.42 483.47h37.69v2.23h-37.69z" class="cls-7"/>
  <path d="M235.71 475.16a1.32 1.32 0 0 0 .6-2.57s-5.34-1.33-13.22 6.55A1.32 1.32 0 1 0 225 481c6.79-6.83 10.7-5.84 10.71-5.84zM232.07 472a1.32 1.32 0 0 0 .6-2.57s-5.34-1.33-13.22 6.55a1.32 1.32 0 1 0 1.87 1.87c6.83-6.85 10.74-5.85 10.75-5.85z" class="cls-54"/>
  <path d="M179.66 468.72h17.62c2 5.65 3.53 10.12 3 16.94h-36.67c-.13-9.21 13.46-13.58 16.05-16.94z" class="cls-53"/>
  <path d="M163.15 483.47h37.69v2.23h-37.69z" class="cls-7"/>
  <path d="M171.55 475.16a1.32 1.32 0 0 1-.6-2.57s5.34-1.33 13.22 6.55a1.32 1.32 0 1 1-1.87 1.87c-6.83-6.84-10.74-5.85-10.75-5.85zM175.19 472a1.32 1.32 0 0 1-.6-2.57s5.34-1.33 13.22 6.55a1.32 1.32 0 1 1-1.87 1.87C179.11 471 175.2 472 175.19 472z" class="cls-54"/>
  <path d="M237.17 320.4c0 .14 6.25 46.72 9.55 68.88l5.19.51 8-7.23c-3.56-24-8.81-63.85-8.83-64z" class="cls-48"/>
  <path d="M253 322.18l-16.84 3.14-6.44-34.57c12.67-2.17 18.52 9.83 19.77 15.5z" class="cls-8"/>
  <path d="M248.09 399.26l3.2-8.67a2.87 2.87 0 0 0-1.71-3.67 2.88 2.88 0 0 0-3.67 1.71l-3.2 8.67a2.86 2.86 0 0 0 1.71 3.67 2.88 2.88 0 0 0 3.67-1.71z" class="cls-48"/>
  <path d="M255.24 390.17l-.65 17.83a2.85 2.85 0 0 1-3 2.74 2.89 2.89 0 0 1-2.75-3l.65-17.79a2.85 2.85 0 0 1 3-2.74 2.89 2.89 0 0 1 2.75 2.96z" class="cls-48"/>
  <path d="M258.76 385.94l-.65 17.79a2.85 2.85 0 0 1-3 2.74 2.89 2.89 0 0 1-2.75-3l.64-17.78a2.85 2.85 0 0 1 3-2.74 2.89 2.89 0 0 1 2.76 2.99z" class="cls-48"/>
  <path d="M260.22 382l-.65 17.79a2.85 2.85 0 0 1-3 2.74 2.89 2.89 0 0 1-2.75-3l.65-17.79a2.85 2.85 0 0 1 3-2.74 2.89 2.89 0 0 1 2.75 3zM203.78 176.56c10.13.22 40.64 1.19 41.17 36.77s-7.08 48.62-11.89 53.94-9.8 10.13-19.66 12.69c-2.57 2.58-5.29 3.56-9.62 4.12-4.33-.56-7-1.54-9.62-4.12-9.86-2.56-14.86-7.37-19.66-12.69s-12.42-18.36-11.89-53.94 31.04-36.55 41.17-36.77z" class="cls-48"/>
  <path d="M203.78 176.56c10.13.22 40.64 1.19 41.17 36.77s-7.08 48.62-11.89 53.94-9.8 10.13-19.66 12.69c-2.57 2.58-5.29 3.56-9.62 4.12V176.56z" class="cls-51"/>
  <path d="M168.14 231.45c-.91-2.37-2-4-5-4.64s-8.27.88-8.26 9.21 7 15.49 11.35 14.5 2.33-16.84 1.91-19.07z" class="cls-48"/>
  <path d="M166.19 234.2a4.9 4.9 0 0 0-3.43-2.86c-1.79-.38-4.37.51-4.36 5.58s3.57 9.45 6.24 8.84c.85-.19 1.31-1.42 1.55-3a3.81 3.81 0 0 1-2.29-4.42 4.17 4.17 0 0 1 2.36-3.23c-.03-.56-.07-.91-.07-.91zM238.76 231.51c1.21-2.25 2.7-4.08 5.63-4.7s8.27.88 8.26 9.21-7 15.49-11.35 14.5-2.54-19.01-2.54-19.01z" class="cls-51"/>
  <path d="M241.37 234.2a4.9 4.9 0 0 1 3.43-2.86c1.79-.38 4.37.51 4.36 5.58s-3.57 9.45-6.24 8.84c-.85-.19-1.31-1.42-1.55-3a3.81 3.81 0 0 0 2.29-4.42 4.16 4.16 0 0 0-2.36-3.23c.04-.56.07-.91.07-.91z" class="cls-45"/>
  <path d="M225.88 196.73c4 8.26 3.71 21.43 19.51 30 10.49-38.75-16.65-56.67-42.72-56.1-27.56.6-52.4 19.2-44.51 57.25 18.46-3.89 28.27-13.17 37.1-23.5-2.94 8.8-8.7 13.22-7.17 12.86 17.78-4.34 24.15-5.35 37.79-20.51z" class="cls-55"/>
  <path d="M215.73 255.8c-.88 4.23-5.89 7.47-11.95 7.47s-11.07-3.24-11.95-7.47h23.89z" class="cls-50"/>
  <path d="M223.17 231.42a3.38 3.38 0 0 1 .93.13l.66-1.25a.65.65 0 0 1 1.16.61l-.66 1.25 1.08-.82a.65.65 0 1 1 .79 1l-1 .79 1.38-.33a.65.65 0 0 1 .31 1.27l-1.3.31a3.47 3.47 0 0 1 0 .35 3.37 3.37 0 1 1-3.35-3.31zM221.13 224.41a1.74 1.74 0 1 1-.14-3.48 18.93 18.93 0 0 1 6.56 1.1 1.75 1.75 0 0 1-1.2 3.28 15 15 0 0 0-5.22-.9zM184.39 231.42a3.38 3.38 0 0 0-.93.13l-.66-1.25a.65.65 0 0 0-1.16.61l.66 1.25-1.08-.82a.65.65 0 1 0-.79 1l1 .79-1.38-.33a.65.65 0 1 0-.31 1.27l1.3.31a3.23 3.23 0 0 0 0 .35 3.37 3.37 0 1 0 3.35-3.31zM186.57 220.93a1.74 1.74 0 0 1-.14 3.48 15 15 0 0 0-5.22.89A1.75 1.75 0 0 1 180 222a18.93 18.93 0 0 1 6.57-1.07z" class="cls-44"/>
  <path d="M206.28 501.39L221.7 504a31.7 31.7 0 0 1-12.51 20.26 38.79 38.79 0 0 1-17.56 7.28 34.63 34.63 0 0 1-18.63-2.21 26.82 26.82 0 0 1-14.37-14.25c-4.33-10-3.32-18.73 0-25.34 3.05-6 9.09-11.57 15.94-13 3.06-.65 12.76-1 13.14 2.91.18 1.82-6.78 1.42-10.58 4.75a18.87 18.87 0 0 0-6.24 13c-1.89 26.6 32.62 19.93 35.39 3.99z" class="cls-56"/>
  <path d="M210.65 462.39l17.55 90.92 25.35-4.85-13.2-68.46c-1.19-6.15-6-33-17.94-35.76-6.07 1.2-5.69 16.99-11.76 18.15z" class="cls-56"/>
  <path d="M238.77 538.74c-7 .08-14.59 2.42-15.15 10-.3 4.1.82 9 4.83 9.09 3.36.11 4.15-.77 5.68-2.33a8.39 8.39 0 0 0 11.4.56c1.46 1.23 2.05 2 5.4 2s6-3.76 5.83-8.4c-.4-9.66-11.05-11-17.99-10.92z" class="cls-57"/>
  <path d="M223.06 462.39l-17.56 90.92-25.35-4.85L193.36 480c1.19-6.15 7-35.57 20.71-37.47 6.07 1.21 2.93 18.7 8.99 19.86z" class="cls-56"/>
  <path d="M194.94 538.74c7 .08 14.59 2.42 15.15 10 .3 4.1-.82 9-4.83 9.09-3.36.11-4.15-.77-5.68-2.33a8.39 8.39 0 0 1-11.4.56c-1.46 1.23-2.05 2-5.4 2s-6-3.76-5.83-8.4c.4-9.66 11.05-11 17.99-10.92z" class="cls-57"/>
  <rect width="63.91" height="66.39" x="205.88" y="441.07" class="cls-58" rx="14.23" ry="14.23"/>
  <path d="M204.254 553.22l2.7-96.093 25.76.724-2.7 96.093z" class="cls-58"/>
  <path d="M218.8 542.79c7 .08 14.59 2.42 15.15 10 .3 4.1-.82 9-4.83 9.09-3.36.11-4.15-.77-5.68-2.33a8.39 8.39 0 0 1-11.4.56c-1.46 1.23-2.05 2-5.4 2s-6-3.76-5.83-8.4c.39-9.71 11.05-11 17.99-10.92z" class="cls-59"/>
  <path d="M242.937 457.866l25.76-.724 2.7 96.092-25.76.724z" class="cls-58"/>
  <path d="M256.84 542.79c-7 .08-14.59 2.42-15.15 10-.3 4.1.82 9 4.83 9.09 3.36.11 4.15-.77 5.68-2.33a8.39 8.39 0 0 0 11.4.56c1.46 1.23 2.05 2 5.4 2s6-3.76 5.83-8.4c-.39-9.71-11.04-11-17.99-10.92z" class="cls-59"/>
  <path d="M228.28 447.54h19.87v18.86a10 10 0 0 1-9.94 9.94 10 10 0 0 1-9.94-9.94v-18.86z" class="cls-53"/>
  <path d="M236.39 451.26a1.83 1.83 0 0 1 3.65 0v16.23a1.83 1.83 0 0 1-3.65 0v-16.23z" class="cls-55"/>
  <path d="M207.21 385.38c-12.21 9.13-5.86 28.58-4 36.3 1.66 7 3.19 15.58 11.88 21.29l23.1-4.25 23.19 4.28c8.69-5.71 10.22-14.24 11.88-21.29 1.82-7.72 8.17-27.17-4-36.3C254 374 222.41 374 207.21 385.38z" class="cls-60"/>
  <path d="M276.34 406.42c-.58 6.11-2.27 11.84-3.08 15.26-1.66 7-3.19 15.58-11.88 21.29a7.41 7.41 0 0 1-8.3-5c.41-1.46-4.75-4-4.64-5.48.8-11.49.78-27.6 27.9-26.07z" class="cls-61"/>
  <path d="M272 369.31c-4.68-.16-3.35-.48-9-1.13-5.93-.69-7.3 3.88-5.48 12.55 8.4 39.91 20.49 39.91 28.89 0 1.83-8.67.46-13.24-5.48-12.55-5.58.65-4.25.98-8.93 1.13zM204.43 369.31c-4.69-.16-3.35-.48-9-1.13-5.93-.69-7.3 3.88-5.48 12.55 8.4 39.91 20.49 39.91 28.89 0 1.83-8.67.46-13.24-5.48-12.55-5.58.65-4.25.98-8.93 1.13z" class="cls-56"/>
  <path d="M238.21 449c-.79 3.79-3.59 7.65-11.83 7.53-12.46-.18-12.08-11.37-11.34-13.64 1-3 7.5-9.81 23.17.6 15.67-10.41 22.19-3.63 23.17-.6.73 2.27 1.12 13.45-11.34 13.64-8.23.13-11.04-3.73-11.83-7.53z" class="cls-59"/>
  <path d="M233.6 444.2h11a8.91 8.91 0 0 0 8.88-8.88 3.91 3.91 0 0 0-3.9-3.9h-21a3.91 3.91 0 0 0-3.9 3.9 8.91 8.91 0 0 0 8.92 8.88z" class="cls-62"/>
  <path d="M227.84 436.6a1.62 1.62 0 1 1 0-3.23H233a1.62 1.62 0 1 1 0 3.23h-5.16z" class="cls-63"/>
  <path d="M217.45 416.92a4.51 4.51 0 0 1 3 7.82 10 10 0 0 0-7.4-2.13 4.51 4.51 0 0 1 4.4-5.69z" class="cls-64"/>
  <circle cx="218.97" cy="420.12" r="1.55" class="cls-1"/>
  <path d="M259 416.92a4.51 4.51 0 0 0-3 7.82 10 10 0 0 1 7.4-2.13 4.51 4.51 0 0 0-4.4-5.69z" class="cls-64"/>
  <circle cx="260.32" cy="420.12" r="1.55" class="cls-1"/>
</svg>