<svg xmlns="http://www.w3.org/2000/svg" xmlns:xlink="http://www.w3.org/1999/xlink" width="512" height="512"><defs><path id="a" d="M0 512L512 0v512z"/></defs><g fill="none" fill-rule="evenodd"><circle cx="256" cy="256" r="256" fill="#F0F0F0"/><path fill="#D80027" fill-rule="nonzero" d="M327.7 189.2H245V256h15.6l67.2-66.8zm146.7-66.8a257.3 257.3 0 0 0-59-66.7H244.9v66.7h229.5zM127.8 389.6l67.4-66.8H8.8c6.4 23.5 16 46 28.8 66.8h90.2z"/><path fill="#0052B4" fill-rule="nonzero" d="M118.6 40h23.3l-21.7 15.7 8.3 25.6-21.7-15.8-21.7 15.8 7.2-22a257.4 257.4 0 0 0-49.7 55.3h7.5l-13.8 10c-2.2 3.6-4.2 7.2-6.2 11l6.6 20.2-12.3-9c-3.1 6.6-5.9 13.2-8.4 20l7.3 22.3H50L28.4 205l8.3 25.5L15 214.6l-13 9.5C.7 234.7 0 245.3 0 256h256V0c-50.6 0-97.7 14.7-137.4 40zm9.9 190.4l-21.7-15.8-21.7 15.8 8.3-25.5L71.7 189h26.8l8.3-25.5 8.3 25.5h26.8L120.2 205l8.3 25.5zm-8.3-100l8.3 25.4-21.7-15.7-21.7 15.7 8.3-25.5-21.7-15.7h26.8l8.3-25.6 8.3 25.6h26.8l-21.7 15.7zm100.1 100l-21.7-15.8-21.7 15.8 8.3-25.5-21.7-15.8h26.8l8.3-25.5 8.3 25.5h26.8L212 205l8.3 25.5zm-8.3-100l8.3 25.4-21.7-15.7-21.7 15.7 8.3-25.5-21.7-15.7h26.8l8.3-25.6 8.3 25.6h26.8L212 130.3zm0-74.7l8.3 25.6-21.7-15.8L177 81.3l8.3-25.6L163.5 40h26.8l8.3-25.5L207 40h26.8L212 55.7z"/><mask id="b" fill="#fff"><use xlink:href="#a"/></mask><g mask="url(#b)"><circle cx="256" cy="256" r="256" fill="#F0F0F0"/><path fill="#0052B4" fill-rule="nonzero" d="M503.2 189.2a255 255 0 0 0-44.1-89l-89.1 89h133.2zm-403 269.9a255 255 0 0 0 89 44V370l-89 89zm222.6 44a255 255 0 0 0 89-44l-89-89.1v133.2zM370 322.9l89 89a255 255 0 0 0 44.2-89H370z"/><path fill="#D80027" d="M509.8 222.6H222.4l.2 287.2c22.2 3 44.6 3 66.8 0V289.4h220.4a258.5 258.5 0 0 0 0-66.8z"/><path fill="#D80027" fill-rule="nonzero" d="M322.8 322.8L437 437c5.3-5.2 10.3-10.7 15-16.4l-97.7-97.8h-31.5zm-133.6 0L75 437c5.2 5.3 10.7 10.3 16.4 15l97.8-97.7v-31.5z"/></g></g></svg>