<!-- Generated by IcoMoon.io -->
<svg version="1.1" xmlns="http://www.w3.org/2000/svg" width="32" height="32" viewBox="0 0 32 32">
<title>amazon</title>
<path d="M20.188 0c1.683 0 3.891 0.445 5.219 1.719 1.683 1.572 1.531 3.685 1.531 5.969v5.375c0 1.621 0.648 2.345 1.281 3.219 0.221 0.315 0.281 0.676 0 0.906-0.706 0.593-1.965 1.698-2.656 2.313v-0.031c-0.229 0.205-0.555 0.232-0.813 0.094-1.149-0.956-1.372-1.404-2-2.313-1.899 1.935-3.227 2.531-5.688 2.531-2.913 0-5.188-1.812-5.188-5.406 0-2.809 1.519-4.719 3.688-5.656 1.877-0.824 4.494-0.963 6.5-1.188v-0.469c0-0.824 0.080-1.789-0.406-2.5-0.421-0.637-1.226-0.906-1.938-0.906-1.319 0-2.493 0.692-2.781 2.094-0.060 0.312-0.311 0.609-0.625 0.625l-3.344-0.344c-0.283-0.064-0.582-0.287-0.5-0.719 0.77-4.068 4.427-5.313 7.719-5.313zM21.125 10.313c-2.183 0.143-4.188 0.891-4.188 3.469 0 1.497 0.767 2.5 2.094 2.5 0.971 0 1.856-0.588 2.406-1.563 0.679-1.199 0.625-2.308 0.625-3.656v-0.75c-0.313 0-0.626-0.020-0.938 0zM30.688 18.375c0.876-0.012 1.601 0.159 1.75 0.344 0.301 0.373-0.093 2.926-1.563 4.156-0.226 0.189-0.444 0.093-0.344-0.156 0.33-0.827 1.070-2.676 0.719-3.125s-2.305-0.2-3.188-0.094c-0.268 0.032-0.304-0.205-0.063-0.375 0.785-0.551 1.811-0.738 2.688-0.75zM7.656 18.844c0.061-0.008 0.141 0.018 0.219 0.063 3.526 2.052 7.871 3.281 12.375 3.281 3.038 0 6.396-0.633 9.469-1.938 0.464-0.197 0.859 0.321 0.406 0.656-2.741 2.023-6.734 3.094-10.156 3.094-4.796 0-9.106-1.768-12.375-4.719-0.193-0.174-0.12-0.413 0.063-0.438z"></path>
</svg>
