<!-- Generated by IcoMoon.io -->
<svg version="1.1" xmlns="http://www.w3.org/2000/svg" width="32" height="32" viewBox="0 0 32 32">
<title>ambulance</title>
<path d="M17 3c1.105 0 2 0.895 2 2v1h4.469l0.281 0.344 6 7 0.25 0.281v11.375h-3.156c-0.447 1.72-1.991 3-3.844 3s-3.397-1.28-3.844-3h-8.313c-0.447 1.72-1.991 3-3.844 3s-3.397-1.28-3.844-3h-3.156v-19h15v-1c0-1.105 0.895-2 2-2zM2 8v15h1.156c0.447-1.72 1.991-3 3.844-3s3.397 1.28 3.844 3h8.313c0.447-1.72 1.991-3 3.844-3s3.397 1.28 3.844 3h1.156v-8.625l-5.469-6.375h-20.531zM13 11h2v3h3v2h-3v3h-2v-3h-3v-2h3v-3zM7 22c-1.116 0-2 0.884-2 2s0.884 2 2 2 2-0.884 2-2-0.884-2-2-2zM23 22c-1.116 0-2 0.884-2 2s0.884 2 2 2 2-0.884 2-2-0.884-2-2-2z"></path>
</svg>
