<!-- Generated by IcoMoon.io -->
<svg version="1.1" xmlns="http://www.w3.org/2000/svg" width="32" height="32" viewBox="0 0 32 32">
<title>anchor</title>
<path d="M16 4c2.197 0 4 1.803 4 4 0 1.853-1.28 3.397-3 3.844v2.156h3v2h-3v7.969c2.426-0.193 4.041-1.079 5.188-2.094 0.874-0.774 1.46-1.623 1.875-2.344l-1.594-0.781 4-1.813 1.063 4.313-1.656-0.813c-0.473 0.849-1.209 1.933-2.344 2.938-1.455 1.287-3.598 2.356-6.531 2.563v0.063l-1 1-1-1v-0.063c-2.933-0.206-5.076-1.275-6.531-2.563-1.135-1.004-1.871-2.089-2.344-2.938l-1.656 0.813 1.063-4.313 4 1.813-1.594 0.781c0.415 0.721 1.001 1.57 1.875 2.344 1.147 1.015 2.761 1.901 5.188 2.094v-7.969h-3v-2h3v-2.156c-1.72-0.447-3-1.991-3-3.844 0-2.197 1.803-4 4-4zM16 6c-1.116 0-2 0.884-2 2s0.884 2 2 2 2-0.884 2-2-0.884-2-2-2z"></path>
</svg>
