<!-- Generated by IcoMoon.io -->
<svg version="1.1" xmlns="http://www.w3.org/2000/svg" width="32" height="32" viewBox="0 0 32 32">
<title>android</title>
<path d="M9.531 3.5c0.009-0.001 0.023-0.001 0.031-0.001s0.023 0 0.031 0.001c0.013-0.001 0.034-0.002 0.047-0.002s0.034 0.001 0.047 0.002c0.15 0.008 0.332 0.12 0.406 0.25l1.5 2.125c1.006-0.561 2.176-0.875 3.406-0.875s2.4 0.314 3.406 0.875l1.5-2.125c0.056-0.107 0.196-0.219 0.313-0.25 0.013-0.001 0.034-0.002 0.047-0.002s0.034 0.001 0.047 0.002l0.016-0c0.276 0 0.5 0.224 0.5 0.5 0 0.097-0.049 0.237-0.11 0.313l-1.469 2.125c1.667 1.282 2.75 3.307 2.75 5.563v10c0 0.702-0.442 1.205-1 1.563v2.938c0 1.369-1.131 2.5-2.5 2.5s-2.5-1.131-2.5-2.5v-2.5h-2v2.5c0 1.369-1.131 2.5-2.5 2.5s-2.5-1.131-2.5-2.5v-2.938c-0.558-0.357-1-0.86-1-1.563v-10c0-2.256 1.083-4.281 2.75-5.563l-1.469-2.125c-0.068-0.078-0.123-0.225-0.123-0.329 0-0.213 0.167-0.43 0.373-0.484zM15 7c-2.427 0-4.442 1.716-4.906 4h9.813c-0.464-2.284-2.479-4-4.906-4zM13 8c0.552 0 1 0.448 1 1s-0.448 1-1 1-1-0.448-1-1 0.448-1 1-1zM17 8c0.552 0 1 0.448 1 1s-0.448 1-1 1-1-0.448-1-1 0.448-1 1-1zM5 11h2v10h-2v-10zM23 11h2v10h-2v-10zM10 13v9h1v4.5c0 0.287 0.213 0.5 0.5 0.5s0.5-0.213 0.5-0.5v-4.5h6v4.5c0 0.287 0.213 0.5 0.5 0.5s0.5-0.213 0.5-0.5v-4.5h1v-9h-10z"></path>
</svg>
