<!-- Generated by IcoMoon.io -->
<svg version="1.1" xmlns="http://www.w3.org/2000/svg" width="32" height="32" viewBox="0 0 32 32">
<title>angellist</title>
<path d="M12.813 4c0.312 0.021 0.615 0.118 0.875 0.25 0.521 0.265 0.919 0.67 1.281 1.125 0.725 0.91 1.311 2.103 1.813 3.313 0.207 0.498 0.39 0.985 0.563 1.469 0.109-0.401 0.21-0.808 0.344-1.219 0.391-1.201 0.902-2.395 1.594-3.344 0.346-0.474 0.731-0.895 1.25-1.188s1.174-0.421 1.813-0.281c0.628 0.138 1.091 0.677 1.281 1.156s0.24 0.97 0.25 1.5c0.020 1.060-0.168 2.29-0.406 3.5-0.385 1.96-0.863 3.535-1.063 4.188 0.328 0.248 0.624 0.516 0.844 0.813 1.025 1.382 0.75 3.010 0.75 3.375 0 4.219-1.55 6.731-3.406 8s-3.874 1.344-4.75 1.344c-0.805 0-2.922 0.024-4.938-0.906s-3.906-3.011-3.906-6.563c0-1.078 0.261-1.996 0.906-2.625 0.403-0.392 0.929-0.57 1.469-0.625-0.205-0.548-0.361-1.162-0.281-1.844 0.089-0.757 0.563-1.558 1.344-2.063 0.319-0.206 0.672-0.326 1.031-0.344 0.169-0.008 0.336 0.001 0.5 0.031-0.273-0.768-0.577-1.665-0.844-2.625-0.325-1.173-0.597-2.383-0.625-3.469-0.014-0.543 0.037-1.059 0.219-1.563s0.577-1.017 1.156-1.25c0.303-0.122 0.625-0.177 0.938-0.156zM12.656 5.969c-0.013-0.002-0.018 0.026-0.031 0.031 0.004 0.007-0.006 0.024-0.031 0.094-0.051 0.14-0.104 0.453-0.094 0.844 0.020 0.781 0.229 1.879 0.531 2.969 0.497 1.791 1.081 3.25 1.313 3.813 0.442-0.431 1.082-0.719 1.781-0.719h0.063c-0.255-0.9-0.658-2.135-1.25-3.563-0.465-1.121-1.026-2.178-1.531-2.813-0.253-0.317-0.492-0.526-0.625-0.594-0.066-0.034-0.103-0.060-0.125-0.063zM21.656 6.125c-0.047-0-0.102 0.001-0.156 0.031-0.168 0.095-0.391 0.304-0.625 0.625-0.468 0.641-0.925 1.687-1.281 2.781-0.488 1.498-0.754 2.761-0.906 3.594 0.721 0.094 1.355 0.232 1.906 0.406 0.238-0.82 0.595-2.103 0.906-3.688 0.224-1.139 0.39-2.277 0.375-3.063-0.006-0.332-0.054-0.548-0.094-0.688-0.040 0.001-0.078 0-0.125 0zM16.125 15c-0.248 0-0.319 0.061-0.406 0.156s-0.169 0.254-0.188 0.469c-0.015 0.179 0.007 0.355 0.063 0.5 0.046 0.070 0.080 0.147 0.125 0.219 0.020 0.024 0.040 0.042 0.063 0.063 0.062 0.056 0.14 0.102 0.219 0.125 1.258 0.369 2.844 0.844 2.844 0.844 0.399 0.115 0.723 0.546 0.723 0.961 0 0.444-0.352 0.881-0.785 0.977 0 0-0.565 0.117-1.125 0.469-0.348 0.218-0.665 0.461-0.844 0.813-0.109 0.214-0.156 0.468-0.156 0.781 0 0.866 0.241 1.414 0.469 1.75s0.375 0.406 0.375 0.406l-1.094 1.656s-0.515-0.316-0.938-0.938c-0.189-0.278-0.354-0.651-0.5-1.063-0.079 0.184-0.099 0.39-0.219 0.531-0.466 0.55-1.139 0.906-1.906 0.906-0.74 0-1.409-0.369-1.906-0.813s-0.89-0.987-1.281-1.594l1.688-1.094c0.346 0.537 0.672 0.982 0.938 1.219s0.412 0.281 0.563 0.281c0.124 0 0.312-0.113 0.375-0.188-0.216-0.366-0.428-0.696-0.656-1-0.988-1.312-2.049-2.044-2.656-2.188-0.376-0.089-0.483-0.046-0.594 0.063s-0.313 0.471-0.313 1.219c0 2.907 1.245 4.056 2.75 4.75s3.296 0.719 4.094 0.719c0.727 0 2.304-0.097 3.625-1s2.531-2.589 2.531-6.344c0-0.822 0.143-1.5-0.344-2.156s-1.846-1.5-5.531-1.5zM11.5 15.031c-0.34 0.22-0.376 0.367-0.406 0.625s0.025 0.662 0.188 1.063c0.324 0.802 0.938 1.531 0.938 1.531 0.663 0.506 1.276 1.177 1.875 2l0.063-0.031c-0.196-0.257-0.218-0.129-0.063-0.125s0.414-0.041 0.594-0.125 0.279-0.181 0.313-0.25 0.064-0.147-0.063-0.469c-0.536-1.37-1.376-2.666-2.156-3.438-0.39-0.386-0.765-0.63-1-0.719s-0.239-0.090-0.281-0.063z"></path>
</svg>
