<!-- Generated by IcoMoon.io -->
<svg version="1.1" xmlns="http://www.w3.org/2000/svg" width="32" height="32" viewBox="0 0 32 32">
<title>apple</title>
<path d="M20.844 2h0.938l0.063 0.938c0.094 1.646-0.497 3.245-1.563 4.438h-0.031c-0.010 0.011-0.021 0.021-0.031 0.031-0.004 0.005 0.004 0.026 0 0.031-0.197 0.258-0.508 0.4-0.75 0.625 0.43-0.084 0.768-0.25 1.25-0.25 1.036 0.001 3.649 0.332 5.281 2.844l0.563 0.844-0.844 0.531c-0.107 0.067-0.094 0.054-0.156 0.094s-0.146 0.078-0.25 0.156c-0.208 0.156-0.482 0.409-0.75 0.719-0.535 0.62-1.031 1.488-1.031 2.781 0 1.335 0.533 2.206 1.156 2.844s1.323 0.983 1.5 1.063l0.75 0.344-0.188 0.813c-0.058 0.25-0.101 0.313-0.188 0.531s-0.195 0.489-0.344 0.813c-0.296 0.648-0.702 1.457-1.219 2.281s-1.135 1.678-1.875 2.344-1.649 1.188-2.719 1.188c-0.989 0-1.734-0.322-2.281-0.563s-0.909-0.438-1.625-0.438c-0.795 0-1.21 0.201-1.75 0.438s-1.258 0.563-2.219 0.563c-0.961 0-1.812-0.464-2.625-1.125s-1.594-1.548-2.281-2.625c-1.375-2.154-2.406-5.028-2.406-8.094 0-4.74 3.018-8.344 7-8.344 1.015 0 1.872 0.314 2.563 0.594 0.144 0.058 0.152 0.044 0.281 0.094-0.268-1.784 0.587-3.334 1.375-4.313v-0.031c1.11-1.305 2.764-2.156 4.406-2.156zM19.656 4.313c-0.614 0.25-1.218 0.624-1.656 1.125-0.009 0.011-0.022 0.021-0.031 0.031-0.396 0.5-0.681 1.159-0.844 1.813 0.59-0.226 1.179-0.607 1.563-1.125l0.063-0.063c0.451-0.491 0.734-1.122 0.906-1.781zM12.219 9.813c-2.8 0-5 2.402-5 6.344 0 2.607 0.911 5.147 2.094 7 0.591 0.926 1.245 1.67 1.844 2.156s1.129 0.688 1.375 0.688c0.516 0 0.821-0.15 1.406-0.406s1.427-0.594 2.563-0.594c1.081 0 1.866 0.342 2.438 0.594s0.901 0.406 1.469 0.406c0.377 0 0.849-0.214 1.375-0.688s1.077-1.181 1.531-1.906 0.826-1.477 1.094-2.063c0.069-0.152 0.103-0.249 0.156-0.375-0.422-0.243-0.762-0.374-1.313-0.938-0.888-0.908-1.719-2.342-1.719-4.25 0-1.835 0.768-3.21 1.531-4.094 0.202-0.234 0.373-0.36 0.563-0.531-1.091-1.012-2.382-1.343-2.906-1.344-0.787 0-1.588 0.21-2.344 0.469s-1.4 0.594-2.25 0.594c-0.854 0-1.453-0.334-2.094-0.594s-1.255-0.469-1.813-0.469z"></path>
</svg>
