<!-- Generated by IcoMoon.io -->
<svg version="1.1" xmlns="http://www.w3.org/2000/svg" width="32" height="32" viewBox="0 0 32 32">
<title>area-chart</title>
<path d="M28 4.063v23.938h-24v-17.219l1.188 0.25 4.563 0.906 5.688-3.781 0.344-0.219 5.969 1 4.625-3.625zM26 8.156l-3.375 2.625-0.344 0.281-0.438-0.063-5.625-0.938-5.656 3.781-0.344 0.219-0.406-0.094-3.813-0.75v4.094l3.875 1.563 5.563-3.719 0.406-0.25 0.469 0.156 5.469 1.813 4.219-3.344v-5.375zM26 16.094l-3.375 2.688-0.438 0.344-0.5-0.188-5.5-1.844-5.625 3.75-0.438 0.281-0.5-0.188-3.625-1.438v6.5h20v-9.906z"></path>
</svg>
