<!-- Generated by IcoMoon.io -->
<svg version="1.1" xmlns="http://www.w3.org/2000/svg" width="32" height="32" viewBox="0 0 32 32">
<title>automobile</title>
<path d="M9.5 6h13c1.32 0 2.495 0.86 2.875 2.125l1.375 4.594 1.938-0.656 0.625 1.875-1.969 0.656 0.625 2.125c0.018 0.068 0.032 0.18 0.032 0.25 0 0.009-0 0.023-0 0.031v7c0.002 0.022 0.003 0.057 0.003 0.078s-0.001 0.057-0.003 0.078v0.844c0 0.552-0.448 1-1 1h-3l-0.344-1h-15.313l-0.344 1h-3c-0.552 0-1-0.448-1-1v-0.906c-0.001-0.013-0.001-0.034-0.001-0.047s0.001-0.034 0.001-0.047v-7c-0-0.009-0.001-0.023-0.001-0.031 0-0.070 0.014-0.182 0.032-0.25l0.625-2.125-1.969-0.656 0.625-1.875 1.938 0.656 1.375-4.594c0.38-1.266 1.555-2.125 2.875-2.125zM9.5 8c-0.446 0-0.84 0.29-0.969 0.719l-1.281 4.281h17.5l-1.281-4.281c-0.128-0.427-0.523-0.719-0.969-0.719h-13zM6.656 15l-0.656 2.188v5.813h20v-5.813l-0.656-2.188h-18.688zM8.5 16c0.828 0 1.5 0.672 1.5 1.5s-0.672 1.5-1.5 1.5-1.5-0.672-1.5-1.5 0.672-1.5 1.5-1.5zM23.5 16c0.828 0 1.5 0.672 1.5 1.5s-0.672 1.5-1.5 1.5-1.5-0.672-1.5-1.5 0.672-1.5 1.5-1.5zM12 19h8l1.25 3h-2.156l-0.438-1h-5.313l-0.438 1h-2.156z"></path>
</svg>
