<!-- Generated by IcoMoon.io -->
<svg version="1.1" xmlns="http://www.w3.org/2000/svg" width="32" height="32" viewBox="0 0 32 32">
<title>bed</title>
<path d="M6 6h20c1.645 0 3 1.355 3 3v6.781c0.61 0.551 1 1.34 1 2.219v9h-5v-2h-18v2h-5v-9c0-0.878 0.39-1.668 1-2.219v-6.781c0-1.645 1.355-3 3-3zM6 8c-0.555 0-1 0.445-1 1v6h2v-1c0-1.645 1.355-3 3-3h4c0.767 0 1.467 0.3 2 0.781 0.533-0.481 1.233-0.781 2-0.781h4c1.645 0 3 1.355 3 3v1h2v-6c0-0.555-0.445-1-1-1h-20zM10 13c-0.555 0-1 0.445-1 1v1h6v-1c0-0.555-0.445-1-1-1h-4zM18 13c-0.555 0-1 0.445-1 1v1h6v-1c0-0.555-0.445-1-1-1h-4zM5 17c-0.555 0-1 0.445-1 1v7h1v-2h22v2h1v-7c0-0.555-0.445-1-1-1h-22z"></path>
</svg>
