<!-- Generated by IcoMoon.io -->
<svg version="1.1" xmlns="http://www.w3.org/2000/svg" width="32" height="32" viewBox="0 0 32 32">
<title>beer</title>
<path d="M13.5 4c1.096 0 2.036 0.474 2.813 1.125 0.227-0.046 0.431-0.125 0.688-0.125 0.748 0 1.405 0.267 2 0.625 0.595-0.358 1.252-0.625 2-0.625 2.197 0 4 1.803 4 4 0 0.997-0.39 1.891-1 2.594 0.003 0.030 0.006 0.079 0.006 0.109s-0.003 0.079-0.006 0.109v1.188h1c1.645 0 3 1.355 3 3v4c0 1.645-1.355 3-3 3h-1v2c0 1.645-1.355 3-3 3h-12c-1.645 0-3-1.355-3-3v-13c0-0.098 0.028-0.252 0.063-0.344-0.645-0.711-1.063-1.628-1.063-2.656 0-2.197 1.803-4 4-4 0.507 0 0.929 0.233 1.375 0.406 0.815-0.823 1.879-1.406 3.125-1.406zM13.5 6c-0.851 0-1.577 0.417-2.031 1.063l-0.563 0.781-0.813-0.5c-0.319-0.209-0.689-0.344-1.094-0.344-1.117 0-2 0.883-2 2s0.883 2 2 2c0.568 0 1.071-0.245 1.438-0.625l0.656-0.688 0.719 0.656c0.452 0.412 1.041 0.656 1.688 0.656 0.084 0 0.366-0.058 0.594-0.156s0.406-0.188 0.406-0.188l1.5-0.938v1.781c0 1.393-0.301 2.441-0.563 3.25s-0.438 1.354-0.438 1.75c0 0.841 0.659 1.5 1.5 1.5s1.5-0.659 1.5-1.5c0-0.396-0.175-0.912-0.438-1.719s-0.563-1.879-0.563-3.281v-1.344l1.281 0.375s1.611 0.469 2.719 0.469c1.117 0 2-0.883 2-2s-0.883-2-2-2c-0.513 0-0.98 0.204-1.344 0.531l-0.656 0.594-0.656-0.594c-0.364-0.328-0.831-0.531-1.344-0.531-0.189 0-0.37 0.053-0.594 0.125l-0.625 0.188-0.438-0.469c-0.464-0.512-1.109-0.844-1.844-0.844zM11.188 12.25c-0.637 0.43-1.364 0.75-2.188 0.75-0.344 0-0.681-0.073-1-0.156v12.156c0 0.565 0.435 1 1 1h12c0.565 0 1-0.435 1-1v-2.781c-0.012-0.055-0.021-0.146-0.021-0.203s0.009-0.148 0.021-0.203v-7.531c-0.025-0.080-0.045-0.213-0.045-0.297s0.020-0.217 0.045-0.297v-0.844c-0.319 0.083-0.656 0.156-1 0.156-0.883 0-1.174-0.133-1.813-0.281 0.084 0.476 0.121 1.041 0.25 1.438 0.238 0.732 0.563 1.436 0.563 2.344 0 1.921-1.579 3.5-3.5 3.5s-3.5-1.579-3.5-3.5c0-0.908 0.324-1.609 0.563-2.344 0.109-0.337 0.107-0.833 0.188-1.219-0.096 0.010-0.146 0.063-0.25 0.063-0.865 0-1.63-0.325-2.313-0.75zM24 15v6h1c0.565 0 1-0.435 1-1v-4c0-0.565-0.435-1-1-1h-1z"></path>
</svg>
