<!-- Generated by IcoMoon.io -->
<svg version="1.1" xmlns="http://www.w3.org/2000/svg" width="32" height="32" viewBox="0 0 32 32">
<title>behance</title>
<path d="M1 6.75h8.688c5.707 0 5.906 3.194 5.906 4.594 0 2.513-1.665 3.449-2.5 3.844 1.137 0.327 3.375 1.433 3.375 4.688 0 5.208-5.704 5.375-6.531 5.375h-8.938v-18.5zM21.375 8.469h6.906v1.688h-6.906v-1.688zM5.063 9.906v4.313h4.125c0.72 0 2.469-0.208 2.469-2.188 0-2.315-2.421-2.125-2.781-2.125h-3.813zM25 11.688c4.67 0 6.149 3.937 5.969 7.313h-8.875c0 0.975 0.241 3.156 3.031 3.156 1.663 0 2.54-1.243 2.656-1.625h3c-0.48 1.485-1.652 4.156-5.781 4.156-1.532 0-6.313-0.669-6.313-6.5 0-1.964 1.091-6.5 6.313-6.5zM24.906 14.219c-0.541 0-0.985 0.095-1.344 0.281-0.351 0.183-0.655 0.419-0.875 0.688-0.219 0.273-0.352 0.567-0.438 0.875-0.087 0.3-0.14 0.573-0.156 0.813h5.5c-0.081-0.864-0.377-1.52-0.781-1.969-0.402-0.446-1.074-0.688-1.906-0.688zM5.063 17v5.094h4.344c0.401 0 3 0.005 3-2.438 0-2.521-2.063-2.656-2.938-2.656h-4.406z"></path>
</svg>
