<!-- Generated by IcoMoon.io -->
<svg version="1.1" xmlns="http://www.w3.org/2000/svg" width="32" height="32" viewBox="0 0 32 32">
<title>bell-slash</title>
<path d="M3.719 2.281l5.906 5.906c0.246-0.326 0.513-0.647 0.813-0.938 1.019-0.99 2.255-1.661 3.594-2-0.010-0.082-0.031-0.165-0.031-0.25 0-1.105 0.895-2 2-2s2 0.895 2 2c0 0.096-0.018 0.189-0.031 0.281 3.449 0.92 6.031 4.173 6.031 8v8.719c0 0.552 0.448 1 1 1h1v1.563l3.719 3.719-1.438 1.438-26-26zM15.563 7c-1.41 0.096-2.722 0.689-3.75 1.688-0.292 0.283-0.526 0.61-0.75 0.938l10.938 10.938v-7.281c0-3.373-2.607-6.185-5.813-6.281-0.205-0.006-0.424-0.014-0.625 0zM8.031 12.25l1.969 1.938v7.813c0 0.352-0.075 0.686-0.188 1h9l2 2h-2c0.114 0.316 0.188 0.647 0.188 1 0 1.645-1.355 3-3 3s-3-1.355-3-3c0-0.353 0.073-0.684 0.188-1h-7.188v-2h1c0.552 0 1-0.448 1-1v-9c0-0.256 0.007-0.498 0.031-0.75zM16 25c-0.564 0-1 0.436-1 1s0.436 1 1 1 1-0.436 1-1-0.436-1-1-1z"></path>
</svg>
