<!-- Generated by IcoMoon.io -->
<svg version="1.1" xmlns="http://www.w3.org/2000/svg" width="32" height="32" viewBox="0 0 32 32">
<title>bicycle</title>
<path d="M19 6h5.5c1.369 0 2.5 1.131 2.5 2.5s-1.131 2.5-2.5 2.5v-2c0.287 0 0.5-0.213 0.5-0.5s-0.213-0.5-0.5-0.5h-3.094l2.688 6.156c0.452-0.101 0.926-0.156 1.406-0.156 3.57 0 6.5 2.93 6.5 6.5s-2.93 6.5-6.5 6.5-6.5-2.93-6.5-6.5c0-2.39 1.311-4.496 3.25-5.625l-0.656-1.5-4.875 7.188-0.313 0.438h-3.438c-0.26 3.348-3.056 6-6.469 6-3.584 0-6.5-2.916-6.5-6.5s2.917-6.5 6.5-6.5c0.664 0 1.303 0.095 1.906 0.281l2.719-3.844 0.313-0.438h8.688l-1.031-2.375-0.094-0.188v-1.438zM8 7h5l1 2h-6v-2zM13.469 12l2.625 5.938 4.031-5.938h-6.656zM11.719 13l-1.5 2.156c1.013 0.704 1.799 1.692 2.281 2.844h-2.25c-0.808-1.205-2.193-2-3.75-2-2.481 0-4.5 2.019-4.5 4.5s2.019 4.5 4.5 4.5c2.309 0 4.185-1.757 4.438-4h-4.938v-2h8.344zM25.5 16c-0.192 0-0.376 0.039-0.563 0.063l1.969 4.531-1.813 0.813-2.031-4.656c-1.23 0.804-2.063 2.175-2.063 3.75 0 2.48 2.020 4.5 4.5 4.5s4.5-2.020 4.5-4.5-2.020-4.5-4.5-4.5z"></path>
</svg>
