<!-- Generated by IcoMoon.io -->
<svg version="1.1" xmlns="http://www.w3.org/2000/svg" width="32" height="32" viewBox="0 0 32 32">
<title>binoculars</title>
<path d="M11 5c1.857 0 3.362 1.285 3.813 3h2.375c0.451-1.715 1.955-3 3.813-3 1.968 0 3.54 1.441 3.875 3.313 1.902 0.488 3.52 1.728 4.25 3.5v0.031l0.031 0.031 2.281 6.375c0.362 0.844 0.563 1.776 0.563 2.75 0 3.854-3.146 7-7 7-3.472 0-6.365-2.552-6.906-5.875-0.543 0.535-1.28 0.875-2.094 0.875s-1.551-0.34-2.094-0.875c-0.541 3.323-3.435 5.875-6.906 5.875-3.854 0-7-3.146-7-7 0-1.096 0.266-2.137 0.719-3.063l2.125-5.969h0.031c0.719-1.95 2.361-3.18 4.25-3.656 0.335-1.871 1.907-3.313 3.875-3.313zM11 7c-1.19 0-2 0.81-2 2v0.906l-0.906 0.094c-1.535 0.162-2.763 1.077-3.344 2.625v0.031l-0.75 2.031c0.91-0.434 1.928-0.688 3-0.688 2.925 0 5.425 1.817 6.469 4.375 0.536-0.831 1.479-1.375 2.531-1.375s1.995 0.544 2.531 1.375c1.044-2.558 3.544-4.375 6.469-4.375 1.086 0 2.112 0.274 3.031 0.719l-0.75-2.125c-0.009-0.021-0.022-0.041-0.031-0.063-0.578-1.339-1.858-2.375-3.344-2.531l-0.906-0.094v-0.906c0-1.19-0.81-2-2-2s-2 0.81-2 2v1h-6v-1c0-1.19-0.81-2-2-2zM7 16c-2.021 0-3.741 1.192-4.531 2.906-0.017 0.038-0.015 0.087-0.031 0.125-0.262 0.609-0.438 1.261-0.438 1.969 0 2.773 2.227 5 5 5s5-2.227 5-5-2.227-5-5-5zM25 16c-2.773 0-5 2.227-5 5s2.227 5 5 5 5-2.227 5-5-2.227-5-5-5zM16 19c-0.564 0-1 0.436-1 1s0.436 1 1 1 1-0.436 1-1-0.436-1-1-1z"></path>
</svg>
