<!-- Generated by IcoMoon.io -->
<svg version="1.1" xmlns="http://www.w3.org/2000/svg" width="32" height="32" viewBox="0 0 32 32">
<title>birthday-cake</title>
<path d="M16 1.25l0.813 1.188s0.539 0.754 1.063 1.656c0.262 0.451 0.507 0.925 0.719 1.406s0.406 0.922 0.406 1.5c0 1.645-1.355 3-3 3s-3-1.355-3-3c0-0.578 0.195-1.019 0.406-1.5s0.457-0.955 0.719-1.406c0.523-0.902 1.063-1.656 1.063-1.656zM16 10h3v4h6c2.21 0 4 1.79 4 4 0 1.016-0.377 1.951-1 2.656v7.344h-24v-7.344c-0.623-0.705-1-1.64-1-2.656 0-2.21 1.79-4 4-4h6v-4h3zM16 4.875c-0.066 0.109-0.058 0.103-0.125 0.219-0.238 0.411-0.493 0.847-0.656 1.219s-0.219 0.716-0.219 0.688c0 0.555 0.445 1 1 1s1-0.445 1-1c0 0.028-0.055-0.315-0.219-0.688s-0.418-0.807-0.656-1.219c-0.067-0.115-0.059-0.11-0.125-0.219zM15 12v2h2v-2h-2zM7 16c-1.19 0-2 0.81-2 2s0.81 2 2 2 2-0.81 2-2h2c0 1.19 0.81 2 2 2s2-0.81 2-2h2c0 1.19 0.81 2 2 2s2-0.81 2-2h2c0 1.19 0.81 2 2 2s2-0.81 2-2-0.81-2-2-2h-18zM10 20.656c-0.733 0.829-1.806 1.344-3 1.344-0.346 0-0.68-0.074-1-0.156v4.156h20v-4.156c-0.32 0.083-0.654 0.156-1 0.156-1.194 0-2.267-0.515-3-1.344-0.733 0.829-1.806 1.344-3 1.344s-2.267-0.515-3-1.344c-0.733 0.829-1.806 1.344-3 1.344s-2.267-0.515-3-1.344z"></path>
</svg>
