<!-- Generated by IcoMoon.io -->
<svg version="1.1" xmlns="http://www.w3.org/2000/svg" width="32" height="32" viewBox="0 0 32 32">
<title>bitbucket-square</title>
<path d="M15 5c2.293 0 4.595 0.299 6.406 0.781 0.906 0.241 1.681 0.496 2.313 0.875s1.281 0.946 1.281 1.844c0 0.225-0.054 0.44-0.125 0.625-0.077 0.395-0.656 3.418-1.344 6.938-0.366 1.871-0.743 3.75-1.031 5.25s-0.48 2.702-0.5 2.844c-0.090 0.628-0.501 1.071-0.938 1.406s-0.957 0.575-1.563 0.781c-1.21 0.412-2.752 0.656-4.5 0.656-1.749 0-3.298-0.242-4.5-0.656-0.601-0.207-1.097-0.451-1.531-0.781s-0.817-0.773-0.938-1.375c-0.253-1.263-2.759-14.302-2.906-15.063-0.071-0.185-0.125-0.4-0.125-0.625 0-0.898 0.65-1.465 1.281-1.844s1.407-0.634 2.313-0.875c1.811-0.483 4.113-0.781 6.406-0.781zM15 7c-2.125 0-4.322 0.265-5.906 0.688-0.792 0.211-1.415 0.468-1.781 0.688-0.103 0.062-0.109 0.085-0.156 0.125 0.047 0.040 0.053 0.063 0.156 0.125 0.366 0.22 0.989 0.476 1.781 0.688 1.584 0.422 3.782 0.688 5.906 0.688s4.322-0.265 5.906-0.688c0.792-0.211 1.415-0.468 1.781-0.688 0.103-0.062 0.109-0.085 0.156-0.125-0.047-0.040-0.053-0.063-0.156-0.125-0.366-0.22-0.989-0.476-1.781-0.688-1.584-0.422-3.782-0.688-5.906-0.688zM7.469 10.875c0.403 2.086 0.883 4.617 1.563 8.125 0 0 0.016 0.019 0.156 0.188s0.366 0.422 0.781 0.688c0.831 0.531 2.355 1.125 5.031 1.125s4.171-0.591 5-1.125c0.415-0.267 0.672-0.549 0.813-0.719 0.101-0.122 0.113-0.11 0.125-0.125 0.208-1.109 0.391-2.179 0.625-3.375 0.477-2.439 0.693-3.42 0.969-4.781-0.354 0.124-0.717 0.235-1.125 0.344-1.811 0.483-4.113 0.781-6.406 0.781s-4.595-0.299-6.406-0.781c-0.408-0.109-0.771-0.219-1.125-0.344zM15 13c1.645 0 3 1.355 3 3s-1.355 3-3 3-3-1.355-3-3 1.355-3 3-3zM15 15c-0.564 0-1 0.436-1 1s0.436 1 1 1 1-0.436 1-1-0.436-1-1-1zM9.594 21.906c0.096 0.493 0.345 1.759 0.375 1.906-0.012-0.061-0.006 0.010 0.188 0.156s0.542 0.342 1 0.5c0.916 0.315 2.279 0.531 3.844 0.531 1.566 0 2.953-0.217 3.875-0.531 0.461-0.157 0.784-0.358 0.969-0.5 0.083-0.064 0.136-0.099 0.156-0.125 0.036-0.252 0.224-1.15 0.375-1.906-1.2 0.596-2.917 1.063-5.375 1.063-2.487 0-4.204-0.496-5.406-1.094z"></path>
</svg>
