<!-- Generated by IcoMoon.io -->
<svg version="1.1" xmlns="http://www.w3.org/2000/svg" width="32" height="32" viewBox="0 0 32 32">
<title>bomb</title>
<path d="M23.406 1.875l0.281 1.969 0.563 3.906 5.875 0.844-5.469 5.469-0.5-0.063-0.281-0.031c0.317 2.123-0.309 4.34-1.938 5.969l-6.531 6.563c-1.881 1.881-4.612 2.153-6.781 2.063s-3.906-0.594-3.906-0.594l-0.531-0.156-0.156-0.531s-0.503-1.737-0.594-3.906 0.182-4.9 2.063-6.781l6.406-6.406 0.156-0.125c1.628-1.628 3.846-2.255 5.969-1.938l-0.031-0.281-0.063-0.5 4.063-4.063zM22 6.125l-1.938 1.938 0.188 1.219 0.219 1.719-1.594-0.625c-1.802-0.727-3.938-0.375-5.406 1.094l-6.531 6.531c-1.24 1.241-1.58 3.378-1.5 5.281 0.066 1.575 0.331 2.432 0.438 2.844 0.412 0.107 1.269 0.372 2.844 0.438 1.903 0.079 4.041-0.259 5.281-1.5l6.531-6.531c1.469-1.469 1.821-3.604 1.094-5.406l-0.625-1.625 1.719 0.25 1.219 0.188 1.938-1.938-2.656-0.375-0.75-0.094-0.094-0.75z"></path>
</svg>
