<!-- Generated by IcoMoon.io -->
<svg version="1.1" xmlns="http://www.w3.org/2000/svg" width="32" height="32" viewBox="0 0 32 32">
<title>bullseye</title>
<path d="M16 3c7.174 0 13 5.826 13 13s-5.826 13-13 13-13-5.826-13-13 5.826-13 13-13zM16 4c-6.633 0-12 5.367-12 12s5.367 12 12 12 12-5.367 12-12-5.367-12-12-12zM16 6c5.511 0 10 4.489 10 10s-4.489 10-10 10-10-4.489-10-10 4.489-10 10-10zM16 8c-4.43 0-8 3.57-8 8s3.57 8 8 8 8-3.57 8-8-3.57-8-8-8zM16 10c3.302 0 6 2.698 6 6s-2.698 6-6 6-6-2.698-6-6 2.698-6 6-6zM16 12c-2.221 0-4 1.779-4 4s1.779 4 4 4 4-1.779 4-4-1.779-4-4-4zM16 14c1.105 0 2 0.895 2 2s-0.895 2-2 2-2-0.895-2-2 0.895-2 2-2z"></path>
</svg>
