<!-- Generated by IcoMoon.io -->
<svg version="1.1" xmlns="http://www.w3.org/2000/svg" width="32" height="32" viewBox="0 0 32 32">
<title>camera-retro</title>
<path d="M11.5 6h9l0.313 0.406 1.188 1.594h7v18h-26v-18h2v-1h4v1h1l1.188-1.594zM12.5 8l-1.188 1.594-0.313 0.406h-6v4h5.813c1.042-1.784 2.981-3 5.188-3s4.145 1.216 5.188 3h5.813v-4h-6l-0.313-0.406-1.188-1.594h-7zM23 11h2v2h-2v-2zM16 13c-2.221 0-4 1.779-4 4s1.779 4 4 4 4-1.779 4-4-1.779-4-4-4zM5 16v8h22v-8h-5.094c0.054 0.322 0.094 0.663 0.094 1 0 3.302-2.698 6-6 6s-6-2.698-6-6c0-0.337 0.040-0.678 0.094-1h-5.094z"></path>
</svg>
