<!-- Generated by IcoMoon.io -->
<svg version="1.1" xmlns="http://www.w3.org/2000/svg" width="32" height="32" viewBox="0 0 32 32">
<title>cc-amex</title>
<path d="M5 6h22c1.645 0 3 1.355 3 3v14c0 1.645-1.355 3-3 3h-22c-1.645 0-3-1.355-3-3v-14c0-1.645 1.355-3 3-3zM5 8c-0.565 0-1 0.435-1 1v14c0 0.565 0.435 1 1 1h22c0.565 0 1-0.435 1-1v-14c0-0.565-0.435-1-1-1h-22zM7.063 13.25h1.5l1.938 5.219v-5.219h1.938l1.375 3.719 1.375-3.719h1.781v5.5h-1.094v-4l-1.531 4h-1.094l-1.5-4.125v4.125h-2.344l-0.406-1.25h-2.344l-0.406 1.25h-1.25zM18.469 13.25h4.531l1.125 1.656 1.375-1.656h1.5l-2.063 2.75 2.063 2.75h-1.375l-1.375-1.781-1.375 1.781h-4.406v-5.5zM7.75 14.344l-0.688 1.938h1.375zM19.563 14.5v0.938h2.5v1.125h-2.5v1.094h2.625l1.25-1.656-1.125-1.5h-2.75z"></path>
</svg>
