<!-- Generated by IcoMoon.io -->
<svg version="1.1" xmlns="http://www.w3.org/2000/svg" width="32" height="32" viewBox="0 0 32 32">
<title>cc-discover</title>
<path d="M5 6h22c1.645 0 3 1.355 3 3v14c0 1.645-1.355 3-3 3h-22c-1.645 0-3-1.355-3-3v-14c0-1.645 1.355-3 3-3zM5 8c-0.565 0-1 0.435-1 1v14c0 0.565 0.435 1 1 1h22c0.565 0 1-0.435 1-1v-14c0-0.565-0.435-1-1-1h-22zM10.438 14.156c0.387 0 0.766 0.147 1.063 0.406l-0.375 0.469c-0.179-0.201-0.357-0.281-0.563-0.281-0.297 0-0.5 0.153-0.5 0.375 0 0.19 0.118 0.284 0.531 0.438 0.783 0.287 0.999 0.564 1 1.125 0 0.683-0.472 1.156-1.188 1.156-0.524 0-0.933-0.222-1.25-0.688l0.469-0.406c0.158 0.307 0.422 0.469 0.75 0.469 0.307 0 0.531-0.214 0.531-0.5 0-0.341-0.313-0.422-0.688-0.563-0.643-0.242-0.875-0.483-0.875-0.969 0-0.577 0.47-1.031 1.094-1.031zM13.688 14.156c0.296 0 0.573 0.034 0.875 0.188v0.813c-0.286-0.28-0.547-0.375-0.875-0.375-0.645 0-1.156 0.511-1.156 1.188 0 0.714 0.495 1.219 1.188 1.219 0.312 0 0.569-0.1 0.844-0.375v0.813c-0.313 0.148-0.579 0.219-0.875 0.219-1.048 0-1.875-0.807-1.875-1.844 0-1.026 0.833-1.842 1.875-1.844zM16.594 14.156c1.016 0 1.844 0.828 1.844 1.844s-0.828 1.844-1.844 1.844c-1.016 0-1.844-0.828-1.844-1.844s0.828-1.844 1.844-1.844zM5 14.219h1c1.116 0 1.906 0.741 1.906 1.781 0 0.55-0.371 1.75-1.906 1.75h-1v-3.531zM8.219 14.219h0.688v3.531h-0.688v-3.531zM18.313 14.219h0.75l0.938 2.375 0.969-2.375h0.75l-1.531 3.625h-0.375zM22.031 14.219h1.938v0.594h-1.25v0.781h1.219v0.594h-1.219v0.969h1.25v0.594h-1.938v-3.531zM24.438 14.219h1c0.794 0 1.25 0.37 1.25 1.031 0 0.54-0.294 0.895-0.813 1l1.125 1.5h-0.844l-0.969-1.406h-0.063v1.406h-0.688v-3.531zM25.125 14.781v1.063h0.188c0.44 0 0.688-0.176 0.688-0.531 0-0.343-0.258-0.531-0.688-0.531h-0.188zM5.688 14.813v2.344h0.188c1.239 0 1.312-0.89 1.313-1.156 0-0.555-0.343-1.188-1.281-1.188h-0.219z"></path>
</svg>
