<!-- Generated by IcoMoon.io -->
<svg version="1.1" xmlns="http://www.w3.org/2000/svg" width="32" height="32" viewBox="0 0 32 32">
<title>cc-diners-club</title>
<path d="M5 6h22c1.645 0 3 1.355 3 3v14c0 1.645-1.355 3-3 3h-22c-1.645 0-3-1.355-3-3v-14c0-1.645 1.355-3 3-3zM5 8c-0.565 0-1 0.435-1 1v14c0 0.565 0.435 1 1 1h22c0.565 0 1-0.435 1-1v-14c0-0.565-0.435-1-1-1h-22zM15 10h2c3.314 0 6 2.686 6 6s-2.686 6-6 6h-2c-3.302 0-6-2.698-6-6s2.698-6 6-6zM15 12c-2.221 0-4 1.779-4 4s1.779 4 4 4 4-1.779 4-4-1.779-4-4-4zM14.188 13.656v4.688c-0.973-0.342-1.688-1.254-1.688-2.344s0.714-2.002 1.688-2.344zM15.813 13.656c0.973 0.342 1.688 1.254 1.688 2.344s-0.714 2.001-1.688 2.344v-4.688z"></path>
</svg>
