<!-- Generated by IcoMoon.io -->
<svg version="1.1" xmlns="http://www.w3.org/2000/svg" width="32" height="32" viewBox="0 0 32 32">
<title>cc-jcb</title>
<path d="M5 6h22c1.645 0 3 1.355 3 3v14c0 1.645-1.355 3-3 3h-22c-1.645 0-3-1.355-3-3v-14c0-1.645 1.355-3 3-3zM5 8c-0.565 0-1 0.435-1 1v14c0 0.565 0.435 1 1 1h22c0.565 0 1-0.435 1-1v-14c0-0.565-0.435-1-1-1h-22zM8.156 11h3.844v7.938c0 1.168-1.104 2.063-2.063 2.063h-3.938v-7.875c0-1.349 0.928-2.125 2.156-2.125zM15.156 11h3.844v7.875c0 1.165-1.107 2.063-2.063 2.063h-3.938v-7.813c0-1.344 0.932-2.125 2.156-2.125zM22.156 11h3.844v7.875c0 1.164-1.14 2.063-2.094 2.063h-3.906v-7.813c0-1.343 0.933-2.125 2.156-2.125zM15.375 14c-0.895 0-1.656 0.804-1.656 1.75 0 0.947 0.761 1.719 1.656 1.719h2.875v-0.594c-0.687 0.16-1.359 0.219-1.688 0.219-0.717 0-1.281-0.585-1.281-1.344 0-0.757 0.564-1.375 1.281-1.375 0.329 0 1 0.091 1.688 0.25v-0.625h-2.875zM20.844 14v3.438h3.75c0.507 0 0.906-0.427 0.906-0.875s-0.398-0.844-0.906-0.844c0.448 0 0.75-0.428 0.75-0.875s-0.364-0.844-0.813-0.844h-3.688zM9.469 14.031v1.938c0 0.57-0.464 1.031-1.094 1.031-0.569 0-1.066-0.365-1.156-0.875h-0.75c0.21 0.839 1.204 1.5 2.313 1.5 1.018 0 2.406-0.577 2.406-1.656v-1.938h-1.719zM22.25 14.344h1.188c0.298 0 0.563 0.296 0.563 0.594s-0.265 0.563-0.563 0.563h-1.188v-1.156zM22.25 15.938h1.219c0.299 0 0.563 0.295 0.563 0.594 0 0.297-0.264 0.563-0.563 0.563h-1.219v-1.156z"></path>
</svg>
