<!-- Generated by IcoMoon.io -->
<svg version="1.1" xmlns="http://www.w3.org/2000/svg" width="32" height="32" viewBox="0 0 32 32">
<title>cc-mastercard</title>
<path d="M5 6h22c1.645 0 3 1.355 3 3v14c0 1.645-1.355 3-3 3h-22c-1.645 0-3-1.355-3-3v-14c0-1.645 1.355-3 3-3zM5 8c-0.565 0-1 0.435-1 1v14c0 0.565 0.435 1 1 1h22c0.565 0 1-0.435 1-1v-14c0-0.565-0.435-1-1-1h-22zM12 9c1.486 0 2.864 0.455 4 1.25 1.131-0.792 2.512-1.25 4-1.25 3.854 0 7 3.146 7 7s-3.146 7-7 7c-1.488 0-2.869-0.458-4-1.25-1.136 0.795-2.514 1.25-4 1.25-3.854 0-7-3.146-7-7s3.146-7 7-7zM12 11c-2.773 0-5 2.227-5 5s2.227 5 5 5c1.282 0 2.43-0.496 3.313-1.281-0.408-0.514-0.745-1.089-0.969-1.719h2.219c0.139-0.318 0.273-0.65 0.344-1h-2.813c-0.055-0.326-0.094-0.658-0.094-1s0.038-0.674 0.094-1h2.813c-0.071-0.35-0.204-0.682-0.344-1h-2.219c0.224-0.63 0.56-1.205 0.969-1.719-0.882-0.785-2.031-1.281-3.313-1.281zM20 11c-0.915 0-1.762 0.259-2.5 0.688 0.941 1.192 1.5 2.683 1.5 4.313s-0.559 3.12-1.5 4.313c0.738 0.429 1.585 0.688 2.5 0.688 2.774 0 5-2.226 5-5s-2.226-5-5-5z"></path>
</svg>
