<!-- Generated by IcoMoon.io -->
<svg version="1.1" xmlns="http://www.w3.org/2000/svg" width="32" height="32" viewBox="0 0 32 32">
<title>cc-stripe</title>
<path d="M5 6h22c1.645 0 3 1.355 3 3v14c0 1.645-1.355 3-3 3h-22c-1.645 0-3-1.355-3-3v-14c0-1.645 1.355-3 3-3zM5 8c-0.565 0-1 0.435-1 1v14c0 0.565 0.435 1 1 1h22c0.565 0 1-0.435 1-1v-14c0-0.565-0.435-1-1-1h-22zM16.5 11.438c0.467 0 0.844 0.37 0.844 0.844 0 0.468-0.376 0.844-0.844 0.844-0.474 0-0.844-0.376-0.844-0.844 0-0.474 0.37-0.844 0.844-0.844zM11.063 12.188v1.438h1.031l-0.188 1.219h-0.844v2.094c0 0.371 0.151 0.531 0.469 0.531 0.15 0 0.372-0.037 0.469-0.063v1.25c-0.175 0.046-0.428 0.125-0.844 0.125-0.539 0-0.921-0.099-1.188-0.313-0.318-0.259-0.469-0.671-0.469-1.281v-2.344h-0.688l0.188-1.125 0.5-0.094 0.188-1.219zM6.906 13.531c0.773 0 1.321 0.214 1.594 0.344l-0.188 1.219c-0.344-0.169-0.857-0.375-1.344-0.375-0.267 0-0.406 0.13-0.406 0.313 0 0.214 0.276 0.325 0.75 0.5 0.89 0.318 1.438 0.691 1.438 1.594 0 0.545-0.198 0.995-0.563 1.281-0.324 0.26-0.797 0.375-1.375 0.375-0.727 0-1.436-0.224-1.813-0.438l0.188-1.219c0.441 0.26 1.122 0.469 1.531 0.469 0.331 0 0.5-0.13 0.5-0.344 0-0.221-0.185-0.361-0.75-0.563-0.877-0.318-1.406-0.68-1.406-1.563 0-0.487 0.162-0.909 0.5-1.188 0.325-0.266 0.798-0.406 1.344-0.406zM20.719 13.531c0.506 0 0.901 0.193 1.188 0.563 0.324 0.416 0.468 1.081 0.469 1.938 0 0.968-0.221 1.682-0.656 2.156-0.455 0.493-1.035 0.594-1.438 0.594-0.227 0-0.472-0.016-0.719-0.094v1.594l-1.625 0.281v-6.938h1.438l0.063 0.531c0.383-0.409 0.813-0.625 1.281-0.625zM24.938 13.531c0.669 0 1.18 0.232 1.531 0.688 0.345 0.448 0.531 1.101 0.531 1.906 0 0.117-0.022 0.485-0.031 0.563h-2.656c0.033 0.331 0.112 0.544 0.281 0.688 0.156 0.136 0.375 0.219 0.688 0.219 0.52 0 0.979-0.13 1.375-0.344l0.188 1.125c-0.402 0.267-1.031 0.406-1.719 0.406-0.746 0-1.347-0.172-1.75-0.563-0.448-0.435-0.656-1.122-0.656-2.031 0-1.624 0.849-2.656 2.219-2.656zM15 13.563c0.098 0 0.2 0.005 0.313 0.031v1.5c-0.111-0.019-0.197-0.031-0.281-0.031-0.39 0-0.674 0.097-0.875 0.344v3.281h-1.625v-5.063h1.406l0.094 0.625c0.143-0.428 0.514-0.688 0.969-0.688zM15.688 13.625h1.625v5.063h-1.625v-5.063zM24.906 14.625c-0.37 0-0.549 0.341-0.594 1.063h1.188c-0.026-0.715-0.23-1.063-0.594-1.063zM20.156 14.781c-0.090 0-0.321 0.027-0.594 0.313v2.406c0.13 0.065 0.276 0.094 0.438 0.094 0.234 0 0.433-0.128 0.563-0.375 0.149-0.26 0.22-0.663 0.219-1.156 0-0.863-0.216-1.281-0.625-1.281z"></path>
</svg>
