<!-- Generated by IcoMoon.io -->
<svg version="1.1" xmlns="http://www.w3.org/2000/svg" width="32" height="32" viewBox="0 0 32 32">
<title>cc-visa</title>
<path d="M5 6h22c1.645 0 3 1.355 3 3v14c0 1.645-1.355 3-3 3h-22c-1.645 0-3-1.355-3-3v-14c0-1.645 1.355-3 3-3zM5 8c-0.565 0-1 0.435-1 1v14c0 0.565 0.435 1 1 1h22c0.565 0 1-0.435 1-1v-14c0-0.565-0.435-1-1-1h-22zM19.406 12.375c0.849 0 1.719 0.344 1.719 0.344l-0.313 1.531s-0.657-0.469-1.25-0.469c-0.911 0-1.25 0.319-1.25 0.719 0 0.783 2.563 0.899 2.563 2.656 0 1.461-1.844 2.469-3.156 2.469s-1.969-0.406-1.969-0.406l0.313-1.438s0.69 0.375 1.75 0.375c1.058 0 1.219-0.434 1.219-0.625 0-1.121-2.563-0.819-2.563-3 0-1.206 1.011-2.156 2.938-2.156zM11.188 12.5h1.969l-2.813 6.906h-2l-1.469-5.594s1.545 0.797 2.5 2.938c0.041 0.26 0.125 0.688 0.125 0.688zM13.875 12.5h1.844l-1.094 6.906h-1.844zM23.813 12.5h1.938l1.406 6.906h-1.656l-0.188-0.969h-2.313l-0.375 0.969h-1.813zM4.844 12.531h2.813c0.725 0 1 0.688 1 0.688l0.625 3.125c-0.841-2.709-4.438-3.813-4.438-3.813zM24.5 14.5l-0.969 2.594h1.5z"></path>
</svg>
