<!-- Generated by IcoMoon.io -->
<svg version="1.1" xmlns="http://www.w3.org/2000/svg" width="32" height="32" viewBox="0 0 32 32">
<title>cc</title>
<path d="M2 6h28v17.906h-28v-17.906zM4 8v13.906h24v-13.906h-24zM12 10c1.194 0 2.278 0.441 3.125 1.125l-1.25 1.563c-0.527-0.426-1.167-0.688-1.875-0.688-1.668 0-3 1.332-3 3s1.332 3 3 3c0.708 0 1.348-0.262 1.875-0.688l1.25 1.563c-0.847 0.684-1.931 1.125-3.125 1.125-2.749 0-5-2.25-5-5s2.251-5 5-5zM22 10c1.194 0 2.278 0.441 3.125 1.125l-1.25 1.563c-0.527-0.426-1.167-0.688-1.875-0.688-1.668 0-3 1.332-3 3s1.332 3 3 3c0.708 0 1.348-0.262 1.875-0.688l1.25 1.563c-0.847 0.684-1.931 1.125-3.125 1.125-2.75 0-5-2.25-5-5s2.25-5 5-5z"></path>
</svg>
