<!-- Generated by IcoMoon.io -->
<svg version="1.1" xmlns="http://www.w3.org/2000/svg" width="32" height="32" viewBox="0 0 32 32">
<title>check-circle</title>
<path d="M16 3c3.5 0 6.7 1.388 9 3.688l-1.406 1.406c-1.9-1.9-4.594-3.094-7.594-3.094-6.1 0-11 4.9-11 11s4.9 11 11 11 11-4.9 11-11c0-0.9-0.113-1.7-0.313-2.5l1.625-1.594c0.5 1.3 0.688 2.694 0.688 4.094 0 7.2-5.8 13-13 13s-13-5.8-13-13 5.8-13 13-13zM27.281 7.281l1.438 1.438-12 12-0.719 0.688-0.719-0.688-5-5 1.438-1.438 4.281 4.281z"></path>
</svg>
