<!-- Generated by IcoMoon.io -->
<svg version="1.1" xmlns="http://www.w3.org/2000/svg" width="32" height="32" viewBox="0 0 32 32">
<title>chrome</title>
<path d="M16 4c6.616 0 12 5.384 12 12s-5.384 12-12 12-12-5.384-12-12 5.384-12 12-12zM16 6c-3.033 0-5.731 1.346-7.563 3.469l3.563 3.563c0.914-1.22 2.367-2.031 4-2.031 0.788 0 1.522 0.202 2.188 0.531h6.75c-1.637-3.285-5.009-5.531-8.938-5.531zM7.625 10.563c-1.015 1.565-1.625 3.428-1.625 5.438 0 4.897 3.485 8.974 8.125 9.844l1.25-4.875c-2.298-0.294-4.121-2.181-4.344-4.5zM25.469 12.75l-4.875 1.344c0.247 0.59 0.406 1.229 0.406 1.906 0 1.679-0.845 3.186-2.125 4.094l-3.406 5.875c0.176 0.009 0.353 0.031 0.531 0.031 5.535 0 10-4.465 10-10 0-1.14-0.182-2.23-0.531-3.25zM16 13c-1.669 0-3 1.331-3 3s1.331 3 3 3 3-1.331 3-3c0-1.043-0.515-1.963-1.313-2.5-0.478-0.322-1.062-0.5-1.688-0.5z"></path>
</svg>
