<!-- Generated by IcoMoon.io -->
<svg version="1.1" xmlns="http://www.w3.org/2000/svg" width="32" height="32" viewBox="0 0 32 32">
<title>codepen</title>
<path d="M16 2.844l0.563 0.375 12.438 8.313v8.938l-0.438 0.281-12.563 8.406-0.563-0.375-12.438-8.313v-8.938l0.438-0.281 12-8.031zM15 5.906l-9.188 6.188 4.031 2.719 5.156-3.469v-5.438zM17 5.906v5.438l5.156 3.469 4.031-2.719zM16 13.094l-4.344 2.906 4.344 2.906 4.344-2.906zM5 13.938v4.125l3.063-2.063zM27 13.938l-3.063 2.063 3.063 2.063v-4.125zM9.875 17.188l-4.063 2.719 9.188 6.188v-5.438zM22.125 17.188l-5.125 3.469v5.438l9.188-6.188z"></path>
</svg>
