<!-- Generated by IcoMoon.io -->
<svg version="1.1" xmlns="http://www.w3.org/2000/svg" width="32" height="32" viewBox="0 0 32 32">
<title>connectdevelop</title>
<path d="M9.156 4.188h13.688l0.281 0.5 6.25 10.906 0.281 0.5-0.281 0.5-6.25 10.906-0.281 0.5h-13.688l-0.281-0.5-6.25-10.906-0.281-0.5 0.281-0.5 6.25-10.906zM11.594 6.188l1.563 1.625 4.563-1.625h-6.125zM20.719 6.188l-6.781 2.406 2.188 2.281zM10.281 6.281l-0.031 0.063v2.531l1.906-0.688zM21.813 6.469l-4.969 5.125 3.563 3.688 4.031-4.281zM9.25 8.094l-0.813 1.406 0.813-0.281v-1.125zM12.906 8.969l-2.656 0.969v3.875l1.469 1.563 3.719-3.781zM9.25 10.281l-1.594 0.563-0.063 0.125 1.656 1.781v-2.469zM7.063 11.875l-2.406 4.219 2.375 4.125 2.219-2.281v-3.719zM24.875 12l-3.781 4 2.406 2.469zM16.125 12.313l-3.719 3.813 3.594 3.813 3.719-3.938zM25.656 13.156l-1.281 6.188 0.688 0.719 2.281-3.969zM10.25 15.281v1.625l0.781-0.813zM20.406 16.719l-3.719 3.969 0.531 0.563h5.719l0.344-1.594zM11.719 16.844l-1.469 1.469v2.938h4.5l0.563-0.563zM9.25 19.344l-1.719 1.781 0.094 0.125h1.625v-1.906zM24.125 20.531l-0.156 0.719h0.406l0.156-0.281zM8.188 22.25l1.063 1.844v-1.844h-1.063zM10.25 22.25v3.594l0.063 0.125 3.5-3.719h-3.563zM15.188 22.25l-3.531 3.75h8.625l-3.5-3.75h-1.594zM18.156 22.25l3.5 3.75 0.438-0.75 0.625-3h-4.563zM23.75 22.25l-0.031 0.156 0.094-0.156h-0.063z"></path>
</svg>
