<!-- Generated by IcoMoon.io -->
<svg version="1.1" xmlns="http://www.w3.org/2000/svg" width="32" height="32" viewBox="0 0 32 32">
<title>contao</title>
<path d="M5.656 5.469h2.688c-1.2 1.005-3.063 3.136-3.063 6.719 0 1.124 0.087 1.99 0.219 2.781 0.327 1.962 1.263 6.113 1.5 7.063 0.056 0.224 0.779 2.752 2.375 4.5h-3.719c-0.907 0-1.656-0.718-1.656-1.625v-17.813c0-0.907 0.749-1.625 1.656-1.625zM22.156 5.469h4.188c0.907 0 1.655 0.718 1.656 1.625v17.813c0 0.907-0.749 1.625-1.656 1.625h-2.344c0.634-0.681 2.656-3.11 2.656-6.219v-1.563l-6.438 1.438s0.024 3.531-3.531 3.531c-2.162 0-3.005-1.753-3.781-5.094-0.641-2.758-1.125-5.647-1.125-7.031 0-2.135 2.158-2.969 3.344-2.969 2.179 0 3.125 2.125 3.125 2.125l6.406-1.344s-0.886-2.487-2.5-3.938z"></path>
</svg>
