<!-- Generated by IcoMoon.io -->
<svg version="1.1" xmlns="http://www.w3.org/2000/svg" width="32" height="32" viewBox="0 0 32 32">
<title>copyright</title>
<path d="M16 3c7.168 0 13 5.832 13 13s-5.832 13-13 13-13-5.832-13-13 5.832-13 13-13zM16 5c-6.087 0-11 4.913-11 11s4.913 11 11 11 11-4.913 11-11-4.913-11-11-11zM15.906 10c2.4 0 4.451 1.439 5.406 3.469l-1.813 0.844c-0.645-1.37-1.994-2.313-3.594-2.313-2.276 0-4 1.724-4 4s1.724 4 4 4c1.6 0 2.949-0.942 3.594-2.313l1.813 0.844c-0.955 2.030-3.006 3.469-5.406 3.469-3.324 0-6-2.676-6-6s2.676-6 6-6z"></path>
</svg>
