<!-- Generated by IcoMoon.io -->
<svg version="1.1" xmlns="http://www.w3.org/2000/svg" width="32" height="32" viewBox="0 0 32 32">
<title>creative-commons</title>
<path d="M16 4c6.616 0 12 5.384 12 12s-5.384 12-12 12-12-5.384-12-12 5.384-12 12-12zM16 6c-5.535 0-10 4.465-10 10s4.465 10 10 10 10-4.465 10-10-4.465-10-10-10zM12 12c1.645 0 3 1.355 3 3h-2c0-0.565-0.435-1-1-1s-1 0.435-1 1v2c0 0.565 0.435 1 1 1s1-0.435 1-1h2c0 1.645-1.355 3-3 3s-3-1.355-3-3v-2c0-1.645 1.355-3 3-3zM20 12c1.645 0 3 1.355 3 3h-2c0-0.565-0.435-1-1-1s-1 0.435-1 1v2c0 0.565 0.435 1 1 1s1-0.435 1-1h2c0 1.645-1.355 3-3 3s-3-1.355-3-3v-2c0-1.645 1.355-3 3-3z"></path>
</svg>
