<!-- Generated by IcoMoon.io -->
<svg version="1.1" xmlns="http://www.w3.org/2000/svg" width="32" height="32" viewBox="0 0 32 32">
<title>credit-card</title>
<path d="M5 5h18c1.645 0 3 1.355 3 3v1h1c1.645 0 3 1.355 3 3v12c0 1.645-1.355 3-3 3h-18c-1.645 0-3-1.355-3-3v-1h-1c-1.645 0-3-1.355-3-3v-12c0-1.645 1.355-3 3-3zM5 7c-0.565 0-1 0.435-1 1v12c0 0.565 0.435 1 1 1h18c0.565 0 1-0.435 1-1v-9h-19v-2h19v-1c0-0.565-0.435-1-1-1h-18zM26 11v2h2v-1c0-0.565-0.435-1-1-1h-1zM26 15v5c0 1.645-1.355 3-3 3h-15v1c0 0.565 0.435 1 1 1h18c0.565 0 1-0.435 1-1v-9h-2z"></path>
</svg>
