<!-- Generated by IcoMoon.io -->
<svg version="1.1" xmlns="http://www.w3.org/2000/svg" width="32" height="32" viewBox="0 0 32 32">
<title>css3</title>
<path d="M8.219 5h19l-0.219 1.188-3.063 17.156-0.125 0.563-0.5 0.188-9.156 3.844-0.406 0.156-0.406-0.188-8.5-4.156 0.156-0.75 0.688-3.813 0.125-0.813h4.875l-0.219 1.156-0.219 1.219 4.094 2.25 5.219-2.406 0.719-4.063h-14.125l0.219-1.156 0.5-2.875 0.156-0.813h14.125l0.313-1.813h-14.125l0.219-1.188 0.5-2.875zM9.875 7l-0.125 0.875h14.125l-0.219 1.156-0.688 3.813-0.125 0.844h-14.156l-0.125 0.844h14.125l-0.219 1.188-1.031 5.719-0.094 0.531-0.469 0.219-6.625 3.063-0.438-0.25-5.781-3.188 0.25-1.438h-0.781l-0.406 2.25 6.688 3.25 8.281-3.406 2.75-15.469h-14.938z"></path>
</svg>
