<!-- Generated by IcoMoon.io -->
<svg version="1.1" xmlns="http://www.w3.org/2000/svg" width="32" height="32" viewBox="0 0 32 32">
<title>cutlery</title>
<path d="M22.406 4l1.406 1.406-4.594 4.594c-0.435 0.435-0.444 0.937-0.031 1.375l5.313-5.281 1.406 1.406-5.281 5.313c0.438 0.413 0.94 0.404 1.375-0.031l4.594-4.594 1.406 1.406-4.5 4.5-0.094 0.125c-1.136 1.136-2.998 1.133-4.156 0.031l-0.031-0.031h-0.031l-1.75 1.781 1.156 1.188 9.125 9.094-1.438 1.438-8.406-8.406-1.781 1.781-0.688 0.719-0.719-0.719-1.188-1.156-7.781 7.781-1.438-1.438 7.781-7.781-6.281-6.281c-1.77-1.77-1.77-4.667 0-6.438l0.719-0.688 0.719 0.688 8.781 8.781 1.781-1.75c-1.154-1.154-1.154-3.065 0-4.219zM6.781 8.219c-0.325 0.885-0.303 1.822 0.438 2.563l8.188 8.188 1.063-1.063z"></path>
</svg>
