<!-- Generated by IcoMoon.io -->
<svg version="1.1" xmlns="http://www.w3.org/2000/svg" width="32" height="32" viewBox="0 0 32 32">
<title>dashcube</title>
<path d="M23.5 3h1.5v19c0 2.75-2.25 5-5 5h-10c-2.749 0-5-2.25-5-5v-10c0-2.749 2.251-5 5-5h9.469l3.719-3.719zM23 6.313l-2.688 2.688h-10.313c-1.668 0-3 1.332-3 3v10c0 1.668 1.332 3 3 3h10c1.668 0 3-1.332 3-3v-15.688zM12 12h6c1.093 0 2 0.907 2 2v5.563l0.719 0.719 1.688 1.719h-10.406c-1.093 0-2-0.907-2-2v-6c0-1.093 0.907-2 2-2zM12 14v6h6v-6h-6z"></path>
</svg>
