<!-- Generated by IcoMoon.io -->
<svg version="1.1" xmlns="http://www.w3.org/2000/svg" width="32" height="32" viewBox="0 0 32 32">
<title>deviantart</title>
<path d="M18.375 4h5.438v5.25l-0.125 0.219-3.469 6.625h3.594v7.5h-7.406l-0.156 0.094-1.781 3.375-0.063 0.125-0.094 0.125-0.406 0.375-0.281 0.313h-5.438v-5.25l0.125-0.219 3.469-6.625h-3.594v-7.5h7.406l0.156-0.094 1.781-3.375 0.063-0.125 0.094-0.125 0.406-0.375zM19.219 6l-1.813 3.469-0.125 0.219-0.219 0.156-0.594 0.375-0.25 0.188h-6.031v3.5h3.188l0.281 0.344 0.344 0.406 0.406 0.531-0.313 0.563-3.906 7.469v2.781h2.594l1.813-3.469 0.125-0.219 0.188-0.156 0.594-0.375 0.281-0.188h6.031v-3.5h-3.188l-0.281-0.344-0.344-0.406-0.406-0.5 0.281-0.594 3.938-7.469v-2.781h-2.594z"></path>
</svg>
