<!-- Generated by IcoMoon.io -->
<svg version="1.1" xmlns="http://www.w3.org/2000/svg" width="32" height="32" viewBox="0 0 32 32">
<title>diamond</title>
<path d="M9.531 6h12.938l5.313 6.375 0.5 0.594-0.5 0.656-11.781 15-0.781-1-11-14-0.5-0.656 0.5-0.594 5-6zM10.469 8l-3.344 4h4.313l2.688-4h-3.656zM17.875 8l2.688 4h4.313l-3.344-4h-3.656zM16 8.844l-2.125 3.156h4.25zM7.031 14l6.594 8.406-2.375-8.406h-4.219zM13.313 14l2.688 9.313 2.656-9.313h-5.344zM20.75 14l-2.375 8.375 6.594-8.375h-4.219z"></path>
</svg>
