<!-- Generated by IcoMoon.io -->
<svg version="1.1" xmlns="http://www.w3.org/2000/svg" width="32" height="32" viewBox="0 0 32 32">
<title>digg</title>
<path d="M9.52 6.988c0-0.406 0.36-0.397 0.36-0.397h2.815s-0.002 1.587-0.002 1.959c0 0.406-0.359 0.397-0.359 0.397h-2.814v-1.959zM9.521 11.053c0-0.405 0.36-0.396 0.36-0.395h2.813s-0.002 10.505-0.002 10.587c0 0.405-0.359 0.396-0.359 0.396h-2.812v-10.588zM5.388 6.988c0-0.406 0.36-0.397 0.36-0.397h2.815s-0.002 14.28-0.002 14.652c0 0.406-0.359 0.397-0.359 0.397h-8.202v-10.586c0-0.406 0.359-0.397 0.359-0.397h5.029v-3.669zM5.39 18.885v-5.875h-1.92s-0.36-0.010-0.36 0.397v5.875h1.92s0.36 0.010 0.36-0.397zM13.784 11.054c0-0.406 0.36-0.397 0.36-0.396l8.204 0.006s-0.002 13.976-0.002 14.348c0 0.406-0.36 0.397-0.36 0.397h-8.202v-1.959c0-0.406 0.359-0.397 0.359-0.397h5.029v-1.413h-5.388v-10.586zM16.894 13.408h0.001v5.875h1.92s0.36 0.010 0.36-0.397v-5.875h-1.921s-0.36-0.010-0.36 0.397zM23.796 10.657l8.204 0.006s-0.002 13.977-0.002 14.349c0 0.406-0.359 0.397-0.359 0.397h-8.202v-1.959c0-0.406 0.359-0.397 0.359-0.397h5.029v-1.413h-5.388v-10.586c0-0.406 0.359-0.397 0.359-0.397zM28.827 18.885h0.001v-5.875h-1.921s-0.36-0.010-0.36 0.397v5.875h1.92s0.36 0.010 0.36-0.397z"></path>
</svg>
