<!-- Generated by IcoMoon.io -->
<svg version="1.1" xmlns="http://www.w3.org/2000/svg" width="32" height="32" viewBox="0 0 32 32">
<title>dollar</title>
<path d="M15 3h2v2.094c2.835 0.475 5 2.941 5 5.906v1h-2v-1c0-2.22-1.78-4-4-4-2.215 0-4 1.807-4 4 0 1.219 0.419 1.855 1.188 2.469s1.937 1.094 3.188 1.594 2.581 1.019 3.688 1.906 1.938 2.251 1.938 4.031c0 2.925-2.158 5.425-5 5.906v2.094h-2v-2.094c-2.835-0.475-5-2.941-5-5.906v-1h2v1c0 2.22 1.78 4 4 4 2.207 0 4-1.846 4-4 0-1.226-0.419-1.853-1.188-2.469s-1.938-1.125-3.188-1.625-2.581-0.991-3.688-1.875-1.938-2.256-1.938-4.031c0-2.948 2.162-5.429 5-5.906v-2.094z"></path>
</svg>
