<!-- Generated by IcoMoon.io -->
<svg version="1.1" xmlns="http://www.w3.org/2000/svg" width="32" height="32" viewBox="0 0 32 32">
<title>dribbble</title>
<path d="M16 4c6.616 0 12 5.384 12 12s-5.384 12-12 12-12-5.384-12-12 5.384-12 12-12zM16 6c-0.784 0-1.55 0.081-2.281 0.25 0.919 1.233 2.304 3.2 3.719 5.813 2.089-0.769 3.457-1.765 4.313-2.594 0.403-0.39 0.655-0.708 0.844-0.969-1.76-1.546-4.060-2.5-6.594-2.5zM11.75 6.938c-2.79 1.304-4.869 3.849-5.531 6.938 1.485-0.003 5.214-0.139 9.281-1.219-1.47-2.654-2.931-4.645-3.75-5.719zM23.969 9.969c-0.232 0.292-0.499 0.603-0.844 0.938-1.010 0.978-2.538 2.109-4.781 2.969 0.261 0.535 0.532 1.085 0.781 1.656 1.077-0.128 2.081-0.193 2.969-0.188 1.702 0.010 3.014 0.208 3.906 0.406-0.053-2.172-0.811-4.167-2.031-5.781zM16.406 14.469c-4.756 1.329-9.056 1.42-10.406 1.406-0 0.042 0 0.083 0 0.125 0 2.502 0.926 4.78 2.438 6.531 1.311-1.815 4.384-5.442 8.656-6.625-0.223-0.495-0.456-0.972-0.688-1.438zM22.094 17.313c-0.652 0.001-1.4 0.047-2.188 0.125 0.791 2.086 1.444 4.359 1.844 6.75 2.124-1.49 3.628-3.774 4.094-6.438-0.729-0.186-1.965-0.439-3.75-0.438zM17.875 17.781c-3.92 1.007-6.942 4.749-7.969 6.156 1.685 1.292 3.8 2.063 6.094 2.063 1.384 0 2.709-0.276 3.906-0.781-0.38-2.653-1.135-5.154-2.031-7.438z"></path>
</svg>
