<!-- Generated by IcoMoon.io -->
<svg version="1.1" xmlns="http://www.w3.org/2000/svg" width="32" height="32" viewBox="0 0 32 32">
<title>dropbox</title>
<path d="M11.781 4.469l0.563 0.5 3.656 3.156 3.844-3.156 0.563-0.469 0.625 0.375 7.688 4.875-1.094 0.875-3.313 2.719 4.406 3.75-1.219 0.719-3.625 2.156v3.344l-0.438 0.313-6.875 4.469-0.563 0.375-0.563-0.375-7.313-4.813v-3.344l-3.625-2.125-1.313-0.75 1.219-0.906 3.5-2.656-4.656-3.531 1.219-0.781 6.688-4.313zM20.594 6.938l-2.844 2.344 4.906 2.844 2.656-2.156zM11.594 6.969l-4.875 3.125 2.906 2.219 4.719-3zM16 10.625l-4.531 2.906 4.531 2.844 4.813-3zM22.656 14.563l-4.906 3.063 2.719 2.063 1.75-1.031c0.063-0.053 0.175-0.123 0.25-0.156l2.813-1.688zM9.625 14.719l-2.844 2.125 4.844 2.844 2.625-2.063zM16.031 18.813l-3.719 2.875-0.531 0.406-0.594-0.344-1.063-0.625v1.063l5.875 3.875 5.875-3.844v-1.063l-1.531 0.938-0.563-0.406z"></path>
</svg>
