<!-- Generated by IcoMoon.io -->
<svg version="1.1" xmlns="http://www.w3.org/2000/svg" width="32" height="32" viewBox="0 0 32 32">
<title>drupal</title>
<path d="M14.531 2.781l1.313 1.969s0.389 0.612 0.938 1.25 1.352 1.2 1.438 1.219c5.014 1.027 8.781 5.476 8.781 10.781 0 6.063-4.937 11-11 11s-11-4.937-11-11c0-4.875 3.186-9 7.594-10.438v-0.031c0.268-0.101 0.749-0.66 1.031-1.281s0.406-1.188 0.406-1.188zM15.313 7.344c-0.377 0.782-0.931 1.66-2 2.063h-0.031l-0.031 0.031c-3.629 1.157-6.25 4.536-6.25 8.563 0 4.983 4.017 9 9 9 3.426 0 6.385-1.913 7.906-4.719-0.509 0.742-0.813 1.011-1.406 0.969-0.763-0.064-2.306-2.426-3.281-2.469-1.229-0.042-3.902 2.563-6 2.563-1.272 0-1.639-0.194-2.063-0.469-0.635-0.445-0.959-1.131-0.938-2.063 0.021-1.653 1.55-3.197 3.5-3.219 2.48-0.021 4.219 2.459 5.469 2.438 1.060-0.021 3.097-2.094 4.094-2.094 1.060 0 1.344 1.093 1.344 1.75 0 0.456-0.111 1.171-0.344 1.813 0.454-1.077 0.719-2.254 0.719-3.5 0-4.359-3.090-7.973-7.188-8.813-1.169-0.255-1.866-1.105-2.5-1.844zM18.313 22.25c0.135-0.013 0.268 0 0.438 0 0.339 0 0.683 0.018 0.938 0.188s0.416 0.569 0.5 0.781c0.085 0.212-0.018 0.321-0.188 0.406-0.148 0.085-0.165 0.056-0.313-0.219s-0.29-0.563-1.031-0.563c-0.742 0-0.953 0.265-1.313 0.563s-0.497 0.389-0.625 0.219c-0.127-0.17-0.077-0.351 0.156-0.563s0.609-0.54 0.969-0.688c0.181-0.075 0.334-0.112 0.469-0.125zM20.5 24.531c0.105-0.023 0.14 0.061 0.156 0.125 0.021 0.085 0.087 0.196-0.063 0.344-0.106 0.106-1.106 0.8-2.25 0.906-1.145 0.106-2.693 0.161-3.625-0.688-0.148-0.148-0.106-0.352 0-0.438s0.217-0.156 0.344-0.156 0.093-0.011 0.156 0.031c0.424 0.339 1.050 0.625 2.406 0.625s2.326-0.37 2.75-0.688c0.048-0.037 0.090-0.055 0.125-0.063z"></path>
</svg>
