<!-- Generated by IcoMoon.io -->
<svg version="1.1" xmlns="http://www.w3.org/2000/svg" width="32" height="32" viewBox="0 0 32 32">
<title>empire</title>
<path d="M27.593 12.893v0c0.265 0.991 0.407 2.032 0.407 3.107s-0.143 2.119-0.409 3.111c-0.552 2.064-1.64 3.909-3.107 5.375-1.467 1.468-3.314 2.556-5.38 3.108-0.99 0.264-2.030 0.406-3.104 0.406s-2.116-0.142-3.106-0.406c-2.067-0.553-3.915-1.643-5.383-3.113-1.467-1.468-2.554-3.314-3.105-5.379-0.264-0.99-0.406-2.029-0.406-3.102s0.142-2.115 0.406-3.106c0.552-2.065 1.64-3.91 3.106-5.377 1.468-1.468 3.314-2.558 5.38-3.11 0.992-0.265 2.033-0.407 3.108-0.407 1.073 0 2.113 0.142 3.103 0.407 2.067 0.552 3.915 1.641 5.383 3.109 1.467 1.467 2.555 3.312 3.107 5.377zM16.407 5.342h-0.001v0.499c0.765 0.030 1.509 0.145 2.221 0.335l-0.328 1.224c1.533 0.41 2.904 1.218 3.993 2.307l0.896-0.896c0.508 0.509 0.963 1.071 1.355 1.678l0.434-0.25c-0.414-0.644-0.897-1.241-1.436-1.78-1.305-1.305-2.947-2.274-4.784-2.764-0.753-0.201-1.54-0.322-2.35-0.353zM19.6 16v0c0-0.323-0.043-0.635-0.123-0.934l3.687-0.988c-0.341-1.275-1.013-2.416-1.919-3.323l-2.699 2.699c-0.441-0.441-0.996-0.768-1.617-0.933l0.988-3.687c-0.612-0.163-1.254-0.251-1.917-0.251-0.665 0-1.308 0.089-1.921 0.253l0.988 3.687c-0.62 0.166-1.175 0.493-1.615 0.934l-2.699-2.699c-0.906 0.907-1.577 2.047-1.918 3.323l3.687 0.988c-0.079 0.297-0.122 0.609-0.122 0.931 0 0.321 0.042 0.631 0.121 0.927l-3.687 0.988c0.34 1.276 1.011 2.418 1.917 3.325l2.699-2.699c0.441 0.443 0.996 0.771 1.618 0.937l-0.988 3.687c0.613 0.163 1.256 0.252 1.92 0.252s1.306-0.089 1.918-0.252l-0.988-3.687c0.62-0.166 1.174-0.492 1.615-0.932l2.699 2.699c0.906-0.905 1.577-2.045 1.919-3.32l-3.687-0.988c0.080-0.299 0.124-0.613 0.124-0.937zM8.456 8.461v0c-0.539 0.539-1.021 1.134-1.434 1.778l0.434 0.25c0.391-0.606 0.845-1.168 1.353-1.676l0.895 0.896c1.088-1.089 2.458-1.897 3.99-2.307l-0.328-1.224c0.657-0.175 1.339-0.287 2.041-0.327v-0.501c-0.746 0.041-1.472 0.159-2.17 0.346-1.836 0.491-3.477 1.46-4.781 2.765zM6.521 20.895v0l0.433-0.25c-0.328-0.636-0.59-1.312-0.778-2.018l1.224-0.328c-0.195-0.733-0.3-1.504-0.3-2.299 0-0.797 0.105-1.569 0.302-2.304l-1.224-0.328c0.188-0.705 0.449-1.379 0.776-2.014l-0.433-0.25c-0.349 0.673-0.626 1.388-0.826 2.135-0.235 0.881-0.362 1.806-0.362 2.761 0 0.953 0.126 1.877 0.361 2.756 0.2 0.748 0.478 1.465 0.827 2.139zM15.407 26.65v0-0.501c-0.701-0.040-1.383-0.152-2.039-0.327l0.328-1.224c-1.534-0.41-2.905-1.22-3.994-2.31l-0.896 0.896c-0.507-0.508-0.96-1.069-1.351-1.674l-0.434 0.25c0.413 0.643 0.894 1.238 1.432 1.776 1.305 1.307 2.947 2.277 4.785 2.768 0.698 0.187 1.423 0.305 2.169 0.346zM23.541 23.542v0c0.54-0.54 1.023-1.136 1.437-1.78l-0.434-0.251c-0.392 0.607-0.847 1.17-1.356 1.679l-0.896-0.896c-1.089 1.089-2.459 1.896-3.991 2.305l0.328 1.224c-0.713 0.19-1.456 0.305-2.222 0.335v0.5c0.811-0.030 1.598-0.152 2.352-0.353 1.836-0.491 3.477-1.458 4.782-2.763zM25.479 20.895v0c0.347-0.671 0.625-1.384 0.824-2.129 0.236-0.883 0.363-1.809 0.363-2.766 0-0.955-0.126-1.881-0.362-2.762-0.199-0.747-0.477-1.461-0.825-2.134l-0.433 0.25c0.326 0.635 0.588 1.309 0.776 2.013l-1.224 0.328c0.197 0.735 0.302 1.508 0.302 2.305 0 0.799-0.106 1.572-0.303 2.309l1.224 0.328c-0.188 0.702-0.449 1.374-0.775 2.008z"></path>
</svg>
