<!-- Generated by IcoMoon.io -->
<svg version="1.1" xmlns="http://www.w3.org/2000/svg" width="32" height="32" viewBox="0 0 32 32">
<title>eraser</title>
<path d="M18.906 4.094c0.806 0.001 1.581 0.3 2.188 0.906l6 6c1.212 1.212 1.173 3.233-0.094 4.5l-11.625 11.625v0.031c-1.285 1.142-3.256 1.15-4.469-0.063l-6-6h-0.031l-0.031-0.031c-1.142-1.285-1.15-3.256 0.063-4.469l11.719-11.625v-0.031c0.642-0.571 1.476-0.845 2.281-0.844zM18.875 6.125c-0.306 0.001-0.622 0.071-0.875 0.281l-0.031 0.031-5.063 5.031 7.656 7.656 5.031-5.031c0.533-0.533 0.481-1.3 0.094-1.688l-6-6c-0.194-0.194-0.493-0.283-0.813-0.281zM11.469 12.906l-5.156 5.094c-0.374 0.374-0.409 1.17 0 1.688 0.015 0.019 0.015 0.045 0.031 0.063l5.969 5.938c0.379 0.379 1.171 0.429 1.688 0 0.011-0.009 0.021-0.022 0.031-0.031l5.094-5.094z"></path>
</svg>
