<!-- Generated by IcoMoon.io -->
<svg version="1.1" xmlns="http://www.w3.org/2000/svg" width="32" height="32" viewBox="0 0 32 32">
<title>eur</title>
<path d="M18 4c2.709 0 5.169 1.303 6.938 3.344l-1.531 1.313c-1.452-1.676-3.335-2.656-5.406-2.656-3.502 0-6.588 2.898-7.625 7h8.625v2h-8.969c-0.026 0.331-0.031 0.659-0.031 1s0.005 0.669 0.031 1h8.969v2h-8.625c1.037 4.102 4.123 7 7.625 7 2.071 0 3.954-0.981 5.406-2.656l1.531 1.313c-1.768 2.040-4.229 3.344-6.938 3.344-4.738 0-8.587-3.887-9.688-9h-2.313v-2h2.063c-0.023-0.328-0.063-0.666-0.063-1s0.040-0.672 0.063-1h-2.063v-2h2.313c1.101-5.113 4.95-9 9.688-9z"></path>
</svg>
