<!-- Generated by IcoMoon.io -->
<svg version="1.1" xmlns="http://www.w3.org/2000/svg" width="32" height="32" viewBox="0 0 32 32">
<title>expeditedssl</title>
<path d="M16 4c6.616 0 12 5.384 12 12s-5.384 12-12 12-12-5.384-12-12 5.384-12 12-12zM16 6c-5.535 0-10 4.465-10 10s4.465 10 10 10 10-4.465 10-10-4.465-10-10-10zM16.031 7.844c2.517-0.048 4.563 2.045 4.563 4.563v1.156c0 0.212-0.164 0.375-0.375 0.375h-0.906c-0.212 0-0.375-0.164-0.375-0.375v-1.281c0-1.584-1.34-2.87-2.938-2.813-1.521 0.054-2.688 1.353-2.688 2.875v1.219c0 0.211-0.164 0.374-0.375 0.375h-0.938c-0.212 0-0.375-0.164-0.375-0.375v-1.219c0-2.451 1.967-4.453 4.406-4.5zM10.438 14.344h11.313c0.46 0 0.844 0.352 0.844 0.813v6.469c0 0.46-0.384 0.813-0.844 0.813h-11.313c-0.46 0-0.844-0.352-0.844-0.813v-6.469c0-0.46 0.384-0.813 0.844-0.813zM10.594 15.156c-0.1 0-0.188 0.088-0.188 0.188v6.125c0 0.1 0.088 0.188 0.188 0.188h0.375c0.1 0 0.188-0.088 0.188-0.188v-6.125c0-0.1-0.088-0.188-0.188-0.188h-0.375zM16.063 15.969c-0.88 0-1.594 0.714-1.594 1.594 0 0.588 0.307 1.099 0.781 1.375v1.5c0 0.22 0.186 0.375 0.406 0.375h0.813c0.22 0 0.406-0.155 0.406-0.375v-1.5c0.473-0.276 0.781-0.786 0.781-1.375 0-0.88-0.714-1.594-1.594-1.594z"></path>
</svg>
