<!-- Generated by IcoMoon.io -->
<svg version="1.1" xmlns="http://www.w3.org/2000/svg" width="32" height="32" viewBox="0 0 32 32">
<title>eye</title>
<path d="M16 8c8.336 0 14.75 7.344 14.75 7.344l0.594 0.656-0.594 0.656s-5.849 6.668-13.625 7.281c-0.372 0.047-0.741 0.063-1.125 0.063s-0.753-0.015-1.125-0.063c-7.776-0.614-13.625-7.281-13.625-7.281l-0.594-0.656 0.594-0.656s6.414-7.344 14.75-7.344zM16 10c-2.228 0-4.282 0.618-6.063 1.438h0.031c-0.618 1.044-0.969 2.258-0.969 3.563 0 3.614 2.711 6.583 6.219 6.969 0.259 0.016 0.517 0.031 0.781 0.031 0.243 0 0.48-0.018 0.719-0.031 0.021-0.002 0.042 0.002 0.063 0 3.508-0.386 6.219-3.355 6.219-6.969 0-1.325-0.365-2.54-1-3.594-1.765-0.805-3.798-1.406-6-1.406zM16 12c1.657 0 3 1.343 3 3s-1.343 3-3 3-3-1.343-3-3 1.343-3 3-3zM7.25 12.938c-1.897 1.266-3.238 2.571-3.719 3.063 0.573 0.586 2.324 2.326 4.844 3.781-0.873-1.386-1.375-3.027-1.375-4.781 0-0.714 0.092-1.392 0.25-2.063zM24.75 12.938c0.157 0.665 0.25 1.348 0.25 2.063 0 1.754-0.502 3.395-1.375 4.781 2.52-1.455 4.27-3.195 4.844-3.781-0.481-0.492-1.822-1.797-3.719-3.063z"></path>
</svg>
