<!-- Generated by IcoMoon.io -->
<svg version="1.1" xmlns="http://www.w3.org/2000/svg" width="32" height="32" viewBox="0 0 32 32">
<title>eyedropper</title>
<path d="M24.656 3.031c1.108 0 2.222 0.41 3.063 1.25 1.681 1.681 1.681 4.444 0 6.125l-2.813 2.781 1 1-1.406 1.406-1-1-9.5 9.5c-1.064 1.064-1.845 1.684-2.531 2.063s-1.277 0.493-1.688 0.563-0.636 0.113-1.063 0.344-1.040 0.696-2 1.656l-0.719 0.688-0.719-0.688-2-2-0.688-0.719 0.688-0.719c0.986-0.986 1.475-1.621 1.719-2.063s0.276-0.66 0.344-1.063 0.196-1.011 0.563-1.688 0.96-1.429 2-2.469l9.5-9.5-1-1 1.406-1.406 1 1 2.781-2.813c0.84-0.84 1.954-1.25 3.063-1.25zM24.656 5.031c-0.592 0-1.197 0.228-1.656 0.688l-2.781 2.781 3.281 3.281 2.781-2.781c0.919-0.919 0.919-2.362 0-3.281-0.46-0.46-1.033-0.688-1.625-0.688zM18.813 9.906l-9.5 9.5c-0.96 0.96-1.426 1.605-1.656 2.031s-0.274 0.621-0.344 1.031-0.184 1.033-0.563 1.719c-0.259 0.469-0.859 1.1-1.406 1.719l0.75 0.75c0.601-0.529 1.227-1.126 1.688-1.375 0.677-0.366 1.254-0.463 1.656-0.531s0.621-0.1 1.063-0.344 1.108-0.733 2.094-1.719l9.5-9.5z"></path>
</svg>
