<!-- Generated by IcoMoon.io -->
<svg version="1.1" xmlns="http://www.w3.org/2000/svg" width="32" height="32" viewBox="0 0 32 32">
<title>female</title>
<path d="M18.125 4h0.594l0.281 0.5 0.938 1.656c1.545 0.156 3.628 0.829 5.438 3.25 2.055 2.749 3.625 7.468 3.625 15.594v1h-9.656c-0.989 0.617-2.104 1-3.344 1s-2.355-0.375-3.344-1h-9.656v-1c0-9.134 1.977-14.423 4.969-17.438s6.852-3.563 10.156-3.563zM17.563 6.063c-2.914 0.059-5.867 0.568-8.188 2.906-2.366 2.384-4.16 6.895-4.313 15.031h5.406c-0.119-0.152-0.233-0.311-0.344-0.469-1.357-1.941-2.125-4.333-2.125-6.531 0-0.783 0.212-1.515 0.625-2.063s0.978-0.894 1.563-1.125c1.169-0.461 2.477-0.521 3.719-0.625s2.43-0.242 3.125-0.563 0.969-0.581 0.969-1.625h2c0 1.66-0.976 2.893-2.156 3.438s-2.492 0.644-3.75 0.75-2.45 0.221-3.156 0.5c-0.353 0.139-0.585 0.292-0.719 0.469s-0.219 0.4-0.219 0.844c0 1.711 0.643 3.824 1.75 5.406s2.587 2.594 4.25 2.594c1.665 0 3.144-1.014 4.25-2.594s1.75-3.684 1.75-5.406h2c0 2.207-0.767 4.624-2.125 6.563-0.102 0.146-0.203 0.297-0.313 0.438h5.375c-0.136-7.17-1.553-11.261-3.156-13.406-1.684-2.253-3.521-2.594-4.531-2.594h-0.594l-0.281-0.5zM13 17c0.552 0 1 0.448 1 1s-0.448 1-1 1-1-0.448-1-1 0.448-1 1-1zM19 17c0.552 0 1 0.448 1 1s-0.448 1-1 1-1-0.448-1-1 0.448-1 1-1z"></path>
</svg>
