<!-- Generated by IcoMoon.io -->
<svg version="1.1" xmlns="http://www.w3.org/2000/svg" width="32" height="32" viewBox="0 0 32 32">
<title>fighter-jet</title>
<path d="M7.875 4h3.531l0.313 0.281 8.719 8.719h5.563c1.156 0 1.894 0.672 2.563 1.219s1.156 1.094 1.156 1.094l0.656 0.688-0.656 0.688s-0.487 0.547-1.156 1.094-1.407 1.219-2.563 1.219h-5.563l-8.719 8.719-0.313 0.281h-3.531l1-9h-0.844l-1.719 2.563-0.281 0.438h-4.25l0.25-1.188 0.969-4.813-0.969-4.813-0.25-1.188h4.25l0.281 0.438 1.719 2.563h0.844l-0.875-7.875zM10.125 6l1 9h-4.188l-0.281-0.438-1.719-2.563h-0.719l0.75 3.813 0.063 0.188-0.063 0.188-0.75 3.813h0.719l1.719-2.563 0.281-0.438h4.188l-1 9h0.438l8.719-8.719 0.313-0.281h6.406c-0.051 0 0.727-0.328 1.281-0.781 0.137-0.112 0.132-0.113 0.25-0.219-0.118-0.105-0.113-0.107-0.25-0.219-0.555-0.453-1.332-0.781-1.281-0.781h-6.406l-0.313-0.281-8.719-8.719h-0.438zM16 7h4l1 1-1 1h-2zM18 23h2l1 1-1 1h-4z"></path>
</svg>
