<!-- Generated by IcoMoon.io -->
<svg version="1.1" xmlns="http://www.w3.org/2000/svg" width="32" height="32" viewBox="0 0 32 32">
<title>file-pdf-o</title>
<path d="M5 3h20v26h-20v-26zM7 5v22h16v-22h-16zM14.406 10.344h0.031c0.33 0.007 0.656 0.135 0.906 0.344 0.257 0.215 0.428 0.498 0.531 0.781 0.207 0.567 0.235 1.188 0.188 1.906-0.039 0.595-0.326 1.352-0.469 2.031 0.187 0.42 0.248 0.774 0.469 1.188 0.409 0.766 0.86 1.217 1.313 1.813 0.517-0.027 1.127-0.182 1.563-0.125 0.567 0.074 1.089 0.186 1.5 0.625 0.206 0.22 0.369 0.553 0.375 0.875s-0.098 0.607-0.25 0.875v0.031h-0.031c-0.345 0.586-0.969 0.976-1.594 0.938s-1.148-0.368-1.625-0.781c-0.236-0.205-0.429-0.616-0.656-0.875-0.529 0.060-0.906-0.001-1.469 0.125-0.537 0.12-0.902 0.332-1.406 0.5-0.334 0.672-0.599 1.509-0.969 2-0.4 0.531-0.818 0.984-1.406 1.188-0.294 0.102-0.645 0.097-0.969-0.031s-0.566-0.349-0.75-0.625c-0.372-0.529-0.404-1.263-0.125-1.781s0.747-0.887 1.281-1.219c0.496-0.308 1.245-0.45 1.875-0.688 0.276-0.598 0.576-0.984 0.813-1.656 0.275-0.783 0.321-1.455 0.5-2.219-0.35-0.837-0.787-1.712-0.938-2.438-0.128-0.62-0.169-1.181-0.031-1.719 0.069-0.269 0.184-0.535 0.438-0.75 0.246-0.208 0.601-0.317 0.906-0.313zM15.063 17.75c-0.060 0.184-0.061 0.348-0.125 0.531-0.055 0.157-0.13 0.252-0.188 0.406 0.048-0.011 0.077-0.052 0.125-0.063 0.285-0.064 0.499-0.012 0.781-0.063-0.193-0.295-0.413-0.496-0.594-0.813zM18.75 19.781c-0.064-0.008-0.211 0.037-0.281 0.031 0.243 0.17 0.495 0.308 0.563 0.313 0.080 0.005 0.096 0.018 0.219-0.188 0.012-0.021-0.007-0.015 0-0.031-0.045-0.019-0.163-0.081-0.5-0.125zM11.75 21.344c-0.031 0.019-0.095 0.044-0.125 0.063-0.409 0.254-0.646 0.522-0.719 0.656s-0.103 0.072 0 0.219h0.031c0.020 0.030-0.012 0.018 0 0.031 0.071-0.030 0.351-0.219 0.656-0.625 0.054-0.072 0.101-0.262 0.156-0.344z"></path>
</svg>
