<!-- Generated by IcoMoon.io -->
<svg version="1.1" xmlns="http://www.w3.org/2000/svg" width="32" height="32" viewBox="0 0 32 32">
<title>fire-extinguisher</title>
<path d="M16 4c1.234 0 2.292 0.769 2.75 1.844l6.25-1.031v6.375l-1.156-0.188-4.844-0.813v0.281c0.319 0.239 0.733 0.576 1.219 1.063 0.829 0.829 1.781 1.969 1.781 3.469v13h-12v-13c0-1.5 0.953-2.64 1.781-3.469 0.486-0.486 0.9-0.824 1.219-1.063v-2.469h-1c-1.655 0-3 1.345-3 3h-2c0-2.745 2.255-5 5-5h1.188c0.418-1.156 1.52-2 2.813-2zM16 6c-0.555 0-1 0.445-1 1v3h2v-3c0-0.555-0.445-1-1-1zM23 7.188l-4 0.688v0.25l4 0.688v-1.625zM14.375 12c-0.151 0.105-0.578 0.391-1.156 0.969-0.671 0.671-1.219 1.531-1.219 2.031v11h8v-11c0-0.5-0.547-1.36-1.219-2.031-0.578-0.578-1.006-0.864-1.156-0.969h-3.25zM14 17h4v2h-4v-2z"></path>
</svg>
