<!-- Generated by IcoMoon.io -->
<svg version="1.1" xmlns="http://www.w3.org/2000/svg" width="32" height="32" viewBox="0 0 32 32">
<title>firefox</title>
<path d="M26.816 12.624c0.125 0.392 0.184 0.901 0.184 1.492 0 5.026-2.527 12.041-11.002 12.041-6.918 0-10.835-5.708-10.835-10.169 0-1.206 0.283-2.088 0.516-2.675l-0.643 0.524c-0.023-0.081-0.036-0.237-0.036-0.353 0-1.077 1.201-2.591 1.244-2.647-0.027-2.006 0.357-3.394 1.15-4.17 0.136 0.901 0.374 1.558 0.706 1.981 0.524-0.26 2.637-0.117 3.107 0.281 0.876-0.84 1.86-1.325 2.948-1.461-0.585 0.394-1.493 1.155-1.694 2.44 0.682 0.394 0.816 1.418 2.612 1.268 0.116 0.071 0.174 0.149 0.174 0.236s-0.053 0.176-0.103 0.204c-0.037 0.201-0.145 0.352-0.332 0.451-0.619 0.33-1.466 1.119-1.466 1.124 0.356 0.605 0.486 1.207 0.388 1.771-0.591-0.171-1.683-0.325-1.571-0.315-0.404 0.062-0.636 0.373-0.636 0.85 0 0 1.177 1.813 2.495 1.813 1.057 0 1.281-0.706 2.319-0.706 0.886 0 1.713 0.671 1.713 1.057 0 0.17-0.132 0.293-0.389 0.328-0.088-0.041-0.178-0.062-0.271-0.062-0.708 0-1.472 1.507-4.038 1.507-0.16 0-0.323-0.007-0.488-0.021 0.681 0.685 2.036 1.742 4.124 1.742 1.487 0 3.198-1.099 4.383-2.979 0.048 0.462-0.036 1.046-0.243 1.762 1.093-1.171 1.493-2.968 1.196-5.398 0.214 0.166 0.452 0.637 0.711 1.425 0.378-1.182 0.331-2.679-0.136-4.492 0.379 0.113 0.675 0.342 0.897 0.689 0.167-1.653-1.28-3.084-4.326-4.285 0.426-0.165 0.906-0.201 1.441-0.104-0.124-0.307-1.057-0.973-2.507-1.382 0.152 0.005 0.296 0.016 0.444 0.025-0.917-0.299-1.892-0.466-2.907-0.466 6.776-0.776 8.791 2.875 9.209 4.352-0.006-0.477-0.113-1.134-0.328-1.979 0.461 0.612 0.828 1.301 1.098 2.074 0.005 0.010 0.010 0.020 0.010 0.025 0.347 0.99 0.533 2.115 0.565 3.373 0 0 0.268-0.607 0.317-1.171z"></path>
</svg>
