<!-- Generated by IcoMoon.io -->
<svg version="1.1" xmlns="http://www.w3.org/2000/svg" width="32" height="32" viewBox="0 0 32 32">
<title>flickr</title>
<path d="M8 5h16c1.645 0 3 1.355 3 3v16c0 1.645-1.355 3-3 3h-16c-1.645 0-3-1.355-3-3v-16c0-1.645 1.355-3 3-3zM8 7c-0.565 0-1 0.435-1 1v16c0 0.565 0.435 1 1 1h16c0.565 0 1-0.435 1-1v-16c0-0.565-0.435-1-1-1h-16zM11.5 12.5c1.933 0 3.5 1.567 3.5 3.5s-1.567 3.5-3.5 3.5-3.5-1.567-3.5-3.5 1.567-3.5 3.5-3.5zM20.5 12.5c1.933 0 3.5 1.567 3.5 3.5s-1.567 3.5-3.5 3.5-3.5-1.567-3.5-3.5 1.567-3.5 3.5-3.5z"></path>
</svg>
