<!-- Generated by IcoMoon.io -->
<svg version="1.1" xmlns="http://www.w3.org/2000/svg" width="32" height="32" viewBox="0 0 32 32">
<title>fonticons</title>
<path d="M5 5h22v22h-22v-22zM7 7v18h18v-18h-18zM19.719 8.906h0.406l0.688 1.281h1.219l0.219 0.406-1 1.094 0.438 1.5-0.375 0.344-1.375-0.781s-1.381 0.772-1.406 0.781c-0.025 0.008-0.313-0.344-0.313-0.344l0.406-1.5-1-1.063 0.156-0.438h1.25zM14.375 10.719c3.329 0 2.906 2.313 2.906 2.313l-2.25 0.313v-0.5s-0.105-0.594-0.75-0.594-0.813 0.75-0.813 0.75v1.75h3l-0.5 1.688h-2.5v5.344l2.094 0.219s-0.017 1.143 0 1.125h-5.875v-1.156l1.25-0.156v-5.375h-1.25v-1.688h1.281v-1.375s-0.097-2.656 3.406-2.656zM17.813 14.781h3.594v6.813c0 0.159 0.125 0.315 0.281 0.344l0.531 0.094v1.094h-4.563v-1.125l0.938-0.188c0.155-0.030 0.281-0.154 0.281-0.313v-4.781c0-0.149-0.107-0.273-0.25-0.313l-1.188-0.344z"></path>
</svg>
