<!-- Generated by IcoMoon.io -->
<svg version="1.1" xmlns="http://www.w3.org/2000/svg" width="32" height="32" viewBox="0 0 32 32">
<title>forumbee</title>
<path d="M16 2.969c0.937 0 1.838 0.093 2.719 0.281-7.296 2.722-12.742 8.609-15.438 15.625-0.209-0.926-0.313-1.885-0.313-2.875 0-7.187 5.843-13.031 13.031-13.031zM23.375 5.281c1.053 0.73 2.016 1.623 2.813 2.625-3.558 0.927-13.825 4.721-18.313 18.281-0.992-0.789-1.869-1.739-2.594-2.781 4.175-13.072 14.596-17.114 18.094-18.125zM27.969 10.875c0.446 1.043 0.746 2.151 0.906 3.313-9.489 3.866-13.397 11.599-14.625 14.688-1.159-0.155-2.271-0.467-3.313-0.906 1.219-3.646 5.445-13.368 17.031-17.094zM28.875 17.844c-0.249 1.744-0.85 3.363-1.719 4.813 0.608 1.745 1.844 6.344 1.844 6.344l-6.219-1.906c-1.439 0.882-3.075 1.482-4.813 1.75 0.606-1.381 2.023-3.841 5.063-6.688 2.676-2.505 4.643-3.716 5.844-4.313z"></path>
</svg>
