<!-- Generated by IcoMoon.io -->
<svg version="1.1" xmlns="http://www.w3.org/2000/svg" width="32" height="32" viewBox="0 0 32 32">
<title>foursquare</title>
<path d="M10 5h11.781c1.237 0 2.205 1.161 1.969 2.375l-1.938 10c-0.184 0.931-1.018 1.625-1.969 1.625h-3.438l-6.313 7.5c-0.329 0.373-0.898 0.494-1.313 0.344-0.423-0.153-0.781-0.616-0.781-1.125v-18.719c0-1.093 0.907-2 2-2zM10 7v16.5l5.125-6.156c0.165-0.19 0.503-0.344 0.755-0.344 0.007 0 0.019 0 0.026 0h3.938l0.781-4h-6.156c-0.251 0-0.469-0.218-0.469-0.469v-1.063c0-0.25 0.218-0.469 0.469-0.469h6.531l0.781-4h-11.781z"></path>
</svg>
