<!-- Generated by IcoMoon.io -->
<svg version="1.1" xmlns="http://www.w3.org/2000/svg" width="32" height="32" viewBox="0 0 32 32">
<title>futbol-o</title>
<path d="M16 3c7.168 0 13 5.832 13 13s-5.832 13-13 13-13-5.832-13-13 5.832-13 13-13zM16 5c-0.598 0-1.178 0.065-1.75 0.156l1.75 1.25 1.75-1.25c-0.575-0.093-1.148-0.156-1.75-0.156zM11.813 5.844c-1.629 0.67-3.063 1.712-4.188 3.031l1.406 4.25 0.219 0.688-0.594 0.406-3.594 2.625c0.135 1.776 0.656 3.436 1.531 4.875h5.219l0.219 0.688 1.375 4.281c0.832 0.2 1.699 0.313 2.594 0.313 0.861 0 1.698-0.095 2.5-0.281l1.406-4.344 0.219-0.688h5.281c0.86-1.432 1.398-3.081 1.531-4.844l-3.625-2.656-0.594-0.406 0.219-0.688 1.375-4.281c-1.115-1.288-2.526-2.306-4.125-2.969l-4.188 3.063-0.594-0.438zM16 10.094l0.594 0.438 4.563 3.313 0.563 0.438-0.219 0.688-1.75 5.344-0.219 0.688h-7.063l-0.219-0.688-1.75-5.344-0.219-0.688 0.563-0.438 4.563-3.313zM25.75 10.906l-0.688 2.125 1.781 1.281c-0.187-1.212-0.547-2.36-1.094-3.406zM6.219 10.969c-0.53 1.030-0.88 2.156-1.063 3.344l1.75-1.281zM16 12.594l-3.375 2.438 1.281 3.969h4.188l1.281-3.969zM21.594 23.688l-0.688 2.156c1.106-0.552 2.085-1.279 2.938-2.156h-2.25zM8.156 23.719c0.832 0.845 1.806 1.552 2.875 2.094l-0.688-2.094h-2.188z"></path>
</svg>
