<!-- Generated by IcoMoon.io -->
<svg version="1.1" xmlns="http://www.w3.org/2000/svg" width="32" height="32" viewBox="0 0 32 32">
<title>gavel</title>
<path d="M15.969 1.594l0.688 0.688 3 3.031 0.719 0.688-1 1 5.594 5.563 0.281-0.281 0.719-0.688 0.688 0.688 3 3.031 0.719 0.688-7.719 7.719-0.688 0.719-4.438-4.438 0.719-0.688 0.344-0.344-2.063-2.063-11.813 11.813-1.438-1.438 11.813-11.813-2.094-2.094-0.344 0.344-0.688 0.719-4.438-4.438 0.719-0.688 7-7.031zM15.969 4.406l-5.594 5.594 1.594 1.594 5.594-5.594zM18 8.438l-3.563 3.563 5.563 5.563 3.563-3.563zM25.969 14.406l-5.594 5.594 1.594 1.594 5.594-5.594z"></path>
</svg>
