<!-- Generated by IcoMoon.io -->
<svg version="1.1" xmlns="http://www.w3.org/2000/svg" width="32" height="32" viewBox="0 0 32 32">
<title>gbp</title>
<path d="M17.688 5c0.808 0.002 1.622 0.174 2.438 0.5l-0.75 1.844c-3.076-1.23-6.375 1.080-6.375 4.313 0 0.876 0.39 2.037 0.844 3.344h6.156v2h-5.5c0.119 0.384 0.242 0.757 0.344 1.156 0.536 2.099 0.611 4.538-0.781 6.844h7.938v-3h2v5h-16v-2h3.531c1.995-2.162 1.938-4.138 1.375-6.344-0.141-0.553-0.303-1.101-0.5-1.656h-3.406v-2h2.656c-0.373-1.102-0.656-2.214-0.656-3.344 0-3.454 2.698-6.181 5.875-6.594 0.265-0.034 0.543-0.063 0.813-0.063z"></path>
</svg>
