<!-- Generated by IcoMoon.io -->
<svg version="1.1" xmlns="http://www.w3.org/2000/svg" width="32" height="32" viewBox="0 0 32 32">
<title>gears</title>
<path d="M21.5 2.5h2v1.406c0.828 0.146 1.586 0.474 2.25 0.938l0.938-0.938 1.406 1.406-0.938 0.938c0.464 0.664 0.792 1.421 0.938 2.25h1.406v2h-1.406c-0.147 0.837-0.466 1.613-0.938 2.281l0.969 1.031-1.469 1.375-0.938-1c-0.656 0.451-1.405 0.763-2.219 0.906v1.406h-2v-1.406c-0.828-0.146-1.586-0.474-2.25-0.938l-1.031 1.063-1.438-1.438 1.063-1.031c-0.464-0.664-0.792-1.421-0.938-2.25h-1.406v-2h1.406c0.143-0.814 0.456-1.563 0.906-2.219l-1-0.938 1.375-1.469 1.031 0.969c0.669-0.471 1.445-0.79 2.281-0.938v-1.406zM22.5 5.813c-2.055 0-3.688 1.632-3.688 3.688s1.632 3.688 3.688 3.688 3.688-1.632 3.688-3.688-1.632-3.688-3.688-3.688zM9.531 11.719l0.719 1.813c0.53-0.132 1.087-0.219 1.656-0.219 0.571 0 1.126 0.085 1.656 0.219l0.719-1.813 1.844 0.75-0.719 1.813c0.944 0.571 1.742 1.372 2.313 2.313l1.813-0.719 0.75 1.844-1.813 0.719c0.132 0.529 0.219 1.087 0.219 1.656s-0.086 1.126-0.219 1.656l1.813 0.719-0.75 1.844-1.813-0.719c-0.569 0.952-1.367 1.766-2.313 2.344l0.719 1.781-1.844 0.75-0.719-1.781c-0.529 0.134-1.087 0.219-1.656 0.219-0.573 0-1.123-0.084-1.656-0.219l-0.719 1.781-1.844-0.75 0.719-1.781c-0.961-0.577-1.765-1.384-2.344-2.344l-1.781 0.719-0.75-1.844 1.781-0.719c-0.134-0.53-0.219-1.087-0.219-1.656s0.085-1.128 0.219-1.656l-1.781-0.719 0.75-1.844 1.781 0.719c0.577-0.945 1.392-1.743 2.344-2.313l-0.719-1.813zM11.906 15.313c-2.663 0-4.813 2.118-4.813 4.781s2.15 4.813 4.813 4.813 4.781-2.15 4.781-4.813-2.118-4.781-4.781-4.781z"></path>
</svg>
