<!-- Generated by IcoMoon.io -->
<svg version="1.1" xmlns="http://www.w3.org/2000/svg" width="32" height="32" viewBox="0 0 32 32">
<title>gear</title>
<path d="M13.188 3h5.625l0.156 0.813 0.594 2.969c0.951 0.374 1.814 0.903 2.594 1.531l2.906-1 0.781-0.25 0.406 0.719 2 3.438 0.406 0.719-0.594 0.531-2.25 1.969c0.084 0.513 0.188 1.022 0.188 1.563s-0.104 1.050-0.188 1.563l2.25 1.969 0.594 0.531-0.406 0.719-2 3.438-0.406 0.719-0.781-0.25-2.906-1c-0.78 0.628-1.642 1.157-2.594 1.531l-0.594 2.969-0.156 0.813h-5.625l-0.156-0.813-0.594-2.969c-0.951-0.374-1.814-0.903-2.594-1.531l-2.906 1-0.781 0.25-0.406-0.719-2-3.438-0.406-0.719 0.594-0.531 2.25-1.969c-0.084-0.513-0.188-1.022-0.188-1.563s0.104-1.050 0.188-1.563l-2.25-1.969-0.594-0.531 0.406-0.719 2-3.438 0.406-0.719 0.781 0.25 2.906 1c0.78-0.628 1.642-1.157 2.594-1.531l0.594-2.969zM14.813 5l-0.5 2.594-0.125 0.594-0.563 0.188c-1.138 0.355-2.169 0.955-3.031 1.75l-0.438 0.406-0.563-0.188-2.531-0.875-1.188 2.031 2 1.781 0.469 0.375-0.156 0.594c-0.128 0.57-0.188 1.153-0.188 1.75s0.060 1.18 0.188 1.75l0.156 0.594-0.469 0.375-2 1.781 1.188 2.031 2.531-0.875 0.563-0.188 0.438 0.406c0.863 0.795 1.894 1.395 3.031 1.75l0.563 0.188 0.125 0.594 0.5 2.594h2.375l0.5-2.594 0.125-0.594 0.563-0.188c1.138-0.355 2.169-0.955 3.031-1.75l0.438-0.406 0.563 0.188 2.531 0.875 1.188-2.031-2-1.781-0.438-0.375 0.125-0.594c0.128-0.572 0.188-1.153 0.188-1.75s-0.060-1.18-0.188-1.75l-0.156-0.594 0.469-0.375 2-1.781-1.188-2.031-2.531 0.875-0.563 0.188-0.438-0.406c-0.863-0.795-1.894-1.395-3.031-1.75l-0.563-0.188-0.125-0.594-0.5-2.594h-2.375zM16 11c2.75 0 5 2.25 5 5s-2.25 5-5 5-5-2.25-5-5 2.25-5 5-5zM16 13c-1.669 0-3 1.331-3 3s1.331 3 3 3 3-1.331 3-3-1.331-3-3-3z"></path>
</svg>
