<!-- Generated by IcoMoon.io -->
<svg version="1.1" xmlns="http://www.w3.org/2000/svg" width="32" height="32" viewBox="0 0 32 32">
<title>get-pocket</title>
<path d="M7 5h18c1.645 0 3 1.355 3 3v7c0 6.616-5.385 12-12 12s-12-5.385-12-12v-7c0-1.645 1.355-3 3-3zM7 7c-0.565 0-1 0.435-1 1v7c0 5.535 4.465 10 10 10s10-4.465 10-10v-7c0-0.565-0.435-1-1-1h-18zM10.656 11.406c0.384 0 0.769 0.176 1.063 0.469l4.344 4.344 4.219-4.219c0.585-0.585 1.539-0.586 2.125 0s0.585 1.541 0 2.125l-5.281 5.25c-0.281 0.281-0.665 0.438-1.063 0.438-0.397 0-0.781-0.157-1.063-0.438l-5.406-5.406c-0.586-0.585-0.585-1.508 0-2.094 0.292-0.293 0.679-0.469 1.063-0.469z"></path>
</svg>
