<!-- Generated by IcoMoon.io -->
<svg version="1.1" xmlns="http://www.w3.org/2000/svg" width="32" height="32" viewBox="0 0 32 32">
<title>gg-circle</title>
<path d="M12 6.594l0.719 0.688 2 2-1.438 1.438-1.281-1.281-6.563 6.563 6.563 6.563 2.563-2.563-4.281-4.281 1.438-1.438 5 5 0.688 0.719-0.688 0.719-4 4-0.719 0.688-0.719-0.688-8-8-0.688-0.719 0.688-0.719 8-8zM20 6.594l0.719 0.688 8 8 0.688 0.719-0.688 0.719-8 8-0.719 0.688-0.719-0.688-2-2 1.438-1.438 1.281 1.281 6.563-6.563-6.563-6.563-2.563 2.563 4.281 4.281-1.438 1.438-5-5-0.688-0.719 0.688-0.719 4-4z"></path>
</svg>
