<!-- Generated by IcoMoon.io -->
<svg version="1.1" xmlns="http://www.w3.org/2000/svg" width="32" height="32" viewBox="0 0 32 32">
<title>gift</title>
<path d="M12 5c1.749 0 2.939 1.329 3.719 2.438 0.104 0.148 0.189 0.293 0.281 0.438 0.092-0.145 0.177-0.289 0.281-0.438 0.779-1.108 1.97-2.438 3.719-2.438 1.645 0 3 1.355 3 3 0 0.353-0.073 0.684-0.188 1h5.188v6h-1v13h-22v-13h-1v-6h5.188c-0.114-0.316-0.188-0.647-0.188-1 0-1.645 1.355-3 3-3zM12 7c-0.565 0-1 0.435-1 1s0.435 1 1 1h2.313c-0.121-0.206-0.097-0.22-0.25-0.438-0.627-0.892-1.436-1.563-2.063-1.563zM20 7c-0.626 0-1.436 0.671-2.063 1.563-0.153 0.217-0.129 0.232-0.25 0.438h2.313c0.565 0 1-0.435 1-1s-0.435-1-1-1zM6 11v2h9v-1h2v1h9v-2h-20zM7 15v11h8v-10h2v10h8v-11h-18z"></path>
</svg>
