<!-- Generated by IcoMoon.io -->
<svg version="1.1" xmlns="http://www.w3.org/2000/svg" width="32" height="32" viewBox="0 0 32 32">
<title>git-square</title>
<path d="M16 2c0.503 0 0.997 0.184 1.375 0.563l12.063 12.063c0.756 0.756 0.757 1.995 0 2.75l-12.063 12.063c-0.756 0.754-1.994 0.754-2.75 0l-12.063-12.063c-0.756-0.756-0.757-1.995 0-2.75l8.875-8.875c0.079-0.122 0.247-0.276 0.375-0.344l2.813-2.844c0.378-0.378 0.872-0.563 1.375-0.563zM16 4.031l-2.281 2.281 1.75 1.75c0.168-0.046 0.348-0.063 0.531-0.063 1.105 0 2 0.895 2 2 0 0.173-0.021 0.34-0.063 0.5l3.563 3.563c0.16-0.041 0.327-0.063 0.5-0.063 1.105 0 2 0.895 2 2s-0.895 2-2 2-2-0.895-2-2c0-0.173 0.021-0.34 0.063-0.5l-3.063-3.063v7.844c0.597 0.346 1 0.979 1 1.719 0 1.105-0.895 2-2 2s-2-0.895-2-2c0-0.74 0.403-1.373 1-1.719v-8.563c-0.597-0.346-1-0.979-1-1.719 0-0.183 0.016-0.363 0.063-0.531l-1.75-1.75-8.281 8.281 11.969 11.969 11.969-11.969z"></path>
</svg>
