<!-- Generated by IcoMoon.io -->
<svg version="1.1" xmlns="http://www.w3.org/2000/svg" width="32" height="32" viewBox="0 0 32 32">
<title>github-alt</title>
<path d="M5.688 5c1.070 0 3.58 0.503 5.656 2.563 1.475-0.366 3.049-0.563 4.656-0.563 1.573 0 3.114 0.151 4.563 0.469 0.092-0.086 2.678-2.469 5.781-2.469 1.040 2.424 0.619 4.517 0.25 5.625 1.492 1.596 2.406 3.792 2.406 6.719 0 7.243-4.59 9.656-13 9.656s-13-2.413-13-9.656c0-2.827 0.967-5.032 2.531-6.656-0.223-0.367-0.531-1.081-0.531-2.438 0-2.042 0.688-3.25 0.688-3.25zM20.688 15.438c-1.409 0.014-3.018 0.219-4.688 0.219-3.674 0-6.267-0.728-7.906 0.75-0.745 0.672-1.781 1.75-1.781 3.656 0 4.997 4.343 5.938 9.688 5.938 7.192 0 9.999-0.891 10-6.125 0-1.889-1.169-3.573-3-4.156-0.687-0.219-1.467-0.29-2.313-0.281zM10.5 18c0.828 0 1.5 0.895 1.5 2s-0.672 2-1.5 2-1.5-0.895-1.5-2 0.672-2 1.5-2zM21.5 18c0.828 0 1.5 0.895 1.5 2s-0.672 2-1.5 2-1.5-0.895-1.5-2 0.672-2 1.5-2zM10.344 18.844c-0.236 0-0.438 0.198-0.438 0.438s0.201 0.438 0.438 0.438 0.406-0.198 0.406-0.438-0.17-0.438-0.406-0.438zM21.344 18.844c-0.236 0-0.438 0.198-0.438 0.438s0.201 0.438 0.438 0.438 0.406-0.198 0.406-0.438-0.17-0.438-0.406-0.438z"></path>
</svg>
