<!-- Generated by IcoMoon.io -->
<svg version="1.1" xmlns="http://www.w3.org/2000/svg" width="32" height="32" viewBox="0 0 32 32">
<title>github-square</title>
<path d="M15.999 4c6.628 0 12.001 5.373 12.001 12.001 0 5.3-3.435 9.794-8.2 11.385-0.609 0.117-0.825-0.256-0.825-0.577 0-0.394 0.015-1.688 0.015-3.292 0-1.119-0.384-1.852-0.815-2.222 2.673-0.297 5.479-1.311 5.479-5.921 0-1.31-0.464-2.381-1.233-3.22 0.124-0.304 0.536-1.524-0.119-3.176 0 0-1.006-0.323-3.297 1.23-0.958-0.266-1.985-0.399-3.004-0.404-1.020 0.005-2.047 0.138-3.004 0.404-2.292-1.553-3.3-1.23-3.3-1.23-0.653 1.652-0.241 2.872-0.118 3.176-0.767 0.839-1.235 1.91-1.235 3.22 0 4.599 2.801 5.628 5.466 5.931-0.343 0.3-0.653 0.829-0.762 1.604-0.683 0.307-2.422 0.837-3.492-0.997 0 0-0.634-1.152-1.838-1.237 0 0-1.172-0.016-0.082 0.729 0 0 0.786 0.369 1.332 1.755 0 0 0.704 2.334 4.042 1.609 0.006 1.001 0.016 1.756 0.016 2.041 0 0.318-0.219 0.688-0.819 0.578-4.769-1.587-8.207-6.085-8.207-11.386 0-6.628 5.373-12.001 11.999-12.001z"></path>
</svg>
