<!-- Generated by IcoMoon.io -->
<svg version="1.1" xmlns="http://www.w3.org/2000/svg" width="32" height="32" viewBox="0 0 32 32">
<title>google-plus</title>
<path d="M12.719 4h6.281l-1.938 1.125h-1.938c0.197 0.123 2.156 1.484 2.156 4.281 0 3.861-3.219 4.022-3.219 6 0 1.885 4.313 2.574 4.313 6.656 0 2.137-1.887 5.938-8.063 5.938-5.414 0-6.563-3.158-6.563-4.5 0-3.667 4.575-5.318 8.375-5.281-0.235-0.413-0.906-1.096-0.906-2.156 0-0.509 0.253-1.054 0.313-1.219-0.357 0.041-0.715 0.063-1.031 0.063-3.473 0-5.188-2.761-5.188-4.969 0-1.483 1.018-5.938 7.406-5.938zM10.781 5.031c-2.389 0-2.813 2.512-2.813 3.375 0 2.906 1.838 5.625 4 5.625 2.851 0 2.656-2.901 2.656-3.188 0-1.242-0.766-5.813-3.844-5.813zM23.75 11h2v3h3v2h-3v3h-2v-3h-3v-2h3v-3zM12.281 19.094c-5.255 0-5.875 2.713-5.875 3.75 0 2.999 3.427 3.844 5.406 3.844 3.942 0 4.53-2.421 4.531-3.406 0-2.173-2.283-3.34-3.375-4.156-0.2-0.021-0.417-0.031-0.688-0.031z"></path>
</svg>
