<!-- Generated by IcoMoon.io -->
<svg version="1.1" xmlns="http://www.w3.org/2000/svg" width="32" height="32" viewBox="0 0 32 32">
<title>google-wallet</title>
<path d="M22 3.5c1.278 0 2.448 0.692 3.063 1.813 0.249 0.455 2.438 4.636 2.438 10.781 0 6.002-2.076 10.814-2.313 11.344-0.563 1.259-1.808 2.063-3.188 2.063-0.496 0-0.986-0.11-1.438-0.313-1.099-0.492-1.803-1.49-2-2.594-0.004-0.021 0.003-0.042 0-0.063-0.045-0.105-0.082-0.283-0.082-0.397 0-0.055 0.009-0.143 0.020-0.197 0.096-1.914-0.267-3.551-0.688-4.813-0.67 2.539-1.619 4.304-1.781 4.594-0.62 1.095-1.773 1.781-3.031 1.781-0.603 0-1.194-0.171-1.719-0.469-1.676-0.95-2.28-3.058-1.344-4.719 0.005-0.009 0.184-0.415 0.406-0.938-0.838-2.269-2.33-3.469-3.813-4.469-0.798-0.538-1.583-1.007-2.25-1.563s-1.281-1.335-1.281-2.344c0-1.645 1.355-3 3-3 1.005 0 2.182 0.442 3.594 1.313 0.353 0.218 0.707 0.471 1.063 0.75-0.278-0.644-0.531-1.094-0.531-1.094-1.083-1.59-0.677-3.756 0.906-4.844 0.586-0.404 1.258-0.625 1.969-0.625 0.798 0 1.543 0.295 2.156 0.781 0.027 0.016 0.069 0.044 0.094 0.063 0.017 0.015 0.045 0.016 0.063 0.031 0.11 0.076 2.376 1.687 4.5 4.75-0.424-1.524-0.87-2.458-0.875-2.469-0.915-1.694-0.287-3.799 1.406-4.719 0.513-0.277 1.076-0.438 1.656-0.438zM22 5.5c-0.243 0-0.49 0.063-0.719 0.188-0.726 0.395-0.988 1.305-0.594 2.031 0.018 0.034 1.813 3.426 1.813 8.375 0 0.138 0.003 0.27 0 0.406 0.012 0.057 0.022 0.151 0.022 0.209 0 0.091-0.024 0.236-0.053 0.322-0.205 4.589-1.816 8.28-1.844 8.344-0.337 0.756-0.006 1.662 0.75 2 0.199 0.089 0.421 0.125 0.625 0.125 0.573 0 1.126-0.318 1.375-0.875 0.087-0.194 2.125-4.837 2.125-10.531 0-5.757-2.099-9.649-2.188-9.813-0.272-0.496-0.782-0.781-1.313-0.781zM13 7.5c-0.293 0-0.586 0.102-0.844 0.281-0.681 0.468-0.84 1.38-0.375 2.063 0.016 0.026 1.719 2.612 1.719 6.344 0 3.813-1.787 7.014-1.813 7.063-0.407 0.721-0.157 1.654 0.563 2.063 0.233 0.132 0.499 0.188 0.75 0.188 0.523 0 1.037-0.263 1.313-0.75 0.089-0.158 2.188-3.927 2.188-8.563 0-4.71-2.189-7.897-2.281-8.031-0.064-0.092-0.139-0.177-0.219-0.25-0.009-0.008-0.023-0.022-0.031-0.031-0.276-0.239-0.614-0.375-0.969-0.375zM17.969 11.969c0.307 1.231 0.531 2.649 0.531 4.219 0 0.521-0.020 1.003-0.063 1.5 0.231 0.368 0.89 1.532 1.438 3.438 0.294-1.25 0.534-2.735 0.594-4.344-0.634-1.913-1.552-3.508-2.5-4.813zM6 12c-0.565 0-1 0.435-1 1 0 0.242 0.097 0.425 0.563 0.813s1.235 0.858 2.094 1.438c1.163 0.784 2.511 1.849 3.563 3.438 0.167-0.776 0.281-1.616 0.281-2.5 0-0.053 0.001-0.104 0-0.156-0.745-1.33-1.874-2.324-2.969-3-1.172-0.723-2.431-1.031-2.531-1.031z"></path>
</svg>
