<!-- Generated by IcoMoon.io -->
<svg version="1.1" xmlns="http://www.w3.org/2000/svg" width="32" height="32" viewBox="0 0 32 32">
<title>google</title>
<path d="M18.682 15.407c0 1.885 4.304 2.56 4.305 6.642 0 2.137-1.87 5.951-8.045 5.951-5.414 0-6.567-3.155-6.567-4.497 0-3.667 4.576-5.316 8.375-5.279-0.235-0.413-0.915-1.089-0.915-2.149 0-0.509 0.251-1.071 0.31-1.236-0.357 0.041-0.693 0.061-1.009 0.061-3.473 0-5.197-2.742-5.197-4.95 0-1.483 1.021-5.95 7.409-5.95h6.278l-1.939 1.136h-1.936c0.197 0.123 2.144 1.462 2.144 4.259 0 3.861-3.213 4.034-3.213 6.012zM16.587 14.042c2.851 0 2.647-2.902 2.647-3.189 0-1.242-0.751-5.808-3.829-5.808-2.389 0-2.805 2.511-2.805 3.374 0 2.906 1.825 5.623 3.987 5.623zM16.436 26.68c3.941 0 4.528-2.414 4.529-3.399 0-2.173-2.267-3.351-3.359-4.167-0.2-0.021-0.435-0.031-0.705-0.031-5.255 0-5.863 2.715-5.863 3.752 0 2.999 3.419 3.845 5.398 3.845z"></path>
</svg>
