<!-- Generated by IcoMoon.io -->
<svg version="1.1" xmlns="http://www.w3.org/2000/svg" width="32" height="32" viewBox="0 0 32 32">
<title>gratipay</title>
<path d="M16 4c6.616 0 12 5.384 12 12s-5.384 12-12 12-12-5.384-12-12 5.384-12 12-12zM16 6c-5.535 0-10 4.465-10 10s4.465 10 10 10 10-4.465 10-10-4.465-10-10-10zM12.5 12c1.767 0 2.189 1.688 3.5 1.688s1.733-1.688 3.5-1.688c1.381 0 2.5 1.119 2.5 2.5 0 0.529-0.157 1.003-0.438 1.406l-0.031 0.031-5.531 6.313-5.531-6.313s-0.030 0.002-0.031 0c-0.281-0.404-0.438-0.909-0.438-1.438 0-1.381 1.119-2.5 2.5-2.5z"></path>
</svg>
