<!-- Generated by IcoMoon.io -->
<svg version="1.1" xmlns="http://www.w3.org/2000/svg" width="32" height="32" viewBox="0 0 32 32">
<title>hand-spock-o</title>
<path d="M12.406 2c1.368-0.022 2.602 0.932 2.938 2.313h0.031c0.002 0.009-0.002 0.022 0 0.031l1.531 5.844 1-4.75c0.316-1.615 1.886-2.691 3.5-2.375s2.691 1.917 2.375 3.531l-0.219 1.125c0.324-0.049 0.661-0.035 1 0.031 1.615 0.316 2.691 1.917 2.375 3.531l-0.938 4.719v7c0 3.854-3.146 7-7 7h-4.625c-1.919 0-3.543-0.923-4.719-2.094l-6.781-6.781c-1.163-1.163-1.163-3.087 0-4.25s3.087-1.163 4.25 0l0.875 0.875v-0.844l-1.938-8.406c-0.364-1.604 0.677-3.23 2.281-3.594 0.38-0.086 0.76-0.089 1.125-0.031 0.063-1.318 1.003-2.509 2.344-2.813 0.199-0.045 0.398-0.059 0.594-0.063zM12.25 4.031c-0.55 0.125-0.874 0.638-0.75 1.188l0.438 1.906c0.002 0.010-0.002 0.021 0 0.031l1.781 7.969-1.969 0.438-1.781-7.938c-0.125-0.55-0.638-0.906-1.188-0.781s-0.875 0.669-0.75 1.219l1.938 8.625 0.031 0.094v5.813l-1.719-1.719-2.563-2.594c-0.399-0.399-1.039-0.399-1.438 0s-0.399 1.039 0 1.438l6.813 6.75c0.913 0.909 2.009 1.531 3.281 1.531h4.625c2.774 0 5-2.226 5-5v-7.094l0.031-0.094 0.938-4.906c0.108-0.554-0.228-1.079-0.781-1.188s-1.048 0.259-1.156 0.813h-0.031l-1.031 5.188-1.969-0.375 1.813-9.125c0.108-0.554-0.228-1.079-0.781-1.188s-1.079 0.228-1.188 0.781v0.031l-1.75 8.5-0.188 0.813h-1.781l-0.188-0.75-2.5-9.594v-0.031c-0.125-0.55-0.638-0.875-1.188-0.75z"></path>
</svg>
