<!-- Generated by IcoMoon.io -->
<svg version="1.1" xmlns="http://www.w3.org/2000/svg" width="32" height="32" viewBox="0 0 32 32">
<title>hand-rock-o</title>
<path d="M15 6c1.063 0 1.998 0.563 2.531 1.406 0.436-0.249 0.935-0.406 1.469-0.406 1.063 0 1.998 0.563 2.531 1.406 0.436-0.249 0.935-0.406 1.469-0.406 1.645 0 3 1.355 3 3v9c0 3.854-3.146 7-7 7h-5.281c-2.013 0-3.921-0.862-5.25-2.375l-2.375-2.688c-1.379-1.569-1.465-3.941-0.188-5.594l2.094-2.688v-3.656c0-1.645 1.355-3 3-3 0.534 0 1.033 0.157 1.469 0.406 0.534-0.844 1.469-1.406 2.531-1.406zM15 8c-0.565 0-1 0.435-1 1v3h-2v-2c0-0.565-0.435-1-1-1s-1 0.435-1 1v8h-2v-1.063l-0.5 0.656c-0.7 0.906-0.661 2.141 0.094 3l2.375 2.719c0.95 1.081 2.311 1.688 3.75 1.688h5.281c2.774 0 5-2.226 5-5v-9c0-0.565-0.435-1-1-1s-1 0.435-1 1v1h-2v-2c0-0.565-0.435-1-1-1s-1 0.435-1 1v2h-2v-3c0-0.565-0.435-1-1-1z"></path>
</svg>
