<!-- Generated by IcoMoon.io -->
<svg version="1.1" xmlns="http://www.w3.org/2000/svg" width="32" height="32" viewBox="0 0 32 32">
<title>hand-o-down</title>
<path d="M10 2h16v16.844c0 1.409-0.998 2.642-2.375 2.938l-7.625 1.656v3.563c0 1.645-1.355 3-3 3s-3-1.355-3-3v-10.75l-0.75 0.188c-0.156 0.203-0.224 0.331-0.625 0.625-0.642 0.47-1.633 0.938-2.969 0.938-1.426 0.002-2.656-1.29-2.656-2.906v-0.406l0.281-0.313 6.719-6.781v-5.594zM12 4v3h12v-3h-12zM11.406 9l-6.313 6.406c0.082 0.421 0.255 0.594 0.563 0.594 0.903 0 1.459-0.273 1.813-0.531s0.438-0.438 0.438-0.438l0.188-0.344 0.406-0.125 2.25-0.594 1.25-0.313v13.344c0 0.565 0.435 1 1 1s1-0.435 1-1v-5.188l0.781-0.188 8.438-1.781c0.467-0.1 0.781-0.523 0.781-1v-9.844h-12.594z"></path>
</svg>
