<!-- Generated by IcoMoon.io -->
<svg version="1.1" xmlns="http://www.w3.org/2000/svg" width="32" height="32" viewBox="0 0 32 32">
<title>hand-pointer-o</title>
<path d="M13 2c1.645 0 3 1.355 3 3v4.188c0.316-0.114 0.647-0.188 1-0.188 0.767 0 1.467 0.3 2 0.781 0.533-0.481 1.233-0.781 2-0.781 1.395 0 2.578 0.982 2.906 2.281 0.368-0.163 0.762-0.281 1.188-0.281 1.645 0 3 1.355 3 3v7.813c0 4.533-3.654 8.188-8.188 8.188h-1.719c-1.935 0-3.651-0.675-5-1.688l-0.031-0.063-0.063-0.031-8.188-8.094v-0.031c-1.154-1.154-1.154-3.034 0-4.188s3.034-1.154 4.188 0l0.25 0.219 0.656 0.688v-11.813c0-1.645 1.355-3 3-3zM13 4c-0.555 0-1 0.445-1 1v16.625l-4.313-4.313c-0.446-0.446-0.929-0.446-1.375 0s-0.446 0.929 0 1.375l8.094 8c1.051 0.788 2.317 1.313 3.781 1.313h1.719c3.467 0 6.188-2.721 6.188-6.188v-7.813c0-0.555-0.445-1-1-1s-1 0.445-1 1v2h-2.094v-4c0-0.555-0.445-1-1-1s-1 0.445-1 1v4h-2v-4c0-0.555-0.445-1-1-1s-1 0.445-1 1v4h-2v-11c0-0.555-0.445-1-1-1z"></path>
</svg>
