<!-- Generated by IcoMoon.io -->
<svg version="1.1" xmlns="http://www.w3.org/2000/svg" width="32" height="32" viewBox="0 0 32 32">
<title>hand-paper-o</title>
<path d="M16 2c1.381 0 2.533 0.97 2.875 2.25 0.351-0.146 0.724-0.25 1.125-0.25 1.645 0 3 1.355 3 3v1.188c0.316-0.114 0.647-0.188 1-0.188 1.645 0 3 1.355 3 3v12c0 3.854-3.146 7-7 7h-4.625c-1.919 0-3.543-0.923-4.719-2.094l-6.781-6.781c-1.163-1.163-1.163-3.087 0-4.25s3.087-1.163 4.25 0l0.875 0.875v-10.75c0-1.645 1.355-3 3-3 0.401 0 0.774 0.104 1.125 0.25 0.342-1.28 1.494-2.25 2.875-2.25zM16 4c-0.565 0-1 0.435-1 1v10h-2v-8c0-0.565-0.435-1-1-1s-1 0.435-1 1v15.594l-1.719-1.719-2.563-2.594c-0.399-0.399-1.039-0.399-1.438 0s-0.399 1.039 0 1.438l6.813 6.75c0.913 0.909 2.009 1.531 3.281 1.531h4.625c2.774 0 5-2.226 5-5v-12c0-0.565-0.435-1-1-1s-1 0.435-1 1v4h-2v-8c0-0.565-0.435-1-1-1s-1 0.435-1 1v8h-2v-10c0-0.565-0.435-1-1-1z"></path>
</svg>
