<!-- Generated by IcoMoon.io -->
<svg version="1.1" xmlns="http://www.w3.org/2000/svg" width="32" height="32" viewBox="0 0 32 32">
<title>hand-lizard-o</title>
<path d="M14.313 4h13.688v2c0 1.309-0.946 2.251-2.125 2.656l-0.344 1.313c-0.444 1.775-2.045 3.031-3.875 3.031h-6.375l0.5 2h6.875c1.83 0 3.431 1.256 3.875 3.031l0.125 0.469c0.31 1.239-0.661 2.5-1.938 2.5h-6.313c-0.422 0.517-1.777 1.897-4.406 2.688v4.313h-10v-9.906c0-0.885 0.241-1.767 0.688-2.531l5.281-9.094c0.895-1.534 2.567-2.469 4.344-2.469zM14.313 6c-1.069 0-2.055 0.576-2.594 1.5l-5.313 9.063c-0.268 0.459-0.406 1-0.406 1.531v7.906h6v-3.813l0.813-0.156c2.933-0.579 4.375-2.625 4.375-2.625l0.313-0.406h7.219l-0.125-0.5c-0.224-0.895-1.015-1.5-1.938-1.5h-6.875c-0.912 0-1.717-0.614-1.938-1.5l-0.5-2c-0.31-1.239 0.661-2.5 1.938-2.5h6.375c0.922 0 1.714-0.605 1.938-1.5l0.125-0.5h-8.719l1-2h9c0.565 0 1-0.435 1-1h-11.688z"></path>
</svg>
