<!-- Generated by IcoMoon.io -->
<svg version="1.1" xmlns="http://www.w3.org/2000/svg" width="32" height="32" viewBox="0 0 32 32">
<title>hand-peace-o</title>
<path d="M15 2c1.645 0 3 1.355 3 3v3.906c0.723-0.324 1.558-0.377 2.344-0.063 0.684 0.273 1.207 0.794 1.531 1.406 0.703-0.288 1.496-0.332 2.25-0.031 1.085 0.434 1.755 1.462 1.844 2.563 0.010 0.025 0.024 0.067 0.031 0.094 0 0.010-0 0.021 0 0.031 0 0.009 0 0.023 0 0.031s-0 0.023-0 0.031c0.001 0.043 0.001 0.082 0 0.125v9.906c0 3.854-3.146 7-7 7h-5.281c-3.068 0-5.785-2.006-6.688-4.938l-0.781-2.5c-0-0.004-0-0.011-0-0.016s0-0.011 0-0.016c-0.169-0.565-0.397-1.617-0.188-2.813 0.283-1.614 1.228-2.626 2.063-3.125 0.205-0.123 0.408-0.206 0.594-0.281l-2.594-8.438c-0.478-1.574 0.425-3.272 2-3.75s3.272 0.426 3.75 2l0.125 0.406v-1.531c0-1.645 1.355-3 3-3zM15 4c-0.565 0-1 0.435-1 1v8.219h-0.844l-1.125 0.344-2.063-6.844c-0.164-0.54-0.71-0.852-1.25-0.688-0.539 0.164-0.82 0.712-0.656 1.25l2.594 8.625 4.094-0.531c-0.002-0.384 0.070-0.784 0.219-1.156l1.031-2.625v-6.594c0-0.565-0.435-1-1-1zM19.188 10.625c-0.385 0.006-0.718 0.232-0.875 0.625l-1.5 3.719c-0.030 0.076-0.020 0.144-0.031 0.219 0.666 0.008 1.305 0.261 1.813 0.656 0.028-0.046 0.072-0.071 0.094-0.125l0.406-1.031v-0.031l1.063-2.656c0.209-0.523-0.038-1.103-0.563-1.313-0.131-0.052-0.278-0.064-0.406-0.063zM22.969 12c-0.133 0.001-0.258 0.013-0.375 0.063-0.233 0.1-0.427 0.301-0.531 0.563-0.014 0.040-0.015 0.085-0.031 0.125l-1.063 2.656c-0.21 0.525 0.007 1.103 0.531 1.313s1.103-0.040 1.313-0.563l1.125-2.781c0.049-0.121 0.061-0.253 0.063-0.375l-0-0.016 0-0.016c-0.006-0.394-0.232-0.749-0.625-0.906-0.131-0.052-0.273-0.063-0.406-0.063zM16.5 17.156c-0.025 0.010-0.067 0.024-0.094 0.031l-6.438 0.844c-0.009 0-0.023 0-0.031 0s-0.023-0-0.031-0c0 0-0.314 0.021-0.75 0.281s-0.905 0.676-1.094 1.75c-0.121 0.691 0.044 1.635 0.125 1.906l0.75 2.5c0.647 2.1 2.583 3.531 4.781 3.531h5.281c2.774 0 5-2.226 5-5v-5.094c-0.818 0.824-2.073 1.114-3.219 0.656-0.426-0.17-0.799-0.434-1.094-0.75 0.061 0.609-0.059 1.221-0.375 1.75-0.386 0.645-1.009 1.105-1.781 1.375-0.025 0.010-0.067 0.024-0.094 0.031l-3.688 0.969 0.281 0.5c0.069 0.125 0.125 0.342 0.125 0.484 0 0.552-0.448 1-1 1-0.325 0-0.717-0.231-0.875-0.516l-0.906-1.656c-0.065-0.122-0.118-0.333-0.118-0.471 0-0.424 0.333-0.857 0.743-0.966l4.844-1.25c0.444-0.155 0.651-0.365 0.75-0.531s0.14-0.333 0.063-0.656c-0.126-0.527-0.629-0.844-1.156-0.719z"></path>
</svg>
