<!-- Generated by IcoMoon.io -->
<svg version="1.1" xmlns="http://www.w3.org/2000/svg" width="32" height="32" viewBox="0 0 32 32">
<title>hand-scissors-o</title>
<path d="M11.406 6.969c0.276 0.005 0.576 0.041 0.875 0.094 1.614 0.283 2.626 1.228 3.125 2.063 0.123 0.205 0.206 0.408 0.281 0.594l8.438-2.594c1.574-0.478 3.272 0.426 3.75 2s-0.426 3.272-2 3.75l-0.406 0.125h1.531c1.645 0 3 1.355 3 3s-1.355 3-3 3h-3.906c0.324 0.723 0.377 1.558 0.063 2.344-0.273 0.684-0.794 1.207-1.406 1.531 0.288 0.703 0.332 1.496 0.031 2.25-0.475 1.188-1.658 1.904-2.875 1.875h-9.906c-3.854 0-7-3.146-7-7v-5.281c0-3.068 2.006-5.785 4.938-6.688l2.5-0.781 0.016-0 0.016 0c0.424-0.127 1.111-0.298 1.938-0.281zM25.125 9c-0.13-0.015-0.271-0.010-0.406 0.031l-8.625 2.625 0.531 4.094c0.387-0.006 0.776 0.067 1.156 0.219l2.625 1.031h6.594c0.565 0 1-0.435 1-1s-0.435-1-1-1h-8.219v-0.844l-0.344-1.125 6.844-2.063c0.54-0.164 0.852-0.71 0.688-1.25-0.123-0.405-0.455-0.675-0.844-0.719zM11.375 9.031c-0.57-0.001-1.14 0.095-1.344 0.156l-2.5 0.75c-2.1 0.647-3.531 2.583-3.531 4.781v5.281c0 2.774 2.226 5 5 5h5.094c-0.824-0.818-1.114-2.073-0.656-3.219 0.17-0.426 0.434-0.799 0.75-1.094-0.609 0.061-1.221-0.059-1.75-0.375-0.645-0.386-1.105-1.009-1.375-1.781-0.010-0.025-0.024-0.067-0.031-0.094l-0.969-3.688-0.5 0.281c-0.125 0.069-0.342 0.125-0.484 0.125-0.552 0-1-0.448-1-1 0-0.325 0.231-0.717 0.516-0.875l1.656-0.906c0.122-0.065 0.333-0.118 0.471-0.118 0.424 0 0.857 0.333 0.966 0.743l1.25 4.844c0.155 0.444 0.365 0.651 0.531 0.75s0.333 0.14 0.656 0.063c0.527-0.126 0.844-0.629 0.719-1.156-0.010-0.025-0.024-0.067-0.031-0.094l-0.844-6.438c-0-0.009-0.001-0.023-0.001-0.031s0-0.023 0.001-0.031c0 0-0.021-0.314-0.281-0.75s-0.676-0.905-1.75-1.094c-0.173-0.030-0.373-0.031-0.563-0.031zM16.813 17.781c-0.008 0.666-0.261 1.305-0.656 1.813 0.046 0.028 0.071 0.072 0.125 0.094l3.719 1.469c0.523 0.209 1.103-0.038 1.313-0.563 0.209-0.523-0.038-1.072-0.563-1.281l-3.719-1.5c-0.076-0.030-0.144-0.020-0.219-0.031zM16.188 21.906c-0.133 0.001-0.258 0.013-0.375 0.063-0.233 0.1-0.427 0.269-0.531 0.531-0.21 0.524 0.040 1.103 0.563 1.313l2.781 1.125c0.131 0.052 0.275 0.064 0.406 0.063 0.004-0 0.011-0 0.016-0s0.011 0 0.016 0c0.382-0.018 0.722-0.243 0.875-0.625 0.21-0.525-0.039-1.103-0.563-1.313l-0.125-0.031-1.313-0.531-1.344-0.531c-0.131-0.052-0.273-0.063-0.406-0.063z"></path>
</svg>
