<!-- Generated by IcoMoon.io -->
<svg version="1.1" xmlns="http://www.w3.org/2000/svg" width="32" height="32" viewBox="0 0 32 32">
<title>hand-o-up</title>
<path d="M13 2c1.645 0 3 1.355 3 3v3.563l7.625 1.656c1.377 0.296 2.375 1.529 2.375 2.938v16.844h-16v-5.594l-6.719-6.781-0.281-0.313v-0.406c0-1.616 1.23-2.908 2.656-2.906 1.336 0 2.327 0.468 2.969 0.938 0.401 0.294 0.469 0.422 0.625 0.625l0.75 0.188v-10.75c0-1.645 1.355-3 3-3zM13 4c-0.565 0-1 0.435-1 1v13.344l-1.25-0.313-2.25-0.594-0.406-0.125-0.188-0.344s-0.084-0.179-0.438-0.438-0.91-0.531-1.813-0.531c-0.308-0-0.481 0.172-0.563 0.594l6.313 6.406h12.594v-9.844c0-0.477-0.314-0.9-0.781-1l-8.438-1.781-0.781-0.188v-5.188c0-0.565-0.435-1-1-1zM12 25v3h12v-3h-12z"></path>
</svg>
