<!-- Generated by IcoMoon.io -->
<svg version="1.1" xmlns="http://www.w3.org/2000/svg" width="32" height="32" viewBox="0 0 32 32">
<title>heart-o</title>
<path d="M9.5 5c3.433 0 5.645 2.066 6.5 2.938 0.855-0.871 3.067-2.938 6.5-2.938 4.138 0 7.5 3.404 7.5 7.5 0 2.857-2.469 5.031-2.469 5.031l-11.531 11.563-0.719-0.719-10.813-10.844s-0.619-0.573-1.219-1.469-1.25-2.134-1.25-3.563c0-4.096 3.362-7.5 7.5-7.5zM9.5 7c-3.042 0-5.5 2.496-5.5 5.5 0 0.772 0.423 1.716 0.906 2.438s0.969 1.188 0.969 1.188l10.125 10.125 10.125-10.125s1.875-2.080 1.875-3.625c0-3.004-2.458-5.5-5.5-5.5-2.986 0-5.75 2.906-5.75 2.906l-0.75 0.844-0.75-0.844s-2.764-2.906-5.75-2.906z"></path>
</svg>
