<!-- Generated by IcoMoon.io -->
<svg version="1.1" xmlns="http://www.w3.org/2000/svg" width="32" height="32" viewBox="0 0 32 32">
<title>hourglass-half</title>
<path d="M7 4h18v2h-2v4c0 2.542-1.369 4.774-3.406 6 2.038 1.226 3.406 3.458 3.406 6v4h2v2h-18v-2h2v-4c0-2.542 1.369-4.774 3.406-6-2.038-1.226-3.406-3.458-3.406-6v-4h-2v-2zM11 6v4c0 2.774 2.226 5 5 5s5-2.226 5-5v-4h-10zM12.156 11h7.688c-0.447 1.722-1.982 3-3.844 3s-3.398-1.278-3.844-3zM16 17c-2.774 0-5 2.226-5 5v4h1c0-2.209 1.791-4 4-4s4 1.791 4 4h1v-4c0-2.774-2.226-5-5-5z"></path>
</svg>
