<!-- Generated by IcoMoon.io -->
<svg version="1.1" xmlns="http://www.w3.org/2000/svg" width="32" height="32" viewBox="0 0 32 32">
<title>html5</title>
<path d="M5.219 4h1.094l20.469 0.031-0.094 1.063-1.781 19.813-0.063 0.688-0.656 0.188-7.938 2.188-0.281 0.063-0.25-0.063-8.594-2.406-0.063-0.688-1.75-19.781zM7.406 6l1.594 18.031 7 1.938 6.969-1.938 1.625-18zM9.813 9h12.375l-0.219 2.469h-9.469l0.219 2.531h9.031l-0.688 7.594-5.063 1.406h-0.031l-5.063-1.406-0.344-3.969h2.5l0.156 2.063 2.75 0.75h0.031l2.75-0.75 0.281-3.219h-8.563z"></path>
</svg>
