<!-- Generated by IcoMoon.io -->
<svg version="1.1" xmlns="http://www.w3.org/2000/svg" width="32" height="32" viewBox="0 0 32 32">
<title>industry</title>
<path d="M20 5h7v22h-22v-13.563l0.5-0.281 5-3 1.5-0.938v3.031l3.5-2.094 1.5-0.938v3.031l3-1.781v-5.469zM22 7v4.563l-0.5 0.281-5 3-1.5 0.938v-3.031l-3.5 2.094-1.5 0.938v-3.031l-3 1.781v10.469h18v-18h-3zM9 17h2v2h-2v-2zM13 17h2v2h-2v-2zM17 17h2v2h-2v-2zM21 17h2v2h-2v-2zM9 21h2v2h-2v-2zM13 21h2v2h-2v-2zM17 21h2v2h-2v-2zM21 21h2v2h-2v-2z"></path>
</svg>
