<!-- Generated by IcoMoon.io -->
<svg version="1.1" xmlns="http://www.w3.org/2000/svg" width="32" height="32" viewBox="0 0 32 32">
<title>instagram</title>
<path d="M8 5h16c1.645 0 3 1.355 3 3v16c0 1.645-1.355 3-3 3h-16c-1.645 0-3-1.355-3-3v-16c0-1.645 1.355-3 3-3zM21 8v3h3v-3h-3zM16 12c-2.221 0-4 1.779-4 4s1.779 4 4 4 4-1.779 4-4-1.779-4-4-4zM7 14v10c0 0.565 0.435 1 1 1h16c0.565 0 1-0.435 1-1v-10h-3.344c0.221 0.624 0.344 1.302 0.344 2 0 3.302-2.698 6-6 6s-6-2.698-6-6c0-0.698 0.122-1.376 0.344-2h-3.344z"></path>
</svg>
