<!-- Generated by IcoMoon.io -->
<svg version="1.1" xmlns="http://www.w3.org/2000/svg" width="32" height="32" viewBox="0 0 32 32">
<title>internet-explorer</title>
<path d="M27.701 8.812l-0.138-0.135s2.040-4.974-2.275-4.974c-2.722 0-5.875 2.194-5.875 2.194s8.923 1.445 8.214 11.509h-14.743s-0.218 3.91 3.591 3.91c2.775 0 3.317-2.464 3.317-2.464h7.726s-2.066 7.549-10.772 7.549c-2.068 0-2.829-0.161-2.829-0.161s-3.536 2.76-7.018 2.76-3.808-3.722-3.318-5.382c0.49-1.66 2.448-9.8 10.718-15.364v-0.375s-5.603 2.303-9.629 7.976c0 0-0.163-5.514 4.787-8.619 4.543-2.703 9.086-1.499 9.086-1.499s3.808-2.73 6.855-2.73c0 0 4.747-0.437 2.303 5.805zM13.486 26.128c-5.144-1.131-6.9-4.338-6.9-4.338s-2.076 3.113-0.799 5.313c2.386 2.198 7.699-0.975 7.699-0.975zM19.876 13.982c0 0 0.141-3.363-3.419-3.363-3.683 0-3.594 3.363-3.594 3.363h7.013z"></path>
</svg>
