<!-- Generated by IcoMoon.io -->
<svg version="1.1" xmlns="http://www.w3.org/2000/svg" width="32" height="32" viewBox="0 0 32 32">
<title>ioxhost</title>
<path d="M15 4c4.829 0 9.004 2.878 10.906 7h3.094c0.552 0 1 0.448 1 1s-0.448 1-1 1h-2.406c0.25 0.963 0.406 1.96 0.406 3 0 6.616-5.384 12-12 12-4.829 0-9.004-2.878-10.906-7h-3.094c-0.552 0-1-0.448-1-1s0.448-1 1-1h2.406c-0.25-0.963-0.406-1.96-0.406-3 0-6.616 5.384-12 12-12zM15 6c-5.535 0-10 4.465-10 10 0 1.048 0.14 2.052 0.438 3h14.563c0.552 0 1 0.448 1 1s-0.448 1-1 1h-13.656c1.725 2.995 4.942 5 8.656 5 5.535 0 10-4.465 10-10 0-1.048-0.14-2.052-0.438-3h-14.563c-0.552 0-1-0.448-1-1s0.448-1 1-1h13.656c-1.725-2.995-4.942-5-8.656-5zM10 15h10c0.552 0 1 0.448 1 1s-0.448 1-1 1h-10c-0.552 0-1-0.448-1-1s0.448-1 1-1z"></path>
</svg>
