<!-- Generated by IcoMoon.io -->
<svg version="1.1" xmlns="http://www.w3.org/2000/svg" width="32" height="32" viewBox="0 0 32 32">
<title>joomla</title>
<path d="M6.025 8.687c0-1.476 1.197-2.676 2.675-2.676 1.33 0.002 2.434 0.972 2.64 2.243 1.443-0.339 3.023 0.055 4.148 1.18l0.154 0.154-1.974 1.974-0.153-0.154c-0.641-0.641-1.679-0.641-2.321 0.001s-0.642 1.684-0.003 2.323l0.387 0.386 4.063 4.060-1.973 1.975-4.45-4.448c-1.193-1.193-1.562-2.897-1.11-4.409-1.192-0.267-2.083-1.333-2.083-2.609zM11.813 13.884l4.451-4.445c1.188-1.187 2.882-1.56 4.387-1.119 0.18-1.303 1.299-2.307 2.651-2.307 1.478 0 2.676 1.199 2.675 2.676 0 1.359-1.012 2.481-2.323 2.653 0.431 1.499 0.055 3.18-1.125 4.362l-0.154 0.154-1.974-1.974 0.152-0.154c0.642-0.641 0.642-1.68 0.001-2.32-0.639-0.639-1.675-0.64-2.318 0.003l-0.386 0.385-4.063 4.060zM23.701 20.664c1.3 0.182 2.3 1.299 2.3 2.651 0 1.478-1.199 2.676-2.676 2.676-1.294 0-2.375-0.919-2.621-2.142-1.519 0.466-3.239 0.099-4.441-1.102l-0.151-0.151 1.973-1.976 0.152 0.151c0.641 0.642 1.68 0.642 2.321 0.001 0.638-0.639 0.64-1.675-0.004-2.319l-0.386-0.387-4.059-4.061 1.975-1.973 4.444 4.447c1.135 1.135 1.527 2.732 1.173 4.185zM19.934 18.299l-4.444 4.448c-1.14 1.14-2.747 1.527-4.206 1.165-0.272 1.189-1.337 2.073-2.608 2.075-1.478 0-2.676-1.199-2.676-2.676 0-1.265 0.878-2.326 2.058-2.603-0.373-1.465 0.013-3.085 1.161-4.233l0.151-0.15 1.974 1.974-0.153 0.151c-0.64 0.642-0.64 1.68 0.001 2.321 0.643 0.643 1.684 0.642 2.323 0.002l0.386-0.387 4.059-4.061z"></path>
</svg>
