<!-- Generated by IcoMoon.io -->
<svg version="1.1" xmlns="http://www.w3.org/2000/svg" width="32" height="32" viewBox="0 0 32 32">
<title>jsfiddle</title>
<path d="M25.992 14.346c2.333 0.822 4.008 3.040 4.008 5.654 0 3.314-2.686 6-6 6h-16c-3.314 0-6-2.686-6-6 0-2.228 1.217-4.168 3.020-5.203 0.108-2.113 1.84-3.797 3.98-3.797 0.248 0 0.489 0.030 0.725 0.073 1.318-2.986 4.301-5.073 7.775-5.073 4.642 0 8.409 3.723 8.492 8.346zM20.889 23c2.267 0 4.111-1.794 4.111-4s-1.844-4-4.111-4c-2.462 0-4.22 1.733-4.293 1.808l1.416 1.412c0.315-0.317 1.522-1.22 2.877-1.22 1.184 0 2.111 0.879 2.111 2 0 1.103-0.947 2-2.112 2-1.147 0-2.687-1.385-4.177-2.724-1.791-1.61-3.644-3.276-5.6-3.276-2.267 0-4.111 1.794-4.111 4s1.844 4 4.111 4c1.521 0 2.913-0.619 4.139-1.842l-1.412-1.416c-0.849 0.847-1.741 1.258-2.727 1.258-1.144 0-2.111-0.916-2.111-2 0-1.121 0.927-2 2.111-2 1.189 0 2.752 1.405 4.264 2.764 1.77 1.59 3.6 3.236 5.514 3.236z"></path>
</svg>
