<!-- Generated by IcoMoon.io -->
<svg version="1.1" xmlns="http://www.w3.org/2000/svg" width="32" height="32" viewBox="0 0 32 32">
<title>key</title>
<path d="M20 3c4.945 0 9 4.055 9 9s-4.055 9-9 9c-1.445 0-2.819-0.391-4-0.969v2.969h-3v3h-3v3h-7v-7.406l0.281-0.313 7.875-7.844c-0.072-0.459-0.156-0.918-0.156-1.438 0-4.945 4.055-9 9-9zM20 5c-3.855 0-7 3.145-7 7 0 0.489 0.088 1.025 0.188 1.625l0.094 0.531-0.375 0.344-7.906 7.938v4.563h3v-3h3v-3h3v-3h2.344l0.25 0.125c0.951 0.519 2.197 0.875 3.406 0.875 3.855 0 7-3.145 7-7s-3.145-7-7-7zM22 8c1.105 0 2 0.895 2 2s-0.895 2-2 2-2-0.895-2-2 0.895-2 2-2z"></path>
</svg>
