<!-- Generated by IcoMoon.io -->
<svg version="1.1" xmlns="http://www.w3.org/2000/svg" width="32" height="32" viewBox="0 0 32 32">
<title>language</title>
<path d="M4 4h18v6h6v18h-18v-6h-6v-18zM6 6v14h4.563l9.438-9.438v-4.563h-14zM11 8h2v1h3v2h-1.063c-0.105 1.152-0.395 2.216-0.938 3.125v1.875c-0.572 0-1.101-0.065-1.625-0.156-1.127 0.752-2.603 1.156-4.375 1.156v-2c0.655 0 1.227-0.052 1.719-0.156-0.985-0.662-1.719-1.652-1.719-2.844h2c0 0.419 0.266 0.862 0.969 1.281 0.253 0.151 0.564 0.295 0.906 0.406 0.581-0.634 0.933-1.539 1.063-2.688h-4.938v-2h3v-1zM21.438 12l-9.438 9.438v4.563h14v-14h-4.563zM20 13.844l0.938 2.844 2 6 0.063 0.156v1.156h-2v-0.875l-0.031-0.125h-1.938l-0.031 0.125v0.875h-2v-1.156l0.063-0.156 2-6zM20 20.125l-0.281 0.875h0.563z"></path>
</svg>
