<!-- Generated by IcoMoon.io -->
<svg version="1.1" xmlns="http://www.w3.org/2000/svg" width="32" height="32" viewBox="0 0 32 32">
<title>laptop</title>
<path d="M5 6h22v13.563l2.281 2.313c0.453 0.453 0.719 1.079 0.719 1.719 0 1.321-1.085 2.406-2.406 2.406h-23.188c-1.321 0-2.406-1.085-2.406-2.406 0-0.64 0.266-1.266 0.719-1.719l2.281-2.313v-13.563zM7 8v11h18v-11h-18zM6.438 21l-2.313 2.281c-0.077 0.077-0.125 0.202-0.125 0.313 0 0.241 0.166 0.406 0.406 0.406h23.188c0.241 0 0.406-0.166 0.406-0.406 0-0.11-0.048-0.235-0.125-0.313l-2.313-2.281h-19.125z"></path>
</svg>
