<!-- Generated by IcoMoon.io -->
<svg version="1.1" xmlns="http://www.w3.org/2000/svg" width="32" height="32" viewBox="0 0 32 32">
<title>lastfm</title>
<path d="M14.348 22.078v0s-1.732 1.7-5.356 1.7c-4.49 0-6.992-2.63-6.992-7.505 0-5.068 2.502-8.051 7.214-8.049 4.266 0 6.415 1.539 7.762 5.709l1.058 3.207c0.77 2.341 2.117 4.041 5.356 4.041 2.181 0 3.336-0.482 3.336-1.668 0-0.931-0.545-1.604-2.181-1.989l-2.181-0.513c-2.662-0.642-3.72-2.021-3.72-4.202 0-3.495 2.823-4.586 5.709-4.586 3.272 0 5.26 1.186 5.517 4.073l-3.207 0.385c-0.129-1.38-0.963-1.957-2.502-1.957-1.411 0-2.277 0.642-2.277 1.732 0 0.962 0.417 1.539 1.828 1.86l2.053 0.449c2.758 0.642 4.234 1.989 4.234 4.587 0 3.207-2.694 4.426-6.671 4.426-5.548 0-7.473-2.502-8.499-5.613l-1.026-3.207c-0.77-2.342-1.668-4.17-4.49-4.17-1.957 0-3.945 1.411-3.945 5.356 0 3.080 1.572 5.004 3.785 5.004 2.501 0 4.169-1.86 4.169-1.86z"></path>
</svg>
