<!-- Generated by IcoMoon.io -->
<svg version="1.1" xmlns="http://www.w3.org/2000/svg" width="32" height="32" viewBox="0 0 32 32">
<title>leanpub</title>
<path d="M10.344 6c2.877 0 4.974 1.259 5.656 1.688 0.682-0.429 2.779-1.688 5.656-1.688 3.389 0 6.938 1.906 6.938 1.906l0.469 0.25 0.063 0.531 1.875 16.188 0.188 1.719-1.594-0.688s-4.119-1.719-8-1.719c-2.3 0-5.063 1.656-5.063 1.656l-0.531 0.344-0.531-0.344s-2.763-1.656-5.063-1.656c-3.881 0-8 1.719-8 1.719l-1.594 0.688 0.188-1.719 1.875-16.188 0.063-0.531 0.469-0.25s3.549-1.906 6.938-1.906zM10.344 8c-2.276 0-4.863 1.187-5.531 1.5l-1.625 14.031c1.533-0.55 4.054-1.344 7.219-1.344 2.724 0 4.919 1.278 5.594 1.688 0.674-0.409 2.87-1.688 5.594-1.688 3.165 0 5.686 0.794 7.219 1.344l-1.625-14.031c-0.669-0.313-3.256-1.5-5.531-1.5-2.585 0-5.094 1.625-5.094 1.625l-0.563 0.375-0.563-0.375s-2.508-1.625-5.094-1.625zM10.344 9.5c2.15 0 4.229 1.362 4.25 1.375l1.406 0.938 1.375-0.938c0.018-0.011 1.592-1.002 3.406-1.281l1.25 11.125c-2.251-0.113-4.522 0.703-6.031 1.438-1.416-0.69-3.464-1.469-5.594-1.469-1.677 0-3.51 0.263-5.469 0.75l1.25-10.938c0.919-0.367 2.709-1 4.156-1z"></path>
</svg>
