<!-- Generated by IcoMoon.io -->
<svg version="1.1" xmlns="http://www.w3.org/2000/svg" width="32" height="32" viewBox="0 0 32 32">
<title>lemon-o</title>
<path d="M13 4c7.312 0 12.558 4.583 13.688 9.656 0.756 0.545 1.313 1.347 1.313 2.344s-0.557 1.799-1.313 2.344c-1.071 4.948-5.455 9.656-13.688 9.656-2.581 0-4.879-1.439-6.469-3.625s-2.531-5.141-2.531-8.375 0.941-6.189 2.531-8.375 3.888-3.625 6.469-3.625zM13 6c-1.838 0-3.538 1.018-4.844 2.813s-2.156 4.346-2.156 7.188 0.851 5.393 2.156 7.188 3.006 2.813 4.844 2.813 3.538-1.018 4.844-2.813 2.156-4.346 2.156-7.188-0.851-5.393-2.156-7.188-3.006-2.813-4.844-2.813zM19.375 7.531c0.027 0.036 0.068 0.058 0.094 0.094 1.59 2.186 2.531 5.141 2.531 8.375s-0.941 6.189-2.531 8.375c-0.128 0.176-0.269 0.334-0.406 0.5 3.503-1.515 5.25-4.357 5.781-7.25l0.094-0.5 0.469-0.219c0.348-0.159 0.594-0.494 0.594-0.906s-0.246-0.748-0.594-0.906l-0.469-0.219-0.094-0.5c-0.475-2.586-2.428-5.235-5.469-6.844zM13 8c0.743 0 1.46 0.253 2.094 0.719l-2.063 4.75-2.031-4.781c0.613-0.431 1.287-0.688 2-0.688zM9.5 10.281l2 4.719h-3.469c0.144-1.839 0.682-3.487 1.469-4.719zM16.563 10.375c0.758 1.223 1.266 2.828 1.406 4.625h-3.438zM8.031 17h3.438l-2.031 4.625c-0.758-1.223-1.266-2.828-1.406-4.625zM14.5 17h3.469c-0.144 1.838-0.682 3.487-1.469 4.719zM12.969 18.531l2.031 4.781c-0.613 0.431-1.287 0.688-2 0.688-0.743 0-1.46-0.253-2.094-0.719z"></path>
</svg>
