<!-- Generated by IcoMoon.io -->
<svg version="1.1" xmlns="http://www.w3.org/2000/svg" width="32" height="32" viewBox="0 0 32 32">
<title>life-bouy</title>
<path d="M16 4c6.616 0 12 5.384 12 12s-5.384 12-12 12-12-5.384-12-12 5.384-12 12-12zM16 6c-0.335 0-0.673 0.030-1 0.063v3.031c0.327-0.047 0.66-0.094 1-0.094s0.673 0.046 1 0.094v-3.031c-0.327-0.032-0.665-0.063-1-0.063zM13 6.438c-3.116 0.976-5.558 3.439-6.531 6.563h3.219c0.692-1.453 1.858-2.618 3.313-3.313v-3.25zM19 6.438v3.25c1.452 0.693 2.62 1.86 3.313 3.313h3.25c-0.975-3.112-3.451-5.588-6.563-6.563zM16 11c-2.773 0-5 2.227-5 5s2.227 5 5 5 5-2.227 5-5-2.227-5-5-5zM6.063 15c-0.032 0.326-0.063 0.665-0.063 1s0.030 0.673 0.063 1h3.031c-0.047-0.327-0.094-0.66-0.094-1 0-0.337 0.016-0.675 0.063-1h-3zM22.906 15c0.047 0.327 0.094 0.66 0.094 1s-0.046 0.673-0.094 1h3.031c0.032-0.327 0.063-0.665 0.063-1s-0.030-0.673-0.063-1h-3.031zM6.438 19c0.975 3.112 3.451 5.588 6.563 6.563v-3.25c-1.452-0.693-2.62-1.86-3.313-3.313h-3.25zM22.313 19c-0.693 1.452-1.86 2.62-3.313 3.313v3.25c3.112-0.975 5.588-3.451 6.563-6.563h-3.25zM15 22.906v3.031c0.327 0.032 0.665 0.063 1 0.063s0.673-0.030 1-0.063v-3.031c-0.327 0.047-0.66 0.094-1 0.094s-0.673-0.046-1-0.094z"></path>
</svg>
