<!-- Generated by IcoMoon.io -->
<svg version="1.1" xmlns="http://www.w3.org/2000/svg" width="32" height="32" viewBox="0 0 32 32">
<title>lightbulb-o</title>
<path d="M6.813 2.406l2.094 2.094-1.406 1.406-2.094-2.094zM25.188 2.406l1.406 1.406-2.094 2.094-1.406-1.406zM16 3.031c4.934-0.047 9 4.027 9 8.969 0 2.706-1.249 5.062-2.906 6.719-1.238 1.15-2 2.627-2 4.094v1.188h-0.094v4h-2.281c-0.347 0.597-0.982 1-1.719 1s-1.372-0.403-1.719-1h-2.281v-6c-0.203-1.117-0.794-2.212-1.75-3.031-2.233-1.898-3.573-4.845-3.125-8.094 0.561-4.039 3.789-7.316 7.844-7.781 0.011-0.001 0.020 0.001 0.031 0 0.336-0.041 0.671-0.059 1-0.063zM16 5.031c-0.258 0.004-0.518 0.030-0.781 0.063-3.131 0.348-5.687 2.881-6.125 6.031-0.352 2.552 0.702 4.811 2.469 6.313 1.388 1.19 2.124 2.848 2.344 4.563h4.375c0.236-1.792 1.094-3.434 2.438-4.688l-0.031-0.031c1.343-1.343 2.313-3.187 2.313-5.281 0-3.861-3.135-7.024-7-6.969zM2 12h3v2h-3v-2zM27 12h3v2h-3v-2zM7.5 20.094l1.406 1.406-2.094 2.094-1.406-1.406zM24.5 20.094l2.094 2.094-1.406 1.406-2.094-2.094zM14 24v2h4v-2h-4z"></path>
</svg>
