<!-- Generated by IcoMoon.io -->
<svg version="1.1" xmlns="http://www.w3.org/2000/svg" width="32" height="32" viewBox="0 0 32 32">
<title>line-chart</title>
<path d="M27.219 5.375l1.563 1.25-4.5 5.625-0.719-0.344-3.219-1.594-3.5 5.25-0.594 0.875-0.844-0.625-3.406-2.563-3.781 2.844-0.469-0.125-4-1 0.5-1.938 3.531 0.875 3.625-2.719 0.594-0.438 0.594 0.438 3.156 2.375 3.406-5.125 0.5-0.719 0.781 0.375 3.281 1.656zM20.063 18.313l0.781 1.125 3.25 4.844 3.125-3.906 1.563 1.25-4 5-0.844 1.063-0.781-1.125-3.25-4.844-3.125 3.906-0.594 0.75-0.781-0.563-3.406-2.563-3.406 2.563-0.5 0.344-0.531-0.25-4-2 0.875-1.813 3.469 1.719 3.5-2.625 0.594-0.438 0.594 0.438 3.219 2.438 3.406-4.25z"></path>
</svg>
