<!-- Generated by IcoMoon.io -->
<svg version="1.1" xmlns="http://www.w3.org/2000/svg" width="32" height="32" viewBox="0 0 32 32">
<title>linkedin-square</title>
<path d="M7.5 5h17c1.369 0 2.5 1.131 2.5 2.5v17c0 1.369-1.131 2.5-2.5 2.5h-17c-1.369 0-2.5-1.131-2.5-2.5v-17c0-1.369 1.131-2.5 2.5-2.5zM7.5 7c-0.287 0-0.5 0.213-0.5 0.5v17c0 0.287 0.213 0.5 0.5 0.5h17c0.287 0 0.5-0.213 0.5-0.5v-17c0-0.287-0.213-0.5-0.5-0.5h-17zM10.438 8.719c0.948 0 1.719 0.771 1.719 1.719s-0.771 1.719-1.719 1.719c-0.951 0-1.719-0.77-1.719-1.719s0.769-1.719 1.719-1.719zM19.469 13.281c2.987 0 3.531 1.944 3.531 4.5v5.219h-2.938v-4.625c0-1.101-0.018-2.5-1.531-2.5-1.535 0-1.781 1.2-1.781 2.438v4.688h-2.938v-9.5h2.813v1.313h0.063c0.394-0.746 1.346-1.531 2.781-1.531zM9 13.5h2.969v9.5h-2.969v-9.5z"></path>
</svg>
