<!-- Generated by IcoMoon.io -->
<svg version="1.1" xmlns="http://www.w3.org/2000/svg" width="32" height="32" viewBox="0 0 32 32">
<title>linux</title>
<path d="M16 5c5.511 0 10 4.489 10 10v8c0 1.117 0.883 2 2 2v2c-2.197 0-4-1.803-4-4v-8c0-2.413-1.070-4.567-2.75-6.031 0.002 0.227-0.041 0.447-0.188 0.594-0.39 0.39-1.195 0.242-1.781-0.344-0.545-0.545-0.698-1.275-0.406-1.688-0.892-0.342-1.86-0.531-2.875-0.531-4.431 0-8 3.569-8 8v8c0 2.197-1.803 4-4 4v-2c1.117 0 2-0.883 2-2v-8c0-5.511 4.489-10 10-10zM13 11c1.331 0 2.37 0.652 3 1.5 0.631-0.848 1.669-1.5 3-1.5 1.521 0 2.668 0.852 3.25 1.875s0.75 2.173 0.75 3.125c0 1.355-0.415 2.347-0.875 2.969-0.043 0.058-0.080 0.103-0.125 0.156 0.613 0.656 1 1.467 1 2.375 0 1.43-0.973 2.599-2.25 3.344s-2.936 1.156-4.75 1.156-3.473-0.411-4.75-1.156-2.25-1.914-2.25-3.344c0-0.908 0.387-1.719 1-2.375-0.045-0.053-0.082-0.098-0.125-0.156-0.46-0.622-0.875-1.614-0.875-2.969 0-0.952 0.168-2.102 0.75-3.125s1.729-1.875 3.25-1.875zM13 13c-0.866 0-1.21 0.312-1.531 0.875s-0.469 1.42-0.469 2.125c0 0.963 0.278 1.482 0.5 1.781 0.072 0.097 0.111 0.141 0.156 0.188 0.225-0.113 0.444-0.25 0.688-0.344-0.212-0.275-0.344-0.671-0.344-1.125 0-0.828 0.448-1.5 1-1.5s1 0.672 1 1.5c0 0.264-0.076 0.503-0.156 0.719 0.688-0.138 1.397-0.219 2.156-0.219s1.468 0.081 2.156 0.219c-0.080-0.216-0.156-0.455-0.156-0.719 0-0.828 0.448-1.5 1-1.5s1 0.672 1 1.5c0 0.454-0.132 0.85-0.344 1.125 0.244 0.094 0.463 0.231 0.688 0.344 0.046-0.046 0.084-0.091 0.156-0.188 0.221-0.299 0.5-0.818 0.5-1.781 0-0.705-0.148-1.562-0.469-2.125s-0.665-0.875-1.531-0.875-1.21 0.312-1.531 0.875-0.469 1.42-0.469 2.125h-2c0-0.705-0.148-1.562-0.469-2.125s-0.665-0.875-1.531-0.875zM16 19c-1.499 0-2.855 0.353-3.75 0.875s-1.25 1.122-1.25 1.625 0.355 1.103 1.25 1.625 2.251 0.875 3.75 0.875 2.855-0.353 3.75-0.875 1.25-1.122 1.25-1.625-0.355-1.103-1.25-1.625-2.251-0.875-3.75-0.875zM13.5 20.438c0 0 0.953 0.563 2.5 0.563s2.5-0.563 2.5-0.563l1 1.719s-1.427 0.844-3.5 0.844-3.5-0.844-3.5-0.844z"></path>
</svg>
