<!-- Generated by IcoMoon.io -->
<svg version="1.1" xmlns="http://www.w3.org/2000/svg" width="32" height="32" viewBox="0 0 32 32">
<title>magic</title>
<path d="M20.875 2.563l2.531 2.531h3.5v3.5l2.531 2.531-0.75 0.688-1.781 1.688v3.594h-3.5l-1.813 1.719-0.719 0.688-2.188-2.188-11.688 11.656-0.688 0.719-3.281-3.281-0.719-0.688 0.719-0.719 11.656-11.688-2.188-2.188 0.688-0.719 1.719-1.813v-3.5h3.594l1.688-1.781zM20.906 5.438l-1.281 1.344-0.281 0.313h-2.438v2.313l-0.281 0.281-1.344 1.406 0.844 0.844 3.813-3.844 0.719-0.688 3.969 3.969-4.531 4.531 0.813 0.813 1.406-1.344 0.281-0.281h2.313v-2.438l0.313-0.281 1.344-1.281-1.375-1.375-0.281-0.313v-2.313h-2.313l-0.313-0.281zM20.656 10.219l-15.5 15.5 1.156 1.156 15.469-15.5zM19 21h2v1h1v2h-1v1h-2v-1h-1v-2h1v-1zM25 23h2v2h2v2h-2v2h-2v-2h-2v-2h2v-2z"></path>
</svg>
