<!-- Generated by IcoMoon.io -->
<svg version="1.1" xmlns="http://www.w3.org/2000/svg" width="32" height="32" viewBox="0 0 32 32">
<title>male</title>
<path d="M17 4h0.625l1.063 2.125c1.277 0.14 2.567 0.598 3.531 1.719 1.138 1.322 1.781 3.332 1.781 6.156v0.906c0.571 0.546 1 1.247 1 2.094 0 1.26-0.891 2.154-2 2.594-0.369 1.168-0.804 2.393-1.25 3.438-0.487 1.141-0.894 2.047-1.5 2.688-2.87 3.036-7.63 3.036-10.5 0-0.606-0.64-1.045-1.547-1.531-2.688-0.446-1.045-0.849-2.27-1.219-3.438-1.109-0.439-2-1.334-2-2.594 0-0.851 0.428-1.549 1-2.094v-0.906c0-3.042 0.821-5.612 2.688-7.375s4.647-2.625 8.313-2.625zM16.406 6.063c-2.973 0.1-5.062 0.789-6.344 2-1.378 1.302-2.063 3.241-2.063 5.938v1.844l-0.5 0.281c-0.307 0.177-0.5 0.501-0.5 0.875 0 0.534 0.384 0.957 0.906 1l0.688 0.031 0.188 0.656c0.37 1.203 0.831 2.474 1.281 3.531s0.967 1.957 1.125 2.125c2.128 2.252 5.497 2.252 7.625 0 0.158-0.168 0.674-1.068 1.125-2.125s0.911-2.328 1.281-3.531l0.188-0.656 0.688-0.031c0.524-0.043 0.906-0.466 0.906-1 0-0.38-0.196-0.699-0.5-0.875l-0.5-0.281v-1.844c0-2.518-0.587-4.001-1.313-4.844-0.352-0.409-0.753-0.691-1.188-0.875 0.024 0.149 0.058 0.291 0.063 0.438 0.019 0.67-0.279 1.354-0.75 1.75-0.941 0.792-2.050 0.727-3.125 0.781s-2.174 0.128-2.813 0.375-0.867 0.389-0.875 1.375h-2c0.013-1.623 1.015-2.808 2.156-3.25s2.365-0.416 3.406-0.469 1.882-0.271 1.969-0.344c0.043-0.037 0.037 0.047 0.031-0.156s-0.135-0.677-0.469-1.344zM12 16c0.552 0 1 0.448 1 1s-0.448 1-1 1-1-0.448-1-1 0.448-1 1-1zM18 16c0.552 0 1 0.448 1 1s-0.448 1-1 1-1-0.448-1-1 0.448-1 1-1z"></path>
</svg>
