<!-- Generated by IcoMoon.io -->
<svg version="1.1" xmlns="http://www.w3.org/2000/svg" width="32" height="32" viewBox="0 0 32 32">
<title>mars-double</title>
<path d="M14 3h9v6h6v9h-2v-5.563l-5.406 5.406c0.893 1.199 1.406 2.634 1.406 4.156 0 1.87-0.74 3.615-2.063 4.938s-3.068 2.063-4.938 2.063c-1.87 0-3.615-0.74-4.938-2.063-0.845-0.845-1.456-1.853-1.781-2.969 0.237 0.021 0.478 0.031 0.719 0.031 0.464 0 0.927-0.048 1.375-0.125 0.248 0.613 0.612 1.174 1.094 1.656 0.944 0.944 2.196 1.469 3.531 1.469s2.587-0.524 3.531-1.469 1.469-2.196 1.469-3.531-0.525-2.587-1.469-3.531-2.196-1.469-3.531-1.469-2.587 0.525-3.531 1.469c-0.346 0.345-0.617 0.739-0.844 1.156-0.723 0.308-1.537 0.406-2.313 0.281 0.334-1.063 0.939-2.033 1.75-2.844 1.322-1.322 3.067-2.063 4.938-2.063 1.522 0 2.957 0.514 4.156 1.406l5.406-5.406h-4.563v-4.563l-5.406 5.406c0.497 0.669 0.894 1.395 1.125 2.188-0.237-0.021-0.478-0.031-0.719-0.031-0.464 0-0.927 0.048-1.375 0.125-0.248-0.613-0.612-1.174-1.094-1.656-0.944-0.944-2.196-1.469-3.531-1.469s-2.587 0.524-3.531 1.469-1.469 2.196-1.469 3.531 0.525 2.587 1.469 3.531 2.196 1.469 3.531 1.469 2.587-0.525 3.531-1.469c0.346-0.345 0.617-0.739 0.844-1.156 0.723-0.308 1.537-0.407 2.313-0.281-0.334 1.063-0.939 2.033-1.75 2.844-1.322 1.322-3.067 2.063-4.938 2.063s-3.615-0.739-4.938-2.063-2.063-3.067-2.063-4.938 0.74-3.615 2.063-4.938 3.067-2.063 4.938-2.063c1.522 0 2.957 0.514 4.156 1.406l5.406-5.406h-5.563v-2z"></path>
</svg>
