<!-- Generated by IcoMoon.io -->
<svg version="1.1" xmlns="http://www.w3.org/2000/svg" width="32" height="32" viewBox="0 0 32 32">
<title>mars-stroke</title>
<path d="M17 4h11v11h-2v-7.563l-4.563 4.563 2.281 2.281-1.438 1.438-2.281-2.281-1.688 1.688c1.044 1.352 1.688 3.042 1.688 4.875 0 4.406-3.594 8-8 8s-8-3.594-8-8 3.594-8 8-8c1.833 0 3.523 0.644 4.875 1.688l1.688-1.688-2.281-2.281 1.438-1.438 2.281 2.281 4.563-4.563h-7.563v-2zM12 14c-3.326 0-6 2.674-6 6s2.674 6 6 6 6-2.674 6-6-2.674-6-6-6z"></path>
</svg>
