<!-- Generated by IcoMoon.io -->
<svg version="1.1" xmlns="http://www.w3.org/2000/svg" width="32" height="32" viewBox="0 0 32 32">
<title>meanpath</title>
<path d="M3 11h3c0.767 0 1.467 0.3 2 0.781 0.533-0.481 1.233-0.781 2-0.781h3c1.645 0 3 1.355 3 3v7h-2v-7c0-0.565-0.435-1-1-1h-3c-0.565 0-1 0.435-1 1v7h-2v-7c0-0.565-0.435-1-1-1h-3c-0.565 0-1 0.435-1 1v7h-2v-7c0-1.645 1.355-3 3-3zM21 11h6c1.645 0 3 1.355 3 3v4c0 1.645-1.355 3-3 3h-6c-0.353 0-0.684-0.073-1-0.188v4.188h-2v-11c0-1.645 1.355-3 3-3zM21 13c-0.565 0-1 0.435-1 1v4c0 0.565 0.435 1 1 1h6c0.565 0 1-0.435 1-1v-4c0-0.565-0.435-1-1-1h-6z"></path>
</svg>
