<!-- Generated by IcoMoon.io -->
<svg version="1.1" xmlns="http://www.w3.org/2000/svg" width="32" height="32" viewBox="0 0 32 32">
<title>medium</title>
<path d="M25 10.358h-0.791c-0.294 0-0.709 0.428-0.709 0.702v9.934c0 0.274 0.415 0.648 0.709 0.648h0.791v2.358h-7.167v-2.358h1.5v-10.442h-0.073l-3.503 12.8h-2.712l-3.458-12.8h-0.087v10.442h1.5v2.358h-6v-2.358h0.768c0.316 0 0.732-0.374 0.732-0.648v-9.934c0-0.274-0.415-0.702-0.732-0.702h-0.768v-2.358h7.503l2.463 9.263h0.068l2.486-9.263h7.48v2.358z"></path>
</svg>
