<!-- Generated by IcoMoon.io -->
<svg version="1.1" xmlns="http://www.w3.org/2000/svg" width="32" height="32" viewBox="0 0 32 32">
<title>mercury</title>
<path d="M11 2h2c0 1.668 1.332 3 3 3s3-1.332 3-3h2c0 1.476-0.661 2.801-1.688 3.719 2.756 1.265 4.688 4.059 4.688 7.281 0 4.065-3.067 7.439-7 7.938v3.063h4v2h-4v4h-2v-4h-4v-2h4v-3.063c-3.933-0.499-7-3.873-7-7.938 0-3.223 1.931-6.016 4.688-7.281-1.026-0.917-1.688-2.243-1.688-3.719zM16 7c-3.326 0-6 2.674-6 6s2.674 6 6 6 6-2.674 6-6-2.674-6-6-6z"></path>
</svg>
