<!-- Generated by IcoMoon.io -->
<svg version="1.1" xmlns="http://www.w3.org/2000/svg" width="32" height="32" viewBox="0 0 32 32">
<title>money</title>
<path d="M27.938 4.75l0.75 4.25h-2.031l-0.344-1.938-11.313 1.938h-11.844zM2 10h28v16h-28v-16zM6.938 12c0.033 0.163 0.063 0.327 0.063 0.5 0 1.381-1.119 2.5-2.5 2.5-0.173 0-0.337-0.029-0.5-0.063v6.125c0.163-0.033 0.327-0.063 0.5-0.063 1.381 0 2.5 1.119 2.5 2.5 0 0.173-0.029 0.337-0.063 0.5h18.125c-0.033-0.163-0.063-0.327-0.063-0.5 0-1.381 1.119-2.5 2.5-2.5 0.173 0 0.337 0.029 0.5 0.063v-6.125c-0.163 0.033-0.327 0.063-0.5 0.063-1.381 0-2.5-1.119-2.5-2.5 0-0.173 0.029-0.337 0.063-0.5h-18.125zM16 13c2.75 0 5 2.25 5 5s-2.25 5-5 5-5-2.25-5-5 2.25-5 5-5zM16 15c-1.669 0-3 1.331-3 3s1.331 3 3 3 3-1.331 3-3-1.331-3-3-3z"></path>
</svg>
