<!-- Generated by IcoMoon.io -->
<svg version="1.1" xmlns="http://www.w3.org/2000/svg" width="32" height="32" viewBox="0 0 32 32">
<title>mortar-board</title>
<path d="M16 6.781l0.313 0.094 15.344 5.125-2.844 0.938-2.813 0.938v5.125c0 0.82-0.499 1.5-1.094 1.969s-1.332 0.798-2.219 1.094c-1.773 0.591-4.112 0.938-6.688 0.938s-4.914-0.346-6.688-0.938c-0.887-0.296-1.624-0.625-2.219-1.094s-1.094-1.149-1.094-1.969v-5.125l-2-0.656v8.063c0.597 0.346 1 0.979 1 1.719 0 1.105-0.895 2-2 2s-2-0.895-2-2c0-0.74 0.403-1.373 1-1.719v-8.75l-1.656-0.531 2.844-0.938 12.5-4.188zM16 8.875l-9.375 3.125 9.375 3.125 9.375-3.125zM8 14.563v4.438c0 0.009-0.004 0.126 0.313 0.375s0.883 0.565 1.625 0.813c1.484 0.495 3.667 0.813 6.063 0.813s4.579-0.318 6.063-0.813c0.742-0.247 1.309-0.563 1.625-0.813s0.313-0.366 0.313-0.375v-4.438l-7.688 2.563-0.313 0.094-0.313-0.094z"></path>
</svg>
