<!-- Generated by IcoMoon.io -->
<svg version="1.1" xmlns="http://www.w3.org/2000/svg" width="32" height="32" viewBox="0 0 32 32">
<title>motorcycle</title>
<path d="M22.5 6h2.5v3h-1.625l1.844 6.063c0.258-0.035 0.514-0.063 0.781-0.063 3.309 0 6 2.691 6 6s-2.691 6-6 6-6-2.691-6-6c0-1.986 0.978-3.752 2.469-4.844l0.625 2.094c-0.682 0.717-1.094 1.684-1.094 2.75 0 2.206 1.794 4 4 4s4-1.794 4-4-1.794-4-4-4c-0.055 0-0.102 0.028-0.156 0.031l1.125 3.688-1.938 0.563-2.125-6.938c-0.204 0.307-0.427 0.627-0.688 0.969-0.951 1.248-2.305 2.578-3.969 3.344l-1.094 2.219h0.031c-0.336 0.682-1.054 1.125-1.813 1.125h-3.469c-0.474 2.839-2.935 5-5.906 5-3.309 0-6-2.691-6-6s2.691-6 6-6c0.607 0 1.198 0.113 1.75 0.281l0.875-1.813c-0.556-0.221-1.316-0.469-2.125-0.469-1.631 0-3.063 0.656-3.063 0.656l-0.875-1.813s1.779-0.844 3.938-0.844c1.951 0 3.331 0.772 3.719 1h3.375c0.484-0.592 1.796-2 4.406-2h3.563l-0.313-1h-4.25v-2h4.094c0.204-0.586 0.751-1 1.406-1zM18 12c-2.187 0-3.156 1.563-3.156 1.563l-0.313 0.438h-3.906l-1.094 2.156c0.966 0.707 1.717 1.694 2.125 2.844h-2.219c-0.694-1.19-1.963-2-3.438-2-2.206 0-4 1.794-4 4s1.794 4 4 4c1.861 0 3.398-1.277 3.844-3h-3.844v-2h9.375l1.219-2.438 0.156-0.375 0.406-0.125c1.245-0.453 2.539-1.748 3.469-2.969 0.783-1.028 1.228-1.824 1.375-2.094h-4z"></path>
</svg>
