<!-- Generated by IcoMoon.io -->
<svg version="1.1" xmlns="http://www.w3.org/2000/svg" width="32" height="32" viewBox="0 0 32 32">
<title>odnoklassniki</title>
<path d="M15 8.328c-1.295 0-2.351 1.054-2.351 2.351 0 1.295 1.056 2.35 2.351 2.35 1.296 0 2.351-1.055 2.351-2.35 0-1.296-1.054-2.351-2.351-2.351zM15 16.355c-3.131 0-5.678-2.546-5.678-5.676 0-3.131 2.547-5.678 5.678-5.678s5.678 2.547 5.678 5.678c0 3.13-2.546 5.676-5.678 5.676zM17.297 20.986c0 0 3.174 3.174 3.174 3.174 0.65 0.649 0.65 1.703 0 2.352s-1.703 0.65-2.352 0l-3.121-3.119-3.118 3.119c-0.325 0.325-0.751 0.487-1.177 0.487s-0.851-0.163-1.176-0.487c-0.65-0.65-0.65-1.703-0.001-2.352l3.174-3.174c-1.156-0.263-2.271-0.721-3.297-1.366-0.777-0.49-1.011-1.516-0.521-2.294 0.488-0.779 1.515-1.013 2.293-0.523 2.324 1.462 5.319 1.463 7.644 0 0.778-0.49 1.805-0.256 2.294 0.523 0.49 0.777 0.255 1.804-0.521 2.294-1.026 0.645-2.141 1.102-3.297 1.366z"></path>
</svg>
