<!-- Generated by IcoMoon.io -->
<svg version="1.1" xmlns="http://www.w3.org/2000/svg" width="32" height="32" viewBox="0 0 32 32">
<title>opencart</title>
<path d="M0 5.25c3.313 3.103 7.167 4.438 14.219 4.438s15.781-0.413 15.781 1.844c0 1.109-1.177 2.22-3.281 4.094s-5.875 5.063-5.875 5.063c0-0.956 5.438-5.633 5.438-7.125 0-1.989-8.165-1.673-11.875-1.75-6.291-0.129-11.471-0.997-14.406-6.563zM7.875 22.531c1.169 0 2.094 0.925 2.094 2.094s-0.925 2.125-2.094 2.125-2.125-0.956-2.125-2.125 0.956-2.094 2.125-2.094zM17.625 22.531c1.169 0 2.125 0.925 2.125 2.094s-0.956 2.125-2.125 2.125-2.094-0.956-2.094-2.125 0.925-2.094 2.094-2.094z"></path>
</svg>
