<!-- Generated by IcoMoon.io -->
<svg version="1.1" xmlns="http://www.w3.org/2000/svg" width="32" height="32" viewBox="0 0 32 32">
<title>opera</title>
<path d="M15.969 4c6.243 0 11.031 4.883 11.031 11.906 0 6.286-4.474 12.094-11.031 12.094-6.507 0-10.969-5.81-10.969-12.094-0.001-6.962 4.672-11.906 10.969-11.906zM15.969 6c-5.293 0-8.97 3.794-8.969 9.906 0 5.356 3.654 10.094 8.969 10.094 5.377 0 9.031-4.74 9.031-10.094 0-6.154-3.788-9.906-9.031-9.906zM15.969 6.313c1.028 0 1.953 0.371 2.625 1s1.095 1.473 1.406 2.375c0.623 1.804 0.781 3.966 0.781 6.031 0 1.779-0.084 4.008-0.656 5.938-0.286 0.965-0.693 1.884-1.375 2.594s-1.659 1.188-2.781 1.188c-1.115 0-2.111-0.473-2.781-1.188s-1.065-1.628-1.344-2.594c-0.557-1.931-0.626-4.176-0.625-5.938 0-1.923 0.122-4.107 0.719-5.938 0.298-0.915 0.715-1.75 1.375-2.406s1.614-1.063 2.656-1.063zM15.969 8.313c-0.555 0-0.88 0.163-1.219 0.5s-0.671 0.872-0.906 1.594c-0.47 1.444-0.625 3.485-0.625 5.313-0.001 1.706 0.083 3.822 0.531 5.375 0.224 0.776 0.554 1.406 0.906 1.781s0.704 0.563 1.313 0.563c0.626 0 0.983-0.187 1.344-0.563s0.677-1.008 0.906-1.781c0.459-1.546 0.563-3.656 0.563-5.375 0-1.963-0.173-4.005-0.656-5.406-0.242-0.7-0.564-1.211-0.906-1.531s-0.68-0.469-1.25-0.469z"></path>
</svg>
