<!-- Generated by IcoMoon.io -->
<svg version="1.1" xmlns="http://www.w3.org/2000/svg" width="32" height="32" viewBox="0 0 32 32">
<title>optin-monster</title>
<path d="M16.844 3.25c3.216 0 3.281 2.938 3.281 2.938s-1.403-1.813-3.719-1.813c-1.35 0-2.406 0.656-2.406 0.656s0.74-1.781 2.844-1.781zM14.875 5.531c5.567 0 8.063 2.707 9.188 5.25 0.219 0.025 0.532 0.054 0.781 0.031 0.701-0.063 0.98-0.053 1.031-0.75 0.051-0.696 0.198-1.063 0.844-1.063s1.532 1.386 1.531 2.813c0 1.643-0.349 3.091-3.281 3.156v0.156s-0.853 0.034-1.219 0.594c-0.172 0.059-0.31 0.133-0.438 0.219 0.388 0.035 0.705 0.078 0.875 0.094 0.26-0.359 0.645-0.406 1-0.406 0.026-0.173 0.261-0.531 0.594-0.531 0.572 0 0.844 0.813 0.844 0.813s1.25 0.376 1.25 1.719c0 1.549-1.388 2.313-2.281 2.313v1.031c0.244-0.214 0.482-0.313 0.688-0.313 0.212 0 0.429 0 0.625 0.031 0.099-0.105 0.28-0.281 0.5-0.281 0.277 0 0.336 0.332 0.344 0.531 0.291 0.122 0.576 0.261 0.813 0.438 0.098-0.051 0.213-0.094 0.313-0.094 0.17 0 0.188 0.177 0.188 0.281 0 0.052 0.014 0.147 0 0.25 0.208 0.219 0.363 0.451 0.5 0.688 0.077-0.027 0.206-0.063 0.281-0.063 0.123 0 0.156 0.040 0.156 0.125 0 0.062-0.071 0.367-0.156 0.563 0.066 0.208 0.094 0.381 0.094 0.563 0 1.152-1.828 3.063-3.688 3.063-0.214 0-1.446-0.209-1.938-1.188-0.164 0.005-5.843 0.188-8.438 0.188-2.606 0-8.109-0.153-8.219-0.156-0.502 0.952-1.694 1.156-1.906 1.156-1.86 0-3.688-1.911-3.688-3.063 0-0.182 0.028-0.386 0.094-0.594-0.084-0.194-0.155-0.468-0.156-0.531 0-0.085 0.033-0.125 0.156-0.125 0.074 0 0.204 0.036 0.281 0.063 0.137-0.236 0.292-0.468 0.5-0.688-0.014-0.102 0-0.198 0-0.25 0-0.104 0.018-0.281 0.188-0.281 0.1 0 0.214 0.043 0.313 0.094 0.237-0.176 0.522-0.316 0.813-0.438 0.008-0.199 0.068-0.531 0.344-0.531 0.22 0 0.401 0.176 0.5 0.281 0.196-0.031 0.413-0.063 0.625-0.063 0.205 0 0.444 0.13 0.688 0.344v-1.031c-0.893 0-2.281-0.764-2.281-2.313 0-1.343 1.25-1.719 1.25-1.719s0.272-0.813 0.844-0.813c0.333 0 0.568 0.358 0.594 0.531 0.343 0 0.709 0.050 0.969 0.375l0.813-0.094c-0.117-0.082-0.224-0.151-0.344-0.188-0.26-0.565-1.219-0.625-1.219-0.625s-0.003-0.095 0-0.125c-2.847-0.094-3.219-1.499-3.219-3.125 0-1.428 0.917-2.844 1.563-2.844s0.763 0.397 0.813 1.094c0.051 0.696 0.33 0.655 1.031 0.719 0.053 0.005 0.126-0 0.188 0 0.346-0.337 0.764-0.687 1.313-1-0.582-0.064-2.188 0.219-2.188 0.219s2.074-2.615 6.406-3.219c-1.164-0.518-2.781-0.781-2.781-0.781s1.615-0.5 4.719-0.5zM16.063 6.531c-2.055 0-3.75 1.664-3.75 3.719s1.695 3.719 3.75 3.719 3.719-1.664 3.719-3.719-1.664-3.719-3.719-3.719zM16.125 9.094c1.394 0 2.532 1.024 2.531 2.313s-1.137 2.344-2.531 2.344-2.531-1.055-2.531-2.344c0-0.192 0.015-0.352 0.063-0.531 0.206 0.343 0.613 0.563 1.063 0.563 0.664 0 1.188-0.503 1.188-1.125 0-0.477-0.303-0.899-0.75-1.063 0.298-0.114 0.627-0.156 0.969-0.156zM5.469 9.688c-0.233 0-1.156 0.435-1.156 2.75 0.16-0.329 0.385-1.228 1.5-1.781 0 0-0.083-0.227-0.094-0.375s-0.016-0.594-0.25-0.594zM26.594 9.719c-0.234 0-0.239 0.413-0.25 0.563-0.011 0.148-0.094 0.375-0.094 0.375 1.115 0.552 1.371 1.451 1.531 1.781 0-2.314-0.953-2.719-1.188-2.719zM6.031 11c-0.934 0.329-1.395 1.291-1.469 2.406 0.308 0.744 1.563 0.938 1.563 0.938s-0.094-0.011-0.094-1.063 0.656-2 0.656-2c-0.435-0.031-0.539-0.185-0.656-0.281zM26.063 11c-0.116 0.095-0.253 0.249-0.688 0.281 0 0 0.656 0.949 0.656 2s-0.094 1.063-0.094 1.063 1.256-0.193 1.563-0.938c-0.074-1.114-0.503-2.077-1.438-2.406zM24.281 11.344c0.482 1.293 0.613 2.439 0.656 3.125l0.625-0.031s0.094-0.389 0.094-1.281-0.75-1.813-0.75-1.813h-0.625zM7.875 11.438c-0.305 0.084-0.647 0.188-0.969 0.313-0.225 0.344-0.5 0.84-0.5 1.406 0 0.892 0.124 1.281 0.125 1.281l0.563 0.031c0.091-0.625 0.289-1.596 0.656-2.469l0.031-0.063zM17.75 14.938c-0.461 0-1.5 0.031-1.5 0.031s0.063 1.131 0.125 1.688c0.056 0.505 1.006 0.5 1.375 0.5s0.29-0.063 0.844-0.063c0.465 0 0.474-0.203 0.5-0.406 0.020-0.158 0.031-0.439 0.031-0.719 0-0.507-0.063-1-0.063-1s-0.852-0.031-1.313-0.031zM15.563 14.969c-0.224 0.032-2.781 0.031-2.781 0.031s-0.094 0.248-0.094 1.438 0.001 1.281 1.563 1.281c1.509 0 1.352-0.169 1.375-0.5 0.043-0.617 0.031 0.024 0.031-0.719s-0.094-1.531-0.094-1.531zM19.75 14.969c0 0 0.133 0.62 0.188 1.219 0.046 0.501 0.056 1.688 0.406 1.688 1.014 0 1.344-2.268 1.344-2.813-0.148-0.028-1.938-0.094-1.938-0.094zM12.125 15l-1.813 0.094s-0.063 0.38-0.063 0.688c0 1.678 1.193 2.063 1.406 2.063 0.191 0 0.25-0.26 0.25-0.313s0.073-0.578 0.094-0.844 0.125-1.688 0.125-1.688zM9.781 16.469l-1.219 0.125c0.026 0.057 0.063 0.106 0.063 0.156 0 0.255-0.406 0.438-0.406 0.438s0.211 0.16 0.313 0.375c0.59 0.584 1.527 1.465 2.656 2.375 1.61 1.296 4.369 2.413 4.625 2.469 2.663-0.756 4.497-2.114 5.469-2.938 0.761-0.646 1.711-1.539 2.281-2.063 0.098-0.124 0.219-0.219 0.219-0.219s-0.406-0.183-0.406-0.438c0-0.051 0.037-0.099 0.063-0.156-0.201-0.023-0.432-0.047-0.688-0.063h-0.125c-0.266-0.014-0.405-0.028-0.5-0.031 0 0-0.543 1.969-1.75 1.969-0.56 0-0.75-1.219-0.75-1.219s-0.113 0.469-2.031 0.469c-0.97 0-1.313-0.219-1.313-0.219-0.039 0.223-0.011 0.75-2.219 0.75-0.585 0-1.451-0.037-1.75-0.563-0.039 0.259-0.115 0.719-0.594 0.719-0.458 0-1.639-0.588-1.938-1.938zM23.656 18.25c-0.668 0.633-1.613 1.522-2.594 2.25-0.807 0.599-1.644 1.11-2.469 1.531 0.703 0.23 3.977 1.327 5.531 2.406 0.049-0.968 0.341-1.875 0.75-2.563v-2.094c-0.247-0.133-0.344-0.313-0.344-0.313s-0.75-0.128-0.75-0.5c0-0.279 0.281-0.375 0.281-0.375l-0.031-0.156s-0.197-0.054-0.375-0.188zM8.313 18.281c-0.169 0.113-0.344 0.156-0.344 0.156l-0.031 0.156s0.281 0.096 0.281 0.375c0 0.372-0.75 0.5-0.75 0.5s-0.096 0.179-0.344 0.313v2.094c0.404 0.68 0.696 1.575 0.75 2.531 0.257-0.153 2.694-1.577 5.313-2.406-0.94-0.507-1.869-1.080-2.375-1.5-0.796-0.661-2.070-1.821-2.5-2.219zM5.688 21.938c-1.312 0-2.938 1.348-2.938 2.594 0 0.52 1.786 1.906 2.938 1.906 0.774 0 1.906-0.605 1.906-1.625 0-0.529-0.669-2.875-1.906-2.875zM26.313 21.938c-1.237 0-1.906 2.346-1.906 2.875 0 1.020 1.132 1.625 1.906 1.625 1.152 0 2.938-1.386 2.938-1.906 0-1.246-1.625-2.594-2.938-2.594zM5.719 22.344c0.698 0 0.906 0.877 0.906 1.094 0 0.982-1.79 1.813-2.281 1.813-0.141 0-1.125-0.058-1.125-0.813 0-0.868 1.802-2.094 2.5-2.094zM17.938 22.344c-0.766 0.354-1.488 0.637-2.094 0.813-0.383-0.066-1.077-0.391-1.813-0.75-0.158 0.055-3.688 1.285-5.5 2.5 0 0 4.227 0.188 7.469 0.188s7.531-0.156 7.531-0.156-1.782-1.069-2.688-1.469c-0.814-0.36-2.533-0.988-2.906-1.125zM26.281 22.344c0.698 0 2.5 1.226 2.5 2.094 0 0.755-0.984 0.813-1.125 0.813-0.491 0.001-2.281-0.831-2.281-1.813 0-0.217 0.208-1.094 0.906-1.094zM6.813 24.375c0.368 0 0.406 0.656 0.406 0.656 0 0.679-0.986 1.063-1.156 1.063s-0.75-0.057-0.75-0.5 1.132-1.219 1.5-1.219zM25.188 24.375c0.368 0 1.5 0.776 1.5 1.219s-0.58 0.5-0.75 0.5-1.156-0.383-1.156-1.063c0 0 0.038-0.656 0.406-0.656z"></path>
</svg>
