<!-- Generated by IcoMoon.io -->
<svg version="1.1" xmlns="http://www.w3.org/2000/svg" width="32" height="32" viewBox="0 0 32 32">
<title>pagelines</title>
<path d="M15.094 4c0 0 3.844 1.242 3.844 4.438 0 1.472-0.489 2.595-0.844 3.25 0.058 1.285 0.018 2.61-0.156 3.938 0.231-0.778 0.818-2.476 1.938-3.5 1.774-1.623 5.031-1.156 5.031-1.156s0.312 1.812-1.625 3.781c-1.887 1.918-5.231 1.314-5.406 1.281-0.248 1.649-0.699 3.275-1.344 4.781 0.807-1.072 2.561-2.938 4.906-2.938 2.477 0 4.094 1.344 4.094 1.344s-1.448 3.656-4.688 3.656c-2.929 0-4.413-1.041-4.688-1.25-0.104 0.209-0.2 0.422-0.313 0.625-1.834 3.311-4.928 5.75-9.375 5.75v-1c4.088 0 6.793-2.136 8.5-5.219 0.034-0.061 0.061-0.126 0.094-0.188-0.596 0.27-1.628 0.625-3.188 0.625-3.841-0.001-5.031-4.281-5.031-4.281s1.857-1.224 3.813-1c3.334 0.381 4.484 2.646 4.844 3.75 0.666-1.488 1.125-3.14 1.375-4.813-0.543 0.132-1.602 0.316-3.188 0.031-2.477-0.444-3.995-2.245-4.313-4.563 0 0 2.36-0.857 4.219-0.188 1.913 0.689 2.945 2.655 3.406 3.781 0.103-0.98 0.124-1.954 0.094-2.906-0.913-0.527-2.566-1.769-2.844-3.75-0.365-2.619 0.844-4.281 0.844-4.281z"></path>
</svg>
