<!-- Generated by IcoMoon.io -->
<svg version="1.1" xmlns="http://www.w3.org/2000/svg" width="32" height="32" viewBox="0 0 32 32">
<title>paypal</title>
<path d="M8.906 5h9.156c1.472 0 3.049 0.535 4.188 1.719 0.615 0.639 1.068 1.482 1.281 2.469 1.108 0.274 2.178 0.852 2.969 1.813 0.974 1.184 1.441 2.934 1 5-0.84 3.931-4.143 6.375-7.906 6.375h-2.688l-1.031 4.813-0.156 0.813h-6.969l0.281-1.219 0.594-2.781h-4.875l0.281-1.219 3.688-17zM10.531 7l-3.281 15h2.844l1.031-4.844 0.156-0.781h4.313c2.941 0 5.277-1.72 5.938-4.813 0.371-1.734-0.031-2.754-0.719-3.469s-1.77-1.094-2.75-1.094h-7.531zM13.063 8.469h3.188c0.887 0 1.722 0.413 2.219 1.094 0.485 0.665 0.627 1.561 0.406 2.438-0.005 0.021 0.006 0.042 0 0.063h-0.031c-0.437 1.739-1.973 3.031-3.75 3.031h-3.531l0.281-1.219 1.031-4.625zM14.656 10.469l-0.594 2.625h1.031c0.701 0 1.656-0.722 1.844-1.531v-0.031c0.107-0.394 0.022-0.653-0.094-0.813s-0.281-0.25-0.594-0.25h-1.594zM23.594 11.344c-0.027 0.218-0.045 0.43-0.094 0.656-0.84 3.931-4.143 6.375-7.906 6.375h-2.688l-1.031 4.813-0.156 0.813h-0.031l-0.438 2h2.844l1.031-4.844 0.156-0.781h4.313c2.941 0 5.277-1.72 5.938-4.813 0.342-1.598 0.020-2.574-0.563-3.281-0.353-0.428-0.846-0.721-1.375-0.938z"></path>
</svg>
