<!-- Generated by IcoMoon.io -->
<svg version="1.1" xmlns="http://www.w3.org/2000/svg" width="32" height="32" viewBox="0 0 32 32">
<title>pencil-square</title>
<path d="M25 4.031c0.765 0 1.517 0.298 2.094 0.875 1.154 1.154 1.154 3.034 0 4.188l-10.094 10.125-0.313 0.063-3.5 0.688-1.469 0.313 0.313-1.469 0.688-3.5 0.063-0.313 0.219-0.219 9.906-9.875c0.577-0.577 1.329-0.875 2.094-0.875zM25 5.969c-0.235 0-0.464 0.121-0.688 0.344l-9.688 9.688-0.344 1.719 1.719-0.344 9.688-9.688c0.446-0.446 0.446-0.929 0-1.375-0.223-0.223-0.453-0.344-0.688-0.344zM4 8h13.188l-2 2h-9.188v16h16v-9.188l2-2v13.188h-20v-20z"></path>
</svg>
