<!-- Generated by IcoMoon.io -->
<svg version="1.1" xmlns="http://www.w3.org/2000/svg" width="32" height="32" viewBox="0 0 32 32">
<title>phone</title>
<path d="M8.656 3c0.523 0 1.041 0.189 1.469 0.531l0.063 0.031 0.031 0.031 4.094 4.219-0.031 0.031c0.886 0.826 0.873 2.221 0.031 3.063l-2 2c0.307 0.705 1.146 2.501 2.781 4.063 1.647 1.573 3.371 2.467 4.094 2.813l2-2c0.83-0.83 2.295-0.83 3.125 0l0.031 0.063 4.063 4.063c0.83 0.83 0.83 2.264 0 3.094l-3.156 3.156c-0.938 0.804-2.253 1.093-3.469 0.688h-0.031c-2.347-0.918-7.094-3.001-11.344-7.25-4.233-4.233-6.403-8.916-7.25-11.344-0.002-0.006 0.002-0.025 0-0.031-0.419-1.152-0.12-2.484 0.844-3.375l-0.031-0.031 3.156-3.25 0.063-0.031c0.428-0.342 0.945-0.531 1.469-0.531zM8.656 5c-0.073 0-0.146 0.036-0.219 0.094l-3.094 3.156c-0.355 0.304-0.465 0.906-0.313 1.313 0.758 2.178 2.825 6.669 6.781 10.625 3.924 3.924 8.326 5.86 10.594 6.75 0.584 0.195 1.069 0.115 1.531-0.281l3.063-3.063c0.17-0.17 0.17-0.111 0-0.281l-4.094-4.094c-0.17-0.17-0.142-0.17-0.313 0l-2.969 2.969-0.625-0.281s-2.739-1.16-5.063-3.281l-0.219-0.188c-2.412-2.303-3.563-5.375-3.563-5.375l-0.219-0.625 0.469-0.438 2.5-2.5c0.123-0.123 0.055-0.225 0.063-0.219l-0.094-0.094-4-4.094c-0.072-0.058-0.146-0.094-0.219-0.094z"></path>
</svg>
