<!-- Generated by IcoMoon.io -->
<svg version="1.1" xmlns="http://www.w3.org/2000/svg" width="32" height="32" viewBox="0 0 32 32">
<title>pied-piper-alt</title>
<path d="M30.188 1.438c-1.211 6.468-7.742 8.527-10.406 8.75-0.053 0.347 0.182 0.404 0.656 1.25-0.092 0.198-0.133 0.357-0.438 0.438-0.893-1.103-0.876-1.281-2.531-1.281-2.594 0-3.554 0.514-3.844 0.625 0.243-0.893 1.399-1.119 2.406-1.781 0.834-0.548 1.292-1.273 2.063-2.063 0.338 0.147 0.687 1.358 1.656 1.25v1.094c7.73-2.148 9.43-6.626 10.438-8.281zM17.031 11.031c2.445 0 2.203 0.354 3.188 2.875 0.23-0.114 0.463-0.218 0.719-0.344-0.314 2.189-1.813 0.438-1.813 1.906 6.178-0.002 6.306 5.929 11.875 10.438-1.158 0.76-5.434 2.468-5.531 2.5-3.127-3.489-1.279-11.954-5.813-12.25-0.211-0.014-0.375 0.094-0.375 0.094 1.271 1.122 2.063 1.29 2.063 4.188 0 1.175-0.5 3.031-0.5 3.031s-0.898 0.344-2.25 0.344-1.853-0.156-1.906-0.156c-0.020-0.22-0.094-1.751-0.094-2.156 0 0 1.801-1.51 1.844-2.406 0 0-2.214 2.625-4.5 2.625-0.623 0-2.978-3.366-3.156-3.625-0.63-0.919-1.156-1.052-1.281-1.406-0.127 0.020-7.433 1.67-7.844 1.719-0.106 0.013-0.494 0.013-0.625-0.469-0.137-0.507 0.489-0.738 0.688-0.781 0.106-0.023 6.998-1.54 7.219-1.594-0.401-0.726 0.313-0.896 1-1.031 0.471-0.093 0.815-0.714 1.406 0.5 0 0 1.933-0.416 2.125-0.469 0.738-0.206 1.059 0.033 1.156 0.375 0.098 0.342-0.188 0.634-0.438 0.719-0.211 0.072-2.027 0.435-2.844 0.625-0.189 0.701 1.353 2.265 2.75 3.469 1.472 0 3-2.562 3-3.125 0-1.748-2.281-0.771-2.281-1.844 0-0.287 0.114-0.486 0.156-0.563-0.352-0.099-0.692-0.186-1.031-0.281 1.011-1.225 0.478-2.188 0.594-2.625 0.055-0.067 0.6-0.281 2.5-0.281zM12.906 13.906c0.185-0.004 0.555 0.38 0.75 0.469-0.491 0.105-0.956 0.209-1.438 0.313-0.036-0.060-0.258-0.471-0.313-0.563 0.117-0.033 0.211-0.071 0.313-0.094 0.233-0.052 0.443-0.12 0.688-0.125zM13.719 15.906c0.052 0.052 1.468 2.405 1.688 2.719-0.366 0.24-0.746 0.471-1.125 0.719-0.15-0.381-1.241-3.175-1.281-3.25 0.241-0.060 0.472-0.127 0.719-0.188zM20.813 23.938c0.144 0.102 0.134 0.38 0.156 0.469-0.575 0.192-2.972 0.663-3.344 0.719l-0.125-0.75c0.205-0.080 2.953-0.419 3.313-0.438zM16.688 24.125h0.438c0.053 0.418 0.104 0.837 0.156 1.25-0.121 0.046-0.495 0.137-0.594 0.156-0.042-0.225-0.099-1.067 0-1.406zM21.125 24.906c0.119-0.005 1.436 2.555 1.563 2.969-0.103 0.043-2.090 1.039-5.656 0.531-0.002-0.261-0.384-2.213-0.344-2.406 0.12-0.122 1.808-0.982 4.438-1.094z"></path>
</svg>
