<!-- Generated by IcoMoon.io -->
<svg version="1.1" xmlns="http://www.w3.org/2000/svg" width="32" height="32" viewBox="0 0 32 32">
<title>pied-piper</title>
<path d="M13.469 4c3.427 0 6.186 2.915 6.188 6.438 0 0.265-0.032 0.524-0.063 0.781 3.368 0.071 6.063 2.959 6.063 6.438 0 3.522-2.76 6.469-6.188 6.469-0.312 0-0.575-0.14-0.875-0.188v3.156l-0.813 0.156-3.594 0.719-1.188 0.25v-11.375c-0.133-0.039-0.266-0.103-0.406-0.125v3.156l-0.813 0.156-3.594 0.719-1.188 0.25v-16.406h4.125c0.735-0.323 1.498-0.594 2.344-0.594zM13.469 6c-0.677 0-1.309 0.164-1.875 0.469l-0.219 0.125h-2.375v11.969l1.594-0.344v-4.188l1.375 0.563c0.469 0.194 0.967 0.313 1.5 0.313 2.289 0 4.188-1.973 4.188-4.469-0.001-2.497-1.899-4.438-4.188-4.438zM12.625 6.781c1.887 0 3.313 1.704 3.313 3.625s-1.426 3.625-3.313 3.625c-0.556 0-1.077-0.177-1.531-0.438l-0.5-0.281v-5.813l0.5-0.281c0.454-0.261 0.974-0.438 1.531-0.438zM12.594 8.781v3.25c0.010 0 0.021 0 0.031 0 0.662 0 1.313-0.658 1.313-1.625s-0.651-1.625-1.313-1.625c-0.011 0-0.021-0-0.031 0zM19.469 13.219c-0.146 0-0.298 0.012-0.438 0.031-0.002 0.004-0.029-0.004-0.031 0-0.12 0.256-0.225 0.514-0.375 0.75 1.887 0 3.313 1.704 3.313 3.625s-1.426 3.625-3.313 3.625c-0.556 0-1.077-0.177-1.531-0.438l-0.5-0.281v-4.5c-0.488 0.299-1.033 0.537-1.594 0.688v9.063l1.594-0.344v-4.188l1.375 0.563c0.469 0.194 0.967 0.313 1.5 0.313 2.289 0 4.188-1.973 4.188-4.469s-1.899-4.438-4.188-4.438zM18.594 16v3.25c0.010 0 0.021 0 0.031 0 0.662 0 1.313-0.658 1.313-1.625s-0.651-1.625-1.313-1.625c-0.011 0-0.021-0-0.031 0z"></path>
</svg>
