<!-- Generated by IcoMoon.io -->
<svg version="1.1" xmlns="http://www.w3.org/2000/svg" width="32" height="32" viewBox="0 0 32 32">
<title>pinterest-square</title>
<path d="M16 4c6.627 0 12 5.373 12 12s-5.373 12-12 12c-1.237 0-2.43-0.188-3.553-0.534 0.49-0.797 1.221-2.104 1.492-3.146 0.146-0.562 0.748-2.853 0.748-2.853 0.391 0.746 1.534 1.378 2.75 1.378 3.619 0 6.227-3.328 6.227-7.464 0-3.965-3.235-6.931-7.398-6.931-5.179 0-7.929 3.477-7.929 7.262 0 1.76 0.937 3.951 2.436 4.649 0.227 0.106 0.349 0.060 0.401-0.16 0.040-0.167 0.242-0.982 0.333-1.361 0.029-0.121 0.015-0.225-0.083-0.344-0.496-0.602-0.893-1.708-0.893-2.739 0-2.647 2.004-5.208 5.418-5.208 2.948 0 5.012 2.009 5.012 4.882 0 3.246-1.639 5.495-3.772 5.495-1.178 0-2.060-0.974-1.777-2.169 0.339-1.426 0.994-2.965 0.994-3.995 0-0.921-0.494-1.69-1.518-1.69-1.204 0-2.171 1.245-2.171 2.914 0 1.062 0.359 1.781 0.359 1.781s-1.189 5.029-1.407 5.965c-0.242 1.036-0.147 2.493-0.042 3.442-4.464-1.748-7.627-6.090-7.627-11.174 0-6.627 5.373-12 12-12z"></path>
</svg>
