<!-- Generated by IcoMoon.io -->
<svg version="1.1" xmlns="http://www.w3.org/2000/svg" width="32" height="32" viewBox="0 0 32 32">
<title>plane</title>
<path d="M16 3c1.645 0 3 1.355 3 3v7.344l8.406 3.75 0.594 0.25v4.781l-9-1v1.844l2.563 1.719 0.438 0.281v4.25l-1.188-0.25-4.813-0.969-4.813 0.969-1.188 0.25v-4.25l0.438-0.281 2.563-1.719v-1.844l-9 1v-4.781l0.594-0.25 8.406-3.75v-7.344c0-1.645 1.355-3 3-3zM16 5c-0.565 0-1 0.435-1 1v8.656l-0.594 0.25-8.406 3.75v1.219l9-1v5.188l-0.438 0.281-2.563 1.719v0.719l3.813-0.75 0.188-0.063 0.188 0.063 3.813 0.75v-0.719l-2.563-1.719-0.438-0.281v-5.188l9 1v-1.219l-8.406-3.75-0.594-0.25v-8.656c0-0.565-0.435-1-1-1z"></path>
</svg>
