<!-- Generated by IcoMoon.io -->
<svg version="1.1" xmlns="http://www.w3.org/2000/svg" width="32" height="32" viewBox="0 0 32 32">
<title>plug</title>
<path d="M22 3.594l1.406 1.406-3.969 4 3.563 3.563 4-3.969 1.406 1.406-3.969 4 2.281 2.281-1.438 1.438-0.75-0.75-5.125 5.125c-1.212 1.212-3.194 1.212-4.406 0l-1.844-1.844-7.438 7.469-1.438-1.438 7.469-7.438-1.844-1.844c-1.212-1.212-1.212-3.194 0-4.406l5.125-5.125-0.75-0.75 1.438-1.438 2.281 2.281zM16.438 8.875l-5.125 5.125c-0.387 0.387-0.387 1.206 0 1.594l5.094 5.094c0.387 0.387 1.206 0.387 1.594 0l5.125-5.125z"></path>
</svg>
