<!-- Generated by IcoMoon.io -->
<svg version="1.1" xmlns="http://www.w3.org/2000/svg" width="32" height="32" viewBox="0 0 32 32">
<title>puzzle-piece</title>
<path d="M17 3c2.21 0 4 1.79 4 4h6v7h-2c-1.19 0-2 0.81-2 2s0.81 2 2 2h2v7h-6c0 2.21-1.79 4-4 4s-4-1.79-4-4h-6v-5c-2.21 0-4-1.79-4-4s1.79-4 4-4v-5h6c0-2.21 1.79-4 4-4zM17 5c-1.19 0-2 0.81-2 2v2h-6v5h-2c-1.19 0-2 0.81-2 2s0.81 2 2 2h2v5h6v2c0 1.19 0.81 2 2 2s2-0.81 2-2v-2h6v-3c-2.21 0-4-1.79-4-4s1.79-4 4-4v-3h-6v-2c0-1.19-0.81-2-2-2z"></path>
</svg>
