<!-- Generated by IcoMoon.io -->
<svg version="1.1" xmlns="http://www.w3.org/2000/svg" width="32" height="32" viewBox="0 0 32 32">
<title>px</title>
<path d="M26.201 12.831c3.325 0 4.761 2.725 4.762 5.061 0 2.336-1.612 5.108-4.761 5.108s-5.214-3.048-5.416-3.048c-0.202 0-1.952 3.048-5.428 3.048-2.997 0-4.408-2.772-4.408-3.048 0 0.327-1.172 3.048-4.824 3.048-4.483 0-5.088-3.525-5.088-4.279h2.821c0 0.854 0.831 2.085 2.267 2.085s2.468-1.457 2.468-2.788-0.932-2.512-2.468-2.512c-1.537 0-2.116 1.068-2.116 1.068h-2.531l1.322-7.574h7.821v2.262h-5.781c-0.353 2.060-0.529 3.215-0.529 3.215 0.201 0 0.529-1.080 2.871-1.080 2.897 0 3.665 2.587 3.766 2.587s1.058-3.153 4.408-3.153c3.35 0 5.302 3.153 5.428 3.153s2.091-3.153 5.416-3.153zM19.104 17.939v0-0.002h-0.001c-0.022-0.027-1.946-2.363-3.73-2.363-1.793 0-2.125 1.787-2.125 2.363v0 0.002c0 0.576 0.332 2.363 2.125 2.363 1.784 0 3.708-2.336 3.73-2.363h0.001zM28.349 17.939v0c-0.001-0.577-0.332-2.364-2.125-2.364-1.784 0-3.708 2.336-3.73 2.363h-0.001l0.001 0.001-0.001 0.001h0.001c0.022 0.027 1.946 2.363 3.73 2.363 1.793 0 2.125-1.788 2.125-2.364v0z"></path>
</svg>
