<!-- Generated by IcoMoon.io -->
<svg version="1.1" xmlns="http://www.w3.org/2000/svg" width="32" height="32" viewBox="0 0 32 32">
<title>qq</title>
<path d="M16 5.887c-6.085 0-7.042 5.014-7.126 6.34-0.409 0.476-0.301 1.066-0.301 1.066s-0.29 0.295-0.374 0.789c-0.075 0.44 0.066 0.797 0.066 0.797-0.845 0.817-2.8 2.144-2.8 4.869 0 1.315 0.394 1.549 0.394 1.549 0.936 0 1.6-1.445 1.6-1.445 0.959 2.681 2.091 2.994 2.091 2.994s-1.775 0.165-1.775 1.38c0 0.901 1.211 1.662 4 1.662s3.465-0.958 3.465-0.958l0.873 0.028s2.423 0.789 3.944 0.789 3.38-0.451 3.38-1.465c0-1.014-2.338-1.352-1.831-1.662s1.521-2.479 1.521-2.479 0.652 1.358 1.094 1.358 0.822-0.663 0.822-1.95c0-2.056-1.944-4.676-1.944-4.676s0.298-0.6 0.225-1.127c-0.114-0.817-0.592-1.352-0.592-1.352-0.338-1.070-0.647-6.507-6.732-6.507zM16 3.887v0c4.63 0 7.51 2.536 8.559 7.541 0.008 0.041 0.016 0.081 0.024 0.118 0.27 0.42 0.604 1.085 0.721 1.927 0.052 0.375 0.032 0.737-0.022 1.062 0.712 1.133 1.759 3.12 1.759 5.016 0 2.161-0.835 3.288-1.797 3.727 0.121 0.295 0.192 0.629 0.192 1.005 0 2.105-2.112 3.465-5.38 3.465-1.45 0-3.367-0.524-4.188-0.77-0.782 0.472-2.057 0.911-4.094 0.911-5.567 0-6-2.803-6-3.662 0-0.335 0.047-0.645 0.135-0.93h-0.599l-0.472-0.28c-0.627-0.372-1.374-1.241-1.374-3.27 0-2.925 1.613-4.664 2.723-5.685 0.008-0.103 0.021-0.209 0.039-0.317 0.072-0.421 0.209-0.778 0.358-1.065 0.046-0.365 0.154-0.751 0.346-1.125 0.402-3.080 2.671-7.668 9.070-7.668z"></path>
</svg>
