<!-- Generated by IcoMoon.io -->
<svg version="1.1" xmlns="http://www.w3.org/2000/svg" width="32" height="32" viewBox="0 0 32 32">
<title>qrcode</title>
<path d="M5 5h8v8h-4v2h-2v-2h-2v-8zM13 13h6v-8h8v8h-2v2h-2v-2h-2v2h-4v2h2v2h-6v8h-8v-8h6v-2h4v-2h-2v-2zM25 15h2v2h-2v-2zM25 17v2h-2v-2h2zM25 19h2v2h-2v-2zM25 21v2h-1v2h-2v-2h-4v4h-2v-6h5v-2h2v2h2zM22 25v2h-2v-2h2zM23 17h-2v-2h2v2zM11 17h-2v-2h2v2zM7 15v2h-2v-2h2zM15 5h2v2h1v2h-1v3h-2v-1h-1v-2h1v-4zM7 7v4h4v-4h-4zM21 7v4h4v-4h-4zM8 8h2v2h-2v-2zM22 8h2v2h-2v-2zM7 21v4h4v-4h-4zM8 22h2v2h-2v-2zM25 25h2v2h-2v-2z"></path>
</svg>
