<!-- Generated by IcoMoon.io -->
<svg version="1.1" xmlns="http://www.w3.org/2000/svg" width="32" height="32" viewBox="0 0 32 32">
<title>question</title>
<path d="M16 4c4.336 0 8 3.089 8 7 0 2.816-1.524 4.515-2.844 5.625-0.66 0.555-1.28 1.017-1.656 1.406s-0.5 0.628-0.5 0.969v1h-6v-1c0-2.504 1.567-4.014 2.844-5.094 0.638-0.54 1.221-1.010 1.594-1.469s0.563-0.858 0.563-1.438c0-0.163-0.092-0.365-0.438-0.594s-0.91-0.406-1.563-0.406c-0.648 0-1.215 0.175-1.563 0.406s-0.438 0.446-0.438 0.594v3h-6v-3c0-3.944 3.671-7 8-7zM16 6c-3.403 0-6 2.316-6 5v1h2v-1c0-0.958 0.574-1.758 1.313-2.25s1.679-0.75 2.688-0.75c1.005 0 1.947 0.26 2.688 0.75s1.313 1.29 1.313 2.25c0 1.081-0.436 1.994-1 2.688s-1.232 1.232-1.844 1.75c-0.922 0.78-1.53 1.551-1.844 2.563h1.938c0.197-0.516 0.465-0.984 0.813-1.344 0.562-0.582 1.191-1.066 1.781-1.563 1.18-0.993 2.156-1.949 2.156-4.094 0-2.635-2.604-5-6-5zM13 22h6v6h-6v-6zM15 24v2h2v-2h-2z"></path>
</svg>
