<!-- Generated by IcoMoon.io -->
<svg version="1.1" xmlns="http://www.w3.org/2000/svg" width="32" height="32" viewBox="0 0 32 32">
<title>question-circle</title>
<path d="M16 4c6.616 0 12 5.384 12 12s-5.384 12-12 12-12-5.384-12-12 5.384-12 12-12zM16 6c-5.535 0-10 4.465-10 10s4.465 10 10 10 10-4.465 10-10-4.465-10-10-10zM16 10c2.197 0 4 1.803 4 4 0 1.621-1.055 3.082-2.594 3.594l-0.406 0.125v1.281h-2v-1.281c0-0.856 0.56-1.635 1.375-1.906l0.406-0.125c0.727-0.242 1.219-0.92 1.219-1.688 0-1.117-0.883-2-2-2s-2 0.883-2 2h-2c0-2.197 1.803-4 4-4zM15 20h2v2h-2v-2z"></path>
</svg>
