<!-- Generated by IcoMoon.io -->
<svg version="1.1" xmlns="http://www.w3.org/2000/svg" width="32" height="32" viewBox="0 0 32 32">
<title>rebel</title>
<path d="M16.001 4c7.251 0 11.999 6.042 11.999 11.973 0 6.631-5.383 12.027-12 12.027s-12-5.396-12-12.027c0-5.931 4.75-11.973 12.001-11.973zM16 26c5.523 0 10-4.49 10-10.027 0-4.793-3.353-8.8-7.835-9.792 3.272 1.863 4.197 4.493 4.485 6.306 0.37 2.332-0.618 4.83-2.507 5.146-0.146 0.024-0.287 0.036-0.422 0.036-1.655 0-2.517-1.724-2.644-2.702-0.153-1.181 0.346-2.422 1.023-3.286 0.364-0.465 0.889-1.090 1.639-1.645l-1.131-1.237c-0.53 0.343-0.944 0.932-1.148 1.371 0 0-0.015-0.444 0.078-0.788 0.123-0.454 0.289-0.796 0.377-0.951 0.053-0.093 0.101-0.167 0.146-0.231l-2.060-2.254-2.061 2.256c0.045 0.064 0.093 0.138 0.145 0.23 0.088 0.155 0.254 0.497 0.377 0.951 0.093 0.344 0.077 0.788 0.077 0.788-0.204-0.439-0.617-1.028-1.146-1.371l-1.132 1.239c0.749 0.554 1.274 1.18 1.638 1.644 0.677 0.864 1.176 2.105 1.023 3.286-0.127 0.978-0.989 2.702-2.644 2.702-0.136 0-0.276-0.012-0.422-0.036-1.889-0.315-2.878-2.814-2.507-5.146 0.288-1.814 1.214-4.445 4.49-6.308-4.484 0.991-7.839 4.998-7.839 9.792 0 5.537 4.477 10.027 10 10.027zM12.325 12.916c-0.227-0.288-0.494-0.61-0.828-0.918-0.072 0.259-0.129 0.527-0.173 0.804-0.232 1.461 0.356 2.775 0.862 2.86 0.034 0.006 0.065 0.009 0.092 0.009 0.288 0 0.62-0.643 0.661-0.959 0.067-0.52-0.179-1.241-0.614-1.796zM20.502 11.998c-0.334 0.306-0.601 0.628-0.827 0.918-0.435 0.554-0.681 1.276-0.614 1.795 0.041 0.316 0.373 0.96 0.661 0.96 0.027 0 0.058-0.003 0.092-0.009 0.506-0.085 1.093-1.4 0.861-2.86-0.044-0.277-0.102-0.545-0.173-0.804z"></path>
</svg>
