<!-- Generated by IcoMoon.io -->
<svg version="1.1" xmlns="http://www.w3.org/2000/svg" width="32" height="32" viewBox="0 0 32 32">
<title>reddit</title>
<path d="M18.656 4c1.076 0 1.909 0.402 2.813 0.719 0.778 0.273 1.646 0.525 2.844 0.594 0.425-0.779 1.242-1.313 2.188-1.313 1.375 0 2.5 1.125 2.5 2.5s-1.125 2.5-2.5 2.5c-1.088 0-2.002-0.713-2.344-1.688-1.405-0.094-2.499-0.423-3.344-0.719-0.993-0.348-1.636-0.594-2.156-0.594-1.097 0-1.656 0.677-1.656 1.656v3.375c2.759 0.143 5.257 0.874 7.281 2.031 0.773-0.746 1.805-1.063 2.813-1.063 1.089 0.001 2.201 0.386 2.969 1.25l0.031 0.031c0.737 0.921 1.040 2.15 0.844 3.375-0.18 1.123-0.835 2.264-1.969 3 0.006 0.114 0.031 0.228 0.031 0.344 0 2.604-1.575 4.888-3.938 6.469s-5.549 2.531-9.063 2.531-6.7-0.95-9.063-2.531-3.938-3.865-3.938-6.469c0-0.116 0.025-0.229 0.031-0.344-1.134-0.736-1.789-1.877-1.969-3-0.196-1.225 0.107-2.454 0.844-3.375l0.031-0.031v-0.031c0.768-0.864 1.88-1.218 2.969-1.219 1.008-0.001 2.039 0.317 2.813 1.063 2.024-1.158 4.522-1.889 7.281-2.031v-3.375c0-1.949 1.559-3.656 3.656-3.656zM16 13c-3.154 0-5.966 0.868-7.938 2.188s-3.063 3.017-3.063 4.813 1.091 3.493 3.063 4.813 4.784 2.188 7.938 2.188 5.966-0.868 7.938-2.188 3.063-3.017 3.063-4.813-1.091-3.493-3.063-4.813-4.784-2.188-7.938-2.188zM4.906 14c-0.593 0-1.135 0.211-1.438 0.531-0.005 0.007 0.005 0.024 0 0.031-0.319 0.413-0.514 1.11-0.406 1.781 0.062 0.389 0.213 0.773 0.469 1.094 0.508-1.197 1.352-2.279 2.438-3.188-0.308-0.156-0.682-0.25-1.063-0.25zM27.094 14c-0.381-0-0.755 0.094-1.063 0.25 1.085 0.909 1.93 1.99 2.438 3.188 0.256-0.321 0.406-0.704 0.469-1.094 0.108-0.671-0.088-1.368-0.406-1.781-0.002-0.002 0.002-0.029 0-0.031-0.303-0.32-0.844-0.531-1.438-0.531zM11 16c1.105 0 2 0.895 2 2s-0.895 2-2 2-2-0.895-2-2 0.895-2 2-2zM21 16c1.105 0 2 0.895 2 2s-0.895 2-2 2-2-0.895-2-2 0.895-2 2-2zM21.25 21.531c-0.639 1.867-2.694 3.469-5.25 3.469s-4.611-1.611-5.25-3.344c1.15 0.933 3.078 1.625 5.25 1.625s4.1-0.683 5.25-1.75z"></path>
</svg>
