<!-- Generated by IcoMoon.io -->
<svg version="1.1" xmlns="http://www.w3.org/2000/svg" width="32" height="32" viewBox="0 0 32 32">
<title>renren</title>
<path d="M7.563 7v5.75c-0.016 4.042-2.235 7.497-5.406 9.031-1.337-1.578-2.156-3.614-2.156-5.844 0-4.487 3.279-8.219 7.563-8.938zM10.563 7c2.154 0.361 4.053 1.498 5.406 3.094-1.338 1.577-2.156 3.613-2.156 5.844 0 2.23 0.82 4.266 2.156 5.844-3.181-1.541-5.406-5.035-5.406-9.094v-5.688zM15.969 10.094c1.353-1.597 3.315-2.732 5.469-3.094v5.75c-0.015 4.041-2.298 7.496-5.469 9.031 1.337-1.578 2.219-3.614 2.219-5.844 0-2.231-0.882-4.266-2.219-5.844zM24.438 7c4.283 0.719 7.563 4.45 7.563 8.938 0 2.23-0.819 4.266-2.156 5.844-3.181-1.541-5.406-5.035-5.406-9.094v-5.688zM9.063 18.219c0.564 2.335 2.245 4.329 4.344 5.656-1.291 0.708-2.768 1.125-4.344 1.125s-3.053-0.417-4.344-1.125c2.1-1.327 3.78-3.32 4.344-5.656zM22.938 18.219c0.564 2.335 2.245 4.329 4.344 5.656-1.291 0.708-2.768 1.125-4.344 1.125s-3.053-0.417-4.344-1.125c2.1-1.327 3.78-3.32 4.344-5.656z"></path>
</svg>
