<!-- Generated by IcoMoon.io -->
<svg version="1.1" xmlns="http://www.w3.org/2000/svg" width="32" height="32" viewBox="0 0 32 32">
<title>rotate-left</title>
<path d="M15 3h1v2h-1v-2zM12.844 3.438l0.563 1.906-0.781 0.219-0.063 0.031-0.688 0.25-0.063 0.031h-0.031l-0.844-1.813 0.094-0.031 0.031-0.031h0.031l0.844-0.313h0.031l0.031-0.031zM20 4h8v2h-3.656c2.861 2.386 4.656 5.941 4.656 10 0 7.145-5.855 13-13 13s-13-5.855-13-13v-1h2v1c0 6.055 4.945 11 11 11s11-4.945 11-11c0-3.939-1.971-7.239-5-9.219v5.219h-2v-8zM9.156 5l1.063 1.688-0.469 0.313-0.063 0.031-0.563 0.438-0.063 0.031-0.219 0.188-1.313-1.5 0.281-0.25h0.031l0.031-0.031 0.688-0.531h0.031l0.031-0.031zM6.094 7.594l1.531 1.313-0.219 0.25-0.031 0.031-0.438 0.594-0.063 0.063-0.281 0.469-1.688-1.094 0.344-0.531 0.031-0.031v-0.031l0.531-0.688 0.063-0.063zM3.969 11l1.813 0.844v0.031l-0.031 0.063-0.25 0.688-0.031 0.063-0.219 0.781-1.906-0.531 0.219-0.844 0.031-0.063v-0.031l0.313-0.813v-0.031l0.031-0.031z"></path>
</svg>
