<!-- Generated by IcoMoon.io -->
<svg version="1.1" xmlns="http://www.w3.org/2000/svg" width="32" height="32" viewBox="0 0 32 32">
<title>rotate-right</title>
<path d="M16 3h1v2h-1v-2zM19.156 3.438l0.844 0.219 0.031 0.031h0.031l0.844 0.313h0.031l0.031 0.031 0.094 0.031-0.844 1.813h-0.031l-0.063-0.031-0.688-0.25-0.063-0.031-0.781-0.219zM4 4h8v8h-2v-5.219c-3.029 1.98-5 5.279-5 9.219 0 6.055 4.945 11 11 11s11-4.945 11-11v-1h2v1c0 7.145-5.855 13-13 13s-13-5.855-13-13c0-4.059 1.795-7.614 4.656-10h-3.656v-2zM22.844 5l0.531 0.344 0.031 0.031h0.031l0.688 0.531 0.031 0.031h0.031l0.281 0.25-1.313 1.5-0.219-0.188-0.063-0.031-0.563-0.438-0.063-0.031-0.469-0.313zM25.906 7.594l0.219 0.281 0.063 0.063 0.531 0.688v0.031l0.031 0.031 0.344 0.531-1.688 1.094-0.281-0.469-0.063-0.063-0.438-0.594-0.031-0.031-0.219-0.25zM28.031 11l0.031 0.125 0.031 0.031v0.031l0.313 0.813v0.031l0.031 0.063 0.219 0.844-1.906 0.531-0.219-0.781-0.031-0.063-0.25-0.688-0.031-0.063v-0.031z"></path>
</svg>
