<!-- Generated by IcoMoon.io -->
<svg version="1.1" xmlns="http://www.w3.org/2000/svg" width="32" height="32" viewBox="0 0 32 32">
<title>rss</title>
<path d="M5 5h22v22h-22v-22zM7 7v18h18v-18h-18zM12 10c5.514 0 10 4.486 10 10 0 0.685-0.057 1.354-0.188 2h-2.063c0.166-0.641 0.25-1.308 0.25-2 0-4.411-3.589-8-8-8-0.692 0-1.359 0.083-2 0.25v-2.063c0.646-0.132 1.315-0.188 2-0.188zM12 14c3.309 0 6 2.691 6 6 0 0.702-0.121 1.373-0.344 2h-2.219c0.344-0.591 0.563-1.268 0.563-2 0-2.206-1.794-4-4-4-0.732 0-1.409 0.218-2 0.563v-2.219c0.627-0.222 1.298-0.344 2-0.344zM12 18c1.105 0 2 0.895 2 2s-0.895 2-2 2-2-0.895-2-2 0.895-2 2-2z"></path>
</svg>
