<!-- Generated by IcoMoon.io -->
<svg version="1.1" xmlns="http://www.w3.org/2000/svg" width="32" height="32" viewBox="0 0 32 32">
<title>safari</title>
<path d="M16 4c6.616 0 12 5.384 12 12s-5.384 12-12 12-12-5.384-12-12 5.384-12 12-12zM16 6c-5.535 0-10 4.465-10 10s4.465 10 10 10 10-4.465 10-10-4.465-10-10-10zM16.531 7.031h0.375l0.063 0.031h0.156l-0.281 2-0.188-0.031h-0.219zM14.813 7.094l0.313 1.969-0.5 0.063-0.281-1.969zM18.781 7.438l0.469 0.188-0.688 1.875-0.469-0.188zM12.688 7.625l0.688 1.875-0.063 0.031-0.094 0.031-0.219 0.125-0.844-1.813 0.281-0.156h0.063l0.031-0.031zM20.781 8.375l0.219 0.125 0.063 0.063 0.219 0.156-1.188 1.594-0.125-0.094-0.031-0.031-0.188-0.094zM10.688 8.75l1.188 1.594-0.281 0.219-0.031 0.031-0.063 0.031-0.406-0.563-0.875-0.969h0.031l0.063-0.063zM22.281 9.594l-0.875 1.281 1.156-1.031 0.313 0.375-1.469 1.344-0.281-0.281-3.969 5.844-5.844 4.063 0.281 0.25-1.344 1.469-0.375-0.344 0.938-1.031-1.031 0.719 5.156-7.344zM9.031 10.313l1.594 1.188-0.313 0.406-1.594-1.188zM23.844 11.594l0.063 0.125 0.031 0.031 0.188 0.375-1.813 0.875-0.125-0.281-0.031-0.063-0.031-0.031 0.344-0.156zM7.875 12.188l1.781 0.844-0.094 0.188-0.063 0.188-1.875-0.688 0.063-0.188 0.031-0.031v-0.063zM24.688 13.75l0.125 0.375v0.125l0.031 0.063-1.969 0.313-0.031-0.094-0.094-0.313zM7.156 14.375l1.969 0.281-0.063 0.5-1.969-0.281zM25 15.906v0.031l-1 0.063 1 0.063-0.031 0.5-2-0.125 0.031-0.375v-0.125l0.75 0.063zM9.031 16.469v0.313l0.031 0.094-1.969 0.281-0.031-0.188-0.031-0.063v-0.344zM22.781 17.75l1.938 0.5-0.125 0.375v0.094l-0.063 0.094-1.875-0.688 0.031-0.094zM9.344 18.125l0.156 0.5-1.875 0.688-0.156-0.5zM22.156 19.344l1.719 1.031-0.281 0.438-1.688-1.063zM10.125 19.781l0.031 0.094 0.031 0.031 0.031 0.063 0.125 0.125-1.594 1.219-0.188-0.25-0.063-0.063-0.094-0.188zM21.094 20.781l1.469 1.375-0.156 0.188-0.063 0.063-0.188 0.156-1.344-1.469 0.094-0.125 0.063-0.063zM19.781 21.906l1.031 1.688-0.438 0.281-1.031-1.719zM12.625 22.125l0.063 0.031 0.031 0.031 0.313 0.156-0.875 1.781-0.406-0.188-0.031-0.031-0.063-0.031h-0.031l0.719-1.156zM18.125 22.656l0.688 1.875-0.094 0.063h-0.094l-0.375 0.125-0.5-1.938 0.281-0.094zM14.281 22.781l0.25 0.063 0.094 0.031h0.031l-0.313 1.969-0.094-0.031h-0.125l-0.344-0.094zM16.469 22.969l0.094 2-0.5 0.031-0.094-2z"></path>
</svg>
