<!-- Generated by IcoMoon.io -->
<svg version="1.1" xmlns="http://www.w3.org/2000/svg" width="32" height="32" viewBox="0 0 32 32">
<title>scissors</title>
<path d="M6 6c2.197 0 4 1.803 4 4 0 0.494-0.115 0.969-0.281 1.406l6.063 3.438 10.219-5.844h4l-20.281 11.594c0.166 0.438 0.281 0.913 0.281 1.406 0 2.197-1.803 4-4 4s-4-1.803-4-4 1.803-4 4-4c0.981 0 1.864 0.375 2.563 0.969l5.156-2.938-5.219-2.969c-0.691 0.568-1.543 0.938-2.5 0.938-2.197 0-4-1.803-4-4s1.803-4 4-4zM6 8c-0.977 0-1.784 0.677-1.969 1.594-0.026 0.131-0.031 0.267-0.031 0.406 0 1.116 0.884 2 2 2s2-0.884 2-2-0.884-2-2-2zM19.094 16.813l10.906 6.188h-4l-8.906-5.094zM6 20c-0.977 0-1.784 0.677-1.969 1.594-0.026 0.131-0.031 0.267-0.031 0.406 0 1.116 0.884 2 2 2s2-0.884 2-2-0.884-2-2-2z"></path>
</svg>
