<!-- Generated by IcoMoon.io -->
<svg version="1.1" xmlns="http://www.w3.org/2000/svg" width="32" height="32" viewBox="0 0 32 32">
<title>sellsy</title>
<path d="M18 4c4.959 0 9 4.041 9 9 0 0.142-0.024 0.269-0.031 0.406 2.879 0.868 5.031 3.441 5.031 6.594 0 3.854-3.146 7-7 7h-18c-3.854 0-7-3.146-7-7 0-2.34 1.259-4.323 3.031-5.594-0.013-0.139-0.031-0.261-0.031-0.406 0-2.749 2.251-5 5-5 0.67 0 1.293 0.165 1.875 0.406 1.4-3.157 4.46-5.406 8.125-5.406zM18 6c-3.192 0-5.87 2.124-6.719 5.031l-0.406 1.375-1.125-0.844c-0.499-0.358-1.098-0.563-1.75-0.563-1.668 0-3 1.332-3 3 0 0.187 0.024 0.366 0.063 0.563l0.125 0.719-0.625 0.344c-1.529 0.855-2.563 2.491-2.563 4.375 0 2.774 2.226 5 5 5h18c2.774 0 5-2.226 5-5 0-2.51-1.822-4.568-4.219-4.938l-1-0.156 0.156-0.969c0.044-0.325 0.063-0.632 0.063-0.938 0-3.877-3.122-7-7-7zM20 13h2v9h-2v-9zM16 15h2v7h-2v-7zM12 16h2v6h-2v-6zM8 17h2v5h-2v-5z"></path>
</svg>
