<!-- Generated by IcoMoon.io -->
<svg version="1.1" xmlns="http://www.w3.org/2000/svg" width="32" height="32" viewBox="0 0 32 32">
<title>share-alt</title>
<path d="M16 4c2.144 0 3.884 1.719 3.969 3.844 3.606 1.531 6.031 5.099 6.031 9.156 0 0.209-0.015 0.37-0.031 0.531 1.206 0.692 2.031 1.988 2.031 3.469 0 2.197-1.803 4-4 4-0.575 0-1.13-0.122-1.625-0.344-1.733 1.456-3.993 2.344-6.375 2.344s-4.642-0.887-6.375-2.344c-0.495 0.221-1.050 0.344-1.625 0.344-2.197 0-4-1.803-4-4 0-1.465 0.815-2.741 2-3.438-0.008-0.201 0-0.391 0-0.563 0-4.057 2.426-7.625 6.031-9.156 0.085-2.124 1.825-3.844 3.969-3.844zM16 6c-1.116 0-2 0.884-2 2s0.884 2 2 2 2-0.884 2-2-0.884-2-2-2zM12.469 9.844c-2.68 1.3-4.469 4.036-4.469 7.156 2.197 0 4 1.803 4 4 0 0.895-0.31 1.706-0.813 2.375 1.338 1.012 3.057 1.625 4.813 1.625s3.475-0.613 4.813-1.625c-0.503-0.669-0.813-1.48-0.813-2.375 0-2.197 1.803-4 4-4 0-3.121-1.789-5.856-4.469-7.156-0.672 1.274-2 2.156-3.531 2.156s-2.86-0.882-3.531-2.156zM8 19c-1.116 0-2 0.884-2 2s0.884 2 2 2 2-0.884 2-2-0.884-2-2-2zM24 19c-1.116 0-2 0.884-2 2s0.884 2 2 2 2-0.884 2-2-0.884-2-2-2z"></path>
</svg>
