<!-- Generated by IcoMoon.io -->
<svg version="1.1" xmlns="http://www.w3.org/2000/svg" width="32" height="32" viewBox="0 0 32 32">
<title>ship</title>
<path d="M15 3h2v2h4v3h4v5.938l0.844 0.188c1.805 0.389 2.7 2.479 1.75 4.063l-1.594 2.688v5c0.83-0.222 1.375-0.656 1.375-0.656l1.25 1.563s-1.481 1.219-3.594 1.219c-1.474 0-2.45-0.488-3.031-0.844-0.58 0.359-1.509 0.844-2.969 0.844-1.474 0-2.45-0.488-3.031-0.844-0.58 0.359-1.509 0.844-2.969 0.844-1.474 0-2.45-0.488-3.031-0.844-0.58 0.359-1.509 0.844-2.969 0.844-2.113 0-3.656-1.219-3.656-1.219l1.25-1.563s0.565 0.398 1.375 0.625v-4.969l-1.594-2.688c-0.95-1.583-0.054-3.673 1.75-4.063v-0.031l0.844-0.188v-5.906h4v-3h4v-2zM13 7v3h-4v3.5l6.781-1.469 0.219-0.031 0.219 0.031 6.781 1.469v-3.5h-4v-3h-6zM16 14.063l-9.406 2c-0.524 0.113-0.776 0.633-0.5 1.094l1.75 2.938 0.156 0.219v5.563c0.83-0.222 1.375-0.656 1.375-0.656l0.625-0.5 0.625 0.5s1.065 0.781 2.406 0.781 2.344-0.781 2.344-0.781l0.625-0.5 0.625 0.5s1.065 0.781 2.406 0.781 2.344-0.781 2.344-0.781l0.625-0.5 0.625 0.5s0.565 0.398 1.375 0.625v-5.531l0.156-0.219 1.75-2.938c0.276-0.459 0.023-0.981-0.5-1.094zM11 16c0.6 0 1 0.7 1 1.5s-0.4 1.5-1 1.5-1-0.7-1-1.5 0.4-1.5 1-1.5zM21 16c0.6 0 1 0.7 1 1.5s-0.4 1.5-1 1.5-1-0.7-1-1.5 0.4-1.5 1-1.5z"></path>
</svg>
