<!-- Generated by IcoMoon.io -->
<svg version="1.1" xmlns="http://www.w3.org/2000/svg" width="32" height="32" viewBox="0 0 32 32">
<title>shirtsinbulk</title>
<path d="M5 4h22v19.438l-0.625 0.25-10.125 4.25-0.406 0.156-0.375-0.188-10.469-4.469v-19.438zM7 6v3h18v-3h-18zM7 11v11.094l8.844 3.813 9.156-3.813v-11.094h-18zM16 13c2.761 0 5 2.239 5 5s-2.239 5-5 5-5-2.239-5-5 2.239-5 5-5zM16.188 15.031c-1.746 0-2.875 0.801-2.875 2.031 0 0.364 0.127 0.659 0.375 0.906 0.579 0.575 1.613 0.589 2.375 0.594h0.156c0.82 0 1.438 0.215 1.438 0.375 0 0.572-0.832 0.781-1.531 0.781-1.165 0-2.178-0.618-2.188-0.625l-0.688 1.031c0.054 0.035 1.336 0.844 2.875 0.844 2.042 0 2.782-1.097 2.781-2.031 0-1.005-1.055-1.625-2.688-1.625h-0.188c-0.375-0.002-1.247 0.006-1.469-0.25 0-0.612 1.022-0.781 1.625-0.781 0.985 0 1.835 0.619 1.844 0.625l0.75-1.031c-0.048-0.035-1.189-0.844-2.594-0.844z"></path>
</svg>
