<!-- Generated by IcoMoon.io -->
<svg version="1.1" xmlns="http://www.w3.org/2000/svg" width="32" height="32" viewBox="0 0 32 32">
<title>skyatlas</title>
<path d="M17.803 6.594c1.858 0 6.905 1.462 6.905 6.881 0 0.329-0.070 1.104-0.070 1.104s0.916-0.282 1.949-0.282c1.362 0 5.414 1.069 5.414 5.39 0 4.11-3.535 5.719-5.789 5.719-8.244 0-10.076-12.518-18.014-12.518-3.687 0-5.566 2.701-5.566 5.12 0 3.617 2.701 5.543 5.707 5.543 4.51 0 7.061-2.959 7.42-2.959 0.425 0 0.612 0.239 0.612 0.474 0 0.963-4.087 4.341-8.455 4.341-4.263-0.001-7.916-2.702-7.916-7.399 0-4.273 3.546-7.351 7.657-7.351 9.22 0 11.030 12.354 18.084 12.354 2.513 0 3.758-1.785 3.758-3.382 0-1.996-1.456-3.64-3.523-3.64-0.846 0-1.738 0.564-2.349 0.564s-0.846-0.423-0.846-0.799c0-0.446 0.329-1.198 0.329-2.043 0-1.451-1.139-5.519-5.872-5.519-2.771 0-3.946 1.879-4.462 1.879-0.517 0-0.564-0.258-0.564-0.587 0.001-0.33 1.786-2.89 5.591-2.89z"></path>
</svg>
