<!-- Generated by IcoMoon.io -->
<svg version="1.1" xmlns="http://www.w3.org/2000/svg" width="32" height="32" viewBox="0 0 32 32">
<title>skype</title>
<path d="M11 4c1.032 0 1.989 0.315 2.875 0.719 0.692-0.13 1.395-0.219 2.125-0.219 6.339 0 11.5 5.161 11.5 11.5 0 0.73-0.088 1.433-0.219 2.125 0.404 0.886 0.719 1.843 0.719 2.875 0 3.854-3.146 7-7 7-1.032 0-1.989-0.315-2.875-0.719-0.692 0.13-1.395 0.219-2.125 0.219-6.339 0-11.5-5.161-11.5-11.5 0-0.73 0.088-1.433 0.219-2.125-0.404-0.886-0.719-1.843-0.719-2.875 0-3.854 3.146-7 7-7zM11 6c-2.774 0-5 2.226-5 5 0 0.865 0.211 1.668 0.594 2.375 0.065 0.122 0.118 0.333 0.118 0.47 0 0.061-0.011 0.158-0.024 0.217-0.13 0.628-0.188 1.271-0.188 1.938 0 5.259 4.241 9.5 9.5 9.5 0.666 0 1.309-0.057 1.938-0.188 0.059-0.013 0.156-0.024 0.217-0.024 0.138 0 0.349 0.053 0.47 0.118 0.707 0.383 1.51 0.594 2.375 0.594 2.774 0 5-2.226 5-5 0-0.865-0.211-1.668-0.594-2.375-0.065-0.122-0.118-0.333-0.118-0.47 0-0.061 0.011-0.158 0.024-0.217 0.131-0.628 0.188-1.271 0.188-1.938 0-5.259-4.241-9.5-9.5-9.5-0.666 0-1.309 0.057-1.938 0.188-0.059 0.013-0.156 0.024-0.217 0.024-0.138 0-0.349-0.053-0.47-0.118-0.707-0.383-1.51-0.594-2.375-0.594zM15.844 9.156c2.277 0 4.938 1.26 4.938 2.938 0 0.719-0.602 1.125-1.313 1.125-1.351 0-1.123-1.875-3.844-1.875-1.351 0-2.094 0.625-2.094 1.5 0 0.873 1.074 1.132 2 1.344l2.438 0.563c2.668 0.594 3.344 2.127 3.344 3.594 0 2.271-1.73 3.969-5.25 3.969-3.7 0-5.375-1.793-5.375-3.156 0-0.699 0.507-1.188 1.219-1.188 1.583 0 1.202 2.25 4.156 2.25 1.512 0 2.344-0.815 2.344-1.656 0-0.505-0.254-1.067-1.25-1.313l-3.313-0.813c-2.65-0.664-3.125-2.091-3.125-3.438 0-2.796 2.653-3.844 5.125-3.844z"></path>
</svg>
