<!-- Generated by IcoMoon.io -->
<svg version="1.1" xmlns="http://www.w3.org/2000/svg" width="32" height="32" viewBox="0 0 32 32">
<title>slack</title>
<path d="M17.656 3c0.838 0.065 1.591 0.621 1.875 1.469l0.906 2.656 2.531-0.844c1.13-0.378 2.341 0.245 2.719 1.375s-0.214 2.341-1.344 2.719l-2.563 0.844 1.719 5.094 2.656-0.875c1.13-0.378 2.341 0.214 2.719 1.344s-0.214 2.372-1.344 2.75l-2.656 0.906 0.844 2.531c0.377 1.13-0.244 2.341-1.375 2.719s-2.341-0.214-2.719-1.344l-0.844-2.563-5.094 1.719 0.875 2.656c0.377 1.13-0.214 2.341-1.344 2.719s-2.372-0.214-2.75-1.344l-0.906-2.656-2.531 0.844c-1.13 0.378-2.341-0.244-2.719-1.375s0.214-2.341 1.344-2.719l2.563-0.844-1.719-5.094-2.656 0.875c-1.13 0.378-2.341-0.214-2.719-1.344s0.214-2.372 1.344-2.75l2.656-0.906-0.844-2.531c-0.378-1.13 0.244-2.341 1.375-2.719s2.341 0.214 2.719 1.344l0.844 2.563 5.125-1.719-0.906-2.656c-0.378-1.13 0.214-2.341 1.344-2.719 0.282-0.094 0.596-0.147 0.875-0.125zM17.688 12.594l-5.094 1.719 1.719 5.094 5.094-1.719z"></path>
</svg>
