<!-- Generated by IcoMoon.io -->
<svg version="1.1" xmlns="http://www.w3.org/2000/svg" width="32" height="32" viewBox="0 0 32 32">
<title>slideshare</title>
<path d="M8 4h16c1.645 0 3 1.355 3 3v8.406c0.77-0.444 1.37-0.844 1.5-0.844 0.361 0 0.5 0.343 0.5 0.563 0 1.122-3.334 3.281-5.438 4.063 0 0 0.531 1.55 0.531 3.313s-1.085 5.5-4.531 5.5c0 0-2.563-0.007-2.563-2.531v-4.375l-2-0.594v4.969c0 2.524-2.563 2.531-2.563 2.531-3.446 0-4.531-3.737-4.531-5.5s0.531-3.313 0.531-3.313c-2.103-0.782-5.438-2.941-5.438-4.063 0-0.22 0.139-0.563 0.5-0.563 0.13 0 0.73 0.4 1.5 0.844v-8.406c0-1.645 1.355-3 3-3zM8 6c-0.565 0-1 0.435-1 1v9.406c1.113 0.463 2.4 0.844 3.719 0.844 1.462 0 2.379-0.094 3-0.094 0.451 0 0.751 0.184 0.938 0.406l2.344 1.781v-0.906s0.079-1.281 1.281-1.281c0.621 0 1.538 0.094 3 0.094 1.319 0 2.606-0.381 3.719-0.844v-9.406c0-0.565-0.435-1-1-1h-16zM12.313 10.969c1.476 0 2.688 1.145 2.688 2.531s-1.212 2.5-2.688 2.5-2.656-1.114-2.656-2.5 1.181-2.531 2.656-2.531zM19.688 10.969c1.476 0 2.656 1.145 2.656 2.531s-1.181 2.5-2.656 2.5-2.688-1.114-2.688-2.5 1.212-2.531 2.688-2.531z"></path>
</svg>
