<!-- Generated by IcoMoon.io -->
<svg version="1.1" xmlns="http://www.w3.org/2000/svg" width="32" height="32" viewBox="0 0 32 32">
<title>sliders</title>
<path d="M4 4h2v5h7.188c0.418-1.156 1.521-2 2.813-2s2.394 0.844 2.813 2h9.188v2h-9.188c-0.418 1.156-1.52 2-2.813 2s-2.394-0.844-2.813-2h-7.188v4h14.188c0.418-1.156 1.52-2 2.813-2s2.394 0.844 2.813 2h2.188v2h-2.188c-0.418 1.156-1.52 2-2.813 2s-2.394-0.844-2.813-2h-14.188v4h2.188c0.418-1.156 1.521-2 2.813-2s2.394 0.844 2.813 2h14.188v2h-14.188c-0.418 1.156-1.521 2-2.813 2s-2.394-0.844-2.813-2h-2.188v5h-2v-24zM16 9c-0.564 0-1 0.436-1 1s0.436 1 1 1 1-0.436 1-1-0.436-1-1-1zM23 15c-0.564 0-1 0.436-1 1s0.436 1 1 1 1-0.436 1-1-0.436-1-1-1zM11 21c-0.564 0-1 0.436-1 1s0.436 1 1 1 1-0.436 1-1-0.436-1-1-1z"></path>
</svg>
