<!-- Generated by IcoMoon.io -->
<svg version="1.1" xmlns="http://www.w3.org/2000/svg" width="32" height="32" viewBox="0 0 32 32">
<title>sort-numeric-asc</title>
<path d="M8.594 5h2.406v10h-2v-6.406c-0.681 0.731-1.624 1.406-3 1.406v-2c0.98 0 1.478-0.481 1.875-1.063s0.563-1.156 0.563-1.156zM22 5h2v18.688l2.594-2.594 1.406 1.406-4.281 4.313-0.719 0.688-0.719-0.688-4.281-4.313 1.406-1.406 2.594 2.594v-18.688zM8.5 17h1c1.924 0 3.5 1.576 3.5 3.5 0 1.344-0.859 2.428-1.875 3.063-1.107 0.681-1.952 1.060-2.688 1.438h4.563v2h-8v-1c0-0.581 0.273-1.153 0.625-1.531s0.767-0.622 1.219-0.875c0.903-0.506 1.985-0.99 3.219-1.75 0.584-0.365 0.938-0.888 0.938-1.344 0-0.876-0.624-1.5-1.5-1.5h-1c-0.876 0-1.5 0.624-1.5 1.5v0.5h-2v-0.5c0-1.924 1.576-3.5 3.5-3.5z"></path>
</svg>
