<!-- Generated by IcoMoon.io -->
<svg version="1.1" xmlns="http://www.w3.org/2000/svg" width="32" height="32" viewBox="0 0 32 32">
<title>sort-alpha-asc</title>
<path d="M8.188 5h1.625l0.219 0.656 1.938 5.344h0.031v0.063l0.938 2.594 0.063 0.156v1.188h-2v-0.844l-0.406-1.156h-3.188l-0.406 1.156v0.844h-2v-1.188l0.063-0.156 0.938-2.594v-0.063h0.031l1.938-5.344zM22 5h2v18.688l2.594-2.594 1.406 1.406-4.281 4.313-0.719 0.688-0.719-0.688-4.281-4.313 1.406-1.406 2.594 2.594v-18.688zM9 8.656l-0.844 2.344h1.688zM5 17h8v2.406l-0.281 0.313-5.281 5.281h5.563v2h-8v-2.406l0.281-0.313 5.281-5.281h-5.563v-2z"></path>
</svg>
