<!-- Generated by IcoMoon.io -->
<svg version="1.1" xmlns="http://www.w3.org/2000/svg" width="32" height="32" viewBox="0 0 32 32">
<title>soundcloud</title>
<path d="M19.625 9.063c3.628 0 6.593 2.765 6.906 6.313 0.468-0.197 0.992-0.313 1.531-0.313 2.174 0 3.938 1.764 3.938 3.938s-1.764 3.938-3.938 3.938c0 0-10.896 0.001-10.906 0-0.235-0.024-0.434-0.228-0.438-0.469v-12.469c0.003-0.23 0.078-0.354 0.375-0.469 0.765-0.295 1.643-0.469 2.531-0.469zM15.938 9.969c0.080 0 0.154 0.024 0.219 0.063 0.125 0.076 0.183 0.217 0.188 0.375l0.219 8.875-0.219 3.219c-0.003 0.238-0.171 0.406-0.406 0.406-0.237 0-0.434-0.171-0.438-0.406l-0.094-1.594-0.094-1.625 0.188-8.844v-0.031c0.002-0.134 0.060-0.265 0.156-0.344 0.074-0.062 0.178-0.094 0.281-0.094zM14.594 10.75c0.082 0 0.154 0.018 0.219 0.063 0.107 0.073 0.183 0.206 0.188 0.344l0.156 8.125-0.156 2.938v0.313c-0.002 0.112-0.052 0.208-0.125 0.281s-0.171 0.125-0.281 0.125c-0.124 0-0.238-0.066-0.313-0.156-0.056-0.066-0.089-0.128-0.094-0.219v-0.031c0 0-0.156-3.245-0.156-3.25l0.156-8.063v-0.063c0.002-0.142 0.076-0.272 0.188-0.344 0.064-0.042 0.139-0.063 0.219-0.063zM10.438 11.688c0.038-0.016 0.081 0 0.125 0 0.176 0 0.307 0.131 0.313 0.313l0.25 7.281-0.25 3.313c-0.006 0.181-0.136 0.344-0.313 0.344s-0.307-0.133-0.313-0.313l-0.219-3.344 0.219-7.281c0.004-0.135 0.073-0.264 0.188-0.313zM11.75 11.844c0.042-0.018 0.108 0 0.156 0 0.192 0 0.34 0.149 0.344 0.344l0.188 7.094-0.188 3.281c-0.005 0.196-0.183 0.375-0.375 0.375s-0.34-0.15-0.344-0.344l-0.188-3.313 0.188-7.094c0.004-0.147 0.094-0.291 0.219-0.344zM9.25 11.938c0.16 0 0.274 0.116 0.281 0.281l0.25 7.063-0.25 3.344c-0.007 0.165-0.121 0.313-0.281 0.313-0.161 0-0.307-0.148-0.313-0.313l-0.219-3.344 0.219-7.063c0.006-0.165 0.152-0.281 0.313-0.281zM13.219 12.063c0.208 0 0.371 0.164 0.375 0.375l0.219 6.844-0.219 3.281c-0.005 0.212-0.167 0.375-0.375 0.375s-0.371-0.166-0.375-0.375l-0.156-3.281 0.156-6.844c0.004-0.211 0.167-0.375 0.375-0.375zM7.906 12.531c0.144 0 0.274 0.1 0.281 0.25l0.25 6.5-0.25 3.406c-0.006 0.15-0.137 0.25-0.281 0.25-0.146 0-0.244-0.101-0.25-0.25l-0.25-3.406 0.25-6.5c0.006-0.15 0.105-0.25 0.25-0.25zM6.625 13.75c0.128 0 0.242 0.085 0.25 0.219l0.281 5.313-0.281 3.406c-0.007 0.134-0.122 0.25-0.25 0.25-0.129 0-0.212-0.117-0.219-0.25l-0.25-3.406 0.25-5.313c0.006-0.135 0.090-0.219 0.219-0.219zM4.063 15.594c0.098 0 0.179 0.051 0.188 0.156l0.313 3.531-0.313 3.375c-0.008 0.105-0.089 0.188-0.188 0.188s-0.179-0.083-0.188-0.188l-0.281-3.375 0.281-3.531c0.008-0.106 0.088-0.156 0.188-0.156zM2.813 15.688c0.083 0 0.146 0.066 0.156 0.156l0.344 3.406-0.344 3.313c-0.010 0.091-0.073 0.156-0.156 0.156s-0.148-0.065-0.156-0.156l-0.313-3.281 0.313-3.438c0.008-0.091 0.071-0.156 0.156-0.156zM5.344 15.813c0.114 0 0.211 0.099 0.219 0.219l0.313 3.25-0.313 3.406c-0.008 0.121-0.105 0.219-0.219 0.219-0.115 0-0.212-0.099-0.219-0.219l-0.25-3.406 0.25-3.25c0.007-0.121 0.104-0.219 0.219-0.219zM1.531 16.25c0.068 0 0.145 0.080 0.156 0.156l0.344 2.875-0.344 2.781c-0.011 0.076-0.089 0.156-0.156 0.156s-0.116-0.081-0.125-0.156l-0.313-2.781 0.313-2.875c0.009-0.075 0.057-0.156 0.125-0.156zM0.375 17.375c0.065 0 0.115 0.052 0.125 0.125l0.281 1.781-0.281 1.719c-0.011 0.073-0.060 0.125-0.125 0.125s-0.147-0.051-0.156-0.125l-0.219-1.719 0.219-1.781c0.009-0.073 0.089-0.125 0.156-0.125z"></path>
</svg>
