<!-- Generated by IcoMoon.io -->
<svg version="1.1" xmlns="http://www.w3.org/2000/svg" width="32" height="32" viewBox="0 0 32 32">
<title>space-shuttle</title>
<path d="M2 4h4.563c2.458 0 4.824 0.981 6.563 2.719l0.156 0.125 4.188 4.188 8.031 0.688c2.573 0.214 4.911 1.571 6.344 3.719l0.344 0.563-0.344 0.563c-1.433 2.148-3.77 3.505-6.344 3.719l-8.031 0.688-4.344 4.313c-1.738 1.739-4.105 2.719-6.563 2.719h-4.563v-6h-2v-3h1v-6h-1v-3h2v-6zM4 6v7h-1v6h1v7h2.563c1.928 0 3.794-0.762 5.156-2.125l2.844-2.875h-4.563v-2h6.906l8.406-0.688c1.689-0.141 3.151-1.051 4.25-2.313-1.099-1.262-2.561-2.172-4.25-2.313l-8.313-0.688h-7v-2h4.563l-2.844-2.875c-1.364-1.364-3.228-2.125-5.156-2.125h-2.563zM24 15h2v2h-2v-2zM6 21h2v3h-2v-3z"></path>
</svg>
