<!-- Generated by IcoMoon.io -->
<svg version="1.1" xmlns="http://www.w3.org/2000/svg" width="32" height="32" viewBox="0 0 32 32">
<title>spoon</title>
<path d="M23.094 4c0.446-0.008 0.885 0.038 1.313 0.125 0.854 0.175 1.641 0.548 2.281 1.188 1.28 1.28 1.498 3.161 1.156 4.938s-1.245 3.558-2.563 4.875-2.867 1.935-4.375 1.875c-1.174-0.047-2.289-0.503-3.25-1.219l-11.938 11.938-1.438-1.438 11.938-11.938c-0.715-0.961-1.172-2.076-1.219-3.25-0.060-1.508 0.558-3.058 1.875-4.375s3.099-2.221 4.875-2.563c0.444-0.085 0.897-0.148 1.344-0.156zM23.094 6c-0.309 0.005-0.63 0.029-0.969 0.094-1.356 0.261-2.814 1.032-3.813 2.031s-1.349 1.95-1.313 2.875 0.491 1.866 1.313 2.688 1.762 1.276 2.688 1.313 1.876-0.314 2.875-1.313 1.77-2.457 2.031-3.813 0.025-2.506-0.625-3.156c-0.325-0.325-0.775-0.55-1.313-0.656-0.269-0.053-0.566-0.067-0.875-0.063z"></path>
</svg>
