<!-- Generated by IcoMoon.io -->
<svg version="1.1" xmlns="http://www.w3.org/2000/svg" width="32" height="32" viewBox="0 0 32 32">
<title>spotify</title>
<path d="M16 4c6.629 0 12 5.371 12 12s-5.371 12-12 12-12-5.371-12-12 5.371-12 12-12zM16 6c-5.555 0-10 4.445-10 10s4.445 10 10 10 10-4.445 10-10-4.445-10-10-10zM14.406 10.75c3.215 0 6.587 0.687 9.125 2.125 0.338 0.169 0.594 0.493 0.594 1-0.086 0.592-0.502 1.031-1.094 1.031-0.254 0-0.34-0.104-0.594-0.188-2.031-1.185-5.070-1.844-8.031-1.844-1.523 0-3.052 0.161-4.406 0.5-0.169 0-0.34 0.094-0.594 0.094-0.592 0.085-1.031-0.439-1.031-1.031s0.357-0.916 0.781-1c1.608-0.508 3.304-0.688 5.25-0.688zM14.125 14.469c2.877 0 5.675 0.677 7.875 2.031 0.338 0.169 0.5 0.506 0.5 0.844 0 0.507-0.336 0.938-0.844 0.938-0.254 0-0.425-0.072-0.594-0.156-1.777-1.1-4.208-1.781-7-1.781-1.354 0-2.631 0.152-3.563 0.406-0.254 0.085-0.33 0.094-0.5 0.094-0.508 0-0.844-0.421-0.844-0.844 0-0.508 0.233-0.768 0.656-0.938 1.269-0.338 2.536-0.594 4.313-0.594zM14.406 18.125c2.369 0 4.544 0.588 6.406 1.688 0.254 0.169 0.438 0.326 0.438 0.75-0.084 0.338-0.412 0.594-0.75 0.594-0.169 0-0.361-0.072-0.531-0.156-1.608-0.931-3.541-1.438-5.656-1.438-1.185 0-2.369 0.152-3.469 0.406-0.169 0-0.415 0.094-0.5 0.094-0.423 0-0.688-0.349-0.688-0.688 0-0.423 0.256-0.665 0.594-0.75 1.354-0.338 2.718-0.5 4.156-0.5z"></path>
</svg>
