<!-- Generated by IcoMoon.io -->
<svg version="1.1" xmlns="http://www.w3.org/2000/svg" width="32" height="32" viewBox="0 0 32 32">
<title>stack-exchange</title>
<path d="M9 4h14c2.197 0 4 1.803 4 4v14c0 2.197-1.803 4-4 4h-0.438l-3.688 3.906-0.313 0.313h-1.563v-4.219h-8c-2.197 0-4-1.803-4-4v-14c0-2.197 1.803-4 4-4zM9 6c-1.117 0-2 0.883-2 2v1h18v-1c0-1.117-0.883-2-2-2h-14zM7 11v3h18v-3h-18zM7 16v3h18v-3h-18zM7 21v1c0 1.117 0.883 2 2 2h10v2.844l2.406-2.531 0.281-0.313h1.313c1.117 0 2-0.883 2-2v-1h-18z"></path>
</svg>
