<!-- Generated by IcoMoon.io -->
<svg version="1.1" xmlns="http://www.w3.org/2000/svg" width="32" height="32" viewBox="0 0 32 32">
<title>steam</title>
<path d="M5 5h22v22h-22v-8.844l3.063 1.281c-0.026 0.185-0.063 0.37-0.063 0.563 0 2.209 1.791 4 4 4 2.17 0 3.938-1.719 4-3.875l3.25-2.156c2.649-0.125 4.75-2.288 4.75-4.969 0-2.761-2.239-5-5-5-2.681 0-4.844 2.101-4.969 4.75l-2.156 3.25c-1.254 0.036-2.354 0.66-3.063 1.594l-3.813-1.594v-11zM19 10c1.651 0 3 1.349 3 3s-1.349 3-3 3-3-1.349-3-3 1.349-3 3-3zM19 11c-1.11 0-2 0.89-2 2s0.89 2 2 2 2-0.89 2-2-0.89-2-2-2zM12 18c1.105 0 2 0.895 2 2s-0.895 2-2 2c-1.015 0-1.84-0.769-1.969-1.75l1.594 0.688c0.126 0.053 0.246 0.063 0.375 0.063 0.392 0 0.778-0.241 0.938-0.625 0.213-0.51-0.053-1.101-0.563-1.313l-1.594-0.656c0.336-0.256 0.764-0.406 1.219-0.406z"></path>
</svg>
