<!-- Generated by IcoMoon.io -->
<svg version="1.1" xmlns="http://www.w3.org/2000/svg" width="32" height="32" viewBox="0 0 32 32">
<title>stethoscope</title>
<path d="M7 4c1.105 0 2 0.895 2 2s-0.895 2-2 2c-0.658 0-1.229-0.322-1.594-0.813-0.249 0.179-0.406 0.472-0.406 0.813v8.563c0.359 0.362 2.487 2.438 5 2.438s4.641-2.075 5-2.438v-8.563c0-0.34-0.157-0.633-0.406-0.813-0.364 0.49-0.936 0.813-1.594 0.813-1.105 0-2-0.895-2-2s0.895-2 2-2c0.789 0 1.456 0.462 1.781 1.125 1.266 0.352 2.219 1.504 2.219 2.875v9.375l-0.25 0.281s-2.356 2.759-5.75 3.25v2.094c0 2.22 1.78 4 4 4s4-1.78 4-4v-5c0-2.197 1.803-4 4-4s4 1.803 4 4v0.188c1.156 0.418 2 1.52 2 2.813 0 1.645-1.355 3-3 3s-3-1.355-3-3c0-1.292 0.844-2.394 2-2.813v-0.188c0-1.117-0.883-2-2-2s-2 0.883-2 2v5c0 3.302-2.698 6-6 6s-6-2.698-6-6v-2.094c-3.394-0.491-5.75-3.25-5.75-3.25l-0.25-0.281v-9.375c0-1.371 0.953-2.523 2.219-2.875 0.325-0.663 0.992-1.125 1.781-1.125zM26 20c-0.564 0-1 0.436-1 1s0.436 1 1 1 1-0.436 1-1-0.436-1-1-1z"></path>
</svg>
