<!-- Generated by IcoMoon.io -->
<svg version="1.1" xmlns="http://www.w3.org/2000/svg" width="32" height="32" viewBox="0 0 32 32">
<title>street-view</title>
<path d="M16 4c2.197 0 4 1.803 4 4 0 1.114-0.475 2.116-1.219 2.844 1.331 0.901 2.219 2.438 2.219 4.156v4.625l-2 1v4.375h-6v-4.375l-2-1v-4.625c0-1.718 0.888-3.255 2.219-4.156-0.743-0.728-1.219-1.729-1.219-2.844 0-2.197 1.803-4 4-4zM16 6c-1.116 0-2 0.884-2 2s0.884 2 2 2 2-0.884 2-2-0.884-2-2-2zM16 12c-1.668 0-3 1.332-3 3v3.375l2 1v3.625h2v-3.625l2-1v-3.375c0-1.668-1.332-3-3-3zM9 18.875v2.094c-1.901 0.613-3 1.406-3 2.031 0 1.194 3.988 3 10 3s10-1.806 10-3c0-0.625-1.099-1.418-3-2.031v-2.094c2.918 0.818 5 2.201 5 4.125 0 3.283-6.037 5-12 5s-12-1.717-12-5c0-1.924 2.082-3.307 5-4.125z"></path>
</svg>
