<!-- Generated by IcoMoon.io -->
<svg version="1.1" xmlns="http://www.w3.org/2000/svg" width="32" height="32" viewBox="0 0 32 32">
<title>stumbleupon-circle</title>
<path d="M16 4c6.6 0 12 5.4 12 12s-5.4 12-12 12-12-5.4-12-12 5.4-12 12-12zM16 11c0.6 0 1 0.4 1 1v1c0 0.6 0.4 1 1 1s1-0.4 1-1v-1c0-1.7-1.3-3-3-3s-3 1.3-3 3v6c0 0.6-0.4 1-1 1s-1-0.4-1-1v-2h-2v2c0 1.7 1.3 3 3 3s3-1.3 3-3v-6c0-0.6 0.4-1 1-1zM23 18v-2h-2v2c0 0.6-0.4 1-1 1s-1-0.4-1-1v-2.3c-0.3 0.2-0.6 0.3-1 0.3s-0.7-0.1-1-0.3v2.3c0 1.7 1.3 3 3 3s3-1.3 3-3z"></path>
</svg>
