<!-- Generated by IcoMoon.io -->
<svg version="1.1" xmlns="http://www.w3.org/2000/svg" width="32" height="32" viewBox="0 0 32 32">
<title>subway</title>
<path d="M10 4h12c2.75 0 5 2.251 5 5v12c0 2.425-1.45 4.525-3.531 5.469l2.531 2.531h-2.344l-2.031-2.031c-0.201 0.021-0.419 0.031-0.625 0.031h-10c-0.206 0-0.424-0.011-0.625-0.031l-2.031 2.031h-2.344l2.531-2.531c-2.081-0.944-3.531-3.044-3.531-5.469v-12c0-2.749 2.251-5 5-5zM10 6c-1.318 0-2.437 0.828-2.844 2h17.688c-0.407-1.172-1.525-2-2.844-2h-12zM7 10v6h8v-6h-8zM17 10v6h8v-6h-8zM7 18v3c0 2.22 1.78 4 4 4h10c2.22 0 4-1.78 4-4v-3h-18zM10.5 20c0.828 0 1.5 0.672 1.5 1.5s-0.672 1.5-1.5 1.5-1.5-0.672-1.5-1.5 0.672-1.5 1.5-1.5zM21.5 20c0.828 0 1.5 0.672 1.5 1.5s-0.672 1.5-1.5 1.5-1.5-0.672-1.5-1.5 0.672-1.5 1.5-1.5z"></path>
</svg>
