<!-- Generated by IcoMoon.io -->
<svg version="1.1" xmlns="http://www.w3.org/2000/svg" width="32" height="32" viewBox="0 0 32 32">
<title>tachometer</title>
<path d="M16 6c6.616 0 12 5.385 12 12 0 2.896-1.037 5.551-2.75 7.625l-0.281 0.375h-17.938l-0.281-0.375c-1.713-2.074-2.75-4.729-2.75-7.625 0-6.616 5.385-12 12-12zM16 8c-5.535 0-10 4.465-10 10 0 2.267 0.795 4.324 2.063 6h15.875c1.268-1.676 2.063-3.733 2.063-6 0-5.535-4.465-10-10-10zM16 9c0.552 0 1 0.448 1 1s-0.448 1-1 1-1-0.448-1-1 0.448-1 1-1zM12 10.063c0.552 0 1 0.448 1 1s-0.448 1-1 1-1-0.448-1-1 0.448-1 1-1zM20 10.063c0.552 0 1 0.448 1 1s-0.448 1-1 1-1-0.448-1-1 0.448-1 1-1zM9.063 13c0.552 0 1 0.448 1 1s-0.448 1-1 1-1-0.448-1-1 0.448-1 1-1zM22.656 13.031l1 1.75-5.656 3.219v0.031c-0.017 1.090-0.906 1.969-2 1.969-1.105 0-2-0.895-2-2s0.895-2 2-2c0.365 0 0.705 0.11 1 0.281zM8 17c0.552 0 1 0.448 1 1s-0.448 1-1 1-1-0.448-1-1 0.448-1 1-1zM24 17c0.552 0 1 0.448 1 1s-0.448 1-1 1-1-0.448-1-1 0.448-1 1-1zM9.063 21c0.552 0 1 0.448 1 1s-0.448 1-1 1-1-0.448-1-1 0.448-1 1-1zM22.938 21c0.552 0 1 0.448 1 1s-0.448 1-1 1-1-0.448-1-1 0.448-1 1-1z"></path>
</svg>
