<!-- Generated by IcoMoon.io -->
<svg version="1.1" xmlns="http://www.w3.org/2000/svg" width="32" height="32" viewBox="0 0 32 32">
<title>tencent-weibo</title>
<path d="M17 2c4.962 0 9 4.038 9 9s-4.038 9-9 9c-1.149 0-2.239-0.23-3.25-0.625 0.279-0.632 0.593-1.22 0.938-1.781 0.728 0.258 1.497 0.406 2.313 0.406 3.86 0 7-3.14 7-7s-3.14-7-7-7-7 3.14-7 7c0 0.769 0.145 1.495 0.375 2.188-0.47 0.644-0.919 1.318-1.313 2.031-0.679-1.262-1.063-2.688-1.063-4.219 0-4.962 4.038-9 9-9zM17 8c1.657 0 3 1.343 3 3s-1.343 3-3 3c-0.587 0-1.131-0.178-1.594-0.469-4.989 4.726-5.406 11.854-5.406 15.469h-2c0-3.789 0.455-11.756 6.188-17.063-0.101-0.301-0.188-0.603-0.188-0.938 0-1.657 1.343-3 3-3z"></path>
</svg>
