<!-- Generated by IcoMoon.io -->
<svg version="1.1" xmlns="http://www.w3.org/2000/svg" width="32" height="32" viewBox="0 0 32 32">
<title>thumbs-down</title>
<path d="M10.156 6h16.844v16h-4.594l-6.781 6.719-0.313 0.281h-0.406c-1.616 0-2.906-1.231-2.906-2.656 0-1.336 0.468-2.327 0.938-2.969 0.294-0.401 0.422-0.469 0.625-0.625l0.188-0.75h-5.75c-1.888 0-3.333-1.779-2.938-3.625l2.156-10c0.296-1.377 1.529-2.375 2.938-2.375zM10.156 8c-0.477 0-0.9 0.314-1 0.781l-2.125 10c-0.138 0.644 0.309 1.219 0.969 1.219h8.344l-0.313 1.25-0.594 2.25-0.125 0.406-0.344 0.188s-0.179 0.084-0.438 0.438-0.531 0.91-0.531 1.813c0 0.308 0.172 0.481 0.594 0.563l6.406-6.313v-12.594h-10.844zM23 8v12h2v-12h-2z"></path>
</svg>
