<!-- Generated by IcoMoon.io -->
<svg version="1.1" xmlns="http://www.w3.org/2000/svg" width="32" height="32" viewBox="0 0 32 32">
<title>thumb-tack</title>
<path d="M20.469 2.563l0.75 0.719 7.5 7.5 0.688 0.719-0.688 0.719c-1.268 1.268-3.044 1.769-4.781 1.563l-3.563 3.563c0.628 2.588 0.033 5.467-2.063 7.563l-0.719 0.719-0.688-0.719-4.219-4.219-8.281 8.313h-1.406v-1.406l8.313-8.281-4.313-4.313-0.719-0.688 0.719-0.719c1.903-1.903 4.559-2.595 7.031-2.156l4.063-4.063c0.114-1.457 0.611-2.913 1.656-4.063zM20.688 5.625c-0.395 0.718-0.688 1.478-0.688 2.281v0.406l-5.313 5.313-0.531-0.156c-1.639-0.427-3.389 0.032-4.844 1.031l8.188 8.188c1.159-1.625 1.431-3.612 0.844-5.375l-0.188-0.594 5.031-5.031 0.563 0.156c0.909 0.227 1.8-0.064 2.625-0.531z"></path>
</svg>
