<!-- Generated by IcoMoon.io -->
<svg version="1.1" xmlns="http://www.w3.org/2000/svg" width="32" height="32" viewBox="0 0 32 32">
<title>tint</title>
<path d="M16 3.438l0.781 0.938s1.999 2.408 4.031 5.406c1.016 1.499 2.062 3.136 2.844 4.719s1.344 3.097 1.344 4.5c0 4.945-4.055 9-9 9s-9-4.055-9-9c0-1.403 0.562-2.917 1.344-4.5s1.828-3.22 2.844-4.719c2.032-2.998 4.031-5.406 4.031-5.406zM16 6.656c-0.56 0.689-1.605 1.916-3.188 4.25-0.984 1.451-1.938 3.046-2.656 4.5s-1.156 2.797-1.156 3.594c0 3.855 3.145 7 7 7s7-3.145 7-7c0-0.797-0.438-2.139-1.156-3.594s-1.672-3.049-2.656-4.5c-1.582-2.334-2.627-3.561-3.188-4.25zM11 19h2c0 1.655 1.345 3 3 3v2c-2.745 0-5-2.255-5-5z"></path>
</svg>
