<!-- Generated by IcoMoon.io -->
<svg version="1.1" xmlns="http://www.w3.org/2000/svg" width="32" height="32" viewBox="0 0 32 32">
<title>train</title>
<path d="M14 3h4c1.259 0 2.152 0.89 2.594 2h1.406c2.75 0 5 2.251 5 5v11c0 2.425-1.45 4.525-3.531 5.469l2.531 2.531h-2.344l-2.031-2.031c-0.201 0.021-0.419 0.031-0.625 0.031h-10c-0.206 0-0.424-0.011-0.625-0.031l-2.031 2.031h-2.344l2.531-2.531c-2.081-0.944-3.531-3.044-3.531-5.469v-11c0-2.749 2.251-5 5-5h1.406c0.442-1.109 1.335-2 2.594-2zM14 5c-0.565 0-1 0.435-1 1v1h-3c-1.318 0-2.437 0.828-2.844 2h17.688c-0.407-1.172-1.525-2-2.844-2h-3v-1c0-0.565-0.435-1-1-1h-4zM7 11v5h18v-5h-18zM7 18v3c0 2.22 1.78 4 4 4h10c2.22 0 4-1.78 4-4v-3h-18zM16 19c1.105 0 2 0.895 2 2s-0.895 2-2 2-2-0.895-2-2 0.895-2 2-2z"></path>
</svg>
