<!-- Generated by IcoMoon.io -->
<svg version="1.1" xmlns="http://www.w3.org/2000/svg" width="32" height="32" viewBox="0 0 32 32">
<title>transgender-alt</title>
<path d="M4 4h7v2h-3.594l3.094 3.063 1.781-1.781 1.438 1.438-1.781 1.781 1.313 1.313c0.791-0.526 1.734-0.813 2.75-0.813s1.959 0.286 2.75 0.813l5.844-5.813h-3.594v-2h7v7h-2v-3.594l-5.813 5.844c0.526 0.791 0.813 1.734 0.813 2.75 0 2.406-1.727 4.438-4 4.906v2.094h3v2h-3v3h-2v-3h-3v-2h3v-2.094c-2.273-0.468-4-2.5-4-4.906 0-1.016 0.286-1.959 0.813-2.75l-1.313-1.313-1.781 1.781-1.438-1.438 1.781-1.781-3.063-3.094v3.594h-2v-7zM16 13c-1.669 0-3 1.331-3 3s1.331 3 3 3 3-1.331 3-3-1.331-3-3-3z"></path>
</svg>
