<!-- Generated by IcoMoon.io -->
<svg version="1.1" xmlns="http://www.w3.org/2000/svg" width="32" height="32" viewBox="0 0 32 32">
<title>tree</title>
<path d="M16 3.594l0.719 0.688 5.938 5.969 1 0.969-1.281 0.625s-1.015 0.366-2.438 0.688l4.406 4.406 1 0.969-1.25 0.625s-1.079 0.304-1.625 0.5l3.594 3.594 0.969 1-1.219 0.625s-2.462 1.176-6.813 1.594v3.156h-2v-3.031c-0.335 0.011-0.648 0.031-1 0.031s-0.666-0.021-1-0.031v3.031h-2v-3.156c-4.343-0.417-6.781-1.594-6.781-1.594l-1.25-0.625 0.969-1 3.594-3.594c-0.546-0.196-1.625-0.5-1.625-0.5l-1.25-0.625 1-0.969 4.406-4.406c-1.422-0.322-2.438-0.688-2.438-0.688l-1.281-0.625 1-0.969 5.938-5.969zM16 6.438l-4 3.969c0.593 0.199 0.714 0.356 2.188 0.5l1.813 0.188 1.813-0.188c1.474-0.144 1.594-0.301 2.188-0.5zM16 11.438l-1.188 1.156-4.594 4.594c0.465 0.163 0.453 0.219 1.406 0.406l1.844 0.375-1.344 1.313-3.625 3.656c1.287 0.457 3.459 1.063 7.5 1.063 4.077 0 6.258-0.607 7.531-1.063l-3.656-3.656-1.344-1.313 1.844-0.375c0.953-0.188 0.941-0.243 1.406-0.406l-4.594-4.594z"></path>
</svg>
