<!-- Generated by IcoMoon.io -->
<svg version="1.1" xmlns="http://www.w3.org/2000/svg" width="32" height="32" viewBox="0 0 32 32">
<title>tripadvisor</title>
<path d="M16 6.594c4.251 0 7.973 1.142 10.688 2.969h5.313c-0.828 0.969-1.443 2.287-1.594 3.188 0.956 1.313 1.531 2.939 1.531 4.688 0 4.399-3.57 7.969-7.969 7.969-2.493 0-4.727-1.145-6.188-2.938-0.643 0.788-1.781 2.469-1.781 2.469-0.2-0.407-1.186-1.804-1.781-2.5-1.461 1.797-3.692 2.969-6.188 2.969-4.4 0-7.969-3.569-7.969-7.969 0-1.749 0.575-3.373 1.531-4.688-0.152-0.899-0.767-2.221-1.594-3.188h5.063c2.715-1.828 6.684-2.969 10.938-2.969zM16 7.938c-2.846 0-5.659 0.538-7.938 1.531 4.393 0.006 7.936 3.575 7.938 7.969 0.001-4.315 3.436-7.838 7.719-7.969-2.281-0.997-4.868-1.531-7.719-1.531zM8.031 11c-3.542 0-6.406 2.896-6.406 6.438 0 3.542 2.864 6.406 6.406 6.406s6.406-2.863 6.406-6.406c0-3.541-2.864-6.438-6.406-6.438zM23.969 11c-3.542 0-6.406 2.896-6.406 6.438 0 3.542 2.864 6.406 6.406 6.406 3.541 0 6.406-2.863 6.406-6.406 0-3.541-2.865-6.438-6.406-6.438zM7.938 13.531c2.136 0 3.875 1.739 3.875 3.875s-1.739 3.875-3.875 3.875c-2.135 0-3.875-1.739-3.875-3.875s1.74-3.875 3.875-3.875zM23.969 13.531c2.135 0 3.875 1.739 3.875 3.875 0 2.135-1.74 3.844-3.875 3.844s-3.875-1.709-3.875-3.844c0-2.136 1.739-3.875 3.875-3.875zM7.938 14.719c-1.48 0-2.688 1.208-2.688 2.688s1.208 2.688 2.688 2.688 2.688-1.208 2.688-2.688c0-1.48-1.208-2.688-2.688-2.688zM23.969 14.719c-1.48 0-2.688 1.208-2.688 2.688s1.208 2.656 2.688 2.656 2.688-1.177 2.688-2.656c0-1.481-1.208-2.688-2.688-2.688zM7.75 16.094c0.718 0 1.281 0.595 1.281 1.313s-0.563 1.313-1.281 1.313-1.313-0.595-1.313-1.313 0.595-1.313 1.313-1.313zM23.75 16.094c0.718 0 1.313 0.595 1.313 1.313s-0.595 1.281-1.313 1.281-1.281-0.563-1.281-1.281 0.563-1.313 1.281-1.313z"></path>
</svg>
