<!-- Generated by IcoMoon.io -->
<svg version="1.1" xmlns="http://www.w3.org/2000/svg" width="32" height="32" viewBox="0 0 32 32">
<title>truck</title>
<path d="M0 4h18v4h5.406l0.313 0.281 6 6 0.281 0.313v10.406h-3.156c-0.447 1.72-1.991 3-3.844 3s-3.397-1.28-3.844-3h-8.313c-0.447 1.72-1.991 3-3.844 3s-3.397-1.28-3.844-3h-3.156v-21zM2 6v17h1.156c0.447-1.72 1.991-3 3.844-3s3.397 1.28 3.844 3h5.156v-17h-14zM18 10v13h1.156c0.447-1.72 1.991-3 3.844-3s3.397 1.28 3.844 3h1.156v-7.563l-5.438-5.438h-4.563zM7 22c-1.116 0-2 0.884-2 2s0.884 2 2 2 2-0.884 2-2-0.884-2-2-2zM23 22c-1.116 0-2 0.884-2 2s0.884 2 2 2 2-0.884 2-2-0.884-2-2-2z"></path>
</svg>
