<!-- Generated by IcoMoon.io -->
<svg version="1.1" xmlns="http://www.w3.org/2000/svg" width="32" height="32" viewBox="0 0 32 32">
<title>tty</title>
<path d="M16 4c3.893 0 7.19 0.717 9.406 1.375 2.12 0.631 3.594 2.592 3.594 4.813v2.813c0 1.093-0.907 2-2 2h-4c-1.093 0-2-0.907-2-2v-2.625c-0.187-0.088-0.227-0.12-0.781-0.281-0.91-0.264-2.302-0.531-4.219-0.531s-3.308 0.267-4.219 0.531c-0.554 0.161-0.594 0.194-0.781 0.281v2.625c0 1.093-0.907 2-2 2h-4c-1.093 0-2-0.907-2-2v-2.813c0-2.22 1.473-4.182 3.594-4.813 2.216-0.659 5.513-1.375 9.406-1.375zM16 6c-3.647 0-6.768 0.664-8.844 1.281-1.291 0.384-2.156 1.567-2.156 2.906v2.813h4v-3.875l0.5-0.281s0.635-0.373 1.719-0.688 2.673-0.594 4.781-0.594 3.698 0.279 4.781 0.594 1.719 0.688 1.719 0.688l0.5 0.281v3.875h4v-2.813c0-1.34-0.864-2.522-2.156-2.906-2.076-0.616-5.197-1.281-8.844-1.281zM10 17c1.105 0 2 0.895 2 2s-0.895 2-2 2-2-0.895-2-2 0.895-2 2-2zM16 17c1.105 0 2 0.895 2 2s-0.895 2-2 2-2-0.895-2-2 0.895-2 2-2zM22 17c1.105 0 2 0.895 2 2s-0.895 2-2 2-2-0.895-2-2 0.895-2 2-2zM10 23c1.105 0 2 0.895 2 2s-0.895 2-2 2-2-0.895-2-2 0.895-2 2-2zM16 23c1.105 0 2 0.895 2 2s-0.895 2-2 2-2-0.895-2-2 0.895-2 2-2zM22 23c1.105 0 2 0.895 2 2s-0.895 2-2 2-2-0.895-2-2 0.895-2 2-2z"></path>
</svg>
