<!-- Generated by IcoMoon.io -->
<svg version="1.1" xmlns="http://www.w3.org/2000/svg" width="32" height="32" viewBox="0 0 32 32">
<title>tumblr-square</title>
<path d="M14.219 5h2.5c0.678 0 1.25 0.572 1.25 1.25v3.719h3.094c0.678 0 1.25 0.567 1.25 1.25v3c0 0.683-0.572 1.25-1.25 1.25h-3.094v4.938c0-0.096 0.037 0.3 0.156 0.531s0.163 0.406 0.781 0.406c1.187 0 2.273-0.616 2.344-0.656 0.002-0.001 0.031-0.031 0.031-0.031l0.031 0.031c0.388-0.226 0.844-0.271 1.219-0.063 0.391 0.22 0.656 0.649 0.656 1.094v2.656c0 0.347-0.169 0.698-0.438 0.938-0.146 0.127-2.096 1.688-6.031 1.688-2.582 0-4.157-1.595-4.844-3.125s-0.688-3.018-0.688-3.375v-5.219h-1.125c-0.678 0-1.25-0.572-1.25-1.25v-2.219c0-0.514 0.328-0.966 0.813-1.156-0.088 0.033 0.009 0.009 0.031 0s0.047-0.041 0.094-0.063c0.093-0.043 0.21-0.096 0.375-0.188 0.329-0.183 0.79-0.47 1.219-0.844 0.858-0.748 1.625-1.8 1.625-3.313 0-0.678 0.572-1.25 1.25-1.25zM14.781 7c-0.253 1.791-1.144 3.208-2.125 4.063-0.564 0.491-1.108 0.858-1.531 1.094-0.126 0.070-0.213 0.107-0.313 0.156v0.969h2.375v7.219c0 0.205 0.049 1.486 0.531 2.563s1.162 1.938 3 1.938c3.044 0 4.206-0.854 4.469-1.063v-1.031c-0.598 0.222-1.379 0.438-2.281 0.438-1.269 0-2.195-0.76-2.563-1.469s-0.375-1.296-0.375-1.469v-6.938h4.344v-1.5h-4.344v-4.969h-1.188z"></path>
</svg>
