<!-- Generated by IcoMoon.io -->
<svg version="1.1" xmlns="http://www.w3.org/2000/svg" width="32" height="32" viewBox="0 0 32 32">
<title>twitter-square</title>
<path d="M28 8.557c-0.66 0.987-1.495 1.854-2.457 2.549 0.009 0.211 0.014 0.424 0.014 0.637 0 6.507-4.952 14.010-14.009 14.010-2.781 0-5.369-0.815-7.548-2.212 0.386 0.046 0.778 0.069 1.175 0.069 2.307 0 4.43-0.787 6.115-2.108-2.155-0.040-3.973-1.464-4.6-3.42 0.3 0.057 0.609 0.088 0.926 0.088 0.45 0 0.885-0.060 1.298-0.173-2.253-0.452-3.95-2.442-3.95-4.828v-0.062c0.664 0.369 1.423 0.59 2.23 0.616-1.321-0.883-2.19-2.39-2.19-4.098 0-0.903 0.243-1.749 0.666-2.476 2.429 2.979 6.057 4.94 10.149 5.145-0.083-0.36-0.127-0.736-0.127-1.122 0-2.719 2.205-4.924 4.924-4.924 1.416 0 2.696 0.598 3.594 1.555 1.122-0.221 2.176-0.631 3.127-1.195-0.368 1.15-1.148 2.115-2.165 2.724 0.996-0.119 1.945-0.383 2.828-0.775z"></path>
</svg>
