<!-- Generated by IcoMoon.io -->
<svg version="1.1" xmlns="http://www.w3.org/2000/svg" width="32" height="32" viewBox="0 0 32 32">
<title>umbrella</title>
<path d="M15 4h2v2.063c6.012 0.502 10.745 5.407 10.969 10.563 0.021 0.12 0.031 0.247 0.031 0.375h-2c0-0.080-0.088-0.278-0.531-0.531s-1.157-0.469-1.969-0.469-1.526 0.216-1.969 0.469-0.531 0.451-0.531 0.531h-2c0-0.012-0.083-0.26-0.625-0.531s-1.406-0.469-2.375-0.469-1.833 0.198-2.375 0.469-0.625 0.519-0.625 0.531h-2c0-0.080-0.088-0.278-0.531-0.531s-1.157-0.469-1.969-0.469-1.526 0.216-1.969 0.469-0.531 0.451-0.531 0.531h-2c0-0.127 0.026-0.248 0.031-0.375 0.224-5.156 4.957-10.060 10.969-10.563v-2.063zM16 8c-4.346 0-8.061 2.954-9.438 6.281 0.595-0.184 1.244-0.281 1.938-0.281 1.121 0 2.145 0.248 2.969 0.719 0.199 0.113 0.386 0.257 0.563 0.406 0.007 0.006 0.025-0.006 0.031 0 0.209-0.158 0.423-0.321 0.656-0.438 0.906-0.453 2.042-0.688 3.281-0.688s2.375 0.235 3.281 0.688c0.24 0.12 0.474 0.273 0.688 0.438 0.177-0.149 0.364-0.293 0.563-0.406 0.824-0.471 1.848-0.719 2.969-0.719 0.693 0 1.343 0.097 1.938 0.281-1.376-3.327-5.091-6.281-9.438-6.281zM15 17h2v8c0 1.645-1.355 3-3 3s-3-1.355-3-3v-1h2v1c0 0.565 0.435 1 1 1s1-0.435 1-1v-8z"></path>
</svg>
