<!-- Generated by IcoMoon.io -->
<svg version="1.1" xmlns="http://www.w3.org/2000/svg" width="32" height="32" viewBox="0 0 32 32">
<title>unlock</title>
<path d="M15 3c3.845 0 7 3.155 7 7v2.875c1.847 1.816 3 4.338 3 7.125 0 5.511-4.489 10-10 10s-10-4.489-10-10c0-2.787 1.153-5.309 3-7.125v-2.875c0-3.845 3.155-7 7-7zM15 5c-2.755 0-5 2.245-5 5v1.375c1.475-0.859 3.174-1.375 5-1.375s3.525 0.516 5 1.375v-1.375c0-2.755-2.245-5-5-5zM15 12c-4.43 0-8 3.57-8 8s3.57 8 8 8 8-3.57 8-8-3.57-8-8-8zM15 18c1.105 0 2 0.895 2 2 0 0.74-0.403 1.373-1 1.719v3.281h-2v-3.281c-0.597-0.346-1-0.979-1-1.719 0-1.105 0.895-2 2-2z"></path>
</svg>
