<!-- Generated by IcoMoon.io -->
<svg version="1.1" xmlns="http://www.w3.org/2000/svg" width="32" height="32" viewBox="0 0 32 32">
<title>user-md</title>
<path d="M8.438 6h15.063l0.313 0.406s0.838 1.146 1.625 3.375 1.563 5.608 1.563 10.219v1h-6.094c0.067 0.325 0.094 0.656 0.094 1 0 2.75-2.25 5-5 5s-5-2.25-5-5c0-0.344 0.027-0.675 0.094-1h-6.094v-1c0-8.347 3.156-13.531 3.156-13.531zM9.656 8c-0.33 0.57-2.334 4.35-2.563 11h4.906c0.915-1.209 2.376-2 4-2s3.085 0.791 4 2h4.906c-0.112-3.799-0.694-6.689-1.344-8.531-0.613-1.737-1.042-2.261-1.188-2.469h-12.719zM15 10h2v2h2v2h-2v2h-2v-2h-2v-2h2v-2zM16 19c-1.669 0-3 1.331-3 3s1.331 3 3 3 3-1.331 3-3-1.331-3-3-3zM16 21c0.552 0 1 0.448 1 1s-0.448 1-1 1-1-0.448-1-1 0.448-1 1-1z"></path>
</svg>
