<!-- Generated by IcoMoon.io -->
<svg version="1.1" xmlns="http://www.w3.org/2000/svg" width="32" height="32" viewBox="0 0 32 32">
<title>user-secret</title>
<path d="M13.063 4c1.173 0 1.979 0.5 2.938 0.5 0.48 0 0.962-0.099 1.438-0.219s0.916-0.281 1.5-0.281c0.861 0 1.621 0.429 2.156 1s0.912 1.287 1.25 2.063c0.525 1.203 0.939 2.572 1.313 3.875 1.086 0.316 2.007 0.71 2.75 1.188 0.868 0.558 1.594 1.33 1.594 2.375 0 0.908-0.554 1.632-1.25 2.156-0.593 0.446-1.324 0.816-2.188 1.125-0.049 0.232-0.126 0.466-0.219 0.688 0.844 0.477 2.178 1.397 3.469 3.156l0.594 0.844-0.844 0.594-3.281 2.25 1.344 2.688h-19.25l1.344-2.688-3.281-2.25-0.844-0.594 0.594-0.844c1.291-1.759 2.625-2.679 3.469-3.156-0.093-0.221-0.17-0.456-0.219-0.688-0.863-0.309-1.595-0.679-2.188-1.125-0.696-0.524-1.25-1.248-1.25-2.156 0-1.043 0.728-1.817 1.594-2.375 0.741-0.477 1.665-0.871 2.75-1.188 0.34-1.259 0.717-2.602 1.25-3.813 0.346-0.786 0.74-1.513 1.281-2.094s1.314-1.031 2.188-1.031zM13.063 6c-0.218 0-0.421 0.087-0.719 0.406s-0.612 0.864-0.906 1.531c-0.488 1.109-0.89 2.517-1.25 3.844l0 0.016-0 0.016c-0.006 0.129-0.062 0.325-0.125 0.438-0.008 0.009-0.022 0.023-0.031 0.031-0.002 0.009 0.002 0.022 0 0.031l0 0.016-0 0.016c0.018 0.005 0.047-0.011 0.125 0.031 0.256 0.137 0.77 0.308 1.406 0.406 1.272 0.197 3.007 0.219 4.438 0.219 1.438 0 3.168 0.002 4.438-0.188 0.635-0.095 1.155-0.27 1.406-0.406 0.147-0.080 0.093-0.033 0.094-0.031-0.45-1.561-0.864-3.257-1.406-4.5-0.287-0.657-0.622-1.197-0.906-1.5s-0.456-0.375-0.688-0.375c-0.086 0-0.481 0.088-1 0.219s-1.187 0.281-1.938 0.281c-1.501 0-2.732-0.5-2.938-0.5zM8.188 13.094c-0.631 0.23-1.169 0.485-1.531 0.719-0.579 0.373-0.656 0.621-0.656 0.688 0 0.059 0.052 0.249 0.469 0.563s1.137 0.674 2.063 0.969c1.851 0.589 4.517 0.969 7.469 0.969s5.618-0.38 7.469-0.969c0.925-0.294 1.646-0.655 2.063-0.969s0.469-0.504 0.469-0.563c0-0.066-0.107-0.345-0.688-0.719-0.363-0.233-0.881-0.468-1.5-0.688-0.224 0.477-0.621 0.871-1.031 1.094-0.612 0.332-1.307 0.481-2.063 0.594-1.512 0.226-3.281 0.219-4.719 0.219-1.445 0-3.21-0.016-4.719-0.25-0.755-0.117-1.455-0.269-2.063-0.594-0.407-0.218-0.806-0.594-1.031-1.063zM10.781 18.563l0.094 0.625c0.328 1.651 1.051 3.146 1.969 4.188s1.98 1.608 3.156 1.625c1.145 0.016 2.232-0.543 3.156-1.594s1.661-2.576 1.969-4.219l0.094-0.625c-0.33 0.054-0.654 0.144-1 0.188-0.13 0.877-0.813 1.652-1.906 1.719-0.842 0.052-1.791-0.346-1.875-1.469-0.148 0.002-0.288 0-0.438 0s-0.289 0.002-0.438 0c-0.084 1.122-1.033 1.52-1.875 1.469-1.093-0.067-1.777-0.842-1.906-1.719-0.346-0.044-0.67-0.133-1-0.188zM23 20c-0.033 0.019-0.060 0.044-0.094 0.063-0.412 1.768-1.15 3.407-2.25 4.656-0.428 0.487-0.915 0.928-1.438 1.281h3.156l-0.281-0.563-0.375-0.781 0.719-0.469 3.031-2.094c-1.12-1.234-2.096-1.876-2.469-2.094zM8.969 20.031c-0.416 0.25-1.377 0.895-2.438 2.063l3.031 2.094 0.719 0.469-0.375 0.781-0.281 0.563h3.25c-0.558-0.363-1.082-0.803-1.531-1.313-1.085-1.231-1.822-2.849-2.25-4.594-0.041-0.022-0.085-0.039-0.125-0.063z"></path>
</svg>
