<!-- Generated by IcoMoon.io -->
<svg version="1.1" xmlns="http://www.w3.org/2000/svg" width="32" height="32" viewBox="0 0 32 32">
<title>venus-double</title>
<path d="M11 3c4.411 0 8 3.589 8 8 0 1.432-0.37 2.774-1.031 3.938-0.584-0.452-1.069-1.024-1.406-1.688 0.282-0.695 0.438-1.455 0.438-2.25 0-3.309-2.691-6-6-6s-6 2.691-6 6 2.691 6 6 6c0.995 0 1.923-0.256 2.75-0.688 0.407 0.552 0.886 1.054 1.406 1.5-0.942 0.575-2.013 0.949-3.156 1.094v4.094h8v-4.063c-3.94-0.495-7-3.866-7-7.938 0-1.432 0.37-2.774 1.031-3.938 0.584 0.452 1.069 1.024 1.406 1.688-0.282 0.695-0.438 1.455-0.438 2.25 0 3.309 2.691 6 6 6s6-2.691 6-6-2.691-6-6-6c-0.995 0-1.922 0.256-2.75 0.688-0.406-0.552-0.886-1.054-1.406-1.5 1.212-0.74 2.635-1.188 4.156-1.188 4.411 0 8 3.589 8 8 0 4.072-3.060 7.443-7 7.938v4.063h4v2h-4v4h-2v-4h-8v4h-2v-4h-4v-2h4v-4.063c-3.94-0.495-7-3.866-7-7.938 0-4.411 3.589-8 8-8z"></path>
</svg>
