<!-- Generated by IcoMoon.io -->
<svg version="1.1" xmlns="http://www.w3.org/2000/svg" width="32" height="32" viewBox="0 0 32 32">
<title>venus-mars</title>
<path d="M22 3h7v7h-2v-3.563l-3.406 3.375c0.903 1.203 1.406 2.656 1.406 4.188 0 1.87-0.74 3.614-2.063 4.938-0.185 0.185-0.361 0.369-0.563 0.531 0.083-0.48 0.125-0.971 0.125-1.469 0-0.536-0.060-1.078-0.156-1.594 0.411-0.735 0.656-1.541 0.656-2.406 0-1.335-0.525-2.587-1.469-3.531s-2.196-1.469-3.531-1.469-2.587 0.524-3.531 1.469-1.469 2.196-1.469 3.531 0.525 2.587 1.469 3.531c0.79 0.79 1.785 1.266 2.875 1.406-0.16 0.574-0.442 1.098-0.875 1.531-0.102 0.103-0.23 0.194-0.344 0.281-1.156-0.317-2.192-0.942-3.063-1.813-1.322-1.323-2.063-3.067-2.063-4.938s0.74-3.615 2.063-4.938 3.067-2.063 4.938-2.063c1.531 0 2.985 0.504 4.188 1.406l3.375-3.406h-3.563v-2zM15.875 11.25c1.156 0.317 2.192 0.942 3.063 1.813 1.322 1.323 2.063 3.067 2.063 4.938s-0.74 3.615-2.063 4.938-3.067 2.063-4.938 2.063c-1.534 0-2.983-0.5-4.188-1.406l-1.688 1.688 2 2-1.406 1.438-2-2-2 2-1.438-1.438 2-2-2-2 1.438-1.406 2 2 1.688-1.688c-0.903-1.203-1.406-2.657-1.406-4.188 0-1.87 0.74-3.614 2.063-4.938 0.185-0.185 0.361-0.369 0.563-0.531-0.083 0.48-0.125 0.971-0.125 1.469 0 0.536 0.059 1.078 0.156 1.594-0.411 0.735-0.656 1.541-0.656 2.406 0 1.335 0.525 2.587 1.469 3.531s2.196 1.469 3.531 1.469 2.587-0.524 3.531-1.469 1.469-2.196 1.469-3.531-0.525-2.587-1.469-3.531c-0.79-0.79-1.785-1.266-2.875-1.406 0.16-0.574 0.442-1.098 0.875-1.531 0.102-0.103 0.23-0.194 0.344-0.281z"></path>
</svg>
