<!-- Generated by IcoMoon.io -->
<svg version="1.1" xmlns="http://www.w3.org/2000/svg" width="32" height="32" viewBox="0 0 32 32">
<title>vimeo-square</title>
<path d="M27.988 10.412c-0.107 2.341-1.739 5.546-4.895 9.614-3.263 4.249-6.024 6.374-8.282 6.374-1.399 0-2.583-1.294-3.55-3.882-0.646-2.372-1.291-4.744-1.937-7.117-0.718-2.587-1.488-3.882-2.312-3.882-0.18 0-0.808 0.379-1.883 1.133l-1.129-1.457c1.185-1.043 2.353-2.085 3.503-3.129 1.58-1.368 2.766-2.087 3.556-2.16 1.868-0.18 3.018 1.099 3.449 3.838 0.466 2.955 0.789 4.792 0.97 5.511 0.538 2.451 1.131 3.675 1.778 3.675 0.502 0 1.257-0.795 2.263-2.385s1.543-2.8 1.616-3.631c0.143-1.372-0.395-2.060-1.616-2.060-0.575 0-1.167 0.132-1.776 0.394 1.179-3.871 3.433-5.751 6.759-5.644 2.466 0.073 3.628 1.675 3.486 4.808z"></path>
</svg>
