<!-- Generated by IcoMoon.io -->
<svg version="1.1" xmlns="http://www.w3.org/2000/svg" width="32" height="32" viewBox="0 0 32 32">
<title>vk</title>
<path d="M9.094 5h13.813c2.243 0 4.094 1.851 4.094 4.094v13.813c0 2.243-1.851 4.094-4.094 4.094h-13.813c-2.243 0-4.094-1.851-4.094-4.094v-13.813c0-2.243 1.851-4.094 4.094-4.094zM9.094 7c-1.161 0-2.094 0.932-2.094 2.094v13.813c0 1.161 0.932 2.094 2.094 2.094h13.813c1.161 0 2.094-0.932 2.094-2.094v-13.813c0-1.161-0.932-2.094-2.094-2.094h-13.813zM15.719 12.219c0.573 0.006 0.745 0.040 0.969 0.094 0.674 0.163 0.438 0.805 0.438 2.313 0 0.482-0.099 1.15 0.25 1.375 0.15 0.096 0.521 0.025 1.438-1.531 0.434-0.738 0.75-1.594 0.75-1.594s0.076-0.153 0.188-0.219c0.113-0.068 0.281-0.063 0.281-0.063h2.063s0.619-0.091 0.719 0.188c0.105 0.293-0.253 0.973-1.094 2.094-1.381 1.84-1.521 1.686-0.375 2.75 1.095 1.016 1.307 1.502 1.344 1.563 0.453 0.752-0.5 0.813-0.5 0.813l-1.813 0.031s-0.389 0.074-0.906-0.281c-0.684-0.469-1.342-1.69-1.844-1.531-0.509 0.161-0.5 1.25-0.5 1.25s0.022 0.25-0.094 0.375c-0.126 0.136-0.375 0.156-0.375 0.156h-0.813s-1.814 0.123-3.406-1.531c-1.734-1.805-3.281-5.406-3.281-5.406s-0.065-0.23 0.031-0.344c0.107-0.128 0.406-0.125 0.406-0.125l1.938-0.031s0.18 0.028 0.313 0.125c0.109 0.080 0.188 0.25 0.188 0.25s0.3 0.777 0.719 1.5c0.817 1.411 1.192 1.745 1.469 1.594 0.404-0.221 0.281-2 0.281-2s0.024-0.65-0.188-0.938c-0.163-0.222-0.489-0.294-0.625-0.313-0.11-0.015 0.079-0.26 0.313-0.375 0.352-0.173 0.985-0.195 1.719-0.188z"></path>
</svg>
