<!-- Generated by IcoMoon.io -->
<svg version="1.1" xmlns="http://www.w3.org/2000/svg" width="32" height="32" viewBox="0 0 32 32">
<title>weibo</title>
<path d="M21.938 6.281c1.633 0.077 3.256 0.784 4.438 2.094 1.577 1.746 1.985 4.129 1.313 6.219-0.157 0.482-0.674 0.75-1.156 0.594-0.484-0.156-0.75-0.672-0.594-1.156 0.479-1.485 0.182-3.196-0.938-4.438-1.121-1.24-2.786-1.699-4.313-1.375-0.496 0.106-0.989-0.223-1.094-0.719-0.107-0.495 0.223-0.988 0.719-1.094 0.537-0.114 1.081-0.151 1.625-0.125zM13.656 9.031c0.761-0.081 1.367 0.085 1.781 0.5 0.585 0.585 0.657 1.604 0.281 2.813-0.196 0.609 0.563 0.249 0.563 0.25 2.443-1.023 4.596-1.082 5.375 0.031 0.416 0.594 0.352 1.442-0.031 2.406-0.177 0.444 0.068 0.493 0.406 0.594 1.377 0.427 2.906 1.461 2.906 3.281 0 3.011-4.348 6.813-10.875 6.813-4.979 0-10.063-2.406-10.063-6.375 0-2.075 1.3-4.485 3.563-6.75 2.078-2.078 4.419-3.384 6.094-3.563zM21.781 9.531c0.795 0.037 1.581 0.393 2.156 1.031 0.769 0.851 0.984 2.014 0.656 3.031-0.134 0.416-0.584 0.633-1 0.5-0.416-0.135-0.634-0.585-0.5-1 0.161-0.497 0.063-1.053-0.313-1.469-0.376-0.415-0.958-0.577-1.469-0.469-0.426 0.093-0.846-0.168-0.938-0.594-0.092-0.428 0.197-0.878 0.625-0.969 0.261-0.055 0.516-0.075 0.781-0.063zM14.594 14.813c-0.475-0.017-0.941-0.018-1.438 0.031-3.972 0.392-7.008 2.83-6.75 5.438s3.714 4.423 7.688 4.031 6.977-2.828 6.719-5.438c-0.226-2.281-2.897-3.946-6.219-4.063zM13.031 16.75c0.479-0.045 0.965 0.002 1.438 0.125 1.957 0.505 2.956 2.332 2.156 4.125-0.811 1.834-3.146 2.825-5.125 2.188-1.91-0.617-2.711-2.52-1.875-4.219 0.616-1.25 1.969-2.083 3.406-2.219zM13.938 18.938c-0.189 0.003-0.396 0.107-0.5 0.281-0.134 0.234-0.050 0.497 0.188 0.594 0.241 0.099 0.549-0.012 0.688-0.25 0.133-0.239 0.022-0.506-0.219-0.594-0.059-0.023-0.093-0.032-0.156-0.031zM12.094 19.5c-0.501-0.006-0.996 0.273-1.281 0.719-0.384 0.597-0.205 1.316 0.406 1.594 0.62 0.283 1.429-0.012 1.813-0.625 0.378-0.619 0.185-1.329-0.438-1.594-0.154-0.064-0.333-0.092-0.5-0.094z"></path>
</svg>
