<!-- Generated by IcoMoon.io -->
<svg version="1.1" xmlns="http://www.w3.org/2000/svg" width="32" height="32" viewBox="0 0 32 32">
<title>weixin</title>
<path d="M14 5c5.421 0 10 3.71 10 8.5 0 0.468-0.039 0.906-0.125 1.344 2.416 1.048 4.125 3.193 4.125 5.75 0 1.207-0.463 2.299-1.125 3.25l0.219 1.813 0.25 1.938-1.719-0.938-1.188-0.688c-1.158 0.621-2.484 1.031-3.938 1.031-3.524 0-6.613-2.11-7.344-5.063-1.501-0.117-2.908-0.509-4.156-1.125l-2.5 1.031-1.594 0.688 0.219-1.75 0.375-2.906c-0.908-1.274-1.5-2.758-1.5-4.375 0-4.79 4.579-8.5 10-8.5zM14 7c-4.521 0-8 3.006-8 6.5 0 1.306 0.474 2.524 1.313 3.563l0.25 0.313-0.031 0.438-0.219 1.531 1.281-0.531 0.438-0.188 0.438 0.219c1.033 0.581 2.244 0.962 3.563 1.094 0.379-3.321 3.669-5.781 7.469-5.781 0.494 0 0.966 0.045 1.438 0.125 0.041-0.255 0.063-0.516 0.063-0.781 0-3.494-3.479-6.5-8-6.5zM10.563 9.156c0.778 0 1.406 0.63 1.406 1.406s-0.629 1.438-1.406 1.438-1.406-0.659-1.406-1.438c0-0.776 0.629-1.406 1.406-1.406zM17.25 9.156c0.777 0 1.406 0.63 1.406 1.406 0 0.778-0.629 1.438-1.406 1.438-0.779 0-1.438-0.659-1.438-1.438 0-0.777 0.661-1.406 1.438-1.406zM20.5 16.156c-3.139 0-5.5 2.095-5.5 4.438 0 2.344 2.36 4.406 5.5 4.406 1.313 0 2.503-0.362 3.438-0.969l0.5-0.344 0.469 0.25-0.031-0.188-0.063-0.406 0.281-0.344c0.586-0.713 0.906-1.518 0.906-2.406 0-2.344-2.36-4.438-5.5-4.438zM18 17.438c0.588 0 1.063 0.474 1.063 1.063s-0.476 1.063-1.063 1.063c-0.589 0-1.094-0.474-1.094-1.063s0.504-1.063 1.094-1.063zM23.031 17.438c0.589 0 1.063 0.474 1.063 1.063s-0.474 1.063-1.063 1.063c-0.588 0-1.063-0.474-1.063-1.063s0.476-1.063 1.063-1.063z"></path>
</svg>
