<!-- Generated by IcoMoon.io -->
<svg version="1.1" xmlns="http://www.w3.org/2000/svg" width="32" height="32" viewBox="0 0 32 32">
<title>whatsapp</title>
<path d="M24.503 7.503c2.256 2.258 3.498 5.26 3.498 8.452-0.003 6.587-5.364 11.946-11.95 11.946v0h-0.005c-2-0.001-3.966-0.502-5.711-1.454l-6.335 1.661 1.695-6.191c-1.046-1.811-1.596-3.867-1.595-5.972 0.003-6.586 5.364-11.945 11.95-11.945 3.197 0.001 6.197 1.245 8.453 3.503zM16.050 25.883c5.475 0 9.93-4.454 9.931-9.929 0.001-2.653-1.031-5.147-2.906-7.024s-4.369-2.911-7.022-2.912c-5.478 0-9.934 4.453-9.936 9.928 0 1.876 0.525 3.703 1.519 5.284l0.236 0.376-1.003 3.664 3.759-0.986 0.363 0.215c1.525 0.905 3.273 1.383 5.055 1.384h0.004zM21.498 18.447c0.299 0.149 0.498 0.224 0.573 0.35 0.075 0.124 0.075 0.722-0.174 1.419s-1.441 1.333-2.015 1.419c-0.515 0.077-1.166 0.109-1.881-0.118-0.433-0.138-0.99-0.322-1.702-0.629-2.996-1.293-4.952-4.308-5.101-4.507s-1.219-1.619-1.219-3.088c0-1.469 0.772-2.191 1.045-2.49s0.597-0.374 0.796-0.374c0.199 0 0.398 0.001 0.572 0.010 0.183 0.009 0.43-0.070 0.672 0.512 0.249 0.597 0.846 2.067 0.921 2.216s0.125 0.324 0.025 0.523c-0.1 0.199-0.15 0.324-0.299 0.498s-0.314 0.389-0.448 0.523c-0.15 0.149-0.305 0.31-0.131 0.609s0.773 1.277 1.661 2.068c1.14 1.017 2.102 1.333 2.401 1.482s0.473 0.124 0.647-0.075c0.174-0.199 0.746-0.871 0.945-1.17 0.199-0.298 0.398-0.249 0.672-0.149 0.273 0.099 1.741 0.822 2.040 0.971z"></path>
</svg>
