<!-- Generated by IcoMoon.io -->
<svg version="1.1" xmlns="http://www.w3.org/2000/svg" width="32" height="32" viewBox="0 0 32 32">
<title>wheelchair</title>
<path d="M20 3c1.645 0 3 1.355 3 3s-1.355 3-3 3-3-1.355-3-3 1.355-3 3-3zM20 5c-0.564 0-1 0.436-1 1s0.436 1 1 1 1-0.436 1-1-0.436-1-1-1zM14.531 7.781c0.404-0.046 0.828 0.057 1.188 0.25v-0.031l1.688 0.938c1.306 0.7 1.911 2.262 1.406 3.656l-1.156 3.219c0.683 0.615 1.256 1.349 1.656 2.188h1.875c0.934 0 1.77 0.648 1.969 1.563l1.313 6.094-1.938 0.438-1.344-6.094h-1.281c0.047 0.327 0.094 0.66 0.094 1 0 3.854-3.146 7-7 7s-7-3.146-7-7c0-3.514 2.617-6.417 6-6.906l1.469-4.156-2.281 0.25-2.5 3.844-1.688-1.063 2.5-3.875c0.325-0.504 0.845-0.838 1.438-0.906zM15.531 10.188l-1.438 3.906c0.647 0.102 1.267 0.295 1.844 0.563l1-2.75c0.172-0.474-0.025-0.981-0.469-1.219zM13 16c-2.773 0-5 2.227-5 5s2.227 5 5 5 5-2.227 5-5-2.227-5-5-5z"></path>
</svg>
