<!-- Generated by IcoMoon.io -->
<svg version="1.1" xmlns="http://www.w3.org/2000/svg" width="32" height="32" viewBox="0 0 32 32">
<title>wikipedia-w</title>
<path d="M30 9.214c0 0.172-0.138 0.311-0.311 0.311h-1.68l-7.619 16.215c-0.050 0.107-0.158 0.178-0.278 0.179h-0.004c-0.118 0-0.226-0.066-0.279-0.172l-3.615-7.17-3.901 7.179c-0.056 0.103-0.156 0.161-0.282 0.163-0.117-0.004-0.223-0.072-0.273-0.178l-7.702-16.216h-1.745c-0.172 0-0.311-0.14-0.311-0.311v-0.822c0-0.172 0.139-0.311 0.311-0.311h6.214c0.172 0 0.311 0.139 0.311 0.311v0.821c0 0.172-0.139 0.311-0.311 0.311h-1.338l5.316 12.263 2.766-5.168-3.507-7.093h-0.844c-0.172 0-0.311-0.139-0.311-0.311v-0.822c0-0.172 0.139-0.311 0.311-0.311h4.596c0.172 0 0.311 0.139 0.311 0.311v0.821c0 0.172-0.139 0.311-0.311 0.311h-0.809l2.017 4.414 2.402-4.414h-1.473c-0.173 0-0.311-0.139-0.311-0.311v-0.821c0-0.172 0.138-0.311 0.311-0.311h4.465c0.173 0 0.311 0.139 0.311 0.311v0.821c0 0.172-0.138 0.311-0.311 0.311h-0.979l-3.506 6.369 2.857 5.874 5.513-12.243h-1.747c-0.172 0-0.311-0.139-0.311-0.311v-0.821c0-0.172 0.139-0.311 0.311-0.311h5.434c0.174 0 0.312 0.14 0.312 0.311v0.821z"></path>
</svg>
