<!-- Generated by IcoMoon.io -->
<svg version="1.1" xmlns="http://www.w3.org/2000/svg" width="32" height="32" viewBox="0 0 32 32">
<title>won</title>
<path d="M4 6h2l1.813 6h5.688l1.5-6h2l1.5 6h5.688l1.813-6h2l-1.813 6h1.813v2h-2.406l-0.594 2h3v2h-3.594l-2.406 8h-2l-2-8h-4l-2 8h-2l-2.406-8h-3.594v-2h3l-0.594-2h-2.406v-2h1.813zM16 10l-0.5 2h1zM8.406 14l0.594 2h3.5l0.5-2h-4.594zM15 14l-0.5 2h3l-0.5-2h-2zM19 14l0.5 2h3.5l0.594-2h-4.594zM9.594 18l1.313 4.375 1.094-4.375h-2.406zM20 18l1.094 4.375 1.313-4.375h-2.406z"></path>
</svg>
