<!-- Generated by IcoMoon.io -->
<svg version="1.1" xmlns="http://www.w3.org/2000/svg" width="32" height="32" viewBox="0 0 32 32">
<title>wordpress</title>
<path d="M16 4c6.618 0 12 5.384 12 12s-5.382 12-12 12c-6.617 0-12-5.384-12-12 0-6.618 5.382-12 12-12zM16 4.563c-6.314 0-11.438 5.125-11.438 11.438s5.125 11.438 11.438 11.438 11.438-5.125 11.438-11.438-5.123-11.438-11.438-11.438zM16 5.719c2.68 0 5.107 1.008 6.938 2.688-0.045-0.001-0.080 0-0.125 0-1.011 0-1.719 0.867-1.719 1.813 0 0.849 0.479 1.588 1 2.438 0.393 0.685 0.844 1.541 0.844 2.813 0 0.883-0.26 2.007-0.781 3.344l-1.031 3.438-3.719-11.063c0.619-0.032 1.188-0.125 1.188-0.125 0.554-0.066 0.492-0.876-0.063-0.844 0 0-1.673 0.125-2.75 0.125-1.011 0-2.719-0.125-2.719-0.125-0.555-0.033-0.617 0.811-0.063 0.844 0 0 0.539 0.093 1.094 0.125l1.594 4.375-2.25 6.75-3.75-11.125c0.62-0.032 1.188-0.125 1.188-0.125 0.554-0.066 0.492-0.876-0.063-0.844 0 0-1.673 0.125-2.75 0.125-0.194 0-0.414 0.007-0.656 0 1.84-2.796 4.997-4.625 8.594-4.625zM25.031 11.063c0.804 1.465 1.251 3.146 1.25 4.938 0 3.797-2.033 7.121-5.094 8.906l3.125-9.094c0.587-1.468 0.781-2.643 0.781-3.688 0-0.38-0.018-0.735-0.063-1.063zM6.594 11.813l4.906 13.438c-3.435-1.669-5.781-5.176-5.781-9.25 0-1.493 0.304-2.909 0.875-4.188zM16.188 16.906l3.156 8.656c0.021 0.050 0.036 0.112 0.063 0.156-1.070 0.376-2.208 0.563-3.406 0.563-1.011 0-1.983-0.135-2.906-0.406z"></path>
</svg>
