<!-- Generated by IcoMoon.io -->
<svg version="1.1" xmlns="http://www.w3.org/2000/svg" width="32" height="32" viewBox="0 0 32 32">
<title>wrench</title>
<path d="M21 3c1.367 0 2.634 0.352 3.688 0.938l1.156 0.625-0.938 0.938-4.281 4.313 1.563 1.563 4.313-4.281 0.938-0.938 0.625 1.156c0.585 1.054 0.938 2.321 0.938 3.688 0 4.43-3.57 8-8 8-0.235 0-0.553-0.037-0.844-0.063l-8.563 8.563c-1.968 1.968-5.125 1.968-7.094 0s-1.968-5.125 0-7.094l8.563-8.563c-0.025-0.291-0.063-0.609-0.063-0.844 0-4.43 3.57-8 8-8zM21 5c-3.37 0-6 2.63-6 6 0 0.4 0.001 0.721 0.063 0.969l0.156 0.531-9.313 9.313c-1.221 1.221-1.231 3.019-0.031 4.25l0.031 0.031c1.232 1.232 3.050 1.232 4.281 0l9.313-9.313 0.531 0.156c0.248 0.062 0.569 0.063 0.969 0.063 3.37 0 6-2.63 6-6 0-0.486-0.209-0.848-0.313-1.281l-4.5 4.5-0.688-0.719-3-3-0.719-0.688 4.5-4.5c-0.433-0.104-0.795-0.313-1.281-0.313z"></path>
</svg>
