<!-- Generated by IcoMoon.io -->
<svg version="1.1" xmlns="http://www.w3.org/2000/svg" width="32" height="32" viewBox="0 0 32 32">
<title>xing</title>
<path d="M21.406 5h2.906c0.423 0 0.97 0.2 1.25 0.656 0.291 0.468 0.23 1.009 0.031 1.406-0.008 0.018-0.022 0.046-0.031 0.063l-6.125 10.813 3.813 6.938c0.009 0.008 0.023 0.022 0.031 0.031 0.199 0.394 0.231 0.971-0.063 1.438-0.273 0.436-0.792 0.656-1.219 0.656h-2.875c-0.442 0-0.877-0.177-1.156-0.406s-0.431-0.475-0.531-0.656c0 0-4.115-7.543-4.125-7.563-0.033-0.057-0.075-0.155-0.094-0.219-0.426 0.753-1 1.781-1 1.781-0.096 0.174-0.225 0.422-0.5 0.656s-0.716 0.406-1.156 0.406h-2.875c-0.481 0-1.003-0.261-1.25-0.656-0.278-0.445-0.245-1.021-0.031-1.438 0.008-0.009 0.022-0.023 0.031-0.031l2.781-4.906-1.656-2.906c-0.009-0.008-0.023-0.022-0.031-0.031-0.193-0.369-0.294-0.954 0-1.438l0.016-0 0.016 0c0.305-0.486 0.807-0.656 1.219-0.656h2.906c0.437 0 0.845 0.179 1.125 0.406s0.432 0.48 0.531 0.656c0 0 1.957 3.387 1.969 3.406 0.049 0.080 0.105 0.22 0.125 0.313 1.903-3.374 4.313-7.656 4.313-7.656 0.094-0.169 0.223-0.42 0.5-0.656s0.73-0.406 1.156-0.406zM21.531 7c-0.013 0.019-0.008-0.011-0.031 0.031 0 0-5.441 9.694-6.125 10.906 0.454 0.834 3.813 7.031 3.813 7.031 0.016 0.029 0.021 0.017 0.031 0.031h1.813l-3.563-6.5v-0.031l-0.031-0.063h0.031c-0.13-0.286-0.146-0.767-0.031-0.969l5.875-10.438h-1.781zM9.781 10.938l1.438 2.5c0.020 0.033 0.048 0.089 0.063 0.125 0.022 0.051 0.094 0.204 0.094 0.406s-0.072 0.324-0.094 0.375c-0.006 0.035-0.020 0.091-0.031 0.125l-2.594 4.531h1.781c0.012-0.018 0.011 0.005 0.031-0.031 0 0 2.333-4.127 2.844-5.031-0.447-0.778-1.688-2.938-1.688-2.938-0.009-0.008-0.023-0.022-0.031-0.031-0.026-0.047-0.024-0.022-0.031-0.031h-1.781z"></path>
</svg>
