<!-- Generated by IcoMoon.io -->
<svg version="1.1" xmlns="http://www.w3.org/2000/svg" width="32" height="32" viewBox="0 0 32 32">
<title>yelp</title>
<path d="M14.344 4c0.211-0.007 0.37-0.001 0.5 0.031 0.342 0.085 0.604 0.322 0.688 0.625 0.058 0.335 0.523 7.535 0.594 9.156 0.067 1.385-0.524 1.565-0.719 1.625s-0.798 0.248-1.531-0.938c0 0-4.945-7.761-5.063-8-0.070-0.271 0.043-0.596 0.281-0.844 0.647-0.668 3.776-1.606 5.25-1.656zM21.813 11.094c0.147-0.005 0.315 0.019 0.469 0.094 0.869 0.423 2.614 3.028 2.719 4.031 0.002 0.012 0 0.020 0 0.031 0.021 0.341-0.098 0.646-0.344 0.813-0.162 0.105-0.313 0.134-4.406 1.125-0.656 0.156-1.016 0.269-1.219 0.344 0.005-0.006 0-0.031 0-0.031-0.407 0.114-0.83-0.096-1.094-0.5-0.254-0.389-0.261-0.84 0-1.156 0.012-0.012 1-1.375 1-1.375 2.19-2.995 2.311-3.147 2.469-3.25 0.127-0.085 0.259-0.12 0.406-0.125zM8.063 15.125c0.196 0.002 0.378 0.059 4.25 1.656 0.003 0 1.125 0.469 1.125 0.469 0.407 0.152 0.651 0.581 0.625 1.063-0.028 0.469-0.288 0.837-0.688 0.938-0.007 0.004-1.594 0.5-1.594 0.5-3.6 1.158-3.745 1.196-3.938 1.188-0.298-0.010-0.563-0.173-0.719-0.469-0.113-0.215-0.17-0.599-0.219-1.031-0.135-1.305 0.017-3.249 0.406-3.875 0.183-0.288 0.454-0.448 0.75-0.438zM19.094 19.531c0.099 0.002 0.186 0.026 0.281 0.063 0.020 0.011 1.594 0.531 1.594 0.531 3.599 1.183 3.721 1.229 3.875 1.344 0.233 0.186 0.328 0.474 0.281 0.813-0.141 0.971-2.12 3.48-3.031 3.844-0.314 0.125-0.606 0.093-0.844-0.094-0.155-0.121-0.331-0.339-2.469-3.813l-0.625-1.031c-0.243-0.371-0.211-0.878 0.094-1.25 0.221-0.271 0.546-0.413 0.844-0.406zM14.719 20.656c0.21-0.047 0.464-0.023 0.688 0.063 0.435 0.168 0.682 0.56 0.656 0.969-0.001 0.018 0 1.688 0 1.688-0.011 3.785-0.032 3.911-0.094 4.094-0.106 0.281-0.321 0.439-0.656 0.5-0.962 0.165-3.996-0.941-4.625-1.688-0.128-0.154-0.203-0.299-0.219-0.469-0.013-0.118 0.021-0.264 0.063-0.375 0.065-0.189 0.161-0.315 2.875-3.5 0.002 0 0.781-0.938 0.781-0.938 0.135-0.169 0.321-0.297 0.531-0.344z"></path>
</svg>
