<!-- Generated by IcoMoon.io -->
<svg version="1.1" xmlns="http://www.w3.org/2000/svg" width="32" height="32" viewBox="0 0 32 32">
<title>youtube-play</title>
<path d="M16 6c3.766 0 7.094 0.392 9.125 0.688 1.679 0.245 3.035 1.512 3.344 3.188 0.264 1.429 0.531 3.518 0.531 6.125s-0.268 4.697-0.531 6.125c-0.309 1.677-1.664 2.944-3.344 3.188-2.038 0.296-5.379 0.688-9.125 0.688s-7.088-0.392-9.125-0.688c-1.679-0.243-3.034-1.512-3.344-3.188-0.263-1.426-0.531-3.513-0.531-6.125s0.268-4.698 0.531-6.125c0.309-1.675 1.666-2.943 3.344-3.188 2.031-0.296 5.358-0.688 9.125-0.688zM16 8c-3.633 0-6.881 0.37-8.844 0.656-0.846 0.123-1.503 0.761-1.656 1.594-0.243 1.32-0.5 3.271-0.5 5.75s0.257 4.43 0.5 5.75c0.154 0.833 0.811 1.471 1.656 1.594 1.971 0.286 5.233 0.656 8.844 0.656s6.872-0.37 8.844-0.656c0.846-0.123 1.503-0.76 1.656-1.594 0.243-1.322 0.5-3.279 0.5-5.75s-0.256-4.429-0.5-5.75c-0.153-0.833-0.811-1.47-1.656-1.594-1.963-0.286-5.212-0.656-8.844-0.656zM13 10.281l1.5 0.844 7 4 1.5 0.875-1.5 0.875-7 4-1.5 0.844v-11.438zM15 13.719v4.563l3.969-2.281z"></path>
</svg>
