<!-- Generated by IcoMoon.io -->
<svg version="1.1" xmlns="http://www.w3.org/2000/svg" width="32" height="32" viewBox="0 0 32 32">
<title>youtube-square</title>
<path d="M8.781 4h1.406l0.906 3.594h0.063l0.875-3.594h1.406l-1.625 5.25v3.719h-1.375v-3.531zM15.219 6.188c0.512 0 0.926 0.147 1.25 0.469 0.325 0.319 0.469 0.746 0.469 1.25v3.438c0 0.567-0.151 0.989-0.469 1.313-0.321 0.322-0.752 0.5-1.313 0.5-0.541 0-0.955-0.167-1.281-0.5-0.323-0.332-0.5-0.781-0.5-1.344v-3.438c0-0.513 0.168-0.917 0.5-1.219 0.332-0.304 0.785-0.469 1.344-0.469zM18 6.344h1.219v5.094c0 0.154 0.041 0.274 0.094 0.344 0.050 0.069 0.136 0.094 0.25 0.094 0.091 0 0.207-0.032 0.344-0.125 0.139-0.092 0.26-0.232 0.375-0.375v-5.031h1.219v6.625h-1.219v-0.719c-0.227 0.27-0.472 0.485-0.719 0.625-0.244 0.139-0.458 0.188-0.688 0.188-0.284 0-0.511-0.084-0.656-0.281s-0.219-0.478-0.219-0.875v-5.563zM15.156 7.344c-0.151 0-0.281 0.036-0.375 0.125s-0.125 0.201-0.125 0.344c-0.001 0 0 3.625 0 3.625 0 0.181 0.034 0.306 0.125 0.406 0.086 0.098 0.213 0.156 0.375 0.156 0.168 0 0.306-0.054 0.406-0.156 0.098-0.099 0.125-0.228 0.125-0.406v-3.625c0-0.143-0.025-0.255-0.125-0.344-0.099-0.088-0.243-0.125-0.406-0.125zM15 14.531c2.377-0.002 4.694 0.030 6.969 0.125 1.593 0 2.906 1.299 2.906 2.875 0.096 1.246 0.13 2.501 0.125 3.75 0.004 1.247-0.030 2.47-0.125 3.719 0 1.578-1.314 2.875-2.906 2.875-2.275 0.094-4.592 0.13-6.969 0.125-2.375 0.004-4.693-0.031-6.969-0.125-1.592 0-2.906-1.297-2.906-2.875-0.096-1.249-0.129-2.472-0.125-3.719-0.003-1.249 0.031-2.504 0.125-3.75 0-1.575 1.315-2.875 2.906-2.875 2.276-0.096 4.594-0.128 6.969-0.125zM6.563 16.594c-0.076 0-0.156 0.049-0.156 0.125v1.281c0 0.076 0.080 0.125 0.156 0.125h1.25v7.438c0 0.076 0.080 0.125 0.156 0.125h1.375c0.076 0 0.125-0.049 0.125-0.125v-7.438h1.281c0.076 0 0.125-0.049 0.125-0.125v-1.281c0-0.076-0.049-0.125-0.125-0.125h-4.188zM15.375 16.594c-0.076 0-0.125 0.049-0.125 0.125v8.844c0 0.076 0.049 0.125 0.125 0.125h1.219c0.076 0 0.156-0.049 0.156-0.125v-0.156c0.101 0.090 0.201 0.162 0.313 0.219 0.207 0.104 0.433 0.156 0.688 0.156 0.402 0 0.721-0.126 0.938-0.406 0.21-0.268 0.313-0.661 0.313-1.156v-3.625c0-0.56-0.125-1.010-0.344-1.313-0.229-0.316-0.541-0.469-0.969-0.469-0.211 0-0.418 0.073-0.625 0.188-0.109 0.063-0.212 0.127-0.313 0.219v-2.5c0-0.076-0.080-0.125-0.156-0.125h-1.219zM21.625 18.719c-0.581 0-1.070 0.211-1.438 0.594s-0.563 0.869-0.563 1.469v2.938c0 0.659 0.167 1.18 0.5 1.563 0.337 0.389 0.824 0.594 1.406 0.594 0.645 0 1.142-0.196 1.469-0.563 0.325-0.362 0.469-0.891 0.469-1.594v-0.5c0-0.076-0.049-0.125-0.125-0.125h-1.25c-0.076 0-0.125 0.049-0.125 0.125v0.469c0 0.476-0.068 0.618-0.094 0.656-0.054 0.073-0.159 0.125-0.313 0.125-0.19 0-0.276-0.097-0.313-0.156-0.044-0.073-0.094-0.226-0.094-0.625v-1.094h2.188c0.076 0 0.156-0.049 0.156-0.125v-1.688c0-0.651-0.179-1.144-0.5-1.5-0.323-0.358-0.782-0.563-1.375-0.563zM10.719 18.906c-0.076 0-0.125 0.049-0.125 0.125v5.469c0 0.415 0.091 0.718 0.25 0.938 0.168 0.231 0.394 0.344 0.719 0.344 0.256 0 0.517-0.067 0.781-0.219 0.168-0.095 0.338-0.218 0.5-0.375v0.375c0 0.076 0.049 0.125 0.125 0.125h1.219c0.076 0 0.156-0.049 0.156-0.125h-0.031v-6.531c0-0.076-0.049-0.125-0.125-0.125h-1.219c-0.076 0-0.125 0.049-0.125 0.125v4.906c-0.094 0.112-0.195 0.202-0.313 0.281-0.144 0.098-0.246 0.125-0.281 0.125-0.103 0-0.117-0.052-0.125-0.063-0.019-0.025-0.031-0.086-0.031-0.25v-5c0-0.076-0.080-0.125-0.156-0.125h-1.219zM17.188 20.125c0.080 0.014 0.143 0.064 0.188 0.125 0.067 0.088 0.094 0.219 0.094 0.406v3.375c0 0.217-0.024 0.327-0.063 0.375-0.015 0.021-0.064 0.063-0.219 0.063-0.082 0-0.176 0.006-0.25-0.031-0.066-0.034-0.114-0.082-0.188-0.156v-3.969c0.059-0.060 0.099-0.097 0.156-0.125 0.1-0.050 0.201-0.077 0.281-0.063zM21.563 20.156c0.14 0 0.225 0.045 0.281 0.125 0.046 0.067 0.125 0.2 0.125 0.5v0.531h-0.813v-0.531c0-0.305 0.051-0.44 0.094-0.5 0.060-0.082 0.166-0.125 0.313-0.125z"></path>
</svg>
